<?xml version="1.0" encoding="UTF-8" standalone="no"?>
<!-- Creator: CorelDRAW -->

<svg
   xml:space="preserve"
   width="120.76201mm"
   height="111.53999mm"
   style="clip-rule:evenodd;fill-rule:evenodd;image-rendering:optimizeQuality;shape-rendering:geometricPrecision;text-rendering:geometricPrecision"
   viewBox="0 0 129.08473 119.22705"
   version="1.1"
   id="svg1"
   sodipodi:docname="peace_sign.svg"
   inkscape:version="1.3.2 (091e20e, 2023-11-25, custom)"
   xmlns:inkscape="http://www.inkscape.org/namespaces/inkscape"
   xmlns:sodipodi="http://sodipodi.sourceforge.net/DTD/sodipodi-0.dtd"
   xmlns="http://www.w3.org/2000/svg"
   xmlns:svg="http://www.w3.org/2000/svg"><sodipodi:namedview
   id="namedview1"
   pagecolor="#ffffff"
   bordercolor="#000000"
   borderopacity="0.25"
   inkscape:showpageshadow="2"
   inkscape:pageopacity="0.0"
   inkscape:pagecheckerboard="0"
   inkscape:deskcolor="#d1d1d1"
   inkscape:document-units="mm"
   inkscape:zoom="0.83972969"
   inkscape:cx="230.43129"
   inkscape:cy="207.80497"
   inkscape:window-width="1920"
   inkscape:window-height="1009"
   inkscape:window-x="-8"
   inkscape:window-y="-8"
   inkscape:window-maximized="1"
   inkscape:current-layer="__x0023_Layer_x0020_1" />
 <defs
   id="defs1"><inkscape:path-effect
   effect="powerclip"
   id="path-effect4"
   is_visible="true"
   lpeversion="1"
   inverse="true"
   flatten="false"
   hide_clip="false"
   message="Utilice la regla de relleno parimpar en el diálogo &lt;b&gt;Relleno y borde&lt;/b&gt; si el resultado no está aplanada después de convertir el recorte en trayectos." />
  <style
   type="text/css"
   id="style1">
   <![CDATA[
    .fil1 {fill:#1F1A17}
    .fil0 {fill:#DA251D}
   ]]>
  </style>
 <clipPath
   clipPathUnits="userSpaceOnUse"
   id="clipPath2"><rect
     style="fill:#1a1a1a;stroke-width:0.282818"
     id="rect2"
     width="129.42137"
     height="129.42137"
     x="52.436596"
     y="-0.35873675" /></clipPath><clipPath
   clipPathUnits="userSpaceOnUse"
   id="clipPath3"><rect
     style="fill:#1a1a1a;stroke-width:0.282449"
     id="rect4"
     width="129.08467"
     height="118.91594"
     x="52.436596"
     y="0.31485584" /></clipPath><clipPath
   clipPathUnits="userSpaceOnUse"
   id="clipPath4"><path
     d="m 107.99389,69.169407 0.33032,3.850629 0.13036,27.273144 0.09,0.54962 c 0,1.88353 -6.06636,-0.78226 -7.10193,-1.433978 -1.984327,-1.248919 -4.98434,-2.148731 -7.300788,-3.162921 -2.849178,-1.247427 -10.764017,-6.780067 -12.030255,-9.173903 0.7965,-1.18999 13.060728,-10.258725 14.868375,-10.741556 v 6.885399 l 0.255201,5.797216 0.295522,-0.01326 c 0,-2.392028 0.204231,-5.192826 0.278951,-7.143913 0.158842,-4.147185 0.07425,-3.690007 0.822491,-6.902523 l 1.090396,0.309331 0.01106,2.720465 0.308227,2.473552 c 1.04273,-0.7834 0.24249,-1.02 0.24249,-2.749189 v -0.550721 l 0.27509,-3.029797 c 1.43139,-0.95882 1.14053,-1.452473 3.46949,-2.864082 1.1912,-0.722051 2.55774,-1.976364 3.96497,-2.093518 z"
     style="clip-rule:evenodd;display:none;fill:#ececec;fill-rule:evenodd;stroke-width:1;image-rendering:optimizeQuality;shape-rendering:geometricPrecision;text-rendering:geometricPrecision"
     id="path4" /><path
     id="lpe_path-effect4"
     style="clip-rule:evenodd;fill:#ececec;fill-rule:evenodd;stroke-width:1;image-rendering:optimizeQuality;shape-rendering:geometricPrecision;text-rendering:geometricPrecision"
     class="powerclip"
     d="M 47.099801,-4.6851442 H 186.5216 V 152.94374 H 47.099801 Z m 60.894089,73.8545512 -3e-5,-5e-6 c -1.40723,0.117154 -2.77377,1.371467 -3.96497,2.093518 -2.32896,1.411609 -2.0381,1.905262 -3.46949,2.864082 l -0.27509,3.029797 v 0.550721 c 0,1.729189 0.80024,1.965789 -0.24249,2.749189 l -0.308227,-2.473552 -0.01106,-2.720465 -1.090396,-0.309331 c -0.748241,3.212516 -0.663649,2.755338 -0.822491,6.902523 -0.07472,1.951087 -0.278951,4.751885 -0.278951,7.143913 l -0.295522,0.01326 -0.255201,-5.797216 v -6.885399 c -1.807647,0.482831 -14.071875,9.551566 -14.868375,10.741556 1.266238,2.393836 9.181077,7.926476 12.030255,9.173903 2.316448,1.01419 5.316461,1.914002 7.300788,3.162921 1.03557,0.651718 7.10193,3.317508 7.10193,1.433978 l -0.09,-0.54962 -0.13036,-27.273144 z" /></clipPath></defs>
 <g
   id="__x0023_Layer_x0020_1"
   inkscape:label="__x0023_Layer 1"
   inkscape:groupmode="layer"
   transform="translate(-52.436596,-0.31485583)">
  <metadata
   id="CorelCorpID_0Corel-Layer" />
  <g
   id="g1"
   clip-path="url(#clipPath3)"
   transform="matrix(1,0,0,1.0026166,0,-8.2386465e-4)"><path
     d="m 111.02203,0.31485583 c -2.5824,0 -5.28734,1.65216447 -8.53535,1.65216447 -2.08931,1.3994286 -4.679304,1.6871203 -7.384202,2.5287895 -1.336358,0.4159155 -2.318017,0.7067319 -3.932936,1.0235576 -1.577188,0.3094507 -1.68951,0.9055459 -3.501528,1.4549653 -0.48037,0.1455859 -2.434128,1.513769 -3.004387,1.9526585 -1.255659,0.9666211 -2.260773,0.8346369 -3.430272,1.5262218 -1.240258,0.733491 -1.025035,1.446021 -2.587894,2.3686 -0.988961,0.583841 -2.040872,1.137438 -2.803321,1.878087 -3.490437,3.390817 -6.869069,5.51736 -10.179786,9.371656 -1.445709,1.683119 -2.560635,4.32522 -3.988174,5.925919 -0.957642,1.073828 -2.857917,5.470601 -4.067716,5.571291 l 0.536912,0.316512 -0.973844,1.434528 -0.450188,1.545003 c -1.017609,0.731566 -3.220072,5.771986 -3.520862,7.717834 -0.447768,2.896657 -1.098681,7.048859 -1.098681,10.193596 0,5.217374 1.860002,23.956018 5.231578,24.236717 1.332189,5.719765 5.506663,7.728857 5.506663,12.394272 v 1.652165 l 0.07954,6.333017 -0.07954,0.82802 h 0.550721 v -1.65216 l 0.409865,-6.067884 c 0.539589,0.300578 2.171398,2.33126 2.916007,3.016539 0.9632,0.886453 2.016304,1.654834 2.935893,2.571325 1.527698,1.52246 4.828015,3.90628 5.853004,5.43761 l 0.120418,3.85229 -0.09832,1.65769 0.528626,-0.002 v -4.68196 c 2.907877,0.0649 3.579756,3.4523 4.130135,3.8556 0.163865,-0.61377 0.0641,-0.8258 0.825806,-0.8258 h 0.550722 c 0.176264,0 3.88169,1.76845 4.07324,1.98469 0.891583,1.00617 0.607617,3.64402 0.607617,4.62507 v 0.55127 l 0.282817,3.8766 c 0.267871,-2.72798 0.204195,-7.47671 2.195153,-8.00839 l 0.546855,4.22956 c 0.929454,-0.70683 0.79266,-2.57684 2.481837,-2.57684 h 1.37708 c 1.389589,0 2.611956,0.36243 2.753055,1.65271 h 1.652165 c 0.617405,0 0.604506,0.21787 1.101443,0.55073 v 1.37708 c 0.580848,0.38898 1.927249,2.34617 1.927249,3.30488 v 3.85615 h 0.55072 l 0.49217,-6.61473 1.45496,0.51316 0.30436,2.83149 0.83907,-4.43284 5.45032,1.06609 0.78769,-0.56398 2.75692,0.71368 c 1.27019,1.73015 0.85508,4.05377 0.85508,7.03785 h 0.27564 c 0,-6.20195 -1.11486,-6.8854 4.95594,-6.8854 l 0.79322,-0.59104 3.88046,-0.30602 0.28226,0.0707 c 1.17078,0 1.10145,5.13385 1.10145,6.33467 h 0.27563 l 0.32314,-6.60755 1.87478,-0.30215 0.26514,0.85619 -0.0646,2.20233 0.35463,-0.005 v -2.75471 l 2.43599,-0.94402 c 0.27375,0.55552 0.86834,1.36141 0.86834,1.77038 v 7.43667 l -0.24416,5.23434 0.19168,17.07844 0.37396,-0.003 0.12318,-27.26596 -0.2795,-0.0166 0.6402,-4.39362 1.12189,0.003 c 1.75654,0 1.10144,4.81325 1.10144,6.61031 0,2.89548 0.27508,4.95953 0.27508,6.8854 v 2.47908 h 0.55072 l 0.12981,-11.29062 -0.12981,-2.48074 c 0,-0.76812 0.87871,-2.75416 1.65217,-2.75416 h 0.55072 c 1.92907,0 1.58801,13.8583 1.10144,14.8728 l 0.64684,0.76504 0.48112,-7.09861 -0.0265,-0.27675 -0.0552,-7.98739 1.67702,-2.49896 0.70318,0.01 c 0.23345,-0.46466 1.39977,-2.08173 2.66964,-3.79595 l -0.29883,-0.31154 2.07086,-2.05871 c 1.06379,-1.41225 1.89687,-2.50228 1.89687,-2.50228 l 1.48369,-1.54997 c -0.54173,-1.17485 0.16427,-1.29887 -1.61184,-1.33842 -0.0396,-1.77665 -0.16341,-1.07036 -1.37653,-1.65271 -0.91777,0.4405 -1.54165,0.9028 -2.20288,0 1.07298,-1.46495 2.03206,0.12495 2.20288,-1.927803 l -1.09094,0.308779 1.8118,-1.321289 0.42202,-1.457175 c -0.82296,0.172844 -0.51222,0.266246 -1.14288,0.266246 -0.38588,0 -0.55072,-0.375597 -0.55072,-0.826358 0,-1.037279 0.18091,-0.520944 0.27509,-1.652717 -1.54042,0.168568 -7.34101,3.623818 -9.8815,4.437258 -3.37992,1.082278 -6.74482,2.999419 -11.31935,2.999419 h -0.8258 l -0.47505,-12.1214 -0.6264,0.0028 0.46124,-20.933494 c 3.93137,0.897141 11.12954,6.9158 15.13794,8.909868 3.56365,1.772908 4.44425,2.779211 7.36762,4.748799 1.76564,1.189489 5.44275,3.74328 7.59576,4.24503 l 0.30215,3.302119 0.24857,0.0033 c 0,-1.765098 -0.51013,-3.77444 0.82581,-4.131239 l 0.6275,1.230699 0.1983,-0.955615 c 0,-1.028729 0.75234,-3.127893 1.10145,-3.855603 l 2.647,2.054849 c -0.28893,-0.717884 -2.38611,-3.27337 -1.98249,-4.182059 0.46145,-1.038559 3.12936,1.094122 4.01634,1.300852 l 0.3353,-1.085977 0.733,0.575027 1.67592,-0.376723 0.31817,-1.029633 1.3572,-0.212666 c -0.63932,-2.758017 -5.14566,-3.375859 -6.62247,-5.581786 l -4.40798,-1.369347 0.003,-1.109729 -0.79266,0.591045 -1.39863,-0.890986 -0.53525,-6.890924 -0.38004,0.03646 0.53084,6.61142 c -0.89404,-0.238903 -15.25771,-8.210148 -16.81441,-9.255656 -0.94289,-0.633333 -2.8648,-2.055742 -3.81528,-2.793932 -1.2113,-0.940753 -2.68432,-1.734452 -3.99811,-2.610541 -1.28366,-0.856095 -2.75743,-1.960212 -3.91913,-2.689532 -1.98958,-1.248918 -1.27778,-2.270209 -1.36714,-4.416267 l -0.78382,-19.83205 -0.0425,-1.099786 0.0624,-11.843551 h 1.31466 c 1.84516,0 6.43904,1.503995 8.25972,1.928354 v 1.101443 c 0,0.73659 0.39783,0.814888 0.82636,1.101996 0,-0.75038 -0.17924,-1.928354 0.55072,-1.928354 0.31939,0 5.42612,2.626067 7.15883,3.029797 0.10743,1.291248 0.55072,1.362001 0.55072,2.754159 v 1.652717 c 1.7619,-0.638036 -0.67468,-1.471638 1.65161,-3.029796 2.51228,1.329728 3.95251,3.317111 6.38439,4.63059 3.07399,1.660238 1.59914,5.422611 1.87588,8.589488 l 0.46234,4.941579 -0.1867,0.291656 0.32645,5.229368 0.49935,0.0033 v -0.825806 l -0.68771,-16.244904 c 1.39536,0.837389 1.78916,0.965648 1.78916,3.024273 l 1.08542,-0.335294 0.27619,0.892092 -0.30105,0.01878 0.89099,11.562389 0.52642,10.722222 -0.34524,13.217869 c 1.03941,-1.113489 0.89211,-11.552321 0.88933,-13.775219 -0.002,-1.414278 0.4274,-2.06021 0.17621,-3.462309 -0.18663,-1.040909 -0.44106,-2.38089 -0.45571,-3.406519 -0.0183,-1.278749 0.014,-2.5909 0.0177,-3.873279 0.006,-2.030618 -0.5579,-1.797317 -0.5579,-3.022616 v -6.8854 c 1.97076,0.713608 3.20571,4.54402 4.45217,6.288279 1.18575,1.659278 0.98529,1.804878 1.73502,3.772746 0.22885,0.60073 0.76731,1.051225 0.92027,1.833344 0.20844,1.065709 -0.0275,1.09701 0.35462,2.124449 1.12471,3.024387 1.26991,5.338426 1.61571,9.124742 0.18525,2.027948 0.51187,2.919215 0.29884,4.675333 -0.36482,3.006757 0.20993,2.147672 0.26017,4.40522 l 0.79322,-0.590493 0.18449,0.631921 0.98323,-2.229952 1.44116,0.64794 1.18927,-0.781616 0.39882,1.209709 c 0.7475,-0.171346 0.4371,-0.264589 1.06775,-0.264589 0.56364,0 0.50625,0.567747 0.55072,1.101995 l 1.65161,0.09169 0.93186,2.993892 c 0.16953,-1.114668 0.40902,-3.117326 1.12188,-3.510366 2.88469,-1.590228 0.5052,-1.177942 2.07639,-2.329381 l -0.30877,-1.0915 c 1.98037,0.442959 2.23602,2.013984 2.23602,4.396382 1.79161,-0.948235 1.94129,0.404774 1.9383,-1.915097 -0.002,-1.653828 0.44519,-2.616251 0.20714,-4.08484 -0.42917,-2.646747 -0.0315,-5.460015 -0.55182,-7.712863 -0.50977,-2.207418 -0.92401,-5.10263 -1.55605,-7.256598 -0.76727,-2.614568 -1.5455,-3.740407 -2.35424,-6.182774 -0.41068,-1.240159 -5.61048,-9.400819 -6.60756,-10.742108 -0.9199,-1.237268 -3.55871,-4.050232 -3.9727,-4.839941 -0.0556,-0.106037 -4.05076,-4.378827 -4.11799,-4.418477 -1.64548,-0.970148 -1.04131,0.310986 -2.63816,-1.768164 -0.2667,-0.347077 -2.00501,-1.763271 -2.37357,-2.032201 -1.28708,-0.939256 -3.26514,-2.844467 -4.47868,-4.058326 C 150.81331,8.8657199 144.41098,6.1755923 141.34983,4.9564936 137.17218,3.2926152 131.94205,3.0078867 127.36857,1.5902981 124.52963,0.710367 115.11976,0.31485583 111.29767,0.31485583 Z m -4.6803,15.69804817 h 0.27508 c 0.63441,0 0.82636,0.191744 0.82636,0.826359 v 0.550721 l -0.27067,3.856708 -0.005,6.609763 c 0,5.391495 0.73092,13.600541 0.83354,18.990225 0.10465,5.499785 0.61,5.316197 -2.87071,7.615645 -2.00261,1.322998 -4.20949,3.00728 -6.411459,4.052249 -3.816196,1.811098 -24.074239,16.713873 -25.142618,16.713873 H 72.47484 c -0.13041,-1.566708 -1.52911,-3.65993 -2.092963,-5.893328 -0.438578,-1.737518 -0.647228,-5.220743 -1.120224,-6.590981 -0.951659,-2.756898 -0.265856,-10.973019 0.569503,-13.846476 1.153578,-3.967696 2.149411,-8.62038 4.590818,-11.106677 3.208787,-3.267677 2.878579,-5.703333 7.139494,-8.55745 l 0.333085,4.404115 c 2.627827,-3.864026 -1.887349,-4.731945 5.114474,-9.145181 1.929388,-1.216109 6.776673,-4.701938 9.14518,-4.899046 l 0.851216,6.056279 c 0.379358,2.960297 -0.281517,10.497999 -0.196647,13.547086 0.05312,1.906999 0.03135,11.98663 1.27268,12.896385 L 97.569954,30.339949 98.07759,20.144144 99.363527,18.157238 c 1.878943,1.367399 0.920813,10.280568 0.920813,13.279735 1.43599,-0.383529 1.10145,-5.310318 1.10145,-7.161036 v -0.826359 c 0,-0.838889 -0.12546,-1.007626 -0.27564,-1.652717 l 0.98047,-4.378705 0.45129,-0.523655 1.87257,-0.05469 v -5.52e-4 c 0.59645,-0.399561 0.91648,-0.826359 1.92725,-0.826359 z"
     style="clip-rule:evenodd;fill:#da251d;fill-rule:evenodd;image-rendering:optimizeQuality;shape-rendering:geometricPrecision;text-rendering:geometricPrecision"
     id="path1"
     inkscape:transform-center-x="-0.33679639"
     inkscape:transform-center-y="12.798264"
     clip-path="url(#clipPath4)"
     inkscape:path-effect="#path-effect4"
     inkscape:original-d="m 111.02203,0.31485583 c -2.5824,0 -5.28734,1.65216447 -8.53535,1.65216447 -2.08931,1.3994286 -4.679304,1.6871203 -7.384202,2.5287895 -1.336358,0.4159155 -2.318017,0.7067319 -3.932936,1.0235576 -1.577188,0.3094507 -1.68951,0.9055459 -3.501528,1.4549653 -0.48037,0.1455859 -2.434128,1.513769 -3.004387,1.9526585 -1.255659,0.9666211 -2.260773,0.8346369 -3.430272,1.5262218 -1.240258,0.733491 -1.025035,1.446021 -2.587894,2.3686 -0.988961,0.583841 -2.040872,1.137438 -2.803321,1.878087 -3.490437,3.390817 -6.869069,5.51736 -10.179786,9.371656 -1.445709,1.683119 -2.560635,4.32522 -3.988174,5.925919 -0.957642,1.073828 -2.857917,5.470601 -4.067716,5.571291 l 0.536912,0.316512 -0.973844,1.434528 -0.450188,1.545003 c -1.017609,0.731566 -3.220072,5.771986 -3.520862,7.717834 -0.447768,2.896657 -1.098681,7.048859 -1.098681,10.193596 0,5.217374 1.860002,23.956018 5.231578,24.236717 1.332189,5.719765 5.506663,7.728857 5.506663,12.394272 v 1.652165 l 0.07954,6.333017 -0.07954,0.82802 h 0.550721 v -1.65216 l 0.409865,-6.067884 c 0.539589,0.300578 2.171398,2.33126 2.916007,3.016539 0.9632,0.886453 2.016304,1.654834 2.935893,2.571325 1.527698,1.52246 4.828015,3.90628 5.853004,5.43761 l 0.120418,3.85229 -0.09832,1.65769 0.528626,-0.002 v -4.68196 c 2.907877,0.0649 3.579756,3.4523 4.130135,3.8556 0.163865,-0.61377 0.0641,-0.8258 0.825806,-0.8258 h 0.550722 c 0.176264,0 3.88169,1.76845 4.07324,1.98469 0.891583,1.00617 0.607617,3.64402 0.607617,4.62507 v 0.55127 l 0.282817,3.8766 c 0.267871,-2.72798 0.204195,-7.47671 2.195153,-8.00839 l 0.546855,4.22956 c 0.929454,-0.70683 0.79266,-2.57684 2.481837,-2.57684 h 1.37708 c 1.389589,0 2.611956,0.36243 2.753055,1.65271 h 1.652165 c 0.617405,0 0.604506,0.21787 1.101443,0.55073 v 1.37708 c 0.580848,0.38898 1.927249,2.34617 1.927249,3.30488 v 3.85615 h 0.55072 l 0.49217,-6.61473 1.45496,0.51316 0.30436,2.83149 0.83907,-4.43284 5.45032,1.06609 0.78769,-0.56398 2.75692,0.71368 c 1.27019,1.73015 0.85508,4.05377 0.85508,7.03785 h 0.27564 c 0,-6.20195 -1.11486,-6.8854 4.95594,-6.8854 l 0.79322,-0.59104 3.88046,-0.30602 0.28226,0.0707 c 1.17078,0 1.10145,5.13385 1.10145,6.33467 h 0.27563 l 0.32314,-6.60755 1.87478,-0.30215 0.26514,0.85619 -0.0646,2.20233 0.35463,-0.005 v -2.75471 l 2.43599,-0.94402 c 0.27375,0.55552 0.86834,1.36141 0.86834,1.77038 v 7.43667 l -0.24416,5.23434 0.19168,17.07844 0.37396,-0.003 0.12318,-27.26596 -0.2795,-0.0166 0.6402,-4.39362 1.12189,0.003 c 1.75654,0 1.10144,4.81325 1.10144,6.61031 0,2.89548 0.27508,4.95953 0.27508,6.8854 v 2.47908 h 0.55072 l 0.12981,-11.29062 -0.12981,-2.48074 c 0,-0.76812 0.87871,-2.75416 1.65217,-2.75416 h 0.55072 c 1.92907,0 1.58801,13.8583 1.10144,14.8728 l 0.64684,0.76504 0.48112,-7.09861 -0.0265,-0.27675 -0.0552,-7.98739 1.67702,-2.49896 0.70318,0.01 c 0.23345,-0.46466 1.39977,-2.08173 2.66964,-3.79595 l -0.29883,-0.31154 2.07086,-2.05871 c 1.06379,-1.41225 1.89687,-2.50228 1.89687,-2.50228 l 1.48369,-1.54997 c -0.54173,-1.17485 0.16427,-1.29887 -1.61184,-1.33842 -0.0396,-1.77665 -0.16341,-1.07036 -1.37653,-1.65271 -0.91777,0.4405 -1.54165,0.9028 -2.20288,0 1.07298,-1.46495 2.03206,0.12495 2.20288,-1.927803 l -1.09094,0.308779 1.8118,-1.321289 0.42202,-1.457175 c -0.82296,0.172844 -0.51222,0.266246 -1.14288,0.266246 -0.38588,0 -0.55072,-0.375597 -0.55072,-0.826358 0,-1.037279 0.18091,-0.520944 0.27509,-1.652717 -1.54042,0.168568 -7.34101,3.623818 -9.8815,4.437258 -3.37992,1.082278 -6.74482,2.999419 -11.31935,2.999419 h -0.8258 l -0.47505,-12.1214 -0.6264,0.0028 0.46124,-20.933494 c 3.93137,0.897141 11.12954,6.9158 15.13794,8.909868 3.56365,1.772908 4.44425,2.779211 7.36762,4.748799 1.76564,1.189489 5.44275,3.74328 7.59576,4.24503 l 0.30215,3.302119 0.24857,0.0033 c 0,-1.765098 -0.51013,-3.77444 0.82581,-4.131239 l 0.6275,1.230699 0.1983,-0.955615 c 0,-1.028729 0.75234,-3.127893 1.10145,-3.855603 l 2.647,2.054849 c -0.28893,-0.717884 -2.38611,-3.27337 -1.98249,-4.182059 0.46145,-1.038559 3.12936,1.094122 4.01634,1.300852 l 0.3353,-1.085977 0.733,0.575027 1.67592,-0.376723 0.31817,-1.029633 1.3572,-0.212666 c -0.63932,-2.758017 -5.14566,-3.375859 -6.62247,-5.581786 l -4.40798,-1.369347 0.003,-1.109729 -0.79266,0.591045 -1.39863,-0.890986 -0.53525,-6.890924 -0.38004,0.03646 0.53084,6.61142 c -0.89404,-0.238903 -15.25771,-8.210148 -16.81441,-9.255656 -0.94289,-0.633333 -2.8648,-2.055742 -3.81528,-2.793932 -1.2113,-0.940753 -2.68432,-1.734452 -3.99811,-2.610541 -1.28366,-0.856095 -2.75743,-1.960212 -3.91913,-2.689532 -1.98958,-1.248918 -1.27778,-2.270209 -1.36714,-4.416267 l -0.78382,-19.83205 -0.0425,-1.099786 0.0624,-11.843551 h 1.31466 c 1.84516,0 6.43904,1.503995 8.25972,1.928354 v 1.101443 c 0,0.73659 0.39783,0.814888 0.82636,1.101996 0,-0.75038 -0.17924,-1.928354 0.55072,-1.928354 0.31939,0 5.42612,2.626067 7.15883,3.029797 0.10743,1.291248 0.55072,1.362001 0.55072,2.754159 v 1.652717 c 1.7619,-0.638036 -0.67468,-1.471638 1.65161,-3.029796 2.51228,1.329728 3.95251,3.317111 6.38439,4.63059 3.07399,1.660238 1.59914,5.422611 1.87588,8.589488 l 0.46234,4.941579 -0.1867,0.291656 0.32645,5.229368 0.49935,0.0033 v -0.825806 l -0.68771,-16.244904 c 1.39536,0.837389 1.78916,0.965648 1.78916,3.024273 l 1.08542,-0.335294 0.27619,0.892092 -0.30105,0.01878 0.89099,11.562389 0.52642,10.722222 -0.34524,13.217869 c 1.03941,-1.113489 0.89211,-11.552321 0.88933,-13.775219 -0.002,-1.414278 0.4274,-2.06021 0.17621,-3.462309 -0.18663,-1.040909 -0.44106,-2.38089 -0.45571,-3.406519 -0.0183,-1.278749 0.014,-2.5909 0.0177,-3.873279 0.006,-2.030618 -0.5579,-1.797317 -0.5579,-3.022616 v -6.8854 c 1.97076,0.713608 3.20571,4.54402 4.45217,6.288279 1.18575,1.659278 0.98529,1.804878 1.73502,3.772746 0.22885,0.60073 0.76731,1.051225 0.92027,1.833344 0.20844,1.065709 -0.0275,1.09701 0.35462,2.124449 1.12471,3.024387 1.26991,5.338426 1.61571,9.124742 0.18525,2.027948 0.51187,2.919215 0.29884,4.675333 -0.36482,3.006757 0.20993,2.147672 0.26017,4.40522 l 0.79322,-0.590493 0.18449,0.631921 0.98323,-2.229952 1.44116,0.64794 1.18927,-0.781616 0.39882,1.209709 c 0.7475,-0.171346 0.4371,-0.264589 1.06775,-0.264589 0.56364,0 0.50625,0.567747 0.55072,1.101995 l 1.65161,0.09169 0.93186,2.993892 c 0.16953,-1.114668 0.40902,-3.117326 1.12188,-3.510366 2.88469,-1.590228 0.5052,-1.177942 2.07639,-2.329381 l -0.30877,-1.0915 c 1.98037,0.442959 2.23602,2.013984 2.23602,4.396382 1.79161,-0.948235 1.94129,0.404774 1.9383,-1.915097 -0.002,-1.653828 0.44519,-2.616251 0.20714,-4.08484 -0.42917,-2.646747 -0.0315,-5.460015 -0.55182,-7.712863 -0.50977,-2.207418 -0.92401,-5.10263 -1.55605,-7.256598 -0.76727,-2.614568 -1.5455,-3.740407 -2.35424,-6.182774 -0.41068,-1.240159 -5.61048,-9.400819 -6.60756,-10.742108 -0.9199,-1.237268 -3.55871,-4.050232 -3.9727,-4.839941 -0.0556,-0.106037 -4.05076,-4.378827 -4.11799,-4.418477 -1.64548,-0.970148 -1.04131,0.310986 -2.63816,-1.768164 -0.2667,-0.347077 -2.00501,-1.763271 -2.37357,-2.032201 -1.28708,-0.939256 -3.26514,-2.844467 -4.47868,-4.058326 C 150.81331,8.8657199 144.41098,6.1755923 141.34983,4.9564936 137.17218,3.2926152 131.94205,3.0078867 127.36857,1.5902981 124.52963,0.710367 115.11976,0.31485583 111.29767,0.31485583 Z m -4.6803,15.69804817 h 0.27508 c 0.63441,0 0.82636,0.191744 0.82636,0.826359 v 0.550721 l -0.27067,3.856708 -0.005,6.609763 c 0,5.391495 0.73092,13.600541 0.83354,18.990225 0.10465,5.499785 0.61,5.316197 -2.87071,7.615645 -2.00261,1.322998 -4.20949,3.00728 -6.411459,4.052249 -3.816196,1.811098 -24.074239,16.713873 -25.142618,16.713873 H 72.47484 c -0.13041,-1.566708 -1.52911,-3.65993 -2.092963,-5.893328 -0.438578,-1.737518 -0.647228,-5.220743 -1.120224,-6.590981 -0.951659,-2.756898 -0.265856,-10.973019 0.569503,-13.846476 1.153578,-3.967696 2.149411,-8.62038 4.590818,-11.106677 3.208787,-3.267677 2.878579,-5.703333 7.139494,-8.55745 l 0.333085,4.404115 c 2.627827,-3.864026 -1.887349,-4.731945 5.114474,-9.145181 1.929388,-1.216109 6.776673,-4.701938 9.14518,-4.899046 l 0.851216,6.056279 c 0.379358,2.960297 -0.281517,10.497999 -0.196647,13.547086 0.05312,1.906999 0.03135,11.98663 1.27268,12.896385 L 97.569954,30.339949 98.07759,20.144144 99.363527,18.157238 c 1.878943,1.367399 0.920813,10.280568 0.920813,13.279735 1.43599,-0.383529 1.10145,-5.310318 1.10145,-7.161036 v -0.826359 c 0,-0.838889 -0.12546,-1.007626 -0.27564,-1.652717 l 0.98047,-4.378705 0.45129,-0.523655 1.87257,-0.05469 v -5.52e-4 c 0.59645,-0.399561 0.91648,-0.826359 1.92725,-0.826359 z" /></g>
 </g>
</svg>
