<?xml version="1.0" encoding="UTF-8" standalone="no"?>
<!-- Creator: CorelDRAW -->

<svg
   xml:space="preserve"
   width="210.452mm"
   height="239.112mm"
   style="shape-rendering:geometricPrecision; text-rendering:geometricPrecision; image-rendering:optimizeQuality; fill-rule:evenodd; clip-rule:evenodd"
   viewBox="0 0 224.956 255.591"
   version="1.1"
   id="svg1"
   sodipodi:docname="peace_soldier_left.svg"
   inkscape:version="1.3.2 (091e20e, 2023-11-25, custom)"
   xmlns:inkscape="http://www.inkscape.org/namespaces/inkscape"
   xmlns:sodipodi="http://sodipodi.sourceforge.net/DTD/sodipodi-0.dtd"
   xmlns="http://www.w3.org/2000/svg"
   xmlns:svg="http://www.w3.org/2000/svg"><sodipodi:namedview
   id="namedview1"
   pagecolor="#ffffff"
   bordercolor="#000000"
   borderopacity="0.25"
   inkscape:showpageshadow="2"
   inkscape:pageopacity="0.0"
   inkscape:pagecheckerboard="0"
   inkscape:deskcolor="#d1d1d1"
   inkscape:document-units="mm"
   inkscape:zoom="0.6361165"
   inkscape:cx="591.87272"
   inkscape:cy="547.85562"
   inkscape:window-width="1920"
   inkscape:window-height="1009"
   inkscape:window-x="-8"
   inkscape:window-y="-8"
   inkscape:window-maximized="1"
   inkscape:current-layer="__x0023_Layer_x0020_1" />
 <defs
   id="defs1">
  <style
   type="text/css"
   id="style1">
   <![CDATA[
    .fil1 {fill:#1F1A17}
    .fil0 {fill:#DA251D}
   ]]>
  </style>
 </defs>
 <g
   id="__x0023_Layer_x0020_1"
   inkscape:label="__x0023_Layer 1"
   inkscape:groupmode="layer"
   transform="translate(53.131592,-66.144004)">
  <metadata
   id="CorelCorpID_0Corel-Layer" />
  <path
   d="m 101.22118,240.83156 0.83409,1.09537 0.0735,-0.27453 1.63725,0.70207 -1.78142,1.42956 1.13404,0.44798 c -0.15285,0.35349 -0.0675,0.39758 -0.49052,0.71975 l -0.21874,0.16681 c -0.85759,0.65308 -0.27593,-0.31257 -1.66873,0.59215 l 0.93131,0.82305 -2.257022,0.50653 -0.907005,-0.67998 -0.657331,0.50046 c -0.61655,0.46978 -0.478422,0.2141 -0.990967,0.0624 l 0.876072,-0.66728 -0.588835,-0.39771 -1.236224,-0.63524 0.876073,-0.66727 -0.312094,-0.40821 1.345042,-1.02908 0.01049,0.98876 0.438589,-0.33364 0.667273,0.87608 0.438036,-0.33419 c -0.674589,-1.64121 1.110023,-2.13403 1.847153,-3.48386 z"
   style="fill:#1f1a17"
   id="path47" /><path
   d="m 92.905116,236.83013 -0.311541,1.92228 c 1.504928,0.40555 1.255194,1.64719 1.893554,1.64719 1.162548,0 0.208454,-0.68322 1.835554,-0.82635 l 0.0917,1.65216 c 0,0.39967 -1.55506,1.18007 -1.927249,1.37708 l -0.0028,-0.56066 -1.373766,0.28558 c 0,-1.59686 -0.04948,-1.89399 -1.37708,-2.20344 l -0.02872,0.62639 -2.724331,-0.90203 0.0072,0.51206 0.818625,0.3143 c -0.536489,0.21656 -1.101443,0.98315 -1.101443,1.65272 v 1.65271 l 0.261827,0.24913 -1.087633,1.40304 h -0.825806 c -0.06467,-0.77753 0.0061,-1.10145 -0.826359,-1.10145 h -0.275084 c -1.006919,0 -0.594868,0.74539 -1.927802,1.10145 v 0.55072 c 0.525586,0.14046 2.001068,1.13732 2.848617,1.55826 1.389909,0.6902 2.096727,0.77471 1.843288,1.98856 l 1.090395,0.30933 0.0028,-1.11138 1.374318,0.28503 c -0.165682,-1.99075 -1.998076,-0.56734 -2.202886,-3.0298 1.122039,-0.29962 1.209105,-1.10144 1.652164,-1.10144 0.461238,0 1.65746,0.73319 1.927249,1.10144 h -0.550721 c 0.104861,1.25983 0.336758,1.34824 1.652164,1.37763 l 0.06629,-2.34706 1.673707,0.78107 -0.01933,0.28337 -0.894853,0.73135 c 0.701743,0.16355 1.376527,0.56693 1.376527,-0.55072 v -0.55073 c 0,-0.61752 -0.217716,-0.605 -0.539674,-1.09039 l 0.70594,-0.54962 -0.166266,-1.9405 c 0.706874,0.33928 1.927249,0.16138 1.927249,-0.55073 0,-0.63088 -0.09316,-0.32061 -0.275084,-1.10199 0.563425,0.29823 1.652164,1.07036 1.652164,-0.27509 v -1.10199 c -0.738407,0.17691 -0.519099,0.27564 -1.101443,0.27564 -0.01208,0 -1.790947,-1.01026 -1.973096,-1.15061 l -1.275443,1.19038 0.04695,0.385 -0.96832,-1.28428 0.670035,-0.91473 z"
   style="fill:#1f1a17"
   id="path46" /><path
   d="m 11.045363,245.12189 c -1.3538883,0.72953 -3.1186075,0.16927 -3.4479472,1.91289 l -0.5490643,0.0409 -0.082304,-1.09813 -0.5490644,0.0409 0.5302835,-0.83464 -1.6886215,0.1298 0.039219,0.51206 -1.0986812,0.0817 0.6904733,1.2064 0.2761894,0.65457 -1.0981288,0.0817 c 0.3471837,0.40673 0.091432,0.54526 0.8644726,0.48775 l 0.8241489,-0.0613 0.389427,1.06499 2.1680861,0.80592 -0.3319795,-1.19756 c 1.6607783,0.001 0.6470957,0.49281 1.7223166,0.41318 l 0.2745322,-0.0204 c 0.5302903,-0.0395 0.4822693,-0.1227 0.8031593,-0.33584 l -0.706493,-0.99373 2.273039,-0.22703 -0.989863,-1.48148 -0.211009,0.19002 z"
   style="fill:#1f1a17"
   id="path45" /><path
   d="m 9.1954472,230.66338 -0.3115415,1.92172 c 1.5049283,0.40555 1.2551943,1.6472 1.8935543,1.6472 1.162549,0 0.208455,-0.68323 1.835554,-0.82636 l 0.09169,1.65271 c 0,0.39967 -1.55506,1.18007 -1.927249,1.37708 l -0.0028,-0.56066 -1.3743183,0.28503 c 0,-1.59686 -0.048929,-1.89399 -1.3765275,-2.20344 l -0.028724,0.6264 -2.7243315,-0.90149 0.00718,0.51206 0.8186252,0.3143 c -0.5364885,0.21656 -1.101443,0.9826 -1.101443,1.65217 v 1.65271 l 0.2618274,0.24913 -1.0876335,1.40359 H 3.3429955 c -0.064669,-0.77753 0.00666,-1.10199 -0.825806,-1.10199 h -0.275637 c -1.006919,0 -0.5943154,0.74593 -1.92724905,1.10199 v 0.55072 c 0.52558547,0.14046 2.00051515,1.13677 2.84806425,1.55771 1.3899086,0.6902 2.0967273,0.77527 1.8432876,1.98912 l 1.0909478,0.30878 0.00221,-1.11139 1.374318,0.28503 c -0.1656818,-1.99075 -1.9975238,-0.56679 -2.2023336,-3.02925 1.1220389,-0.29962 1.2085526,-1.10199 1.6516121,-1.10199 0.4612376,0 1.6580118,0.73374 1.9278015,1.10199 h -0.550722 c 0.1048609,1.25983 0.3362054,1.34769 1.6516121,1.37708 l 0.066838,-2.3465 1.673155,0.78106 -0.01878,0.28282 -0.894853,0.7319 c 0.701743,0.16355 1.376527,0.56639 1.376527,-0.55127 v -0.55072 c 0,-0.61752 -0.217716,-0.60446 -0.539674,-1.08985 l 0.70594,-0.54961 -0.166266,-1.94106 c 0.706875,0.33928 1.927249,0.16139 1.927249,-0.55072 0,-0.63088 -0.09316,-0.32007 -0.275084,-1.10145 0.563425,0.29823 1.652164,1.06982 1.652164,-0.27563 v -1.102 c -0.738407,0.17691 -0.519099,0.27564 -1.101443,0.27564 -0.01208,0 -1.790946,-1.01026 -1.973096,-1.15061 l -1.275443,1.19038 0.04695,0.38556 -0.96832,-1.28483 0.670035,-0.91419 z"
   style="fill:#1f1a17"
   id="path44" /><path
   d="m 45.164687,147.19786 c 0.104581,0.0515 0.183327,0.13064 0.217637,0.13754 -0.658454,1.22241 -0.177959,0.65902 -0.671692,1.57925 -0.493736,0.92023 -1.029071,1.09913 -1.440603,1.16773 -0.411533,0.0686 -0.260723,-0.61811 -0.260723,-0.61811 0,0 -0.136852,0.20609 -0.534703,-0.0823 -0.39785,-0.2884 -0.191961,-0.49459 0.178419,-0.42589 0.370377,0.0687 0.644738,-0.13726 1.234566,-0.49438 0.589828,-0.35713 0.630958,-1.03024 0.905348,-1.23622 0.137196,-0.10299 0.267171,-0.0791 0.371751,-0.0276 z"
   style="fill:#1f1a17"
   id="path43" /><path
   d="m 41.63775,167.42983 c 0.89158,0.1923 -0.246628,0.57725 -0.617007,0.59105 -0.37038,0.0138 -0.548941,-0.23399 -0.370646,-0.39882 0.178294,-0.1648 0.617273,-0.19223 0.987653,-0.19223 z"
   style="fill:#1f1a17"
   id="path42" /><path
   d="m 50.230552,169.38802 c 0.150824,-0.0412 0.514408,0.11659 0.706492,0.22647 0.390903,0.4327 0.65829,0.77638 0.548512,0.98931 -0.109778,0.21296 -0.466204,0.32246 -0.630816,-0.021 -0.164613,-0.34344 -0.239918,-0.46669 -0.466208,-0.65899 -0.226292,-0.19229 -0.308804,-0.4947 -0.15798,-0.5358 z"
   style="fill:#1f1a17"
   id="path41" /><path
   d="m 51.250243,167.62206 c 0.202319,0.0309 0.407716,0.10312 0.538017,0.21985 0.260601,0.23345 -0.09612,0.60463 0.150799,0.76946 0.178292,0.0275 0.548904,0.30172 1.015272,0.63137 0.466366,0.32965 0.343056,0.86537 0.02762,0.93407 -0.315436,0.0687 -0.562716,-0.10942 -0.946777,-0.63137 -0.384059,-0.52195 -0.809352,-0.72791 -1.234566,-1.1263 -0.425211,-0.39838 -0.301733,-0.67326 -0.06849,-0.76946 0.11662,-0.0481 0.315811,-0.0585 0.518131,-0.0276 z"
   style="fill:#1f1a17"
   id="path40" /><path
   d="m 55.457158,166.64766 c 0.445738,0.0411 1.049111,0.56993 1.241195,0.79653 0,0 0.363652,0.31621 0.425332,0.50156 0.06168,0.18536 -0.377271,0.42596 -0.541884,0.23366 -0.164612,-0.19233 -0.459579,-0.26127 -0.459579,-0.26127 0,0 -0.26044,0.49475 -0.466207,0.41925 -0.205767,-0.0755 -0.116888,-0.26816 -0.206037,-0.62529 -0.08915,-0.35712 -0.610657,-0.35668 -0.651807,-0.64518 -0.04115,-0.28851 0.21325,-0.46046 0.658987,-0.41926 z"
   style="fill:#1f1a17"
   id="path39" /><path
   d="m 47.869685,169.18143 c 0.128604,-8.9e-4 0.306724,0.10023 0.55017,0.33032 0.486891,0.46017 1.213712,1.02332 1.570412,1.33234 0.356698,0.30902 0.80275,0.57674 0.994834,0.70041 0.192084,0.12367 0.343093,0.50825 0.226475,0.87221 -0.116619,0.36397 -0.507822,0.55637 -0.734111,0.57005 -0.22629,0.0137 0.06196,-0.2539 -0.205485,-0.52862 -0.267443,-0.27471 -0.247505,-0.27506 -0.364017,-0.57724 -0.116512,-0.30218 -0.384089,-0.39823 -0.610379,-0.70042 -9.52e-4,-4.4e-4 -0.411497,-0.19206 -0.445769,-0.0342 -0.03431,0.15798 -0.0274,0.37786 0.04806,0.80371 0.07547,0.42586 0.246976,0.94076 0.29497,1.14674 0.04799,0.20598 0.15102,1.05093 -0.185047,1.20197 -0.336067,0.15104 -0.658156,-0.63201 -0.781616,-1.10586 -0.12346,-0.47385 -0.206165,-1.11253 -0.219846,-1.38039 -0.01368,-0.26787 0.151204,-0.78991 0.0072,-1.20198 -0.143982,-0.41206 -0.487412,-0.78961 -0.398265,-1.14674 0.04458,-0.17856 0.123834,-0.28138 0.252437,-0.28226 z"
   style="fill:#1f1a17"
   id="path38" /><path
   d="m 41.99072,168.55834 c -0.50474,1.89081 -2.625847,6.15293 -4.130136,7.16049 0.07771,-3.48788 2.034746,-2.9366 2.202887,-4.9576 -1.833829,0.15264 -1.900378,3.53575 -4.130136,4.13124 0,-3.52754 1.785582,-2.84293 2.202886,-4.40633 l -4.130135,3.30489 c 0.60501,-2.26664 5.177656,-4.99902 7.984634,-5.23269 z"
   style="fill:#1f1a17"
   id="path37" /><path
   d="m 42.425442,196.19992 c 0.562463,-0.0481 0.446138,0.32305 0.137542,0.50156 -0.30859,0.17851 -0.912177,0.65233 -1.399175,0.95451 -0.486998,0.3022 -0.617405,0.32978 -0.836854,0.0138 -0.219448,-0.31598 0.336115,-0.81755 0.624188,-1.08542 0.28807,-0.26787 1.001089,-0.41196 1.474299,-0.38446 z"
   style="fill:#1f1a17"
   id="path36" /><path
   d="m 39.161436,197.04782 c 0.0019,3.47644 -5.26516,2.49869 -6.256793,6.21371 l 0.215428,-0.23255 1.573727,1.46104 -0.482779,2.06479 c 1.220589,-0.83162 4.222597,-6.62604 6.953895,-6.04744 v 1.10144 c -1.310269,0.4745 -6.828373,9.08053 -6.883743,11.56736 2.021208,-0.5398 4.14245,-9.58455 7.158827,-9.91464 -1.055769,3.95548 -4.955941,7.59863 -4.955941,12.66936 l 1.463251,-2.71715 1.287595,0.24801 c 1.033642,-1.55024 1.930011,-2.32678 1.930011,-4.96754 0.613669,-0.9167 1.437006,-3.1609 2.753055,-3.30488 -0.18193,2.18669 -1.376528,2.6897 -1.376528,4.13124 v 1.37708 c 1.761788,-0.47064 1.378187,-3.34555 3.140825,-4.29474 1.035889,-0.55777 1.522565,-0.18593 2.599494,-0.97992 1.016751,-0.74953 0.674341,-1.26495 1.96923,-1.61074 l 0.07126,0.27895 2.472999,-2.42052 0.208799,0.21322 c 0.607149,0.32142 1.101443,0.24055 1.101443,1.10199 0,1.71903 -5.571528,4.07179 -6.817457,5.02334 -0.759679,0.58009 -2.270547,2.24378 -3.033111,3.02537 -1.278847,1.31081 -0.95006,2.47831 -1.713479,4.06993 l -1.099233,-0.55459 c -1.676273,1.12482 -0.690025,1.96229 -2.548123,3.79153 -0.618259,0.60864 -2.685665,2.76564 -2.685665,3.64846 v 0.27508 l 0.30878,2.47411 -0.21598,0.25741 -1.787498,-1.29478 -0.555693,1.93443 c -0.658987,-0.38225 -0.778301,-0.11648 -0.778301,-0.89209 0,-0.82734 0.598787,-1.77685 0.826358,-2.75416 -1.046469,-1.56329 -2.774972,-1.8845 -4.354401,-3.90753 -0.691699,-0.88592 -3.111627,-3.99087 -4.181506,-4.07987 l -2.787855,7.03675 0.309885,0.12429 h -0.825806 l -0.1624,1.64443 -2.002372,2.29072 0.237522,0.19609 h 1.100891 c 0.370271,-0.77177 0.120499,-1.37708 1.101443,-1.37708 h 1.37708 v 1.65272 l 0.80592,-0.32701 -0.668378,1.01527 0.08949,0.97661 1.886373,-0.99208 0.184494,0.21267 -0.649597,1.04013 1.380394,0.13975 v 0.41318 h -0.826358 l 0.824149,4.35937 -0.284475,0.11655 2.45698,0.40214 0.340817,2.27801 -0.583864,0.005 v -0.82581 h -0.550721 l 0.463998,1.6842 1.738888,-0.12373 v -1.28538 l 1.113595,-0.22703 c -0.271184,-1.1586 -0.838511,-1.33239 -0.838511,-1.97641 0,-0.88709 1.342072,-4.17677 1.652165,-5.50832 0.846479,0.22619 1.101443,0.53591 1.101443,1.65271 0,0.88528 -0.61172,2.10741 -0.826359,3.02925 1.288577,0.68208 1.652165,0.76118 1.652165,2.75471 0.686997,0.46006 1.101443,1.06953 1.101443,2.20344 0,0.1752 -0.62036,0.79444 -0.825806,1.10144 l 0.565636,1.09426 c 1.013659,-0.23163 2.187419,-0.73045 2.187419,-1.91951 0,-0.14623 -0.396691,-0.60456 -0.550722,-0.82636 v -1.65272 c -0.605109,-0.90387 -1.927249,-2.36307 -1.927249,-3.8556 v -1.37708 c 0,-0.63461 0.191405,-0.82636 0.825806,-0.82636 0.617298,0 0.604505,0.21786 1.101443,0.55072 l 0.241942,1.93333 0.859501,-0.005 0.43638,1.96923 c 0.611203,-0.37391 0.598486,-0.59215 1.215785,-0.59215 0.21592,0 1.190782,1.10199 2.477971,1.10199 h 1.101443 c 0.736274,0 0.814439,-0.39762 1.101443,-0.82636 -1.018459,-1.39055 -1.524901,-0.55072 -3.304329,-0.55072 -0.91275,0 -3.579414,-4.0456 -3.579414,-4.9576 0,-1.08986 2.666412,0 3.855051,0 h 0.275084 c 3.001837,0 -1.652164,-2.0125 -1.652164,-3.02979 0,-0.45494 0.790923,-0.89344 1.101443,-1.10145 3.981176,0 6.418367,-0.4141 7.985185,-2.75471 -1.798028,0 -1.74895,0.55128 -3.304329,0.55128 h -0.550721 c -1.132839,0 -2.753608,-1.34746 -2.753608,-2.20344 0,-0.96855 7.800074,-0.34027 9.333542,-0.85453 1.140639,-0.38235 2.441216,-1.08032 3.872174,-1.08432 1.900318,-0.005 3.161222,0.20446 3.314825,-1.64167 l -0.792664,0.59049 -9.659997,0.43417 -1.937745,-0.1983 v -0.82636 l 5.215007,-0.69379 3.418671,-2.77294 -1.749935,-0.11379 -5.227712,-0.32646 c 0.22789,-2.73449 3.736963,-3.12118 5.025541,-4.55822 1.806789,-2.01491 3.998026,-2.00072 7.636083,-2.00072 -1.126979,4.22179 -9.698971,2.64768 -10.462604,5.50832 3.706786,-1.77921 6.551344,0.0909 9.688721,-2.70224 1.705028,-1.51796 4.610788,-4.73443 7.657625,-4.73443 0.787579,0 1.408344,2.17214 2.202334,2.75416 l -0.214323,-4.68583 2.111191,3.32642 0.03093,-2.77183 c 0.760105,0.27525 1.100891,0.9318 1.100891,1.92835 v 0.82581 l -0.530283,4.40964 c 0.897349,1.36778 2.915508,3.53021 3.56947,4.66925 0.51244,0.89244 2.552741,4.03476 3.22092,4.76537 1.533679,1.67724 2.249016,2.79995 3.542404,4.71897 1.300339,1.92939 1.105968,3.48609 3.138616,4.84768 l 0.985443,5.19733 c 3.618598,-0.27888 1.221019,2.75342 3.419777,3.34079 v 0.55072 l -1.069958,1.66763 0.304361,1.07106 -2.52879,0.35242 c -0.04853,-0.0553 -0.550812,-0.32895 -0.560112,-0.33695 l 1.087634,-0.38833 c 0.157879,-0.50443 0.288894,-0.51999 0.288894,-1.26384 0,-0.57027 -0.427369,0.10572 -0.550722,-1.37708 h 0.826359 v -1.10199 c -1.634369,0.43654 -2.189273,1.50021 -3.028692,2.75416 0.170599,0.25493 0.550721,0.66185 0.550721,0.82636 0,0.58255 -0.09895,0.36337 -0.275637,1.10199 -0.861329,-0.0717 -0.978052,-0.27564 -1.927249,-0.27564 -0.279299,0 -3.88423,2.47848 -4.405219,2.75416 l 0.590492,0.79322 -1.082109,0.67942 -0.05911,-0.92192 -0.806473,0.32701 c 0.04864,0.77058 0.535732,1.87643 1.357195,1.87643 h 1.376527 v 0.55072 h -1.101443 l -1.55605,2.62988 -2.574085,0.12484 c -0.531571,0 -0.489952,-0.0869 -0.825806,-0.27564 l 0.920815,-1.51131 0.180628,-2.06921 c -4.309336,0 -1.983319,0.76371 -5.507215,-1.10144 l -1.62786,1.40525 c -0.31469,-0.7321 0.167178,-1.13017 -0.850111,-1.13017 h -0.825806 c -0.747815,0 -1.294117,0.89892 -1.376527,1.65272 h -0.550722 l -0.182285,-1.66653 0.472284,-1.0799 -2.551989,-2.70334 -3.17673,-0.85011 c -0.18203,-1.12578 -1.060997,-2.48077 -2.546465,-2.51387 v -1.10145 H 55.20693 l 0.309332,-1.09094 -1.132929,0.54354 -0.795425,-0.59436 c -0.468931,0.24914 -0.428566,0.31541 -1.134586,0.31541 h -0.275084 c -0.956468,0 -0.420062,-0.55073 -1.376528,-0.55073 -0.377861,0 -0.657897,0.57484 -0.826358,0.82636 l 0.309332,1.09095 c -0.580209,1.04379 -0.700419,2.22295 -1.461594,2.98947 -0.778169,0.78363 -2.151515,0.91067 -2.151515,1.97862 0,2.03704 1.211078,1.58445 2.484047,2.19737 0.527189,0.25387 1.921173,1.91572 1.921173,2.48459 0,0.58256 -0.09839,0.36338 -0.275085,1.102 0.496944,0.33286 0.483592,0.55072 1.100891,0.55072 h 1.101443 l -0.623083,-1.33841 3.071777,1.14729 0.06905,-0.91032 -0.37838,-0.0635 1.652165,-1.65272 0.06352,0.88988 H 57.6849 l -0.058,1.38039 -1.318528,-0.004 v 0.55072 l 0.963901,0.68882 c -0.54729,0.33425 -3.210522,1.23898 -3.717509,1.23898 -0.281119,0 -0.602805,-0.55072 -1.652164,-0.55072 h -1.100891 v 0.82636 h -0.826358 v -0.55072 h -0.550722 v 1.37708 l -2.433228,0.92192 c 0.39369,-2.16454 -2.182402,-0.13927 -3.88764,-0.084 -3.141757,0.10176 -3.721415,0.66521 -5.518263,0.81476 v -0.55127 l 2.118924,-1.0904 -0.19278,-0.29276 -2.190733,0.35021 c 0.665189,-0.99184 1.964545,-2.24855 3.017644,-1.9963 l 0.208247,-0.18559 -1.306376,-1.46988 c -0.499926,0.33564 -0.486905,0.55348 -1.104205,0.55348 h -1.652164 v -0.82636 c 1.714438,0.0382 1.496971,0.83827 1.814011,-0.43085 0.436545,-1.74757 0.692409,0.4596 1.214681,-1.49695 h -1.376528 c -1.119048,0 -1.101443,-1.57568 -1.101443,-2.75416 H 37.5855 l 0.285027,1.37487 0.815864,0.002 c 0.903346,0 1.033143,-0.55551 1.101443,-1.37708 l 0.542435,0.55624 c 2.218001,-0.005 2.207451,-0.10274 1.384814,-1.65769 -3.13128,0.2606 -1.751499,1.23765 -3.303777,1.65217 v -1.37708 l -2.089648,-1.4511 c -0.455145,-0.0572 -0.470483,0.074 -1.214129,0.074 h -0.826358 l -0.06849,1.37708 c -1.612139,-0.35616 -0.848581,-0.0347 -1.046758,1.63835 -0.169957,1.43503 -0.688002,0.7271 -0.811996,2.2178 l -1.090396,0.30934 -0.29276,2.16808 1.107519,0.001 v 0.82636 h 0.550721 v -1.37708 h 1.37708 c 0.743647,0 0.759016,-0.13177 1.376528,-0.27564 v 0.55127 h -0.825806 v 0.82581 l -2.735932,0.87552 -0.731349,-1.22518 -2.176372,1.64057 -0.0232,-0.32867 -1.495289,-1.23346 2.212829,0.21985 1.275995,-2.02889 -0.222609,-0.23752 -2.70555,0.96114 -1.531746,-1.79965 0.208246,-0.95893 0.490513,-0.016 0.26017,0.83243 1.254452,-1.2666 1.786392,-0.008 c 0.649683,-0.0907 0.326569,-0.0199 1.104205,0.16626 0.143876,-0.61773 0.275637,-0.63322 0.275637,-1.37708 v -0.27564 c 0,-2.7624 -1.25125,-3.17628 -1.376527,-4.68196 l -1.39089,-0.20161 -2.975111,1.64829 0.424227,-1.7538 -3.261796,-0.20383 0.02872,-0.37561 -1.098129,0.28723 0.239732,-1.06609 -0.55735,-0.48278 0.400475,-1.97199 -1.2539,-0.7308 1.183748,-0.1066 -0.281714,-2.20234 -2.711074,0.47063 -0.371751,0.88988 -0.765597,0.0155 c -0.399669,-1.71585 0.05079,-1.95511 -1.376527,-1.65272 v -0.55072 l 3.272843,-0.70097 c 0.299724,-0.35766 3.12243,-2.32828 0.857292,-2.32828 h -1.101443 v 0.82581 l -1.090948,-0.30878 0.249675,-0.79874 c -2.426867,0.20908 -0.625601,1.20362 -4.941027,1.10752 v 0.82636 c 0,0.84659 -0.806759,1.10199 -1.652164,1.10199 -0.563638,0 -0.96056,-0.84957 -1.101443,-1.37708 l 1.505232,0.57061 0.01491,0.33088 1.034053,-1.96371 -1.440604,-0.37727 -0.01215,-1.31522 -0.805921,0.32701 -0.01989,-0.60209 c 1.504715,-0.0336 2.169426,-0.6983 2.202886,-2.20344 -0.613558,-0.16387 -0.826359,-0.0644 -0.826359,-0.82636 0,-0.56382 0.567306,-0.50632 1.101443,-0.55072 l 0.92413,1.58643 1.003119,0.0663 c 3.667037,0 8.838972,-19.10668 11.5646,-20.93239 l -0.180076,3.28555 c -0.252689,0.66529 -1.197004,2.60299 -1.197004,3.6004 v 1.9278 l 3.346309,-0.97826 -0.257408,-0.23532 1.249481,-2.40229 c 1.806365,0.0351 1.846273,-0.10928 1.994639,-1.89245 l -1.467118,1.30969 -0.445217,-1.04013 0.269008,0.0862 1.840526,-6.5153 0.366779,0.0972 0.328113,1.64222 c 1.967228,-0.52986 -0.08347,-2.19043 4.036231,-2.24653 z m 53.74368,39.78231 1.661555,0.96888 -0.670035,0.91473 0.96832,1.28428 -0.04695,-0.385 1.275443,-1.19038 c 0.182149,0.14035 1.961016,1.15061 1.973096,1.15061 0.582344,0 0.363036,-0.0987 1.101443,-0.27564 v 1.10199 c 0,1.34545 -1.088739,0.57332 -1.652164,0.27509 0.181925,0.78138 0.275084,0.47111 0.275084,1.10199 0,0.71211 -1.220375,0.89001 -1.927249,0.55073 l 0.166266,1.9405 -0.70594,0.54962 c 0.321958,0.48539 0.539674,0.47287 0.539674,1.09039 v 0.55073 c 0,1.11765 -0.674784,0.71427 -1.376527,0.55072 l 0.894853,-0.73135 0.01933,-0.28337 -1.673707,-0.78107 -0.06629,2.34706 c -1.315406,-0.0294 -1.547303,-0.1178 -1.652164,-1.37763 h 0.550721 c -0.269789,-0.36825 -1.466011,-1.10144 -1.927249,-1.10144 -0.443059,0 -0.530125,0.80182 -1.652164,1.10144 0.20481,2.46246 2.037204,1.03905 2.202886,3.0298 l -1.374318,-0.28503 -0.0028,1.11138 -1.090395,-0.30933 c 0.253439,-1.21385 -0.453379,-1.29836 -1.843288,-1.98856 -0.847549,-0.42094 -2.323031,-1.4178 -2.848617,-1.55826 v -0.55072 c 1.332934,-0.35606 0.920883,-1.10145 1.927802,-1.10145 h 0.275084 c 0.832459,0 0.761689,0.32392 0.826359,1.10145 h 0.825806 l 1.087633,-1.40304 -0.261827,-0.24913 v -1.65271 c 0,-0.66957 0.564954,-1.43616 1.101443,-1.65272 l -0.818625,-0.3143 -0.0072,-0.51206 2.724331,0.90203 0.02872,-0.62639 c 1.327599,0.30945 1.37708,0.60658 1.37708,2.20344 l 1.373766,-0.28558 0.0028,0.56066 c 0.372189,-0.19701 1.927249,-0.97741 1.927249,-1.37708 l -0.0917,-1.65216 c -1.6271,0.14313 -0.673006,0.82635 -1.835554,0.82635 -0.63836,0 -0.388626,-1.24164 -1.893554,-1.64719 z m -76.803831,2.81603 3.168444,0.59988 -0.652359,0.92413 2.44759,0.6496 c -0.05655,0.67951 -0.43179,1.37708 0.275084,1.37708 1.496489,0 1.482121,-0.51667 3.06294,-0.56177 l -0.309332,-1.09095 h 0.550721 c 0.176693,0.73862 0.275637,0.51944 0.275637,1.102 0,0.98116 -0.605515,0.73095 -1.452203,1.27599 l 1.232909,0.39053 -0.340266,1.38868 1.485347,0.53802 0.177866,2.15649 -1.10752,0.0359 0.499903,0.96445 -2.372466,0.94181 -0.338608,-0.74461 -1.279309,-0.21598 -1.737231,0.98048 v -0.82636 l 0.197199,0.26901 3.657299,-2.47245 v 0.55072 h 1.37708 c -0.13244,-1.5913 -1.286241,-2.45745 -2.42218,-3.01543 l -0.344132,1.41132 1.114148,0.22703 -0.01326,0.48499 -1.579802,0.33032 -0.328666,-1.90184 -0.831882,0.26017 v 0.82636 l 0.683292,0.16848 -0.777749,0.61203 -0.180628,-0.22979 -0.01105,0.89486 -2.252048,-0.3596 0.337503,-1.08929 1.099234,0.55403 c 0.0045,-0.005 0.275637,-0.51372 0.275637,-0.55072 0,-0.61752 -0.217694,-0.6047 -0.331427,-0.9987 l 0.606511,-1.75546 -0.9407,0.0961 -0.986549,1.28097 c -0.540979,-0.28625 -0.812103,-0.55072 -1.652164,-0.55072 h -0.825806 c -0.617295,0 -0.604603,0.21785 -1.061672,0.51758 l -0.577788,-0.74461 -1.072167,0.24305 0.508741,-1.66874 H 12.5296 v -0.82636 c 1.168755,-0.31213 0.481524,-0.55072 1.376527,-0.55072 l 1.135138,0.0111 -0.275637,1.05062 0.809235,0.63911 1.668736,-0.63911 0.73853,0.43694 1.430661,-0.39661 -0.01547,-0.61093 -1.085424,0.33529 -0.05855,-0.67445 -1.333442,0.67997 -0.26017,-0.83188 h 1.101443 c -0.11202,-1.34674 -1.35187,-1.75102 -1.927802,-1.10144 z m 56.046547,5.47573 0.101637,1.37266 0.211561,-0.19002 0.98931,1.48148 -2.272485,0.22703 0.706492,0.99373 c -0.320889,0.21314 -0.273422,0.29634 -0.803711,0.33584 l -0.274532,0.0204 c -1.075221,0.0796 -0.06099,-0.41218 -1.721764,-0.41318 l 0.331979,1.19756 -2.168086,-0.80592 -0.389979,-1.06499 -0.824149,0.0613 c -0.773042,0.0575 -0.516737,-0.081 -0.86392,-0.48775 l 1.097576,-0.0817 -0.276189,-0.65457 -0.690474,-1.2064 1.098681,-0.0817 -0.03867,-0.51206 1.688621,-0.1298 -0.530835,0.83464 0.549616,-0.0409 0.08175,1.09813 0.549617,-0.0409 c 0.32934,-1.74362 2.094059,-1.18336 3.447948,-1.91289 z"
   style="fill:#1f1a17"
   id="path35" /><path
   d="m 23.850053,200.74434 c -0.147457,-0.0481 -0.359794,-0.0345 -0.634131,0.13036 -0.548675,0.32966 -0.6859,1.12635 -0.905349,1.6483 -0.219448,0.52196 -0.411907,1.01656 -1.042891,1.15392 -0.630981,0.13736 -1.453684,-0.46684 -2.578503,1.34615 -1.124819,1.81298 0.329218,1.84034 0.329218,2.11505 0,0.27472 -2.222057,6.45539 -2.853036,8.13102 -0.630981,1.67563 -1.234981,2.91189 -1.042891,3.3789 0.192084,0.46701 0.686044,0.30247 1.097576,-0.76891 0.411533,-1.07138 4.306897,-11.01609 4.306897,-11.01609 0,0 0.987736,-0.21942 1.975306,-0.54906 0.987571,-0.32966 1.317279,-0.96141 1.207499,-1.31853 -0.109777,-0.35713 -0.109759,-0.32957 -0.740739,-0.0823 -0.630982,0.24724 -1.509093,0.57671 -1.591403,0.27454 -0.08231,-0.30219 0.109742,-1.37374 1.481479,-1.67592 1.371739,-0.30219 0.850259,-0.93305 0.87773,-1.15282 0.02747,-0.21977 0.356837,-1.37431 0.356837,-1.37431 -0.01374,-0.0824 -0.09614,-0.19221 -0.243599,-0.24029 z"
   style="fill:#1f1a17"
   id="path34" /><path
   d="m 56.726525,128.60038 c -0.164613,0 -1.028922,0.16475 -1.495289,0.19222 -0.466366,0.0275 -0.795425,1e-4 -1.042339,-0.0685 -0.246919,-0.0686 -0.987667,0.0273 -1.33068,0.68661 -0.343013,0.65929 -0.685372,2.21164 -0.753997,2.48625 -0.06862,0.2746 -0.548943,1.25007 -0.206037,1.44226 0.342907,0.19219 0.507757,-0.30241 0.850663,-0.0552 0.342907,0.24714 0.493298,-0.0824 0.342475,-0.52199 -0.150823,-0.43954 -0.328697,-1.16717 0.151352,-1.56544 0.480048,-0.39828 0.06834,-0.61847 0.370093,-0.79709 0.301754,-0.17861 0.644898,-0.42596 1.015272,-0.72803 0.370378,-0.30208 1.343937,-0.49438 1.343937,-0.49438 0,0 0.205882,0.1924 0.589941,0.23366 0.38406,0.0413 1.165961,-0.71425 0.164609,-0.81034 z m -0.612036,1.76098 c -0.01754,-6.4e-4 -0.03502,-7.4e-4 -0.05303,5.5e-4 -0.144036,0.0103 -0.308978,0.0928 -0.583312,0.40876 -0.548672,0.63183 -1.055869,1.19487 -1.179329,1.41464 -0.123459,0.21977 -0.109284,0.35686 -0.0475,0.37065 0.06178,0.0138 0.644833,-0.21253 0.884911,-0.59712 0.240077,-0.3846 0.363308,-0.7626 0.747368,-0.83133 0.38406,-0.0687 0.459573,-0.0275 0.706492,0.10992 0.246919,0.13736 0.603536,0.20621 0.692683,0.0414 0.08915,-0.16483 0.03461,-0.62533 -0.76173,-0.8932 -0.168027,0.024 -0.283792,-0.0198 -0.406551,-0.0243 z m -4.559333,1.20916 c -0.01999,8.9e-4 -0.04277,0.009 -0.06849,0.0243 0,0 -0.329068,0.4394 -0.383903,0.79653 -0.05483,0.35712 -0.150953,0.39815 -0.01381,0.48057 0.137142,0.0824 0.534978,-0.20615 0.576131,-0.61811 0.03601,-0.36047 0.03,-0.68956 -0.109923,-0.68329 z"
   style="fill:#1f1a17"
   id="path33" /><path
   d="m 56.726525,128.60038 c -0.164613,0 -1.028921,0.16475 -1.495289,0.19222 -0.466367,0.0275 -0.795425,1e-4 -1.042339,-0.0685 -0.246919,-0.0686 -0.987666,0.0273 -1.33068,0.68661 -0.343014,0.65929 -0.685372,2.21164 -0.753997,2.48625 -0.06862,0.2746 -0.548944,1.25007 -0.206037,1.44226 0.342908,0.19219 0.507756,-0.30241 0.850663,-0.0552 0.342908,0.24714 0.493298,-0.0824 0.342475,-0.52199 -0.150824,-0.43954 -0.328698,-1.16717 0.151352,-1.56544 0.480049,-0.39828 0.06834,-0.61847 0.370093,-0.79709 0.301754,-0.17861 0.644897,-0.42596 1.015272,-0.72803 0.370379,-0.30208 1.343937,-0.49438 1.343937,-0.49438 0,0 0.205881,0.1924 0.589941,0.23366 0.384061,0.0413 1.165963,-0.71425 0.164609,-0.81034 z m 3.127567,0.0276 c -0.822956,0.0137 -1.481727,0.53554 -1.673707,1.31852 -0.191976,0.78298 0.01367,1.04359 0.0823,1.07107 0.06862,0.0275 0.233375,0.0965 0.439141,-0.45296 0.205766,-0.54942 0.79541,-1.08518 1.618469,-0.83795 0.823064,0.24724 1.467546,0.76918 1.371556,1.62068 -0.09599,0.85149 -0.246997,1.70306 -1.069957,1.60686 -0.822957,-0.0962 -1.385241,-0.32959 -1.453861,-0.6043 -0.06862,-0.27472 -0.411528,0.0417 -0.164609,0.57724 0.24692,0.53563 2.085056,1.67558 3.209873,0.28834 1.124816,-1.38724 -0.05504,-4.01066 -1.166072,-4.29916 0,0 -0.370177,-0.30203 -1.193138,-0.28834 z m -3.739603,1.73336 c -0.01754,-6.4e-4 -0.03502,-7.4e-4 -0.05303,5.5e-4 -0.144036,0.0103 -0.308978,0.0928 -0.583312,0.40876 -0.548673,0.63183 -1.055869,1.19487 -1.179329,1.41464 -0.123459,0.21977 -0.109284,0.35686 -0.0475,0.37065 0.06178,0.0138 0.644832,-0.21253 0.884911,-0.59712 0.240078,-0.3846 0.363307,-0.7626 0.747368,-0.83133 0.384061,-0.0687 0.459573,-0.0275 0.706492,0.10992 0.246919,0.13736 0.603536,0.20621 0.692683,0.0414 0.08915,-0.16483 0.03461,-0.62533 -0.76173,-0.8932 -0.168027,0.024 -0.283792,-0.0198 -0.406551,-0.0243 z m -5.128836,0.47063 c -0.04034,0.002 -0.09226,0.0177 -0.157428,0.0486 0,0 -0.260975,0.24688 -0.370646,0.54906 -0.10967,0.30219 -0.493272,0.60436 -0.575578,0.81034 -0.08231,0.20598 -0.493847,0.39842 -0.507636,0.83796 -0.01379,0.43954 0.06861,0.54916 0.246913,0.78272 0.178295,0.23356 0.493825,0.13738 0.576131,-0.38446 0.08231,-0.52185 0.370114,-0.61822 0.383903,-0.85177 0.01379,-0.23355 -0.05468,-0.32939 0.192228,-0.78272 0.185189,-0.33999 0.41625,-0.84996 0.300494,-0.97936 -0.01929,-0.0216 -0.04804,-0.0326 -0.08838,-0.0304 z m 0.569503,0.73853 c -0.01999,8.9e-4 -0.04277,0.009 -0.06849,0.0243 0,0 -0.329068,0.4394 -0.383903,0.79653 -0.05483,0.35712 -0.150953,0.39815 -0.01381,0.48057 0.137142,0.0824 0.534978,-0.20615 0.576131,-0.61811 0.03601,-0.36047 0.03,-0.68956 -0.109923,-0.68329 z"
   style="fill:#1f1a17"
   id="path32" /><path
   d="m 59.854092,128.628 c 0.822963,-0.0137 1.193138,0.28834 1.193138,0.28834 1.111029,0.2885 2.290891,2.91192 1.166072,4.29916 -1.124819,1.38724 -2.962953,0.24729 -3.209873,-0.28834 -0.246919,-0.53559 0.09599,-0.85196 0.164609,-0.57724 0.06862,0.27471 0.630903,0.5081 1.453861,0.6043 0.822962,0.0962 0.973967,-0.75537 1.069957,-1.60686 0.09599,-0.8515 -0.548491,-1.37344 -1.371556,-1.62068 -0.823061,-0.24723 -1.412703,0.28853 -1.618469,0.83795 -0.205766,0.54942 -0.370521,0.48046 -0.439141,0.45296 -0.06863,-0.0275 -0.274282,-0.28809 -0.0823,-1.07107 0.19198,-0.78299 0.850749,-1.30482 1.673707,-1.31852 z"
   style="fill:#1f1a17"
   id="path31" /><path
   d="m 36.504495,119.58998 c -0.28957,0 -0.52476,0.40876 -0.52476,0.91308 0,0.14868 0.02066,0.28963 0.0569,0.41373 l -2.305628,30.8404 H 33.18028 c -0.135111,-1.62357 -1.277826,-1.65216 -3.029244,-1.65216 v 0.82581 c 0,1.1464 -2.05353,1.19454 -2.930369,2.57739 -1.117979,1.76296 -0.536246,2.339 -0.971082,4.53669 -0.474705,2.39929 -3.307886,5.05838 -1.885268,8.0012 l -2.472999,0.30878 c -0.06584,0.24671 -1.384128,2.69834 -1.808488,3.69928 -0.504528,1.19013 -1.495841,2.90631 -1.495841,4.28757 v 0.55072 c 0,2.5948 3.412653,1.00943 2.416104,5.72154 -0.213463,1.00938 -0.943091,2.69909 -1.030738,3.37613 -0.211111,1.63085 0.06904,2.48528 -0.339713,4.06717 -0.285615,1.10558 -2.361432,5.20807 -1.238433,6.85281 0.561822,0.82254 4.413523,3.01064 5.692262,3.11486 l -0.815864,2.1007 0.33198,0.18339 3.519757,-2.55641 v 0.82636 c 0,1.28644 0.566943,0.49182 1.238433,0.36622 l 1.239537,1.56158 c 1.085159,-2.26215 0.871476,-2.84352 3.304329,-4.13124 0.0683,0.82157 0.198097,1.37708 1.101443,1.37708 h 0.275085 c 0.946097,0 1.576439,-1.26464 1.927249,-1.9278 2.253168,-0.0502 3.074873,-1.37708 4.405772,-1.37708 h 0.275085 c 0.589186,0 1.717774,1.05254 3.414252,0.68163 1.713368,-0.37465 1.920117,-0.68174 4.053354,-0.64186 l 0.792664,-0.59105 c 4.126976,0 7.766853,-1.60236 12.832308,-0.71698 2.929467,0.51201 3.346002,0.27192 5.56411,1.59471 2.232748,1.33166 2.352421,2.48866 3.905869,3.52915 3.761407,-0.87662 2.938413,0.78067 5.98889,-2.27193 1.594498,-1.59557 2.802756,-2.8273 3.972154,-4.8405 0.635471,-1.09414 1.373546,-1.27184 2.058716,-2.34705 0.809597,-1.27019 -0.0141,-2.46454 0.642968,-3.76391 0.542796,-1.07351 0.7193,-2.32052 1.252795,-3.15353 1.025839,-1.60167 1.187992,-0.36374 1.779212,-2.9022 -0.332326,-0.62831 -1.101443,-1.20252 -1.101443,-1.37708 0,-3.11899 4.405219,-2.01223 4.405219,-8.26303 1.829019,-0.96812 0.144433,-2.13909 3.028693,-2.20344 0.470643,1.30077 1.065455,0.61082 2.437094,0.86779 1.589909,0.2978 0.756723,1.33565 1.968125,1.33565 1.171749,0 0.612694,-1.10144 1.37708,-1.10144 1.080673,0 1.685473,0.19575 1.927253,1.10144 h 0.55072 l 0.0149,-0.93684 5.49175,0.66175 0.0127,0.86448 1.91454,-0.58939 c 0.62649,0.41966 2.31487,2.20344 3.02869,2.20344 l 0.77002,-0.0138 0.33142,-1.36327 h 0.82581 c 1.79108,0 4.95649,1.19519 4.95649,-0.27564 v -0.27508 c 0,-1.20798 -3.87827,-1.83813 -4.95649,-1.92781 v -1.92835 c 0,-1.5898 0.90708,-4.40688 -0.55017,-4.40688 -0.7166,0 -3.49348,2.16191 -4.72946,2.49178 l -0.22703,-1.1147 c -0.83323,0 -6.09411,-1.21761 -7.26489,-1.54555 -2.752248,-0.7708 -4.305019,-1.71244 -7.052766,-1.48369 v -0.55072 c -2.567318,0.59827 -3.579392,-0.42673 -3.532462,-3.34797 L 89.899604,154.787 c -3.586746,0 -10.698601,-4.04993 -14.397197,-4.88689 0,0 -4.178618,1.28391 -5.707176,3.37834 h -5.52e-4 c -0.84081,0.71692 -1.465776,1.44107 -1.524566,1.97531 l -4.232325,0.084 h -2.773493 c 0.782874,-1.63224 -1.27257,-3.42847 -1.87864,-4.39638 l 0.502113,-3.03974 c 1.544048,-1.03428 2.109137,-1.7224 4.130135,-2.47907 1.481408,-0.55477 3.028692,-1.62985 3.028692,-3.58052 0,-1.32685 -1.208663,-3.59703 -1.171043,-4.41572 l 0.385008,-2.77846 -0.590493,-0.79322 c 0,-3.23924 0.07177,-3.56922 -1.92283,-4.96202 -1.357738,-0.94811 -2.931529,-1.92338 -5.235997,-1.92338 h -1.376528 v 0.55072 l 5.231026,1.102 c 0.85075,0.56984 1.652165,1.01645 1.652165,2.47852 v 0.82636 c 0,1.11606 -1.520332,3.0298 -2.477971,3.0298 h -0.275637 c -2.527447,0 -2.815708,-2.02647 -5.231026,-3.30488 -1.785838,1.19621 -3.753481,3.24117 -6.608658,3.30488 -0.312016,-1.16918 -0.550169,-0.48176 -0.550169,-1.37708 v -0.55072 c 0,-1.40434 0.76546,-1.31402 1.100891,-2.75416 -0.567274,0.38 -0.714546,0.8258 -1.376528,0.8258 h -1.376527 c 0.207476,1.89765 0.825806,0.13015 0.825806,1.65272 0,0.68496 -0.687964,1.03595 -1.100891,1.65272 0,2.31131 -1.248657,3.15348 -2.202886,4.95759 1.628918,-0.43516 2.493981,-2.47907 5.781747,-2.47907 0.426925,-0.28593 1.002696,-0.82636 1.652165,-0.82636 0.647549,0 1.132918,0.55072 1.376527,0.55072 0.466368,0 1.029361,-0.36665 1.37708,-0.55072 2.474438,0.57668 4.970148,-0.0357 7.304656,0.95562 1.580608,0.67106 3.821827,2.32449 3.984307,4.27762 -1.684079,-1.12803 -1.080724,-1.4821 -3.694861,-2.36363 -1.190129,-0.40127 -3.971807,-0.94126 -5.391216,-0.94126 l -1.381499,-0.0707 -6.086107,0.30602 -0.792664,0.59049 c -1.413748,0 -4.405772,0.99481 -4.405772,2.20344 v 1.1274 0.001 0.002 0.004 0.24195 c 0,0.005 0.0047,0.0169 0.01326,0.0337 v 0.001 c 0.02843,0.3924 0.117406,1.11118 0.393294,1.62565 0.388978,0.72537 2.099565,2.10913 2.174715,2.16974 0.112128,0.11373 0.178742,0.0576 0.102742,-0.12373 l -0.0099,-0.0138 -0.03204,-0.12318 c -0.07354,-0.28241 -0.178171,-0.74159 0.178419,-0.79653 0.0667,-0.0103 0.122315,0.009 0.169027,0.0458 l 0.01547,-0.0569 0.03038,0.10219 c 0.158307,0.19027 0.186526,0.60572 0.187809,0.62474 l 5.52e-4,5.5e-4 v 5.5e-4 l 0.0077,0.0254 v 0.002 c 0.114267,0.36803 0.305464,0.75458 0.298837,0.99263 l 0.0044,0.0149 -0.0055,0.001 c -0.0065,0.0966 -0.04846,0.16644 -0.14638,0.19776 -0.155634,0.0498 -0.274566,0.004 -0.357941,-0.0619 l -1.097024,0.29663 c 0.852781,1.27394 0.387221,1.753 1.438394,2.96793 1.118299,1.29232 1.178785,1.23352 2.348714,2.33269 1.227538,1.15325 2.767063,2.99484 4.087602,4.11025 0.332539,0.37209 0.648779,0.84946 0.660644,1.33068 -0.922154,-0.0767 -2.753607,-0.74766 -2.753607,-1.65271 v -0.82581 c -2.685007,0.71713 -3.800455,2.43764 -5.506663,3.58052 -0.604151,-2.59405 -2.510947,-7.82022 -4.334515,-9.08111 l -0.360151,2.42936 -0.539121,0.32701 -1.374318,-0.28558 c 0.440286,1.64945 3.579368,1.63789 3.429718,7.825 l -4.531162,-5.62156 c 0.204163,0.76481 2.367252,3.14251 1.572622,3.46949 -1.287298,0.52965 -1.571168,-1.9827 -3.224786,-2.36805 v 1.102 c 0,2.60955 0.962121,1.52343 1.37708,3.30488 -1.621758,-0.13489 -0.574378,-0.55072 -1.652165,-0.55072 -3.019797,0 3.066697,2.69236 3.303777,3.58052 h -1.100891 c 1.781669,2.43263 2.66939,0.14443 3.854499,5.23268 l 1.753802,0.1508 1.663764,1.91786 0.25078,-0.14362 -0.05579,-1.88472 0.797635,-0.61479 1.932773,0.29662 -0.28558,-1.37431 c 0.567701,-0.13233 6.470216,-1.37708 6.608105,-1.37708 h 0.826359 c 0.838564,0 1.006819,0.12487 1.634488,0.23144 l 3.045816,-1.0578 c -0.687526,2.57555 -3.303776,0.31456 -3.303776,2.20344 0,0.95678 0.550721,0.42029 0.550721,1.37708 0,1.55655 -0.91661,-0.0712 -1.404147,1.71182 l -3.071777,-1.15337 0.331427,3.35349 -1.362166,-0.33143 c 0.138104,1.66024 1.855107,1.78447 1.067748,4.35938 -0.396033,1.29488 -2.017347,2.25039 -3.821355,2.25039 -0.294273,-1.10269 -0.826359,-0.90138 -0.826359,-2.20289 l -0.01049,-0.86005 -1.146186,0.32866 -1.320737,-3.87549 -0.65733,0.11379 -0.994834,0.98766 c 0.09406,-1.13177 0.275084,-0.61544 0.275084,-1.65272 0,-0.76748 -0.633146,-1.58468 -1.101443,-1.9278 -0.245103,0.13767 -0.550721,0.17916 -0.550721,0.55072 0,3.73009 0.539428,10.61503 -3.19772,11.49113 l 1.964258,-4.35164 0.559007,-2.96682 -0.151351,-0.59215 h -0.550722 c 0,2.68309 -2.962434,5.78198 -3.579414,5.50887 -0.150396,-0.34002 4.130136,-6.49455 4.130136,-7.98739 v -0.27564 c 0,-1.0531 0.08471,-0.0998 -0.275085,-0.82581 -2.417998,0.64584 -1.49668,3.08296 -2.816579,4.61899 -1.152509,1.34128 -3.190698,2.19541 -3.241358,4.46985 h -0.825806 l -0.130913,-2.33877 -1.603003,1.55274 0.02099,0.021 -0.238075,0.18946 0.217085,-0.21045 -1.080453,-1.08101 -0.214323,0.21432 c -0.08701,1.04497 -0.825806,3.14676 -0.825806,3.58052 0,0.68283 0.521754,1.17926 0.550722,2.47853 -3.458267,-2.31645 -3.874112,-6.37776 -6.03087,-9.64288 l -0.302151,-3.30157 v -1.37708 c 0,-1.10397 1.299601,-5.50887 2.47797,-5.50887 h 0.825806 c -0.0248,-1.11713 -0.719774,-3.30488 1.101443,-3.30488 h 0.275637 c 0.550813,0 1.274243,0.82636 3.581071,0.82304 l 1.099786,0.55404 c -0.441249,-0.6592 -2.37149,-2.47852 -3.304329,-2.47852 -0.743645,0 -0.759013,0.1311 -1.376528,0.27508 v -1.37708 c 0.41506,-0.0967 1.931917,-0.55072 2.202886,-0.55072 1.036959,0 0.520505,0.18156 1.64885,0.2784 l -1.306927,-1.47043 0.208246,-0.18505 h 1.927802 c -1.666548,-2.48961 -3.724035,-0.60476 -4.956494,-0.27564 0.125918,-1.15154 2.44065,-1.89991 3.304329,-2.47852 l 2.801665,0.0127 0.261827,-1.18596 2.168086,0.89761 v -1.10144 l -0.732454,-0.12318 1.282624,-2.08026 c -1.720529,0.0384 -3.964702,3.52957 -4.697981,2.00017 l 0.513712,-8.67014 c 0.257502,-2.10865 0.421322,-5.43005 0.512608,-8.64749 l 0.795977,-13.43329 c 0.07322,-0.15703 0.117105,-0.35763 0.117105,-0.57558 0,-0.50432 -0.235084,-0.91308 -0.52476,-0.91308 z m 20.029802,13.35044 c 0.384064,-0.0275 0.741155,0.48057 0.302151,0.56287 -0.439004,0.0823 -0.686203,0.67326 -0.713673,0.85177 -0.02747,0.17851 -0.712941,0.85186 -1.165519,0.76946 -0.452578,-0.0824 -0.535095,-0.0413 -1.001463,0.19223 -0.466365,0.23357 -1.262204,0.56317 -1.275994,0.21984 -0.01379,-0.34333 0.02746,-0.49441 0.576131,-0.6043 0.548674,-0.10988 0.31578,-0.23364 0.768358,-0.54961 0.452579,-0.31597 0.246906,-0.34335 0.576131,-0.82415 0.329226,-0.4808 0.69956,0 0.973844,0 0.356696,0 0.575972,-0.59061 0.960034,-0.61811 z m -7.222351,2.12941 c 0.267446,-0.0411 0.04799,0.44616 0.329218,0.56288 0.281231,0.11673 0.294816,-0.33679 0.514264,-0.35739 0.219448,-0.0206 0.335717,0.26831 0.322037,0.39882 -0.01368,0.13052 -0.212318,0.50776 -0.534702,0.54906 -0.322386,0.0413 -0.548718,0.2266 -0.788797,0.39827 -0.240079,0.17171 -0.40455,0.0277 -0.562322,-0.0547 -0.157771,-0.0824 -0.253687,0.1099 -0.363465,0.2541 -0.109778,0.14419 -0.562382,0.3435 -0.692683,0.2679 -0.130303,-0.0756 -0.04818,-0.508 0.02044,-1.09868 0.06862,-0.59067 0.658503,-0.50819 0.706493,-0.50819 0.288072,-0.10305 0.144133,0.0752 0.109923,0.29497 -0.03421,0.21977 -0.0348,0.3642 0.129809,0.3712 0.164609,0.007 0.205975,-0.15839 0.240285,-0.54299 0.03431,-0.38459 0.302059,-0.49416 0.569502,-0.53526 z m -0.212113,6.60645 c 0.45354,-0.01 0.411025,0.3283 0.422569,0.70263 l 0.645731,0.74516 c 0.118329,0.007 0.224669,0.0235 0.289446,0.11821 0.173699,0.25398 0.1842,0.41982 0.32038,0.58497 l 0.01049,0.0122 0.0011,0.001 5.52e-4,5.6e-4 0.496589,0.57281 0.05413,0.27288 c 0.02362,-0.003 0.04765,-0.008 0.07181,-0.0155 l 0.610931,-0.98213 c 0.193046,-0.65086 0.215836,-0.98975 0.396055,-0.98323 0.05868,0.002 0.131908,0.002 0.207695,0.0116 l 0.0022,-0.004 0.0022,0.005 c 0.194329,0.026 0.402989,0.12173 0.418703,0.50985 0.0068,0.17028 0.01179,0.3571 0.02044,0.53967 l 0.472284,1.12796 c 0.238474,0.0982 0.526609,0.18595 0.604854,0.35131 0.114802,0.24265 0.168165,0.712 -0.08507,0.88933 l 0.0028,0.007 -1.162205,0.50267 c -0.117153,0.10625 -0.235063,0.1753 -0.418703,0.18118 l -0.04806,0.0204 -0.06739,-0.0243 c -0.402768,-0.0375 -0.729349,-0.25991 -1.088186,-0.28503 -0.234841,-0.0165 -0.268147,-0.15273 -0.328113,-0.23365 l -0.151352,-0.0558 c 0.07215,0.19956 0.19716,0.42108 0.360704,0.62695 0.194756,0.0436 0.429273,0.0924 0.54354,0.40434 0.02127,0.058 0.04927,0.1087 0.0823,0.15135 0.207369,0.12036 0.43334,0.19444 0.665616,0.19444 0.03613,0 0.109621,-0.0181 0.209351,-0.0508 l 0.0011,-5.5e-4 c 0.326875,-0.121 0.757035,-0.48468 0.893749,-0.45903 0.04297,0.008 0.108834,0.0105 0.188361,0 0.215494,-0.10604 0.428538,-0.2193 0.61314,-0.33143 l 5.53e-4,-5.5e-4 c 0.222334,-0.24649 0.507628,-0.54362 0.560111,-0.80924 -0.0078,-0.0918 -0.0195,-0.17419 -0.03425,-0.24912 -0.176371,-0.31395 -0.556931,-0.96537 -0.504874,-1.40415 v -5.5e-4 c 0,-0.63462 0.191298,-0.82636 0.825806,-0.82636 h 0.825806 l 0.01326,-0.3955 c -0.104861,-0.14484 -0.223106,-0.32087 -0.211561,-0.44743 0.02063,-0.22672 0.301003,-0.72358 1.097024,-0.19222 0.796021,0.53136 1.063086,0.39836 1.385366,-0.0961 0.322277,-0.49448 0.563766,-0.56139 0.850663,-0.15798 0.07504,0.1055 0.147729,0.21144 0.214323,0.31652 0.08092,0.0839 0.144623,0.18672 0.184494,0.32535 0.08765,0.17883 0.143066,0.34838 0.143066,0.49824 0,0.32281 -0.109693,0.2814 -0.02044,0.62474 0.08925,0.34333 0.06159,0.78975 0.02044,0.92026 -0.02245,0.0712 -0.124815,0.2054 -0.193332,0.36071 -0.01646,0.11053 -0.03026,0.23725 -0.03646,0.4071 v 5.5e-4 c 0.01721,0.0424 0.04129,0.0726 0.07015,0.0906 l 0.726378,-0.7794 c 0.17124,-0.47727 0.411435,-1.08139 0.61314,-1.02025 0.226397,0.0686 0.898244,0.13732 0.452398,1.03019 -0.222228,0.4451 -0.858454,1.23301 -1.52567,1.96757 -1.435658,1.71486 -3.564178,3.42914 -4.609047,3.70812 -0.01967,0.88261 0.08993,1.37708 -0.825806,1.37708 H 50.25099 v -0.55072 l 1.649955,-0.0221 1.493079,-0.0696 1.28649,-2.50614 -2.77736,-0.43196 v 0.55072 h 1.927249 v 0.55073 c -1.214288,0.10112 -1.204559,0.55127 -1.927249,0.55127 -1.162449,0 -0.208882,-0.68334 -1.927801,-0.82636 l -0.01381,0.60706 -1.362718,-0.33197 v -1.65217 c 0,-1.0779 -0.601491,-2.17078 -0.629711,-2.49178 l 0.01712,-0.0989 c -0.05227,-0.18247 -0.09615,-0.36171 -0.107161,-0.51648 -0.02747,-0.38449 0.247442,-0.79833 0.404893,-1.16828 l 0.06739,-0.38225 c 0.01357,-0.36119 -0.05499,-0.75697 0.02154,-0.7435 0.0574,0.0101 0.08074,-0.22597 0.188914,-0.44798 l 0.03701,-0.2099 h 0.106057 c 0.09267,-0.0947 0.219007,-0.16242 0.394951,-0.16627 z m 27.307943,10.63219 c 0.790249,-0.055 8.051592,3.8556 11.564599,3.8556 0.337885,1.26549 0.825806,0.6955 0.825806,1.65272 v 0.82636 c -2.359738,0 -8.39814,-1.46467 -9.975958,-2.23493 l -6.946714,-1.98414 c 0,0 1.202867,-1.25035 2.623246,-1.95818 l -0.0061,0.0149 z m -9.636798,8.53811 h 0.275637 c 0.617299,0 0.604499,0.21787 1.101443,0.55073 -0.176692,0.73851 -0.275637,0.51888 -0.275637,1.10144 0,0.70933 1.353737,0.82636 2.202886,0.82636 l 0.07291,1.78529 1.734469,-0.9501 -0.0696,-0.55514 6.797572,2.19847 v 0.55127 h -1.652165 c -1.190879,0 -1.10964,-0.55127 -1.927249,-0.55127 -0.949304,0 -1.06603,0.20392 -1.927249,0.27564 -0.275674,-0.1846 -0.959801,-0.84725 -1.110833,-0.88712 l -2.434333,0.30491 1.451099,1.58422 -0.04364,0.29884 -2.632085,0.85674 2.016182,0.59657 v 1.10199 h -0.825806 c -0.956893,0 -0.386993,-0.48848 -1.652164,-0.82636 -0.01967,0.8826 0.08982,1.37708 -0.825806,1.37708 -1.399959,0 -0.851356,-1.10638 -0.275637,-1.65271 -1.880218,-0.0419 -3.409576,-3.31963 -4.130135,-4.68196 0.718739,-1.07362 2.462517,-3.30489 4.130135,-3.30489 z m 30.434406,0.50543 c 0.121215,0 0.219847,0.23671 0.219847,0.52863 0,0.29202 -0.09863,0.52918 -0.219847,0.52918 -0.121108,0 -0.219294,-0.23716 -0.219294,-0.52918 0,-0.29192 0.09819,-0.52863 0.219294,-0.52863 z m 1.879192,0.13754 c 0.121215,0 0.219847,0.23671 0.219847,0.52863 0,0.29203 -0.09863,0.52918 -0.219847,0.52918 -0.121108,0 -0.219294,-0.23715 -0.219294,-0.52918 0,-0.29192 0.09819,-0.52863 0.219294,-0.52863 z m 14.142554,2.02558 -0.19223,2.14267 -1.893,-0.522 z m -26.285494,2.12279 c 0.185083,-0.0719 0.44874,-0.0338 0.606512,0.0486 0.315544,0.16482 0.301802,0.35686 0.624188,0.21266 0.322385,-0.14419 0.473515,0.0138 0.487198,0.0481 0.01368,0.0343 0.438989,0.0548 0.576131,-0.0276 0.137142,-0.0824 0.507227,0.0345 0.699311,0.21985 0.192084,0.18535 0.315998,0.28857 0.514817,0.29552 0.198819,0.007 0.555007,0.20576 0.788244,0.40489 0.233238,0.19914 0.267894,0.39148 -0.07512,0.522 -0.343015,0.13051 -0.774987,-0.0961 -0.774987,-0.0961 0,0 -0.720296,-0.44644 -0.967215,0.0342 -0.24692,0.48069 -0.55547,0.84472 -0.973844,0.7761 -0.418373,-0.0686 -0.596443,-0.35033 -0.500455,-0.522 0.09599,-0.17166 0.267122,-0.56995 0,-0.63248 0,0 -0.822912,0.0415 -1.138452,-0.67279 -0.157772,-0.35713 -0.05141,-0.539 0.133675,-0.61093 z m -52.93555,23.30154 c 0.450655,0 0.825806,0.16484 0.825806,0.55072 0,0.21068 -1.323739,5.50832 -1.927249,5.50832 -0.895003,0 -0.208072,-0.23869 -1.425137,-0.56343 l -0.227027,1.11415 h -1.376528 v -0.55072 h -0.826358 v -1.10144 c 0,-0.44381 -0.787834,-1.33564 -1.141215,-1.9615 l 0.591046,-0.79266 c 5.275844,0 2.741805,-2.20344 5.506662,-2.20344 z"
   style="fill:#1f1a17"
   id="path30" /><path
   d="m 56.534297,132.94042 c -0.384062,0.0275 -0.603338,0.61811 -0.960034,0.61811 -0.274284,0 -0.644618,-0.4808 -0.973844,0 -0.329225,0.4808 -0.123552,0.50818 -0.576131,0.82415 -0.452578,0.31597 -0.219684,0.43973 -0.768358,0.54961 -0.548675,0.10989 -0.58992,0.26097 -0.576131,0.6043 0.01379,0.34333 0.809629,0.0137 1.275994,-0.21984 0.466368,-0.23356 0.548885,-0.27464 1.001463,-0.19223 0.452578,0.0824 1.138049,-0.59095 1.165519,-0.76946 0.02747,-0.17851 0.274669,-0.76946 0.713673,-0.85177 0.439004,-0.0823 0.08191,-0.59035 -0.302151,-0.56287 z"
   id="path29" /><path
   d="m 49.311946,135.06983 c -0.267443,0.0411 -0.53519,0.15067 -0.569502,0.53526 -0.03431,0.3846 -0.07568,0.54983 -0.240285,0.54299 -0.164613,-0.007 -0.164014,-0.15143 -0.129809,-0.3712 0.03421,-0.21977 0.178149,-0.39802 -0.109923,-0.29497 -0.04799,0 -0.637869,-0.0825 -0.706493,0.50819 -0.06862,0.59068 -0.150741,1.0231 -0.02044,1.09868 0.130301,0.0756 0.582905,-0.12371 0.692683,-0.2679 0.109778,-0.1442 0.205694,-0.33651 0.363465,-0.2541 0.157772,0.0824 0.322243,0.2264 0.562322,0.0547 0.240079,-0.17167 0.466411,-0.35701 0.788797,-0.39827 0.322384,-0.0413 0.52102,-0.41854 0.534702,-0.54906 0.01368,-0.13051 -0.102589,-0.41945 -0.322037,-0.39882 -0.219448,0.0206 -0.233033,0.47412 -0.514264,0.35739 -0.281232,-0.11672 -0.06177,-0.60402 -0.329218,-0.56288 z"
   id="path28" /><path
   d="m 51.132586,133.59333 c 0.145907,0 0.264037,0.11041 0.264037,0.24691 0,0.1365 -0.11813,0.24747 -0.264037,0.24747 -0.1458,0 -0.264037,-0.11097 -0.264037,-0.24747 0,-0.1365 0.118237,-0.24691 0.264037,-0.24691 z"
   style="fill:#1f1a17"
   id="path27" />
 </g>
</svg>
