<?xml version="1.0" encoding="UTF-8" standalone="no"?>
<!-- Creator: CorelDRAW -->

<svg
   xml:space="preserve"
   width="210.452mm"
   height="239.112mm"
   style="shape-rendering:geometricPrecision; text-rendering:geometricPrecision; image-rendering:optimizeQuality; fill-rule:evenodd; clip-rule:evenodd"
   viewBox="0 0 224.956 255.591"
   version="1.1"
   id="svg1"
   sodipodi:docname="peace_soldier_right.svg"
   inkscape:version="1.3.2 (091e20e, 2023-11-25, custom)"
   xmlns:inkscape="http://www.inkscape.org/namespaces/inkscape"
   xmlns:sodipodi="http://sodipodi.sourceforge.net/DTD/sodipodi-0.dtd"
   xmlns="http://www.w3.org/2000/svg"
   xmlns:svg="http://www.w3.org/2000/svg"><sodipodi:namedview
   id="namedview1"
   pagecolor="#ffffff"
   bordercolor="#000000"
   borderopacity="0.25"
   inkscape:showpageshadow="2"
   inkscape:pageopacity="0.0"
   inkscape:pagecheckerboard="0"
   inkscape:deskcolor="#d1d1d1"
   inkscape:document-units="mm"
   inkscape:zoom="1"
   inkscape:cx="585.5"
   inkscape:cy="517.5"
   inkscape:window-width="1920"
   inkscape:window-height="1009"
   inkscape:window-x="-8"
   inkscape:window-y="-8"
   inkscape:window-maximized="1"
   inkscape:current-layer="__x0023_Layer_x0020_1" />
 <defs
   id="defs1">
  <style
   type="text/css"
   id="style1">
   <![CDATA[
    .fil1 {fill:#1F1A17}
    .fil0 {fill:#DA251D}
   ]]>
  </style>
 </defs>
 <g
   id="__x0023_Layer_x0020_1"
   inkscape:label="__x0023_Layer 1">
  <metadata
   id="CorelCorpID_0Corel-Layer" />
  <g
   id="_123771696"
   transform="translate(-46.216468,-38.756042)">
   <path
   d="m 154.3473,102.50988 c -2.67773,0.19571 -1.68945,1.3235 -4.18814,1.3235 l -0.80371,0.75841 c -0.6407,0.6747 -1.31017,1.52964 -1.95376,2.43212 2.14295,-0.0769 3.1509,-1.70286 4.96036,-2.9149 l 1.66597,0.18229 c 0.85438,-2.05798 3.36852,0.46973 4.11633,0.64407 0.18171,2.18368 3.44284,3.1592 5.7022,3.70701 0.57444,0.52259 2.27452,1.34608 2.8917,1.62068 0.6173,0.27471 1.31673,0.52197 1.37156,0.82415 0.0548,0.30218 -0.0276,1.16773 -0.0276,1.16773 0,0 0.7134,0.89274 0.58994,-0.32977 -0.12346,-1.22251 -0.86416,-4.40912 -2.46913,-5.64531 -0.65289,-0.50282 -0.85827,-0.65058 -0.8711,-0.65015 -1.67156,-1.17954 -4.46286,-2.13188 -5.8392,-2.59397 -0.5693,-0.19101 -4.59225,-0.56627 -5.1454,-0.52586 z m 1.04455,2.69947 c -0.43697,0.21068 -0.39588,0.27674 -1.102,0.27674 -3.37862,0 -1.69619,-0.0571 -4.40577,1.37708 0.78565,1.17378 1.59733,1.65272 3.57941,1.65272 l -2.57629,-1.15005 c 0.37626,-0.60661 1.15393,-1.32903 1.75049,-1.32903 1.71549,0 2.46434,0.78927 4.13013,0.82636 0,1.9234 -0.96885,3.0298 -2.75361,3.0298 h -0.8258 c -0.95657,0 -0.42007,-0.55072 -1.37653,-0.55072 h -2.20289 c -1.66066,0 -0.23958,3.02924 -3.02869,3.02924 -0.53146,0 -0.4905,-0.0864 -0.82636,-0.27508 l 1.2423,-2.28464 0.13478,0.90756 0.66065,-1.05449 -1.0103,-0.48057 1.21026,-0.87442 -1.41133,-0.0696 -0.0486,0.0519 c -1.52865,2.30852 -2.73096,4.52508 -2.73096,4.52508 0.35103,-0.25012 0.7186,-0.44577 1.40249,-0.44577 1.06571,0 -0.44573,0.6269 1.37708,0.82636 l -0.94843,1.25445 -0.15301,0.39827 c 1.85349,-0.15424 2.93691,-2.4865 4.69687,-2.73759 2.58484,-0.36888 4.14724,-1.19744 5.49065,0.80923 l 2.16477,0.67335 -0.14417,1.5439 0.49714,0.77941 c -1.38232,1.57803 -2.95249,1.39312 -3.06846,2.7873 h 0.55072 v 0.55072 l -1.09095,0.30933 c 0.0835,1.09799 0.26459,0.58175 0.26459,1.61903 0,0.50623 -0.63121,0.70086 -1.10089,0.82635 l 0.29939,-1.92393 -2.72931,-0.97992 -0.0481,-0.67666 c -1.37109,0.11415 -1.64155,0.14772 -1.9278,1.37708 h 0.55072 v 0.55072 l 1.36272,-0.33143 0.0828,0.27398 -1.41022,0.44466 -0.0287,0.81145 c 0.0574,0.0352 0.13077,0.0721 0.21874,0.0994 l 1.46049,-0.51427 c 0.2435,-0.20812 0.26458,-0.31227 0.42257,-0.33087 0.0781,-0.009 0.18633,0.0202 0.28061,0.0834 l 0.0718,-0.0249 -0.0376,0.0497 c 0.16782,0.13298 0.26597,0.38153 5.6e-4,0.71589 -0.30796,0.38801 -0.83947,0.65339 -1.1611,0.82249 l -0.116,0.86723 c 0.0497,0.18813 0.0663,0.33806 -0.0453,0.33806 h -0.0127 -0.53802 c 0.15873,0.23709 1.50744,1.80542 1.67868,1.90184 0.59517,0.33542 2.02751,0.43858 1.90073,1.40359 l -1.545,11.03045 c -0.23826,0.9834 0.44356,1.99651 0.44356,3.29107 0,0.54846 -1.10089,0.86688 -1.10089,3.58052 -1.30727,0.69191 -2.76061,0.87068 -3.89869,1.60908 -1.13464,0.73627 -2.05243,1.6223 -2.98505,2.24708 -1.43011,0 -5.20705,0.1159 -6.15903,0.44908 -1.81725,0.63611 -2.00875,2.58016 -4.30413,2.58016 -0.14623,0 -0.60411,-0.39658 -0.82581,-0.55072 0,-1.68065 -0.2862,-2.43584 -1.65216,-2.75416 -0.8189,1.5481 -1.19287,5.76965 -2.75306,6.33468 l 1.09979,-4.13179 -0.26625,-0.116 -1.90239,4.38146 -0.49162,-0.18228 0.81863,-3.10492 c 0.12357,-0.20566 0.23007,-0.43568 0.2911,-0.65844 0.19198,-0.70055 -0.0825,-1.5384 0.38391,-1.96426 0.46636,-0.42585 0.82335,-1.08478 0.46676,-1.26329 0,0 -0.87813,0.13719 -1.01528,0.76892 -0.13714,0.63172 -0.21969,1.05768 -0.27453,1.45607 -0.0548,0.39837 -0.30157,1.18136 -0.37009,1.45607 -0.0579,0.23227 -0.31189,0.62203 -0.27288,0.81144 -0.37647,0.68421 -0.48045,1.62394 -0.79321,2.4625 l -0.0685,1.13183 c 0.64413,0.27075 0.99737,0.60541 1.84384,0.60541 h 1.37653 c 1.33357,0 0.28485,-1.44728 2.75361,-1.65272 l 0.22868,0.6844 0.32204,-0.13368 v 1.37708 h 1.37653 c 0.97035,0 1.10905,1.102 1.65216,1.102 0.74365,0 0.75902,-0.13177 1.37653,-0.27564 0.54087,0.28636 0.81211,0.55072 1.65216,0.55072 h 0.27509 c 0.6173,0 0.6045,-0.21786 1.10144,-0.55072 l 3.89372,-0.65678 0.15687,-0.24028 -0.88601,-2.45698 c 0.5057,-0.38065 1.30129,-1.05284 2.34208,-1.05284 0.46306,0 1.51855,1.70308 1.65217,2.20344 h 1.92725 v 1.92835 c 0,3.68915 -1.38704,9.63809 0.82636,12.94444 v 2.20344 c 0.47651,0.71179 1.92725,2.16965 1.92725,3.0298 0,0.64712 -1.97762,1.22494 -2.58679,2.92098 -0.5336,1.48515 -1.17422,2.47001 -1.81899,3.68878 3.55937,-0.82947 1.41963,-4.13124 3.30433,-4.13124 0.4731,0 1.37653,1.31213 1.37653,1.92836 0,0.34825 -0.88232,1.32465 -1.10144,1.65216 l 0.20162,1.39144 c -0.82424,0.58737 -2.40396,0.66433 -2.40396,1.914 0,1.1944 0.43817,0.84975 0.55072,2.20288 l -2.03164,-1.34615 -0.17124,0.24471 c -0.31212,1.16918 -0.55072,0.48186 -0.55072,1.37708 v 1.10199 l 0.3143,3.02428 c -1.14865,-0.2915 -1.96647,-2.97534 -1.96647,-4.40191 v -0.27508 c 0,-1.66099 1.48506,-1.67989 1.9278,-3.58052 -0.58095,0.38908 -2.47852,1.90053 -2.47852,2.75416 v 1.10144 c 0,4.79279 2.47852,4.63777 2.47852,8.53812 1.49199,2.2289 1.37653,2.19145 1.37653,5.78395 1.78979,2.67357 0.82581,1.71132 0.82581,4.9576 0,1.16063 0.55072,1.31658 0.55072,2.75416 v 1.92836 l -0.32977,0.0464 1.65714,11.76456 c 0.633,0.60725 0.78985,1.41916 1.62509,2.3117 1.13807,1.2161 2.09956,0.45258 1.45276,1.85157 l 0.9639,0.68827 -0.1972,0.2331 -1.03958,-0.6496 -0.23255,0.25355 1.42956,1.31963 0.27619,-0.16185 -0.74848,2.41776 -1.1517,0.95893 0.69986,0.1729 v 1.37763 c 0,3.38695 -4.49202,7.16048 -8.25972,7.16048 -0.7662,1.1446 -1.55358,0.92129 -2.14544,2.53653 -0.40373,1.10162 -0.44662,3.24743 -1.43397,3.24743 -0.90762,0 -0.0777,-1.37708 -1.37708,-1.37708 h -1.10089 l -0.48168,-12.11201 2.65584,-0.66395 0.3375,-0.98434 -2.51166,-0.28835 0.0348,1.66377 -0.31044,-0.009 v -2.47907 c 0.54268,0.25098 1.10144,0.44411 1.10144,-0.55073 0,-0.56385 -0.5673,-0.50625 -1.10144,-0.55072 0.16386,-0.61377 0.0641,-0.82636 0.82581,-0.82636 h 1.10144 c 0.34836,1.30483 2.03088,1.6182 3.57941,1.65272 l -0.10882,-1.92504 c 0.0929,-0.57336 -0.7278,-0.96056 -1.2677,-1.10476 v 0.82636 l -2.47798,0.0459 0.55238,-1.9731 -0.79487,0.58994 c -0.4995,-0.73658 -1.68475,-1.52896 -1.68475,-2.24321 0,-0.56385 0.5673,-0.50625 1.10144,-0.55072 v 1.37708 h 1.10089 l -0.68495,-1.87919 1.53119,0.45958 1.08101,0.0425 -0.91364,-1.60079 c -1.78914,-0.0939 -0.77114,-0.60265 -1.83942,-0.60265 -0.4204,0 -0.4741,0.64171 -1.10144,1.10145 l 0.30933,-1.09095 -0.63965,-0.50653 -0.13589,-6.94395 -1.24672,-1.03682 c -3.45378,0.23142 -18.33118,-2.60823 -20.58936,0.76505 l 0.31707,1.64332 c -0.48272,0.66786 -1.96923,4.18549 -1.96923,4.96644 v 1.9278 c 0,2.99114 1.30291,4.57997 2.47797,6.33523 0,2.10458 -0.27936,3.06975 -0.27509,5.23268 0.004,1.77964 0.51289,4.04922 -0.82635,4.40688 v -0.82636 c 0,-0.78682 -0.0867,-0.50376 -0.55073,-0.82636 l -0.26017,0.83244 -1.10531,-0.31541 0.27454,1.40857 -1.35775,-0.86779 0.0701,0.29718 -1.47374,0.57834 c 0.33082,0.49202 0.54851,0.47896 0.54851,1.09647 0,0.14623 -0.39669,0.60456 -0.55072,0.82636 l 0.87275,1.05891 -0.63744,0.83575 0.3491,1.12409 -0.90645,1.06996 1.44336,-0.46621 c -0.20202,-0.82381 -0.29552,-0.51311 -0.29552,-1.14398 0,-0.42276 0.54545,-0.89557 0.82636,-1.10144 1.42165,1.04187 0,0.42133 0,1.65272 0,0.83268 0.32413,0.76103 1.10144,0.8258 l 1.12686,1.60798 0.24967,-0.2309 v -1.10144 h 0.82581 v 1.37708 l -1.9626,1.04676 c -0.32901,-0.63429 -0.4496,-1.59748 -1.34118,-1.59748 h -0.27564 c -0.16803,0 -1.89766,1.09863 -2.47797,1.37708 l -2.39898,-2.54647 0.33972,-0.36899 2.20509,1.95929 c -0.0778,-1.03577 -0.42091,-1.85341 -0.42091,-2.89999 0,-1.59043 -0.70043,-1.28147 -2.20289,-0.27508 l -0.83188,-0.26072 c 0.18781,0.7664 0.28116,0.4562 0.28116,1.08708 0,0.45493 -0.79092,0.89343 -1.10144,1.10144 l -2.02944,-2.37523 2.30507,-0.10385 c 0.2001,-1.82912 1.37653,-0.40717 1.37653,-1.9278 v -0.27508 c 0,-0.91349 -2.9657,-2.27203 -3.8545,-2.47908 v -0.82636 l -2.74698,-0.84458 1.61792,2.03386 -0.24802,0.1878 h -0.55072 v 0.82636 c 0.77731,0.0647 1.10145,-0.006 1.10145,0.82636 v 0.27564 c 0,0.91402 -0.55073,0.57479 -0.55073,1.10144 0,0.53168 0.087,0.4904 0.27564,0.82636 l -0.59049,0.79322 c 0.0399,2.75853 -1.13644,4.17067 2.51774,2.23658 l -0.68826,0.9639 -0.40545,0.0492 1.35609,1.94216 0.28834,-0.20106 c -0.18203,0.78147 -0.27564,0.47057 -0.27564,1.10144 0,0.37284 0.2975,0.15289 0.55073,1.10144 l 1.65492,-0.26183 -0.003,0.81311 1.09923,-0.55459 1.64112,0.34523 c -0.30304,0.36557 -0.0377,0.48444 -0.8131,0.48444 h -0.82581 l 0.50819,1.39752 2.79338,0.27398 c 0.1613,-0.61366 0.57312,-1.53215 1.37929,-1.39586 l 2.1946,0.32259 0.92192,-1.64775 4.58861,-0.37672 0.004,-0.7772 2.74366,-0.59436 0.009,-0.50708 -1.9289,-0.0547 c -0.7724,0.0764 -0.51748,-0.0546 -0.82415,-0.49603 l 4.12074,-0.35684 -0.31761,-0.72527 c 4.53218,-2.39138 2.54027,-1.49003 5.55803,0.53139 l -0.30878,1.09094 1.13293,-0.54354 1.1031,0.003 -0.32646,0.80647 1.34946,0.90922 1.16828,-0.12539 c 0.14677,1.68407 0.56233,0.63647 0.56233,1.71458 v 1.10199 l -2.6923,0.97606 -0.0613,0.40102 c 1.60465,0.0357 1.313,0.19599 1.65216,1.65217 l -1.08542,-0.33529 -2.99224,1.30085 c 0.0993,0.0788 0.091,0.39997 0.49825,0.41152 l 1.92891,-0.0541 1.92614,0.0541 c 0.73894,0 1.43779,-2.02303 1.92725,-2.75416 l -0.0889,-1.92449 0.63965,-0.003 v 1.10144 c 1.11413,-0.0927 1.37179,-0.5062 1.65217,0.55127 l 0.23752,0.23753 1.37653,-1.37708 -0.23753,-0.23753 h -0.82636 l -0.23531,-0.18228 1.44779,-1.87312 -0.16682,1.49032 1.41851,-0.31762 -0.57503,-1.57925 2.21504,-0.64738 0.94015,-1.50966 1.30306,0.1381 0.48112,-0.53194 1.15668,0.0552 1.92062,-0.84293 1.61902,0.67279 0.0398,-0.65622 c 1.41129,0.11748 3.45649,0.45014 3.57942,1.9278 l 1.85544,-1.21137 c -0.26584,1.37537 -0.754,0.80488 -0.754,1.76209 0,0.56385 0.56731,0.50626 1.10144,0.55072 l 0.77886,-2.22387 c 2.69526,0.24125 1.60975,0.98078 3.62636,1.94879 v -0.82636 l 2.47908,0.26514 0.33419,-1.07548 c 0.92546,0.21389 1.23396,0.5347 2.41831,0.5347 h 1.92725 v -1.10144 l 1.89411,1.15005 -0.6369,-1.35995 1.43785,0.60872 -0.26846,0.68329 3.27284,1.58256 0.0431,-1.01195 1.73557,2.3581 0.30381,-0.116 -0.69544,1.2992 c 0.79805,0.3987 -0.15461,0.3143 0.89816,0.3143 1.33176,0 0.0718,-0.67933 1.65217,-1.10144 v -0.82636 l -1.11415,0.22703 c -0.5786,-0.75893 -1.32549,-0.7215 -1.74054,-1.77811 -0.54665,-1.39172 -0.28836,-1.23408 -1.00036,-2.58016 l -1.0904,0.30878 -0.0105,-0.58442 1.36216,-0.33143 1.73944,1.92725 0.20217,-0.21874 v -1.10144 l -0.22758,0.23918 -2.96406,-2.8221 0.39606,-0.0177 1.17546,-1.78529 -0.032,-1.39807 0.59104,-0.79321 -1.14176,-0.0331 -1.10365,3.14801 -0.29829,-0.10937 -0.57337,-1.64443 1.09205,0.61369 -0.74902,-1.74331 0.91916,-0.97218 -0.29718,-0.3016 -2.19018,2.21338 -0.1033,1.27489 h 0.55072 v 1.10144 l -0.14472,-0.23697 -2.09517,1.27765 -1.00478,-0.58497 -0.0597,0.92137 -2.14654,-0.95782 -0.57889,-2.90386 1.06277,0.31486 -0.28889,-1.95708 1.36769,-0.62861 c 0.008,1.22915 -0.52481,1.72563 0.58386,1.72563 0.53147,0 0.4904,-0.0863 0.82636,-0.27508 l -1.01748,-1.81456 c 0.43152,0.0475 0.86922,0.44785 1.01748,0.43748 l 1.9151,-0.17289 0.0121,-1.47983 h -0.82581 c -3.25365,0 -1.30492,-0.29222 -3.30432,-0.82636 0.13489,1.62219 0.55072,0.57462 0.55072,1.65272 0,0.63408 -1.16971,0.80947 -1.92725,0.82636 v -0.55072 h 0.55072 l -0.97108,-3.88764 0.86447,-0.95617 -1.27047,-0.11379 v -1.37763 c 0,-1.48601 0.99756,-1.28945 1.09868,-3.85837 0.0696,-1.7667 0.85358,-1.92547 1.55992,-3.12425 1.03449,-1.7558 -1.00644,-5.96339 -1.00644,-7.61454 v -3.30488 c 0,-2.56421 0.1886,-3.36925 -0.60154,-6.02977 -0.41687,-1.40337 0.85563,-3.89731 0.60154,-5.81323 l -0.34523,-2.74532 c 1.17932,-0.26776 1.44586,-0.8352 2.54812,-0.8352 0.92761,0 1.70297,2.51355 2.11119,3.39658 0.62671,1.35581 1.70451,1.84865 2.47797,3.02979 0.64605,0.98639 0.14097,2.84182 0.99428,4.51349 0.39475,0.77315 1.78155,1.90537 2.40119,2.83094 0,1.81854 -0.38347,3.67578 0.71312,4.52012 1.19355,0.91894 1.48977,1.7527 1.48977,3.74291 1.23641,1.84698 1.88263,4.7299 3.98154,5.932 1.15881,0.66379 2.00921,1.16575 2.52935,2.4277 0.18161,0.44082 1.19866,3.55679 1.19866,3.75839 v 1.92835 c 0,0.99847 -0.23123,1.5374 -0.55072,2.20344 l 0.62363,1.34338 -1.17435,0.0337 0.53691,0.31651 c -0.28775,1.08847 -3.69477,3.27935 -4.66705,3.53909 l -0.28503,-1.37432 -0.54078,-0.003 v 0.55072 h -1.37708 c 0.42789,1.60316 1.65217,0.31268 1.65217,1.9278 0,0.5288 -1.10638,1.50692 -1.65217,1.65272 l -0.43637,1.96923 c 0.49928,0.12282 0.71201,0.023 0.71201,0.78493 0,1.31541 -0.9152,0.19832 -1.37708,1.92835 h 1.10144 v 0.82581 c 1.77611,0.0396 1.07004,0.16366 1.65217,1.37708 h 0.8258 v -0.55072 l 0.35297,0.0691 -0.25906,1.32626 c 0.63226,0.34173 -0.32021,0.25741 0.73245,0.25741 h 0.82581 v 0.55072 h 1.92725 v -0.82636 c 0.96416,0.39838 0.79995,0.086 0.82636,-1.10144 -1.55966,0 -2.68739,-0.0983 -3.0287,-1.37708 l 1.59306,-0.68937 c 0.36973,-1.02562 1.09801,-1.20637 2.53708,-1.23844 l -0.30933,-1.09094 c 1.55858,0.0232 2.173,0.9992 2.7873,1.91675 l -0.34192,1.63946 -1.31024,0.0133 1.86483,1.72729 -0.49162,-1.17436 0.56895,-1.09592 1.91675,0.0884 -0.24801,-0.1751 0.69434,-2.15704 3.6468,0.9639 0.3596,0.70152 1.33896,-0.18229 1.32405,0.36623 0.38059,1.47485 -0.617,0.0133 v 0.82636 h 1.10144 c 1.09584,-2.28448 2.47797,-1.09486 2.47797,-3.0298 0,-0.2451 -0.30583,-0.55072 -0.55072,-0.55072 -0.53157,0 -0.48995,0.0869 -0.82581,0.27564 l -1.04234,-0.64629 -0.0591,0.64629 h -0.55072 v -3.30489 c 0,-2.43401 -1.65217,-2.55037 -1.65217,-6.61031 0,-0.43398 -1.36439,-0.69506 -1.10144,-3.85616 1.82848,-0.0407 1.6245,-0.72206 2.20289,-1.9278 -0.60715,-0.32142 -1.10145,-0.24 -1.10145,-1.10144 0,-0.91595 0.49414,-0.80669 1.37653,-0.82636 v 0.82636 c 0.82125,-0.0683 1.37708,-0.19834 1.37708,-1.102 0,-0.82851 -1.41021,-0.35871 0,-0.82635 v -1.65217 l -2.19515,-0.32259 0.3016,1.1379 -0.86006,0.011 c -0.93572,0 -3.30433,-0.99749 -3.30433,-2.20344 0,-0.28134 0.55073,-0.60304 0.55073,-1.65272 0,-2.71513 -2.23607,-3.88549 -2.22388,-6.8854 0.0179,-4.36692 0.71008,-3.25993 -0.99152,-7.24996 -1.45757,-3.41795 -1.38999,-2.52774 -2.26917,-6.81857 -0.61634,-3.00823 -1.33721,-4.33253 -2.00624,-6.80696 -2.56379,-9.48241 -2.35981,-6.01839 3.9705,-10.73934 1.41288,-1.05374 2.48706,-3.72865 4.55049,-4.26161 1.37388,-0.35487 2.13733,-0.21409 3.32864,-1.07713 1.06431,-0.77122 1.20155,-1.57007 2.8,-1.60577 0.19519,0.83803 0.39069,2.20344 1.37708,2.20344 h 5.23103 c 0.64455,0 1.10144,-0.45678 1.10144,-1.10144 v -4.40688 h 0.55072 l -0.0911,-7.43612 0.0911,-0.82636 h 1.10145 l 0.0519,-4.1329 -1.40028,-1.67591 c 0.92932,0.0247 1.62399,0.19333 1.62399,-0.80151 v -0.55072 c 0,-1.92533 -1.09697,-3.10151 -1.58974,-4.46929 -0.9694,-2.69056 -0.5246,-2.02968 -2.81603,-3.24246 l -0.30823,-2.47411 -1.40635,1.35941 -0.22151,1.38923 -1.08431,0.56674 c 0.15541,0.68688 0.55821,1.36216 -0.55901,1.36216 h -0.82581 c -1.59022,0 -3.57941,-0.44105 -3.57941,-1.9278 v -4.40687 h 0.8258 c 0.89084,0 3.1886,1.22999 4.95595,1.37708 l 0.26072,-0.83244 0.82139,0.33309 -1.74276,-1.23402 -4.2953,0.0713 0.10882,-0.26625 -1.71237,-0.6739 -0.27564,-0.99097 c -1.02529,0.24029 -1.97465,0.83907 -2.80166,0.83907 -0.88892,0 -2.18003,-2.0241 -2.56912,-2.93866 -0.69382,-1.63051 -0.16038,-2.7957 -2.38682,-2.8453 l -1.85655,-2.00293 c -1.76381,0.97111 -4.79065,2.50713 -6.95445,2.00293 l -1.04178,0.64628 c 3.2e-4,-2.78226 1.66113,-3.08916 2.96959,-4.2268 l -4.41572,-0.0878 -0.81586,-0.18781 v 1.92836 l -0.11048,-0.2541 -4.63943,2.02337 7.44054,-7.32896 -0.21266,-0.22427 h -1.10144 c -1.45565,0 -1.96442,1.10144 -2.75306,1.10144 h -1.9278 c -0.30143,1.29435 -3.37544,4.40688 -4.40522,4.40688 -0.245,0 -0.55072,-0.30562 -0.55072,-0.55072 0,-0.53168 0.087,-0.49029 0.27563,-0.82636 l -1.34283,-2.49675 c 0.17509,-0.41784 0.24139,-0.37754 0.24139,-1.08377 v -1.65271 l 1.04345,-0.63082 c 0.0158,-1.79769 -0.49273,-0.77901 -0.49273,-1.84771 0,-1.90726 1.10145,-3.42843 1.10145,-5.50832 0,-1.73816 -1.20784,-4.22828 -2.20289,-4.9576 l -0.15135,0.59215 1.72508,3.4369 -0.41981,0.34082 -3.00328,-2.80111 c 0.3056,1.73056 2.67517,3.77461 2.67517,6.143 0,0.73659 -0.39728,0.81434 -0.82581,1.10145 -1.31882,-0.96662 -0.81646,-3.80519 -2.47797,-4.40688 0.0651,0.13575 0.82581,2.20055 0.82581,2.20344 v 0.55127 c 0,0.61752 -0.21797,0.6044 -0.55073,1.10144 l 1.17049,5.49617 c -1.09392,1.54266 -1.44557,1.75573 -1.44557,4.41903 v 0.55072 l 0.23421,3.85837 c 0.09,0.8657 -1.58924,4.40466 -2.4371,4.40466 -1.79801,0 -1.78357,-1.10199 -3.30377,-1.10199 -2.60975,0 -3.4325,1.9278 -5.23158,1.9278 h -1.65217 c 0.25077,-0.93958 0.75474,-1.1312 1.00091,-2.02833 0.17659,-0.64381 0.12589,-1.70612 0.2657,-2.48792 0.17167,-0.95934 0.38556,-4.23804 0.38556,-5.12331 1.23694,-1.84761 1.56974,-5.39423 3.02869,-5.78396 l -0.0691,-2.48239 -0.52144,-0.78935 -1.27876,0.64076 c -0.0215,-0.56491 1.68218,-5.20835 1.97752,-6.07395 1.13572,-3.32773 0.52604,-2.86264 2.3697,-5.61659 l -3.0298,2.20178 -1.36382,-0.33584 c 0.37957,-1.61886 0.96018,-3.24357 3.01709,-3.24357 h 3.57942 l 5.48401,0.76284 0.51813,-0.81753 c -0.7198,-3.26926 -3.97663,-4.37363 -7.21019,-5.13822 l -2.43931,-0.8479 c -0.13746,-0.45824 -0.20769,-0.2972 -0.20769,-0.84459 0,-0.0755 0.19001,-0.50344 0.27563,-0.82636 l -1.93166,-1.09426 0.004,1.3699 c -1.46933,-0.12229 -1.10089,-0.33514 -1.10089,-1.92835 z m 45.88664,46.53238 c -0.0436,0.001 -0.0936,0.0104 -0.1519,0.0293 -0.46637,0.15115 -0.27413,0.85168 -0.2193,1.03019 0.0548,0.17851 0.90532,0.48095 1.22076,0.43969 0.31544,-0.0413 0.37052,-0.12335 0.19223,-0.57668 -0.1783,-0.45333 -0.72694,0.38431 -0.56232,-0.3712 -0.16459,-0.15448 -0.17517,-0.45578 -0.36678,-0.53304 -0.0319,-0.0129 -0.0691,-0.0195 -0.11269,-0.0182 z"
   style="clip-rule:evenodd;fill:#1f1a17;fill-rule:evenodd;image-rendering:optimizeQuality;shape-rendering:geometricPrecision;text-rendering:geometricPrecision"
   id="path193" /><path
   d="m 183.77472,92.201938 -1.26219,0.494379 3.62416,14.196683 c -0.81173,0.92492 -2.88836,0.61179 -4.8637,1.07217 0,0 -0.2143,0.15525 0.12871,0.5811 0.27161,0.33724 2.71867,2.11252 3.72579,2.83702 v 0.43748 c 0,0.61751 0.21797,0.60495 0.55072,1.102 -0.14387,0.61771 -0.27563,0.63312 -0.27563,1.37708 0,1.64044 1.55731,7.22454 1.87146,8.97283 0,0 -3.39003,-1.84234 -4.87143,-2.28187 -1.48139,-0.43954 -0.10969,0.46703 1.15226,1.23622 l 4.59745,2.80111 c 1.52116,1.10472 2.90645,2.32219 3.2176,3.58328 -1.00925,-0.65673 -2.96171,-1.89214 -3.99535,-2.30783 -1.4335,-0.57689 -0.15329,0.45455 1.03074,1.33896 1.18413,0.8842 4.31849,3.22368 4.31849,3.22368 l -0.0481,-0.12262 c 0.96639,0.70226 2.00676,1.32096 3.19495,2.27966 1.50074,1.21086 2.99174,4.56758 5.22661,6.06457 -0.72472,3.11168 3.28771,1.72583 3.57941,5.23268 l 0.63469,-0.026 -0.63469,-1.90184 c 1.64301,-3.10602 0.70999,-4.34819 -2.09075,-5.34537 -6.14331,-2.18708 -1.72559,-4.09979 -4.51735,-4.84546 0.28454,1.06612 0.82581,0.95945 0.82581,1.37708 0,0.45086 -0.16496,0.82635 -0.55073,0.82635 -0.64454,0 -1.10144,-0.45678 -1.10144,-1.10144 v -0.82636 l -0.21377,0.21432 -1.10144,-1.10199 0.21377,-0.21377 c 2.76984,-0.0617 7.60237,-3.70312 8.87341,-5.57626 l -3.81418,-3.39824 -3.41535,2.92982 -1.07383,-0.49438 -2.22166,0.47947 -0.0199,-1.32571 -0.80647,-0.32701 c 0.0856,-0.32292 0.27563,-0.75024 0.27563,-0.82581 0,-3.22082 -3.57941,-8.62348 -3.57941,-12.39427 v -0.82636 c -1.17322,-0.3134 -1.92781,-2.32461 -1.97752,-3.74347 l -0.73245,-0.30325 z m -28.38287,13.007412 c -0.43697,0.21068 -0.39588,0.27674 -1.102,0.27674 -3.37859,0 -1.69621,-0.0571 -4.40577,1.37708 0.78565,1.17377 1.59735,1.65272 3.57941,1.65272 l -2.57629,-1.15005 c 0.37625,-0.6066 1.15393,-1.32903 1.75049,-1.32903 1.71547,0 2.46436,0.78927 4.13013,0.82636 0,1.92338 -0.96886,3.0298 -2.75361,3.0298 h -0.8258 c -0.95656,0 -0.42008,-0.55072 -1.37653,-0.55072 h -2.20289 c -1.66064,0 -0.23961,3.02924 -3.02869,3.02924 -0.53146,0 -0.49051,-0.0864 -0.82636,-0.27508 l 1.2423,-2.28464 0.13478,0.90756 0.66065,-1.05449 -1.0103,-0.48057 1.21026,-0.87442 -1.41133,-0.0696 -0.0486,0.0519 c -1.52864,2.3085 -2.73096,4.52508 -2.73096,4.52508 0.35103,-0.25012 0.71861,-0.44577 1.40249,-0.44577 1.0657,0 -0.44571,0.6269 1.37708,0.82636 l -0.94843,1.25445 -0.15301,0.39827 c 1.85347,-0.15424 2.93693,-2.48651 4.69687,-2.73759 2.58481,-0.36888 4.14726,-1.19742 5.49065,0.80923 l 2.16477,0.67335 -0.14417,1.5439 0.49714,0.77941 c -1.38231,1.57801 -2.95249,1.39313 -3.06846,2.7873 h 0.55072 v 0.55072 l -1.09095,0.30933 c 0.0835,1.09797 0.26459,0.58176 0.26459,1.61903 0,0.50623 -0.63122,0.70086 -1.10089,0.82635 l 0.29939,-1.92393 -2.72931,-0.97992 -0.0481,-0.67666 c -1.37108,0.11415 -1.64155,0.14773 -1.9278,1.37708 h 0.55072 v 0.55072 l 1.36272,-0.33143 0.0828,0.27398 -1.41022,0.44466 -0.0287,0.81145 c 0.0574,0.0352 0.13077,0.0721 0.21874,0.0994 l 1.46049,-0.51427 c 0.24349,-0.20811 0.26458,-0.31227 0.42257,-0.33087 0.0781,-0.009 0.18633,0.0202 0.28061,0.0834 l 0.0718,-0.0249 -0.0376,0.0497 c 0.16782,0.13298 0.26596,0.38153 5.6e-4,0.71589 -0.30795,0.38801 -0.83947,0.65339 -1.1611,0.82249 l -0.116,0.86723 c 0.0497,0.18813 0.0663,0.33806 -0.0453,0.33806 h -0.0127 -0.53802 c 0.15873,0.23708 1.50744,1.80542 1.67868,1.90184 0.59516,0.33541 2.0275,0.43859 1.90073,1.40359 l -1.545,11.03045 c -0.23826,0.98339 0.44356,1.99652 0.44356,3.29107 0,0.54846 -1.10089,0.8669 -1.10089,3.58052 -1.30726,0.6919 -2.76063,0.87068 -3.89869,1.60908 -1.13463,0.73626 -2.05244,1.6223 -2.98505,2.24708 -1.43009,0 -5.20706,0.1159 -6.15903,0.44908 -1.81723,0.6361 -2.00877,2.58016 -4.30413,2.58016 -0.14623,0 -0.60412,-0.39658 -0.82581,-0.55072 0,-1.68063 -0.28621,-2.43584 -1.65216,-2.75416 -0.81889,1.54809 -1.19289,5.76966 -2.75306,6.33468 l 1.09979,-4.13179 -0.26625,-0.116 -1.90239,4.38146 -0.49162,-0.18228 0.81863,-3.10492 c 0.12357,-0.20566 0.23007,-0.43568 0.2911,-0.65844 0.19198,-0.70055 -0.0824,-1.5384 0.38391,-1.96426 0.46636,-0.42584 0.82334,-1.08478 0.46676,-1.26329 0,0 -0.87814,0.1372 -1.01528,0.76892 -0.13714,0.63171 -0.21969,1.05769 -0.27453,1.45607 -0.0548,0.39837 -0.30157,1.18136 -0.37009,1.45607 -0.0579,0.23227 -0.31189,0.62203 -0.27288,0.81144 -0.37646,0.6842 -0.48045,1.62395 -0.79321,2.4625 l -0.0685,1.13183 c 0.64412,0.27075 0.99738,0.60541 1.84384,0.60541 h 1.37653 c 1.33356,0 0.28488,-1.44728 2.75361,-1.65272 l 0.22868,0.6844 0.32204,-0.13368 v 1.37708 h 1.37653 c 0.97034,0 1.10905,1.102 1.65216,1.102 0.74364,0 0.75903,-0.13177 1.37653,-0.27564 0.54086,0.28636 0.81211,0.55072 1.65216,0.55072 h 0.27509 c 0.61729,0 0.60451,-0.21787 1.10144,-0.55072 l 3.89372,-0.65678 0.15687,-0.24028 -0.88601,-2.45698 c 0.50569,-0.38064 1.3013,-1.05284 2.34208,-1.05284 0.46306,0 1.51856,1.70309 1.65217,2.20344 h 1.92725 v 1.92835 c 0,3.68911 -1.38702,9.63812 0.82636,12.94444 v 2.20344 c 0.47651,0.71178 1.92725,2.16966 1.92725,3.0298 0,0.64711 -1.97763,1.22495 -2.58679,2.92098 -0.5336,1.48514 -1.17423,2.47002 -1.81899,3.68878 3.55934,-0.82946 1.41965,-4.13124 3.30433,-4.13124 0.4731,0 1.37653,1.31213 1.37653,1.92836 0,0.34825 -0.88232,1.32465 -1.10144,1.65216 l 0.20162,1.39144 c -0.82423,0.58736 -2.40396,0.66434 -2.40396,1.914 0,1.19439 0.43817,0.84976 0.55072,2.20288 l -2.03164,-1.34615 -0.17124,0.24471 c -0.31212,1.16917 -0.55072,0.48187 -0.55072,1.37708 v 1.10199 l 0.3143,3.02428 c -1.14864,-0.2915 -1.96647,-2.97535 -1.96647,-4.40191 v -0.27508 c 0,-1.66097 1.48507,-1.67991 1.9278,-3.58052 -0.58095,0.38907 -2.47852,1.90053 -2.47852,2.75416 v 1.10144 c 0,4.79274 2.47852,4.63781 2.47852,8.53812 1.49198,2.22887 1.37653,2.19149 1.37653,5.78395 1.78977,2.67354 0.82581,1.71135 0.82581,4.9576 0,1.16062 0.55072,1.31659 0.55072,2.75416 v 1.92836 l -0.32977,0.0464 1.65714,11.76456 c 0.63299,0.60725 0.78985,1.41917 1.62509,2.3117 1.13806,1.21609 2.09955,0.4526 1.45276,1.85157 l 0.9639,0.68827 -0.1972,0.2331 -1.03958,-0.6496 -0.23255,0.25355 1.42956,1.31963 0.27619,-0.16185 -0.74848,2.41776 -1.1517,0.95893 0.69986,0.1729 v 1.37763 c 0,3.38692 -4.49206,7.16048 -8.25972,7.16048 -0.76619,1.14459 -1.55359,0.92131 -2.14544,2.53653 -0.40372,1.10161 -0.44663,3.24743 -1.43397,3.24743 -0.90761,0 -0.0777,-1.37708 -1.37708,-1.37708 h -1.10089 l -0.48168,-12.11201 2.65584,-0.66395 0.3375,-0.98434 -2.51166,-0.28835 0.0348,1.66377 -0.31044,-0.009 v -2.47907 c 0.54268,0.25097 1.10144,0.4441 1.10144,-0.55073 0,-0.56384 -0.56731,-0.50625 -1.10144,-0.55072 0.16386,-0.61376 0.0641,-0.82636 0.82581,-0.82636 h 1.10144 c 0.34835,1.30482 2.0309,1.6182 3.57941,1.65272 l -0.10882,-1.92504 c 0.0929,-0.57335 -0.7278,-0.96056 -1.2677,-1.10476 v 0.82636 l -2.47798,0.0459 0.55238,-1.9731 -0.79487,0.58994 c -0.49949,-0.73657 -1.68475,-1.52897 -1.68475,-2.24321 0,-0.56384 0.56731,-0.50625 1.10144,-0.55072 v 1.37708 h 1.10089 l -0.68495,-1.87919 1.53119,0.45958 1.08101,0.0425 -0.91364,-1.60079 c -1.78913,-0.0939 -0.77115,-0.60265 -1.83942,-0.60265 -0.42039,0 -0.4741,0.64171 -1.10144,1.10145 l 0.30933,-1.09095 -0.63965,-0.50653 -0.13589,-6.94395 -1.24672,-1.03682 c -3.45374,0.23142 -18.3312,-2.60819 -20.58936,0.76505 l 0.31707,1.64332 c -0.48272,0.66785 -1.96923,4.1855 -1.96923,4.96644 v 1.9278 c 0,2.99111 1.30293,4.57999 2.47797,6.33523 0,2.10456 -0.27936,3.06977 -0.27509,5.23268 0.004,1.77962 0.51288,4.04923 -0.82635,4.40688 v -0.82636 c 0,-0.78682 -0.0867,-0.50376 -0.55073,-0.82636 l -0.26017,0.83244 -1.10531,-0.31541 0.27454,1.40857 -1.35775,-0.86779 0.0701,0.29718 -1.47374,0.57834 c 0.33082,0.49202 0.54851,0.47897 0.54851,1.09647 0,0.14623 -0.3967,0.60456 -0.55072,0.82636 l 0.87275,1.05891 -0.63744,0.83575 0.3491,1.12409 -0.90645,1.06996 1.44336,-0.46621 c -0.20202,-0.8238 -0.29552,-0.51311 -0.29552,-1.14398 0,-0.42275 0.54545,-0.89557 0.82636,-1.10144 1.42164,1.04186 0,0.42134 0,1.65272 0,0.83267 0.32414,0.76103 1.10144,0.8258 l 1.12686,1.60798 0.24967,-0.2309 v -1.10144 h 0.82581 v 1.37708 l -1.9626,1.04676 c -0.32901,-0.63429 -0.44961,-1.59748 -1.34118,-1.59748 h -0.27564 c -0.16802,0 -1.89766,1.09863 -2.47797,1.37708 l -2.39898,-2.54647 0.33972,-0.36899 2.20509,1.95929 c -0.0778,-1.03576 -0.42091,-1.85342 -0.42091,-2.89999 0,-1.59042 -0.70044,-1.28146 -2.20289,-0.27508 l -0.83188,-0.26072 c 0.18781,0.7664 0.28116,0.45621 0.28116,1.08708 0,0.45492 -0.79093,0.89343 -1.10144,1.10144 l -2.02944,-2.37523 2.30507,-0.10385 c 0.2001,-1.8291 1.37653,-0.40718 1.37653,-1.9278 v -0.27508 c 0,-0.91348 -2.96571,-2.27203 -3.8545,-2.47908 v -0.82636 l -2.74698,-0.84458 1.61792,2.03386 -0.24802,0.1878 h -0.55072 v 0.82636 c 0.7773,0.0647 1.10145,-0.006 1.10145,0.82636 v 0.27564 c 0,0.91401 -0.55073,0.57479 -0.55073,1.10144 0,0.53167 0.087,0.4904 0.27564,0.82636 l -0.59049,0.79322 c 0.0399,2.7585 -1.13641,4.17065 2.51774,2.23658 l -0.68826,0.9639 -0.40545,0.0492 1.35609,1.94216 0.28834,-0.20106 c -0.18203,0.78147 -0.27564,0.47057 -0.27564,1.10144 0,0.37284 0.2975,0.1529 0.55073,1.10144 l 1.65492,-0.26183 -0.003,0.81311 1.09923,-0.55459 1.64112,0.34523 c -0.30303,0.36557 -0.0377,0.48444 -0.8131,0.48444 h -0.82581 l 0.50819,1.39752 2.79338,0.27398 c 0.1613,-0.61366 0.57313,-1.53215 1.37929,-1.39586 l 2.1946,0.32259 0.92192,-1.64775 4.58861,-0.37672 0.004,-0.7772 2.74366,-0.59436 0.009,-0.50708 -1.9289,-0.0547 c -0.77239,0.0764 -0.51748,-0.0546 -0.82415,-0.49603 l 4.12074,-0.35684 -0.31761,-0.72527 c 4.53214,-2.39135 2.54031,-1.49001 5.55803,0.53139 l -0.30878,1.09094 1.13293,-0.54354 1.1031,0.003 -0.32646,0.80647 1.34946,0.90922 1.16828,-0.12539 c 0.14676,1.68405 0.56233,0.63649 0.56233,1.71458 v 1.10199 l -2.6923,0.97606 -0.0613,0.40102 c 1.60463,0.0357 1.313,0.196 1.65216,1.65217 l -1.08542,-0.33529 -2.99224,1.30085 c 0.0993,0.0788 0.091,0.39997 0.49825,0.41152 l 1.92891,-0.0541 1.92614,0.0541 c 0.73893,0 1.4378,-2.02303 1.92725,-2.75416 l -0.0889,-1.92449 0.63965,-0.003 v 1.10144 c 1.11412,-0.0927 1.37179,-0.50619 1.65217,0.55127 l 0.23752,0.23753 1.37653,-1.37708 -0.23753,-0.23753 h -0.82636 l -0.23531,-0.18228 1.44779,-1.87312 -0.16682,1.49032 1.41851,-0.31762 -0.57503,-1.57925 2.21504,-0.64738 0.94015,-1.50966 1.30306,0.1381 0.48112,-0.53194 1.15668,0.0552 1.92062,-0.84293 1.61902,0.67279 0.0398,-0.65622 c 1.41127,0.11748 3.45649,0.45015 3.57942,1.9278 l 1.85544,-1.21137 c -0.26584,1.37536 -0.754,0.80489 -0.754,1.76209 0,0.56385 0.56731,0.50626 1.10144,0.55072 l 0.77886,-2.22387 c 2.69523,0.24125 1.60977,0.98079 3.62636,1.94879 v -0.82636 l 2.47908,0.26514 0.33419,-1.07548 c 0.92545,0.21389 1.23397,0.5347 2.41831,0.5347 h 1.92725 v -1.10144 l 1.89411,1.15005 -0.6369,-1.35995 1.43785,0.60872 -0.26846,0.68329 3.27284,1.58256 0.0431,-1.01195 1.73557,2.3581 0.30381,-0.116 -0.69544,1.2992 c 0.79804,0.3987 -0.1546,0.3143 0.89816,0.3143 1.33175,0 0.0718,-0.67934 1.65217,-1.10144 v -0.82636 l -1.11415,0.22703 c -0.57859,-0.75892 -1.32549,-0.72151 -1.74054,-1.77811 -0.54664,-1.39171 -0.28837,-1.23409 -1.00036,-2.58016 l -1.0904,0.30878 -0.0105,-0.58442 1.36216,-0.33143 1.73944,1.92725 0.20217,-0.21874 v -1.10144 l -0.22758,0.23918 -2.96406,-2.8221 0.39606,-0.0177 1.17546,-1.78529 -0.032,-1.39807 0.59104,-0.79321 -1.14176,-0.0331 -1.10365,3.14801 -0.29829,-0.10937 -0.57337,-1.64443 1.09205,0.61369 -0.74902,-1.74331 0.91916,-0.97218 -0.29718,-0.3016 -2.19018,2.21338 -0.1033,1.27489 h 0.55072 v 1.10144 l -0.14472,-0.23697 -2.09517,1.27765 -1.00478,-0.58497 -0.0597,0.92137 -2.14654,-0.95782 -0.57889,-2.90386 1.06277,0.31486 -0.28889,-1.95708 1.36769,-0.62861 c 0.008,1.22914 -0.5248,1.72563 0.58386,1.72563 0.53146,0 0.49041,-0.0863 0.82636,-0.27508 l -1.01748,-1.81456 c 0.43152,0.0474 0.86923,0.44785 1.01748,0.43748 l 1.9151,-0.17289 0.0121,-1.47983 h -0.82581 c -3.25362,0 -1.30494,-0.29223 -3.30432,-0.82636 0.13489,1.62217 0.55072,0.57463 0.55072,1.65272 0,0.63407 -1.16972,0.80947 -1.92725,0.82636 v -0.55072 h 0.55072 l -0.97108,-3.88764 0.86447,-0.95617 -1.27047,-0.11379 v -1.37763 c 0,-1.48599 0.99756,-1.28948 1.09868,-3.85837 0.0696,-1.76668 0.85359,-1.92548 1.55992,-3.12425 1.03448,-1.75578 -1.00644,-5.96341 -1.00644,-7.61454 v -3.30488 c 0,-2.56418 0.1886,-3.36928 -0.60154,-6.02977 -0.41687,-1.40336 0.85562,-3.89733 0.60154,-5.81323 l -0.34523,-2.74532 c 1.17931,-0.26776 1.44587,-0.8352 2.54812,-0.8352 0.9276,0 1.70298,2.51356 2.11119,3.39658 0.6267,1.3558 1.70452,1.84866 2.47797,3.02979 0.64605,0.98638 0.14098,2.84184 0.99428,4.51349 0.39475,0.77314 1.78155,1.90538 2.40119,2.83094 0,1.81852 -0.38346,3.67579 0.71312,4.52012 1.19354,0.91893 1.48977,1.75272 1.48977,3.74291 1.2364,1.84697 1.88265,4.72992 3.98154,5.932 1.1588,0.66379 2.00922,1.16576 2.52935,2.4277 0.1816,0.44081 1.19866,3.55679 1.19866,3.75839 v 1.92835 c 0,0.99846 -0.23123,1.53741 -0.55072,2.20344 l 0.62363,1.34338 -1.17435,0.0337 0.53691,0.31651 c -0.28775,1.08845 -3.69478,3.27935 -4.66705,3.53909 l -0.28503,-1.37432 -0.54078,-0.003 v 0.55072 h -1.37708 c 0.42789,1.60314 1.65217,0.3127 1.65217,1.9278 0,0.5288 -1.10639,1.50692 -1.65217,1.65272 l -0.43637,1.96923 c 0.49928,0.12282 0.71201,0.023 0.71201,0.78493 0,1.31539 -0.91521,0.19834 -1.37708,1.92835 h 1.10144 v 0.82581 c 1.77609,0.0396 1.07005,0.16367 1.65217,1.37708 h 0.8258 v -0.55072 l 0.35297,0.0691 -0.25906,1.32626 c 0.63225,0.34172 -0.3202,0.25741 0.73245,0.25741 h 0.82581 v 0.55072 h 1.92725 v -0.82636 c 0.96415,0.39837 0.79995,0.086 0.82636,-1.10144 -1.55964,0 -2.6874,-0.0984 -3.0287,-1.37708 l 1.59306,-0.68937 c 0.36973,-1.02561 1.09802,-1.20637 2.53708,-1.23844 l -0.30933,-1.09094 c 1.55856,0.0232 2.173,0.99921 2.7873,1.91675 l -0.34192,1.63946 -1.31024,0.0133 1.86483,1.72729 -0.49162,-1.17436 0.56895,-1.09592 1.91675,0.0884 -0.24801,-0.1751 0.69434,-2.15704 3.6468,0.9639 0.3596,0.70152 1.33896,-0.18229 1.32405,0.36623 0.38059,1.47485 -0.617,0.0133 v 0.82636 h 1.10144 c 1.09583,-2.28446 2.47797,-1.09488 2.47797,-3.0298 0,-0.2451 -0.30584,-0.55072 -0.55072,-0.55072 -0.53157,0 -0.48996,0.0869 -0.82581,0.27564 l -1.04234,-0.64629 -0.0591,0.64629 h -0.55072 v -3.30489 c 0,-2.43399 -1.65217,-2.55041 -1.65217,-6.61031 0,-0.43397 -1.36439,-0.69509 -1.10144,-3.85616 1.82847,-0.0407 1.6245,-0.72208 2.20289,-1.9278 -0.60714,-0.32141 -1.10145,-0.24001 -1.10145,-1.10144 0,-0.91594 0.49415,-0.80669 1.37653,-0.82636 v 0.82636 c 0.82124,-0.0683 1.37708,-0.19835 1.37708,-1.102 0,-0.8285 -1.4102,-0.35871 0,-0.82635 v -1.65217 l -2.19515,-0.32259 0.3016,1.1379 -0.86006,0.011 c -0.93571,0 -3.30433,-0.99751 -3.30433,-2.20344 0,-0.28133 0.55073,-0.60305 0.55073,-1.65272 0,-2.7151 -2.23607,-3.88552 -2.22388,-6.8854 0.0179,-4.36688 0.71006,-3.25997 -0.99152,-7.24996 -1.45756,-3.41791 -1.39,-2.52778 -2.26917,-6.81857 -0.61633,-3.0082 -1.33722,-4.33256 -2.00624,-6.80696 -2.56376,-9.48232 -2.35975,-6.01844 3.9705,-10.73934 1.41287,-1.05373 2.48708,-3.72865 4.55049,-4.26161 1.37386,-0.35487 2.13734,-0.2141 3.32864,-1.07713 1.0643,-0.77121 1.20157,-1.57007 2.8,-1.60577 0.19519,0.83802 0.3907,2.20344 1.37708,2.20344 h 5.23103 c 0.64454,0 1.10144,-0.45679 1.10144,-1.10144 v -4.40688 h 0.55072 l -0.0911,-7.43612 0.0911,-0.82636 h 1.10145 l 0.0519,-4.1329 -1.40028,-1.67591 c 0.92931,0.0247 1.62399,0.19332 1.62399,-0.80151 v -0.55072 c 0,-1.92531 -1.09698,-3.10152 -1.58974,-4.46929 -0.96939,-2.69053 -0.52462,-2.02969 -2.81603,-3.24246 l -0.30823,-2.47411 -1.40635,1.35941 -0.22151,1.38923 -1.08431,0.56674 c 0.15541,0.68687 0.5582,1.36216 -0.55901,1.36216 h -0.82581 c -1.5902,0 -3.57941,-0.44106 -3.57941,-1.9278 v -4.40687 h 0.8258 c 0.89083,0 3.18862,1.22999 4.95595,1.37708 l 0.26072,-0.83244 0.82139,0.33309 -1.74276,-1.23402 -4.2953,0.0713 0.10882,-0.26625 -1.71237,-0.6739 -0.27564,-0.99097 c -1.02528,0.24029 -1.97465,0.83907 -2.80166,0.83907 -0.88891,0 -2.18004,-2.02411 -2.56912,-2.93866 -0.69382,-1.63049 -0.16041,-2.7957 -2.38682,-2.8453 l -1.85655,-2.00293 c -1.76379,0.9711 -4.79067,2.50713 -6.95445,2.00293 l -1.04178,0.64628 c 3.2e-4,-2.78224 1.66115,-3.08917 2.96959,-4.2268 l -4.41572,-0.0878 -0.81586,-0.18781 v 1.92836 l -0.11048,-0.2541 -4.63943,2.02337 7.44054,-7.32896 -0.21266,-0.22427 h -1.10144 c -1.45563,0 -1.96442,1.10144 -2.75306,1.10144 h -1.9278 c -0.30143,1.29433 -3.37545,4.40688 -4.40522,4.40688 -0.24499,0 -0.55072,-0.30562 -0.55072,-0.55072 0,-0.53167 0.087,-0.4903 0.27563,-0.82636 l -1.34283,-2.49675 c 0.17509,-0.41783 0.24139,-0.37755 0.24139,-1.08377 v -1.65271 l 1.04345,-0.63082 c 0.0158,-1.79768 -0.49273,-0.77902 -0.49273,-1.84771 0,-1.90724 1.10145,-3.42845 1.10145,-5.50832 0,-1.73814 -1.20785,-4.22828 -2.20289,-4.9576 l -0.15135,0.59215 1.72508,3.4369 -0.41981,0.34082 -3.00328,-2.80111 c 0.30559,1.73054 2.67517,3.77464 2.67517,6.143 0,0.73658 -0.39729,0.81434 -0.82581,1.10145 -1.31881,-0.96661 -0.81648,-3.8052 -2.47797,-4.40688 0.0651,0.13575 0.82581,2.20055 0.82581,2.20344 v 0.55127 c 0,0.61751 -0.21798,0.60441 -0.55073,1.10144 l 1.17049,5.49617 c -1.09391,1.54265 -1.44557,1.75576 -1.44557,4.41903 v 0.55072 l 0.23421,3.85837 c 0.09,0.86569 -1.58924,4.40466 -2.4371,4.40466 -1.79799,0 -1.78359,-1.10199 -3.30377,-1.10199 -2.60972,0 -3.43252,1.9278 -5.23158,1.9278 h -1.65217 c 0.25077,-0.93957 0.75475,-1.13121 1.00091,-2.02833 0.17659,-0.6438 0.12589,-1.70612 0.2657,-2.48792 0.17166,-0.95933 0.38556,-4.23805 0.38556,-5.12331 1.23693,-1.84759 1.56975,-5.39424 3.02869,-5.78396 l -0.0691,-2.48239 -0.52144,-0.78935 -1.27876,0.64076 c -0.0215,-0.56491 1.68218,-5.20836 1.97752,-6.07395 1.13571,-3.3277 0.52606,-2.86267 2.3697,-5.61659 l -3.0298,2.20178 -1.36382,-0.33584 c 0.37957,-1.61885 0.9602,-3.24357 3.01709,-3.24357 h 3.57942 l 5.48401,0.76284 0.51813,-0.81753 c -0.7198,-3.26923 -3.97666,-4.37364 -7.21019,-5.13822 l -2.43931,-0.8479 c -0.13746,-0.45824 -0.20769,-0.29721 -0.20769,-0.84459 0,-0.0755 0.19002,-0.50344 0.27563,-0.82636 l -1.93166,-1.09426 0.004,1.3699 c -1.46931,-0.12229 -1.10089,-0.33516 -1.10089,-1.92835 z m 28.6342,3.0309 h 1.10144 v 2.56746 c -0.40084,-0.28251 -1.10222,-0.8002 -1.53064,-1.25224 -0.3832,-0.59292 -0.67968,-1.31522 0.4292,-1.31522 z m -26.12862,1.72619 c 0.66216,0.002 1.40616,0.16133 2.17251,0.19554 l 2.51332,0.82138 c 0.32463,1.89463 2.34914,2.21449 4.64716,2.21449 1.12043,0.75058 2.06714,0.57197 2.20289,2.20344 -0.61226,0 -6.75339,-1.12057 -7.75153,-1.3351 -2.19146,-0.47095 -0.21145,-1.50657 -2.26309,-2.14268 -1.0982,-0.34065 -2.69525,-0.51292 -3.20159,-1.20418 0.43819,-0.59821 1.01818,-0.75459 1.68033,-0.75289 z m -5.17136,13.10131 c 0.41462,0.0451 0.88491,0.32592 0.88491,0.73798 0,0.54942 -0.21931,0.89281 -0.72693,0.93407 -0.50763,0.0413 -1.31687,-0.34364 -1.39918,-0.54961 -0.0823,-0.20598 0.16476,-0.3435 0.35684,-0.522 0.19208,-0.17851 0.50763,-0.56288 0.50763,-0.56288 0.10631,-0.0412 0.23852,-0.0526 0.37673,-0.0376 z m 21.19974,1.69028 c -0.14485,0.003 -0.30754,0.0214 -0.49273,0.0574 -0.24007,0.0962 -0.48705,0.23356 -0.45957,0.57005 0.0275,0.33649 0.19839,0.57024 0.0956,1.02356 -0.10283,0.45332 -0.34288,0.92017 -0.64463,1.25666 -0.30175,0.33649 -0.40421,0.54934 -0.63744,0.74847 -0.23324,0.19914 -0.1303,0.71446 0,0.9617 0.13029,0.24723 0.46633,-0.20582 0.64462,-0.52863 0.17829,-0.32281 1.08351,-0.9345 1.13845,-1.00312 0.055,-0.0686 0.74072,-0.29498 0.80924,-0.70704 0.0685,-0.41207 0.28772,-0.98944 0.32204,-1.00312 0.0343,-0.0137 0.45973,-0.63196 0.15798,-0.98213 -0.15088,-0.17509 -0.32219,-0.29515 -0.54852,-0.35353 -0.11316,-0.0292 -0.24016,-0.0429 -0.385,-0.0403 z m 15.33182,15.70689 c 1.59565,0 5.50666,7.04919 5.50666,7.98684 v 0.55127 c 0,0.77784 -0.63187,1.06261 -1.10144,1.37708 l 1.33896,2.05872 -0.28944,0.0563 -1.58643,0.93739 0.32314,2.44648 -0.0613,0.83575 c 0,0.97762 -0.98138,1.2984 -1.92725,1.37708 v 0.55072 h 3.0287 c -0.24371,0.67362 -0.31695,0.82636 -1.37708,0.82636 h -3.30378 c -1.82482,0 -1.43301,-1.77629 -3.30433,-3.02979 -1.96913,1.31902 -2.20833,0.7367 -4.95594,1.37708 l 1.41575,-2.17693 -0.0392,-2.50504 c -1.38038,0.9246 -1.92017,3.30489 -4.12959,3.30489 -0.14622,0 -0.60467,-0.39659 -0.82635,-0.55073 0,-2.84648 -1.10145,-3.83597 -1.10145,-4.40687 v -0.55072 c 0,-1.21321 1.56789,-2.30457 2.91214,-2.59563 2.32369,-0.50303 2.09847,-0.79817 3.14525,-2.36197 l -0.76671,-0.88547 1.04234,-2.41941 c 2.18302,-0.5088 5.04951,-2.20344 6.05739,-2.20344 z m 13.25543,9.89641 c -0.0557,0.003 -0.10027,0.0328 -0.12429,0.10495 -0.10977,0.32966 0.20604,0.78321 0.45295,0.97551 0.24692,0.19229 1.28925,0.89235 1.53617,0.43914 0.24692,-0.45322 0.39772,-1.2494 -0.17842,-1.3456 -0.57614,-0.0962 -0.50761,1.01633 -1.06996,0.17842 -0.0721,-0.0206 -0.3909,-0.33512 -0.59215,-0.35186 -0.008,-7e-4 -0.0164,-9.4e-4 -0.0243,-5.6e-4 z m -45.00616,0.80537 c 0.56246,-0.0549 0.82289,0.16458 1.45386,0.54907 0.75443,-0.0961 0.87773,0.87904 1.37156,1.03018 0.49383,0.15114 0.86434,-0.27478 1.34449,-0.53581 0.48015,-0.26102 1.01471,-0.0826 1.59085,-0.0276 0.57614,0.0549 0.59034,0.32969 0.56287,0.83795 -0.0275,0.50827 -0.21984,0.50864 -0.46676,0.59105 -0.24691,0.0824 -0.87772,-0.3438 -1.12464,-0.17897 -0.24692,0.16482 -0.63094,0.15118 -1.05615,0.0276 -0.4252,-0.12357 -1.12474,0.31615 -1.70077,0.0552 -0.57603,-0.26091 -0.71324,-0.49458 -1.46767,-0.64573 -0.75443,-0.15114 -1.19367,-0.50822 -1.26219,-0.93407 -0.0685,-0.42585 0.1921,-0.71397 0.75455,-0.76891 z m -0.57502,1.6378 c 0.0765,0.0163 0.15653,0.0687 0.232,0.17511 0.30185,0.42585 0.45265,0.78295 0.56232,1.03018 0.10967,0.24724 0.24707,0.60405 -0.2193,0.65899 -0.2607,-0.21976 -0.35656,-0.32972 -0.48001,-0.61811 -0.12346,-0.28839 -0.45268,-0.75542 -0.49383,-0.90645 -0.0309,-0.11328 0.16926,-0.38864 0.39882,-0.33972 z m 4.04507,1.54832 c 1.01502,0.37059 2.08522,0.23337 2.24983,0.59049 0.16461,0.35712 -0.32906,0.65929 -0.87773,0.71423 -0.54866,0.0549 -0.43914,0.46681 -0.60375,0.98876 -0.16461,0.52194 -0.32936,1.09889 -0.52144,2.06037 -0.19209,0.96148 -0.85025,1.37383 -1.45386,1.18154 -0.60361,-0.1923 -0.96003,-0.71432 -1.45386,-1.34615 -0.49383,-0.63183 -0.85041,-1.95006 -0.90535,-2.38959 -0.0549,-0.43953 0.1922,-0.27506 0.58994,-0.26127 0.39774,0.0138 0.31553,0.60465 0.74074,0.86557 0.42521,0.26092 0.93253,0.74144 1.68696,0.76891 0.75443,0.0275 0.6445,-1.09888 0.63082,-1.64829 -0.0137,-0.54942 -0.49338,-0.37089 -0.82249,-1.03019 -0.32911,-0.6593 0.49327,-0.43944 0.74019,-0.49438 z m -17.32481,1.30527 c 0.2652,0 0.48057,0.20939 0.48057,0.46731 0,0.25793 -0.21537,0.46676 -0.48057,0.46676 -0.26509,0 -0.48002,-0.20883 -0.48002,-0.46676 0,-0.25792 0.21493,-0.46731 0.48002,-0.46731 z m -7.92663,58.30357 c 0.0499,-0.0339 0.10467,-0.0356 0.16295,0.002 0.23313,0.15103 0.21984,0.8377 0.63137,0.89264 0.41153,0.0549 0.68552,-0.13755 0.94622,0.17842 0.26071,0.31597 0.37025,0.72856 0.39772,1.03074 0.0275,0.30218 0.2335,0.79605 0.45295,1.01582 0.21944,0.21977 0.30877,0.64078 0.63799,0.73688 0.32923,0.0961 -0.13705,0.61154 -0.34965,0.57723 -0.21261,-0.0343 -0.30202,-0.29577 -0.37065,-0.5568 -0.0686,-0.26102 -0.37727,-0.56274 -0.70649,-0.94733 -0.32922,-0.38459 -0.32203,-0.64581 -0.81586,-0.70759 -0.49384,-0.0618 -0.49388,0.10964 -1.02908,-0.21488 -0.096,-0.15103 -0.26058,-0.38412 -0.23311,-1.02963 0.0206,-0.48413 0.12583,-0.87598 0.27564,-0.97771 z m -11.17241,0.86668 h 2.47797 c 0.70077,0 1.26913,0.93626 1.92725,1.37708 l 0.14804,2.19294 -0.69876,0.0105 v -0.55072 l -1.96537,0.75013 c -0.57913,-0.0679 -0.59478,-0.19941 -1.33841,-0.19941 -0.38587,0 -0.55072,0.3756 -0.55072,0.82636 v 1.10144 h -0.82581 v -4.68196 c 0,-0.63461 0.19142,-0.82636 0.82581,-0.82636 z m 5.5039,0.24802 c 0.11142,0.0137 0.21433,0.11692 0.18007,0.34358 -0.0685,0.45332 0.13742,0.934 0.20604,1.1263 0.0686,0.19229 -0.12386,0.17813 -0.13754,0.53525 -0.0137,0.35712 0.17869,0.6731 0.0552,0.72804 -0.12346,0.0549 -0.32947,0.0687 -0.43914,-0.0961 -0.12346,-0.10988 -0.34263,-1.01651 -0.12318,-1.44226 0.21944,-0.42574 0.0271,-0.74154 0.0271,-1.00256 0,-0.13052 0.12003,-0.20595 0.23145,-0.19223 z m -11.28233,1.0462 c 0.0772,0.0107 0.15973,0.0583 0.25575,0.13368 l -0.2193,10.82331 c 0,0 -0.96043,0.11016 -1.42679,-2.69175 -0.46636,-2.8019 0.11002,-5.8783 0.60375,-7.08701 0.37029,-0.90654 0.55512,-1.21022 0.78659,-1.17823 z m 17.61314,0.88712 c 0.084,0.0137 0.14528,0.0585 0.14528,0.0585 0.37037,0.35712 0.26102,0.63165 0.15135,0.6728 -0.10967,0.0412 -0.63096,0.261 -0.90535,0.30215 -0.27439,0.0412 -0.27426,-0.19216 -0.2331,-0.38445 0.0412,-0.1923 0.38402,-0.27476 0.56232,-0.522 0.0891,-0.12362 0.19548,-0.1408 0.2795,-0.12705 z m 2.125,1.64333 c 0.28123,-0.0824 0.0895,0.3296 0.021,0.36733 -0.0685,0.0377 -0.21626,-0.0479 -0.1751,-0.1508 0.0411,-0.10293 0.12664,-0.19601 0.15411,-0.21653 z"
   style="fill:#1a1a1a"
   id="path194" /><path
   d="m 127.30671,219.78594 h 1.37652 c 0.74365,0 0.75902,0.13176 1.37653,0.27563 v 2.20344 c 0,1.09425 -1.10144,0.83366 -1.10144,1.9278 v 1.65272 l -1.0904,-0.30933 c 0.10037,-1.30162 0.53968,-1.69251 0.53968,-3.27119 0,-0.38588 -0.37526,-0.55127 -0.82581,-0.55127 -0.70121,0 -1.35568,1.27081 -1.37653,2.20344 -0.43056,-0.49555 -0.32925,-0.82636 -1.10144,-0.82636 -0.84712,0 -0.0511,1.42724 -1.92725,1.92835 0.16012,-0.68763 0.72745,-3.10943 1.20087,-3.48109 0.32581,-0.25568 2.75525,-1.75214 2.92927,-1.75214 z"
   style="fill:#ffffff"
   id="path192" /><path
   d="m 136.38781,217.00968 c -0.084,-0.0138 -0.19036,0.003 -0.2795,0.12705 -0.1783,0.24724 -0.52117,0.3297 -0.56232,0.522 -0.0412,0.1923 -0.0413,0.42561 0.2331,0.38445 0.27439,-0.0412 0.79568,-0.261 0.90535,-0.30215 0.10967,-0.0411 0.21903,-0.31567 -0.15135,-0.6728 0,0 -0.0613,-0.0448 -0.14528,-0.0585 z"
   style="fill:#ffffff"
   id="path191" /><path
   d="m 124.5531,214.82834 c -0.6344,0 -0.82581,0.19174 -0.82581,0.82636 v 4.68196 h 0.82581 v -1.10144 c 0,-0.45077 0.16484,-0.82636 0.55072,-0.82636 0.74364,0 0.75927,0.13153 1.33841,0.19941 l 1.96537,-0.75013 v 0.55072 l 0.69876,-0.0105 -0.14804,-2.19294 c -0.65813,-0.44083 -1.22647,-1.37708 -1.92725,-1.37708 z"
   style="fill:#ffffff"
   id="path190" /><path
   d="m 163.37593,156.98988 h 0.8258 c 0.32795,1.22851 2.56118,4.95759 4.13014,4.95759 h 0.27508 c 0.68967,0 2.06395,-1.37708 2.75361,-1.37708 h 0.55072 c 0.6344,0 0.82581,0.19175 0.82581,0.82636 v 0.27564 c 0,2.46685 -4.51509,5.17065 -6.22642,6.44074 -1.34052,0.99484 -6.2232,5.82193 -6.71416,5.95298 v -3.0298 c 0,-1.79215 1.00248,-2.68864 1.36217,-4.42124 0.47534,-2.28993 0.0144,-2.5171 0.0144,-4.94268 0,-1.46057 0.9158,-4.68251 2.20289,-4.68251 z m 46.70803,4.69411 c 0.12346,0.0172 0.27452,0.11295 0.52144,0.26404 0.49384,0.30219 0.96014,2.03273 1.12465,3.15905 0.1645,1.12632 -0.19166,1.4838 -0.76781,1.40139 -0.57614,-0.0824 -0.71367,-0.76947 -0.71367,-0.76947 l -0.52089,-3.84566 c 0.13714,-0.16482 0.23282,-0.22652 0.35628,-0.20935 z m -110.202302,0.47836 c 0.121212,0 0.219292,0.23726 0.219292,0.52918 0,0.29203 -0.0981,0.52863 -0.219292,0.52863 -0.121107,0 -0.219294,-0.2366 -0.219294,-0.52863 0,-0.29192 0.09819,-0.52918 0.219294,-0.52918 z m 3.531912,0.19996 c 0.12121,0 0.21929,0.23671 0.21929,0.52863 0,0.29203 -0.0981,0.52918 -0.21929,0.52918 -0.12111,0 -0.2193,-0.23715 -0.2193,-0.52918 0,-0.29192 0.0982,-0.52863 0.2193,-0.52863 z m 1.62565,0.49438 c 0.12121,0 0.21929,0.23671 0.21929,0.52863 0,0.29202 -0.0981,0.52918 -0.21929,0.52918 -0.12111,0 -0.21985,-0.23716 -0.21985,-0.52918 0,-0.29192 0.0987,-0.52863 0.21985,-0.52863 z m 0.97384,0.19941 c 0.12122,0 0.2193,0.2367 0.2193,0.52863 0,0.29202 -0.0981,0.52862 -0.2193,0.52862 -0.12111,0 -0.21985,-0.2366 -0.21985,-0.52862 0,-0.29193 0.0987,-0.52863 0.21985,-0.52863 z"
   style="fill:#ffffff"
   id="path177" /><path
   d="m 160.97695,154.35282 c -0.24692,0.0549 -1.06931,-0.16493 -0.74019,0.49438 0.32912,0.65931 0.80881,0.48076 0.82249,1.03019 0.0137,0.54942 0.12362,1.67576 -0.63082,1.64829 -0.75444,-0.0275 -1.26174,-0.50798 -1.68696,-0.76891 -0.42522,-0.26092 -0.343,-0.85179 -0.74074,-0.86557 -0.39774,-0.0138 -0.64488,-0.17827 -0.58994,0.26127 0.0549,0.43954 0.41151,1.75775 0.90535,2.38959 0.49384,0.63184 0.85024,1.15385 1.45386,1.34615 0.60361,0.1923 1.26177,-0.22005 1.45386,-1.18154 0.19208,-0.96149 0.35683,-1.53842 0.52144,-2.06037 0.16462,-0.52195 0.0551,-0.93382 0.60375,-0.98876 0.54868,-0.0549 1.04234,-0.3571 0.87773,-0.71423 -0.16461,-0.35712 -1.2348,-0.2199 -2.24983,-0.59049 z"
   style="fill:#ffffff"
   id="path176" /><path
   d="m 189.25763,140.46492 c -1.00789,0 -3.87434,1.69463 -6.05739,2.20344 l -1.04234,2.41941 0.76671,0.88547 c -1.04679,1.56382 -0.82153,1.85894 -3.14525,2.36197 -1.34427,0.29107 -2.91214,1.38241 -2.91214,2.59563 v 0.55072 c 0,0.57091 1.10145,1.56035 1.10145,4.40687 0.22169,0.15414 0.68013,0.55073 0.82635,0.55073 2.20945,0 2.74919,-2.38027 4.12959,-3.30489 l 0.0392,2.50504 -1.41575,2.17693 c 2.74765,-0.64039 2.98678,-0.058 4.95594,-1.37708 1.87135,1.25351 1.47948,3.02979 3.30433,3.02979 h 3.30378 c 1.06015,0 1.13336,-0.15273 1.37708,-0.82636 h -3.0287 v -0.55072 c 0.94588,-0.0787 1.92725,-0.39945 1.92725,-1.37708 l 0.0613,-0.83575 -0.32314,-2.44648 1.58643,-0.93739 0.28944,-0.0563 -1.33896,-2.05872 c 0.46958,-0.31448 1.10144,-0.59923 1.10144,-1.37708 v -0.55127 c 0,-0.93766 -3.91098,-7.98684 -5.50666,-7.98684 z m -2.30066,2.81768 c 0.90537,-0.0275 1.83822,1.20892 1.5091,2.08799 -0.32912,0.87908 -0.97424,1.16743 -1.276,1.11249 -0.30176,-0.0549 -0.94622,-0.49451 -1.02852,-0.92026 -0.0823,-0.42575 0.68605,-0.16487 0.85066,-0.10992 0.32922,0.24724 0.82302,0.17859 0.80923,-0.50819 -0.0138,-0.68678 -0.97383,-0.42577 -1.38536,-0.82415 -0.41154,-0.39839 -0.38448,-0.81049 0.52089,-0.83796 z m 3.94012,1.68255 c 0.0892,-0.007 0.20279,0.083 0.38114,0.15853 0.3567,0.15114 0.17802,0.17835 -0.0414,0.78272 -0.21945,0.60437 0.49383,1.19473 0.32922,2.52713 -0.16461,1.3324 -2.74322,1.89579 -3.66227,1.90957 -0.91906,0.0138 -1.20748,0.49443 -1.276,1.01638 -0.0685,0.52195 -0.48011,0.81013 -0.80923,0.65899 -0.32912,-0.15115 -0.24693,-0.54927 -0.34303,-1.51076 -0.0961,-0.96148 -0.17814,-1.01621 -0.3839,-1.30472 -0.20577,-0.28849 -1.28912,-1.33244 -1.68697,-2.06037 -0.39785,-0.72793 -0.21987,-0.50844 0.17787,-0.4535 0.39775,0.0549 0.5489,0.6182 1.17988,1.25003 0.63098,0.63184 1.28925,0.6043 1.28925,0.6043 l 1.1252,0.48057 c 0.94652,0.31587 1.53603,-0.71402 1.85157,-0.97494 0.31554,-0.26092 1.46767,-2.04652 1.63228,-2.66468 0.0823,-0.30908 0.14726,-0.4124 0.23642,-0.41925 z"
   style="fill:#ffffff"
   id="path175" /><path
   d="m 125.92907,139.08784 c -0.41047,0.591 -0.55072,0.9102 -0.55072,1.92835 v 3.30488 l -1.91565,0.34579 c -0.58544,2.08043 -2.21448,2.75624 -2.21448,6.26453 -0.33275,0.49704 -0.55072,0.48392 -0.55072,1.10144 v 0.82636 c 0,0.94952 0.20393,1.06625 0.27563,1.9278 h 1.10145 l -0.32701,0.80647 3.89869,-0.16958 0.008,1.84219 0.20383,5.51936 0.34689,-0.011 c 0.35989,-0.72601 0.27509,0.22673 0.27509,-0.82636 v -1.10145 l -0.29221,-4.6814 -0.0343,-0.54796 c 0.0305,0.007 0.0603,0.014 0.0895,0.021 l 0.0851,-0.80979 -1.72563,-0.94678 -0.51371,-1.60521 c 0.69469,0.21382 0.38406,0.30712 1.01472,0.30712 0.037,0 0.54572,-0.27108 0.55072,-0.27508 l -0.64628,-1.04234 1.197,-0.0597 v -0.55072 c -0.58993,-0.15756 -2.21749,-1.00691 -1.10144,-1.37708 l -0.30933,-1.09095 1.92559,0.638 -1.48424,-1.90073 0.21045,-0.20936 1.84882,1.47596 0.0116,-1.39144 h 1.37652 l -1.62786,-2.4962 -1.1147,0.32645 -0.011,-5.54256 z"
   style="fill:#da251d"
   id="path201" /><path
   d="m 189.50675,136.1293 c -0.53047,-0.0239 -1.75737,0.0276 -3.08448,0.82083 -1.76949,1.05759 -3.18226,2.51388 -3.18226,2.51388 0,0 -0.67238,0.71391 0.13699,0.56287 0.80939,-0.15104 4.41695,-2.11517 4.84216,-2.12887 0.42521,-0.0137 0.85025,-0.13749 1.20694,0.38446 0.3567,0.52195 2.46914,0.42572 2.64755,0.30215 0.17841,-0.12357 0.49413,-0.67274 -0.20548,-0.96114 -0.69961,-0.28839 -1.00143,-0.0411 -1.56379,-0.0823 -0.56232,-0.0412 -0.82304,-0.42624 -0.65843,-0.68716 0.16459,-0.26092 0.52105,-0.78282 0.13699,-0.70042 0,0 -0.0994,-0.0164 -0.27619,-0.0243 z"
   style="fill:#1a1a1a"
   id="path200" /><path
   d="m 189.46753,133.94243 c -0.30175,0.0138 -1.26202,0.055 -1.64609,0.522 -0.38406,0.46701 0.0547,1.01589 0.61701,0.82359 0.56236,-0.19229 0.45265,-0.6729 1.48148,-0.6043 1.02883,0.0686 0.74085,-0.32925 0.75455,-0.43914 0.0137,-0.10988 -0.52102,-0.37075 -1.20695,-0.30215 z"
   style="fill:#1a1a1a"
   id="path198" /><path
   d="m 188.99359,129.86698 c -0.35711,0.0152 -0.72462,0.11415 -1.00754,0.32535 -0.75444,0.56321 -0.93307,1.16761 -1.52291,1.14011 0,0 -1.39874,0.4396 -2.5785,1.42845 -1.17976,0.98886 -2.67486,2.06024 -2.78454,2.93921 -0.10967,0.87897 0.83704,1.01694 2.57906,0.70097 1.74199,-0.31597 2.18077,-0.68696 2.67461,-0.75566 0.49384,-0.0687 0.68605,-0.49424 0.60375,-0.87883 -0.0823,-0.38457 -0.35695,0.0684 -1.02908,0.0271 -0.67213,-0.0413 -1.63245,-0.24726 -0.67224,-1.31853 0.9602,-1.07127 2.12606,-2.00518 3.09995,-2.11506 0.97387,-0.10988 2.04394,-0.50809 1.893,-1.00257 -0.0755,-0.24724 -0.45269,-0.42911 -0.90535,-0.47891 -0.11317,-0.0125 -0.23117,-0.0167 -0.35021,-0.0116 z"
   style="fill:#1a1a1a"
   id="path197" />
   <path
   d="m 213.94232,242.17826 -1.16165,0.016 0.28724,1.09813 c -1.10686,0.0132 -2.05958,0.50151 -2.15428,1.64001 l 1.14232,0.12374 -0.63192,0.18504 0.42699,0.82581 0.47891,1.65272 -0.58718,0.78051 -2.48128,-0.81366 0.0199,-1.15281 0.80592,0.32645 v -1.10144 l -0.18836,0.22813 -2.36915,-1.83831 1.15944,2.1725 -0.026,0.29442 -4.07711,-0.84182 -0.83133,0.26017 v 0.55127 l 0.23477,-0.18836 2.19404,3.07675 -1.78197,-0.62419 -0.64684,0.76504 c 0.8452,1.2625 -0.25782,2.84787 1.92725,3.0298 -0.40608,-0.84658 0.0129,-2.75416 1.10145,-2.75416 h 0.8258 v -0.55072 c 1.70439,0.14184 1.37619,1.12867 2.20289,0 h -0.82636 l 0.0199,-0.49935 0.79763,-0.27067 2.48681,0.2193 h 1.65216 l 0.0122,-1.15005 -1.1136,-0.22703 0.0398,-0.93242 1.6124,0.65678 c 0.7383,-0.1768 0.51854,-0.27564 1.10089,-0.27564 2.15354,0 2.68301,1.77508 3.57941,0.55128 h -1.10089 v -0.55128 h 2.75305 c 1.05267,0 0.10002,-0.0844 0.82581,0.27564 v -0.55072 l 1.10144,-0.0691 1.37708,0.0691 h 0.82581 l -0.0276,-0.4535 -2.72323,-0.91032 -1.65437,0.26182 c -0.41346,-1.54885 -0.8521,-0.60404 -1.86373,-1.05117 l -1.16496,1.6019 c -1.4937,-1.09478 0.65738,-2.25466 -1.8223,-1.80186 l -1.75712,-0.9523 z"
   style="fill:#1f1a17"
   id="path196" /><path
   d="m 213.94232,242.17826 v 1.10145 l 1.75712,0.9523 c 2.47968,-0.4528 0.3286,0.70708 1.8223,1.80186 l 1.16496,-1.6019 c 1.01163,0.44713 1.45027,-0.49768 1.86373,1.05117 l 1.65437,-0.26182 2.72323,0.91032 0.0276,0.4535 h -0.82581 l -1.37708,-0.0691 -1.10144,0.0691 v 0.55072 c -0.72579,-0.36001 0.22686,-0.27564 -0.82581,-0.27564 h -2.75305 v 0.55128 h 1.10089 c -0.8964,1.2238 -1.42587,-0.55128 -3.57941,-0.55128 -0.58235,0 -0.36259,0.0988 -1.10089,0.27564 l -1.6124,-0.65678 -0.0398,0.93242 1.1136,0.22703 -0.0122,1.15005 h -1.65216 l -2.48681,-0.2193 -0.79763,0.27067 -0.0199,0.49935 h 0.82636 c -0.8267,1.12867 -0.4985,0.14184 -2.20289,0 v 0.55072 h -0.8258 c -1.08858,0 -1.50753,1.90758 -1.10145,2.75416 -2.18507,-0.18193 -1.08205,-1.7673 -1.92725,-3.0298 l 0.64684,-0.76504 1.78197,0.62419 -2.19404,-3.07675 -0.23477,0.18836 v -0.55127 l 0.83133,-0.26017 4.07711,0.84182 0.026,-0.29442 -1.15944,-2.1725 2.36915,1.83831 0.18836,-0.22813 v 1.10144 l -0.80592,-0.32645 -0.0199,1.15281 2.48128,0.81366 0.58718,-0.78051 -0.47891,-1.65272 -0.42699,-0.82581 0.63192,-0.18504 -1.14232,-0.12374 c 0.0947,-1.1385 1.04742,-1.62686 2.15428,-1.64001 l -0.28724,-1.09813 z"
   style="fill:#1f1a17"
   id="path195" /><path
   d="m 152.63769,112.37149 c -1.3912,0 -2.25185,0.70472 -2.80277,1.51849 l -1.60245,0.68495 c 0.17679,0.73862 0.27508,0.51944 0.27508,1.102 0,0.91392 -0.55072,0.57478 -0.55072,1.10144 0,0.73659 0.39757,0.81445 0.78548,1.07548 l 1.70354,-2.7873 1.91233,0.32756 1.93167,-1.09426 c 1.50707,0 2.01638,-0.043 1.37653,-1.37708 -0.9616,-0.22405 -0.92707,-0.55128 -1.92725,-0.55128 z"
   style="fill:#1f1a17"
   id="path189" /><path
   d="m 152.63769,112.37149 h 1.10144 c 1.00018,0 0.96565,0.32723 1.92725,0.55128 0.63985,1.33411 0.13054,1.37708 -1.37653,1.37708 l -1.93167,1.09426 -1.91233,-0.32756 -1.70354,2.7873 c -0.38791,-0.26103 -0.78548,-0.33889 -0.78548,-1.07548 0,-0.52666 0.55072,-0.18752 0.55072,-1.10144 0,-0.58256 -0.0983,-0.36338 -0.27508,-1.102 l 1.60245,-0.68495 c 0.55092,-0.81377 1.41157,-1.51849 2.80277,-1.51849 z"
   style="fill:#1f1a17"
   id="path188" /><path
   d="m 184.305,113.26524 c -0.18652,0.003 -0.41758,0.0474 -0.69544,0.14362 0,0 -6.80349,2.03308 -7.35216,2.19791 -0.54868,0.16483 -2.74375,0.76903 -3.4021,1.09868 -0.65835,0.32966 -0.49345,0.65907 0.21984,0.87884 0.71329,0.21977 1.70078,0.27465 1.86539,0.6043 0.16461,0.32965 0.64493,0.0819 0.37064,-0.27508 -0.27428,-0.35702 -0.54879,-0.58996 -0.26072,-0.60375 0.28807,-0.0138 6.55711,-2.00551 7.68193,-2.28022 1.12482,-0.27471 1.93415,-0.24715 2.13991,-0.90646 0.15433,-0.49448 -0.008,-0.86575 -0.56729,-0.85784 z"
   style="fill:#1f1a17"
   id="path187" /><path
   d="m 184.305,113.26524 c 0.55957,-0.008 0.72162,0.36336 0.56729,0.85784 -0.20576,0.65931 -1.01509,0.63175 -2.13991,0.90646 -1.12482,0.27471 -7.39386,2.26643 -7.68193,2.28022 -0.28807,0.0138 -0.0136,0.24673 0.26072,0.60375 0.27429,0.35701 -0.20603,0.60473 -0.37064,0.27508 -0.16461,-0.32965 -1.1521,-0.38453 -1.86539,-0.6043 -0.71329,-0.21977 -0.87819,-0.54918 -0.21984,-0.87884 0.65835,-0.32965 2.85342,-0.93385 3.4021,-1.09868 0.54867,-0.16483 7.35216,-2.19791 7.35216,-2.19791 0.27786,-0.0963 0.50892,-0.14098 0.69544,-0.14362 z"
   style="fill:#1f1a17"
   id="path186" /><path
   d="m 176.03865,122.8573 c 0.17937,0.0502 0.47262,0.53681 0.41097,1.03129 -0.0822,0.6593 -0.95975,0.79687 -1.16552,0.64573 -0.20576,-0.15115 -0.0414,-0.27507 0.28779,-0.67335 0.32923,-0.39828 0.34303,-0.89265 0.34303,-0.89265 0.0171,-0.0962 0.0639,-0.12776 0.12373,-0.11102 z"
   style="fill:#1f1a17"
   id="path185" /><path
   d="m 171.42961,118.82051 c -0.24692,0.055 -0.0275,0.38447 0.39771,0.79653 0.42521,0.41207 0.42515,0.68684 0.79542,1.34615 0.37028,0.6593 0.69932,1.70333 0.69932,1.96426 0.45268,0.76919 1.08392,0.0133 0.86447,-0.90701 -0.21945,-0.92034 -1.49541,-2.0464 -1.75601,-2.41721 -0.2606,-0.3708 -0.75399,-0.83766 -1.00091,-0.78272 z"
   style="fill:#1f1a17"
   id="path184" /><path
   d="m 171.42961,118.82051 c 0.24692,-0.0549 0.74031,0.41192 1.00091,0.78272 0.2606,0.37081 1.53656,1.49687 1.75601,2.41721 0.21945,0.92034 -0.41179,1.6762 -0.86447,0.90701 0,-0.26093 -0.32904,-1.30496 -0.69932,-1.96426 -0.37027,-0.65931 -0.37021,-0.93408 -0.79542,-1.34615 -0.42522,-0.41206 -0.64463,-0.74158 -0.39771,-0.79653 z"
   style="fill:#1f1a17"
   id="path183" /><path
   d="m 174.31081,124.79835 c -0.22633,-0.0584 -0.50734,-0.055 -0.87773,0.0171 -0.24007,0.0962 -0.48705,0.23356 -0.45957,0.57005 0.0275,0.3365 0.19839,0.57024 0.0956,1.02356 -0.10283,0.45333 -0.34287,0.92017 -0.64463,1.25666 -0.30175,0.3365 -0.40421,0.54933 -0.63744,0.74847 -0.23324,0.19914 -0.13031,0.71446 0,0.9617 0.1303,0.24724 0.46633,-0.20582 0.64462,-0.52863 0.1783,-0.32281 1.08351,-0.9345 1.13845,-1.00312 0.055,-0.0686 0.74072,-0.29498 0.80924,-0.70704 0.0685,-0.41207 0.28772,-0.98944 0.32204,-1.00312 0.0343,-0.0137 0.45973,-0.63196 0.15798,-0.98213 -0.15088,-0.17509 -0.32219,-0.29515 -0.54852,-0.35353 z"
   style="fill:#1f1a17"
   id="path182" /><path
   d="m 201.39118,151.75996 c -0.0639,-0.0258 -0.148,-0.0267 -0.26459,0.011 -0.46637,0.15115 -0.27413,0.85168 -0.2193,1.03019 0.0548,0.17851 0.90532,0.48095 1.22076,0.43969 0.31544,-0.0413 0.37052,-0.12335 0.19223,-0.57668 -0.1783,-0.45333 -0.72694,0.38431 -0.56232,-0.3712 -0.16459,-0.15448 -0.17517,-0.45578 -0.36678,-0.53304 z"
   style="fill:#1f1a17"
   id="path181" /><path
   d="m 202.53736,150.36189 c -0.0671,-0.006 -0.12114,0.022 -0.14859,0.10439 -0.10978,0.32966 0.20603,0.78321 0.45295,0.97551 0.24692,0.19229 1.28925,0.89236 1.53617,0.43914 0.24692,-0.45322 0.39773,-1.2494 -0.17842,-1.3456 -0.57615,-0.0962 -0.5076,1.01634 -1.06996,0.17842 -0.0721,-0.0206 -0.39089,-0.33512 -0.59215,-0.35186 z"
   style="fill:#1f1a17"
   id="path180" /><path
   d="m 183.77472,92.201938 3.87438,13.368672 0.73245,0.30325 c 0.0497,1.41888 0.80428,3.43007 1.97752,3.74347 v 0.82636 c 0,3.77084 3.57941,9.17342 3.57941,12.39427 0,0.0756 -0.19001,0.50289 -0.27563,0.82581 l 0.80647,0.32701 0.0199,1.32571 2.22166,-0.47947 1.07383,0.49438 3.41535,-2.92982 3.81418,3.39824 c -1.27105,1.87316 -6.10354,5.51458 -8.87341,5.57626 l -0.21377,0.21377 1.10144,1.10199 0.21377,-0.21432 v 0.82636 c 0,0.64467 0.45689,1.10144 1.10144,1.10144 0.38578,0 0.55073,-0.37549 0.55073,-0.82635 0,-0.41763 -0.54127,-0.31095 -0.82581,-1.37708 2.7918,0.74567 -1.62603,2.65835 4.51735,4.84546 2.80078,0.99719 3.73378,2.23931 2.09075,5.34537 l 0.63469,1.90184 -0.63469,0.026 c -0.2917,-3.5069 -4.30413,-2.12097 -3.57941,-5.23268 -2.2349,-1.49701 -3.72585,-4.8537 -5.22661,-6.06457 -1.1882,-0.95871 -2.22855,-1.57739 -3.19495,-2.27966 l 0.0481,0.12262 c 0,0 -3.13434,-2.33947 -4.31849,-3.22368 -1.18404,-0.88442 -2.46426,-1.91586 -1.03074,-1.33896 1.03365,0.4157 2.98608,1.65109 3.99535,2.30783 -0.31116,-1.2611 -1.69642,-2.47855 -3.2176,-3.58328 l -4.59745,-2.80111 c -1.26197,-0.76919 -2.63367,-1.67576 -1.15226,-1.23622 1.48142,0.43954 4.87143,2.28187 4.87143,2.28187 -0.31415,-1.74831 -1.87146,-7.33237 -1.87146,-8.97283 0,-0.74397 0.13176,-0.75936 0.27563,-1.37708 -0.33275,-0.49705 -0.55072,-0.48449 -0.55072,-1.102 v -0.43748 c -1.00714,-0.72451 -3.45418,-2.49978 -3.72579,-2.83702 -0.34302,-0.42586 -0.12871,-0.5811 -0.12871,-0.5811 1.97536,-0.46039 4.05196,-0.14724 4.8637,-1.07217 l -3.62416,-14.196683 z"
   style="fill:#1f1a17"
   id="path179" />
  </g>
 </g>
</svg>
