<?xml version="1.0" encoding="UTF-8"?>
<!DOCTYPE svg PUBLIC "-//W3C//DTD SVG 1.1//EN" "http://www.w3.org/Graphics/SVG/1.1/DTD/svg11.dtd">
<!-- Creator: CorelDRAW -->
<svg xmlns="http://www.w3.org/2000/svg" xml:space="preserve" width="111.034mm" height="123.615mm" style="shape-rendering:geometricPrecision; text-rendering:geometricPrecision; image-rendering:optimizeQuality; fill-rule:evenodd; clip-rule:evenodd"
viewBox="0 0 125.282 139.478"
 xmlns:xlink="http://www.w3.org/1999/xlink">
 <defs>
  <style type="text/css">
   <![CDATA[
    .fil0 {fill:#1F1A17}
    .fil1 {fill:#DD137B}
   ]]>
  </style>
 </defs>
 <g id="Layer_x0020_1">
  <metadata id="CorelCorpID_0Corel-Layer"/>
  <path class="fil0" d="M15.0926 139.003c-0.153114,-0.170377 -0.0402813,-0.41545 0.358131,-0.306905 1.04765,0.395817 2.04024,0.467353 3.5557,0.370881 0.347299,-0.0596885 0.484955,0.0982773 0.281405,0.319768 -0.503008,0.184481 -3.43102,0.106514 -4.19523,-0.383744zm1.87934 -0.299571l1.15947 0.148262c0.108319,0.00496464 0.156048,-0.088348 -0.0107191,-0.260982 -0.0884608,-0.0965848 -0.212013,-0.18922 -0.370543,-0.277456 -0.153001,-0.0770647 -0.31864,-0.0965848 -0.50346,-0.0560779 -0.0628478,0.0180532 -0.191251,0.0638633 -0.256356,0.138784 -0.190462,0.217203 -0.155596,0.294155 -0.0183917,0.307469zm-1.37261 -0.426169c-0.0972618,-0.258048 -0.0127501,-0.354408 0.253761,-0.28919 0.146457,0.0435534 0.258387,0.130209 0.340303,0.254438 0.103242,0.208064 0.0308033,0.306228 -0.253874,0.271927 -0.173424,-0.0706333 -0.279938,-0.150632 -0.340191,-0.237174zm0.221942 -0.518353c-0.302617,-0.0534827 -0.219121,-0.313449 -0.0340755,-0.35768 1.12584,-0.058673 2.09937,0.161689 2.94685,0.613246 0.106288,0.0648788 -0.0596885,0.366593 -0.187415,0.272491 -0.99101,-0.423461 -1.89683,-0.591808 -2.72536,-0.528057zm2.52147 -1.17583c-0.176809,0.372912 -0.339401,0.603429 -0.481231,0.625657 -0.839588,0.0388145 -1.54615,0.0534827 -1.61238,-0.0480667 0.160448,-0.395253 0.320896,-0.697193 0.481231,-0.794229 0.172747,-0.109448 0.757784,-0.0900405 1.4921,-0.0240334 0.119039,0.0329471 0.158981,0.113171 0.12028,0.240672zm0.0165864 0.630735c0.153227,-0.201519 0.306566,-0.403038 0.459793,-0.604558 0.0991799,-0.117797 0.465209,0.0468256 0.451444,0.170265l-0.0680381 1.17538c-0.0636376,0.103242 -0.943958,-0.69031 -0.843199,-0.741085zm-1.23134 -1.67636c-0.149052,0.122649 -0.360613,0.0133143 -0.353505,-0.167557 0.0424251,-0.757107 0.481119,-1.10475 1.19095,-1.17244 0.208064,0.0112833 0.25534,0.295283 0.111704,0.335 -0.455957,0.0788701 -0.81217,0.340642 -0.949149,1.005zm1.86095 0.669888l0.576914 0.260531c0.226117,0.100985 0.271588,0.285692 0.167557,0.539679 -0.357228,0.969684 -0.209643,1.3532 0.167444,1.47021 0.550624,0.151647 0.511583,0.512148 0.204679,0.967653l3.6102 -0.0186174c0.0572062,-0.00868812 0.0689408,-0.206258 -0.0558522,-0.204679l-2.95881 0.0186174c-0.192041,0.0205356 -0.154355,-0.281179 0.0558522,-0.316383 0.302843,-0.00428764 0.442981,-0.124342 0.204679,-0.297766 -0.509214,-0.258387 -0.525575,-0.463742 -0.204679,-0.632766 0.469835,-0.13382 0.7799,-0.140138 0.930531,-0.0185046 0.116331,0.272265 0.0524672,0.439145 -0.093087,0.558296 -0.207725,0.155145 -0.281405,0.272152 -0.221039,0.35091 0.122762,0.204679 0.264706,0.218106 0.425718,0.0398299 0.144539,-0.310177 0.223522,-0.620354 0.206371,-0.930531 1.08082,0.057996 2.08436,0.228373 2.046,0.838798 0.00744696,0.185497 0.281969,0.0761621 0.297089,-0.0570933 -0.0339626,-0.571385 -0.468143,-0.937414 -1.30265,-1.09809 -0.920602,-0.0824807 -1.70445,-0.0934255 -2.28892,0 -0.195765,0.0537084 -0.272942,0.314126 -0.40947,0.465209 -0.198473,0.165074 -0.400556,-0.290657 -0.241913,-0.483714 0.367609,-0.48913 0.572287,-0.911011 0.614148,-1.26553l0 -1.32127c0.0120731,-0.872648 1.64002,-1.22345 2.62392,-0.427974 0.1442,0.0825935 0.270234,-0.122198 0.126937,-0.26967 -0.632314,-0.539227 -1.40082,-0.608958 -2.13683,-0.363096 -0.629494,0.210771 -1.00929,0.493756 -0.986271,0.893297l-1.26542 -0.660748c-0.243831,-0.0966976 -0.255115,0.189333 -0.130322,0.232661 0.697532,0.401233 1.33786,0.775161 1.30514,0.826274 -0.104709,0.571159 -0.355987,0.999246 -0.783962,0.867232l-0.548931 -0.171054c-0.0988414,-0.0247104 -0.0708589,0.157402 0.0649916,0.208289zm2.15522 -1.17019c0.176358,-0.341657 0.36964,-0.343801 0.623739,-0.0148939 0.187979,0.339175 0.257371,0.663343 0.386114,0.995184 0.0792086,0.191703 -0.0443433,0.191477 -0.259967,0.103919 -0.246652,-0.112494 -0.449751,-0.157063 -0.556829,-0.0520159 -0.229615,0.274296 -0.358244,0.269444 -0.386114,-0.0147811 0.0168121,-0.400218 0.0675868,-0.756882 0.193057,-1.01741zm0.197119 -3.35971c0.128291,-0.127388 0.397058,-0.17884 0.286369,0.124116 -0.450879,0.717616 -0.253874,1.07349 0.386452,1.18204 0.49951,0.131563 0.942717,0.347525 1.32985,0.647773 0.158868,0.223296 -0.0618323,0.329359 -0.261546,0.170603 -0.649916,-0.473785 -1.25865,-0.576349 -1.80702,-0.136415 -0.2585,0.118136 -0.445012,0.0610425 -0.525913,-0.252181 -0.112833,-0.624529 0.120844,-1.18756 0.591808,-1.73593zm-3.87343 1.41977c-0.0682638,0.379456 0.0491951,0.572626 0.352264,0.579734 0.166992,-0.028321 0.310628,-0.155145 0.44332,-0.238754 0.242703,-0.284903 0.338047,-0.668082 0.113623,-1.03434 -0.192718,-0.220926 -0.273506,-0.460696 -0.261433,-0.716036l0.0113961 -0.886527c-0.00485181,-0.439032 0.114864,-0.503347 0.272829,-0.19317 0.152888,0.434857 0.569241,1.10531 0.811718,1.65074 0.136753,0.183466 0.204566,0.18922 0.12028,-0.195878 -0.278471,-0.603316 -0.498721,-1.22412 -0.777079,-1.82755 -0.537535,-1.37374 -0.686023,-2.57247 -0.541371,-3.63953 0.378102,-1.52505 0.445689,-3.07717 -0.0403941,-4.67737 -0.406649,-0.875018 -0.472656,-1.66203 0.210771,-2.25575 0.446479,-0.375733 0.676883,-0.910673 0.432036,-1.79585 -0.095795,-0.228373 0.130322,-1.25447 0.00925228,-1.52245 -0.818263,-0.932224 -1.10531,-1.77621 -0.194411,-2.9341 0.247104,-0.303971 0.670001,-0.595418 1.005,-0.893297 0.0943281,-0.218331 -2.57349,0.12705 -3.86023,0.190574 0.390514,1.7418 0.582217,3.49567 0.361629,5.24356 -0.350571,1.45148 -0.257484,3.31243 0.0372348,5.35955 0.314239,1.8491 0.747855,4.0754 1.48871,6.73668 0.216075,0.641567 0.204566,1.68087 0.00485181,3.04976zm2.51944 -3.34831c0.0941025,0.344365 0.251617,0.139687 0.287836,-0.205356 0.20953,-3.37167 -0.0302392,-6.8195 -0.0454716,-10.2293 0.127952,-0.724047 0.651496,-2.1102 0.757784,-2.09135 0.317511,-0.144087 0.453249,3.17286 0.458439,5.04949 0.0312547,1.3426 -0.0793214,7.54975 0.181773,8.22212 0.0453587,0.499736 1.66936,-3.24586 1.80713,-6.06938 0.108094,-1.43354 -0.0754851,-4.4772 0.0443433,-4.51049 0.584925,-0.123439 0.657251,-0.573416 0.796599,-0.600383 0.262562,-0.16372 0.381713,-0.191251 0.591243,-0.481119 0.186174,-0.492966 -0.352715,-0.445012 -0.435986,-0.135512 -0.0438919,0.0510004 -1.02035,0.00349781 -1.20077,-0.103129 -0.563261,-0.28919 -0.471641,-0.407665 0.0682638,-0.409244 0.420527,-0.0227922 1.04844,0.058673 1.26147,-0.0682638 0.145893,-0.303181 0.13066,-0.584699 -0.238641,-0.818263 -1.21239,-0.649465 -1.25797,-1.63641 -0.705543,-1.9845 0.988076,-0.595531 1.65717,-1.11355 2.13773,-2.039 0.121408,-0.324733 -0.0403941,-0.354295 -0.375169,-0.204679 -1.34113,0.309951 -2.68226,-0.0423123 -4.02339,-1.05702 -0.272717,-0.154919 -0.545546,-0.19915 -0.818263,0 -0.318075,0.208064 -0.488566,0.401346 -0.511583,0.579734l0 1.7049c-0.400556,0.17128 -0.453587,0.879869 -0.409131,1.73898l0.0341883 1.63664c-0.0427636,0.449751 -0.213818,0.599819 -0.44332,0.613697 -0.495448,0.119715 -0.10076,0.639761 -0.238754,0.95479 -0.0969233,0.409808 -0.0172634,0.739506 0.238754,0.988866 0.280841,0.189108 0.349104,0.484616 0.204566,0.886527 -0.0768391,0.733525 0.00361065,1.60877 0.477395,2.6255 0.252971,0.66481 0.0656686,4.00387 0.098503,6.00575zm-6.60432 -30.8493c0.130435,-0.259515 0.361967,-0.175229 0.327328,0.122762 -0.609861,2.54054 -1.42857,4.99138 -2.33225,7.406 -0.202083,0.210546 -0.316721,0.023582 -0.271588,-0.13901 0.780238,-2.84677 1.49639,-5.44463 2.27651,-7.38975zm-3.0044 11.0054c-0.155145,0.40349 -0.0576575,0.643146 0.409244,0.643259 1.77858,-0.0128629 3.10482,0.185384 3.62498,0.760041 0.114412,0.203212 0.153452,0.515081 0.116895,0.935383 0.0678125,0.107868 1.83455,-0.00451331 1.87088,-0.116895 0.00981645,-5.84654 -0.450992,-11.9136 -0.584586,-17.5397 -0.0489694,-0.736008 0.192944,-1.30356 1.34474,-1.34485l0.395366 -0.00473897c0.248683,-0.0293365 0.49432,-0.283774 0,-0.32541l-1.42361 0.00936511 0.0125244 -1.02576c0.287723,-0.259177 0.523318,-0.74447 0.729463,-1.3567 0.168346,-0.453587 0.630058,-0.412742 1.0094,-0.054611 0.207725,0.215285 0.566759,0.381262 0.702496,0.672821 0.0563035,0.0831577 -0.554686,0.219911 -1.24985,0.291447 -0.422558,0.0691664 -0.333195,0.121182 0.267978,0.156048 2.5683,-0.0585602 5.90138,-0.487776 8.59909,-0.0565292 0.317286,0.0169249 0.408116,1.28923 0.190913,1.30942l-6.49206 -0.054611c-0.240446,0.00101549 -0.203099,0.170716 0.15616,0.22307 0.462501,-0.0106063 0.818827,-0.0227922 1.2424,0.240446 0.60185,0.528396 1.96115,1.14322 3.11226,1.71494 0.053934,0.0284338 0.140702,0.0761621 0.130435,-0.0778546 -0.0867683,-0.322137 -0.231758,-0.636941 -0.403264,-0.948472 -0.168685,-0.282195 -0.0168121,-0.482021 0.24857,-0.221942l1.44764 1.46525c0.393899,0.262787 0.552655,0.0886865 0.301827,-0.310854 -0.431472,-0.468594 -0.18403,-0.921392 0.527944,-1.36358 0.177824,-0.111027 0.328456,-0.115202 0.43497,0.0528057l1.06209 3.24213c0.204114,0.608732 0.140251,0.679479 -0.191928,0.212238 -0.11712,-0.184707 -0.193395,-0.369189 -0.28998,-0.553783 -0.111479,-0.179517 -0.428087,-0.352264 -0.238754,0.173085 0.738264,4.0534 1.05499,9.48212 0.614148,13.4405 -0.062735,1.04923 0.210094,1.595 0.818601,1.63743 0.955242,-0.0116218 1.91037,-0.203776 2.8655,-0.614148 0.293139,-0.0938768 0.228486,-0.511583 -0.0810139,-1.15067 -1.04607,-2.31352 -1.78377,-4.67883 -2.45547,-7.05486 0.95197,1.79867 2.02681,5.27482 3.04016,7.91239 0.0487437,0.207951 0.553444,0.0500977 0.409244,-0.253422 -2.97901,-9.32867 -4.91465,-18.6656 -5.72953,-18.0269 -0.137092,0.060027 -0.118926,-0.848953 0,-0.864863 0.53652,0.0275312 0.847486,-0.134609 0.662554,-0.71378l-0.000451331 0.00496464c-0.477282,-1.464 -0.308823,-3.27057 -0.0372348,-5.76891 0.0755979,-0.516322 0.186512,-0.787008 0.252068,-0.313111 -0.289642,2.96524 0.545433,4.49074 0.938994,5.18884 0.529524,0.741649 0.927485,1.62502 1.15383,2.60531 0.149052,0.856287 0.570821,1.84876 1.26542,2.97766 0.387016,0.577591 0.560779,1.19794 0.521061,1.86084 -0.057319,0.243042 0.066797,0.453926 0.372235,0.632766 0.284,0.111253 0.408116,0.371671 0.372235,0.781705 -0.151196,1.39371 -0.117572,2.50421 0.186061,3.20084 0.0540469,0.0920715 0.138107,0.199037 0.267639,0.297314 0.193057,0.0927485 0.246314,-0.0187302 0.159771,-0.334662 -0.268203,-1.2178 -0.289529,-2.1867 0.168121,-2.34478 0.57161,-0.4493 0.733864,-1.19727 0.297766,-2.38201 -0.772453,-1.8051 -0.983337,-4.57164 -1.8983,-5.58285 -0.0683766,-0.0549495 -0.0824807,0.0144426 -0.0635248,0.0751466 0.326651,1.25989 0.529862,2.17993 0.212464,2.49293 -0.170603,0.142846 -0.225327,0.0631863 -0.341545,-0.150857 -0.00755979,-0.590905 -0.0151196,-1.18192 -0.0226794,-1.77294 -0.00609297,-0.557732 -0.763877,-1.67918 -2.27324,-3.36445 -0.237174,-0.249586 -0.40789,-0.58075 -0.431811,-1.09098 -0.0415224,-1.32466 -0.147472,-2.5349 -0.454716,-3.38712 -0.20513,-0.418722 -0.278471,-0.993379 -0.159094,-1.79585 -0.0111704,-0.17207 -0.295735,0.245862 -0.704753,0.932111 -0.0339626,0.0871068 -0.544756,-0.82492 -0.931998,-1.02294 -0.284564,-0.136753 -0.32225,-0.089025 -0.139123,0.149729 0.459229,0.486083 0.751804,0.968105 0.571046,1.60064 -0.477621,0.703061 -1.44076,1.01628 -2.43233,0.818376 -0.475703,-0.200842 -0.818263,-0.126598 -1.22751,0.11351 -0.37799,0.36885 -0.652512,0.892958 -0.840942,1.54581 -0.132578,0.375846 0.17286,0.443997 0.731946,0.454716l2.56412 -0.0227922c0.487099,0.00959078 0.513163,0.37404 0.113623,0.454603l-1.90947 0c-0.294268,0.0103806 -0.261546,0.0725514 0.249247,0.210207 1.33853,0.403828 2.64423,0.512599 2.6149,1.33549 -0.0488566,0.505942 -0.0109448,0.941138 0.181999,1.2503 0.200278,0.39435 -0.152663,0.641905 -0.512712,0.507183 -2.068,-0.68151 -4.34395,-0.396268 -6.8978,0.0156837 -0.346735,0.0569805 -0.79265,0.053257 -0.772904,-0.363773 0.00631863,-0.551639 -0.438468,-0.980065 -1.11388,-1.36381 -0.376974,-0.208515 -0.346735,-0.306905 0.0909432,-0.295509 0.355762,-0.0355423 0.60185,-0.10753 0.772904,-0.204566 0.238077,-0.183917 0.186851,-0.20671 -0.142282,-0.219911l-1.0287 -0.0401684c-0.238754,-0.0970361 0.00755979,-0.283097 0.739054,-0.558296 0.286482,-0.130547 0.183127,-0.273619 -0.113623,-0.500187l-0.568338 -0.386339c-0.321799,-0.139574 -0.361065,-0.323266 0,-0.704753 0.608168,-0.722919 1.38322,-1.26226 2.20498,-1.75026 0.338047,-0.278245 0.263464,-0.416353 -0.181886,-0.204679 -1.75737,0.828192 -2.87238,0.440386 -3.45516,-0.954678l-1.22751 -3.02335c-0.086994,-0.210884 -1.51388,0.894312 -1.31845,1.06841 2.27234,4.17865 2.98409,7.36425 2.72784,9.93379 -0.0878967,0.091733 -0.667631,0.175116 -0.61381,-0.250037l0.00236949 -0.00383631c0.0407326,-0.117797 0.115766,-0.192831 0.224988,-0.224988 0.320896,-0.404505 -0.155935,-5.06653 -2.80367,-9.46531 -1.95968,0.895666 -3.7562,1.56307 -4.97062,1.41526 -0.532683,0.0445689 -1.59985,0.417932 -3.10967,1.06379 -0.34854,0.097826 -0.557055,0.159997 -0.554121,-0.0286595 -0.0295622,-0.103468 -0.00473897,-0.259741 -0.0460357,-0.353279 -0.0398299,-0.108996 -0.0948923,-0.107417 -0.221265,-0.00947795 -0.158417,0.0839475 -0.404167,1.79122 -1.16387,1.93959 -0.157289,0.0112833 -0.312434,0.00609297 -0.464645,-0.0234692 -0.192605,-0.0432149 -0.28919,-0.0792086 0.172521,-0.256807 0.236949,-0.0542725 0.79107,-1.96588 1.44539,-2.26354 0.328795,-0.171957 0.589212,-0.667631 0.750112,-1.63675 0.0866555,-0.347412 0.3095,-0.531555 0.668421,-0.552316 0.253309,0.00428764 0.511019,-0.030352 0.784187,-0.204566 0.70464,-0.431924 1.26497,-0.695388 1.96972,-1.12731 0.365578,-0.270573 0.460245,-0.285015 0.621708,-0.23661 0.152324,0.0678125 0.311531,0.0336241 0.477282,-0.102226l1.5686 -0.886527c0.0368963,-0.312885 -0.70385,0.120167 -0.722016,-0.0602527 0.933014,-0.793891 1.87799,-1.493 2.83605,-2.08786 0.32225,-0.230404 0.767037,-0.355762 1.29577,-0.409244l3.17105 0.0340755c0.94125,1.17549 2.06653,1.79878 3.35937,1.9194 0.760041,0.0511132 1.47269,-0.0399428 2.13807,-0.273055 0.326087,-0.221716 0.00462614,-0.23221 -0.113623,-0.215285 -1.34248,0.191026 -2.68463,0.221265 -4.02689,-0.456183 -0.623401,-0.503008 -1.0182,-0.802918 -0.960432,-1.54547 0.0639761,-0.38239 -0.142508,-0.447269 -0.533924,-0.294945 -0.472882,0.315593 -1.06886,0.374153 -1.65176,0.440499l-1.76177 -0.0157966c-0.477847,-0.0122988 -0.911801,0.161802 -1.32127,0.440386l-1.72363 1.28595c-1.73729,1.34903 -4.37813,3.24123 -5.32232,3.3869 -0.685459,0.0899277 -1.00692,0.301263 -1.07936,0.595418 -1.0797,-0.832593 -1.51952,-2.53332 -1.37712,-5.02444 -0.00428764,-0.218331 -0.23582,-0.312321 -0.558296,-0.0366706 -0.91214,0.735444 -1.39924,0.845455 -1.69283,0.671242 -0.273055,-0.181999 -0.399541,-0.448059 -0.379456,-0.797727 -0.035091,-0.224988 -0.445915,-0.106965 -0.428087,0.116782 0.111027,1.51884 0.0596885,5.57506 0.846809,8.06348 0.441853,1.51974 1.36031,2.22145 3.01568,2.10512 1.79912,-0.459793 3.66706,-1.26373 5.59188,-2.35267 0.637053,-0.393448 1.64183,-0.804497 2.89833,-1.22762 0.250037,-0.0907175 0.351135,-0.121408 0.44332,0.0341883 1.3083,2.19956 2.02004,4.81672 2.48909,7.6038 0.0587858,0.438129 -0.0582217,0.75282 -0.238641,1.02283 -0.147021,0.183804 -0.0670226,0.599254 0.140477,0.61979 0.152098,0.0359936 0.433503,0.0143298 0.650368,0.0214382l-0.0179404 0.946215c-0.022228,0.149052 -0.497254,0.100534 -0.738829,0.663118 -0.590002,1.8482 -0.925905,3.4801 -1.09109,5.18274 -0.372348,2.3072 -1.33368,5.24029 -2.6255,8.5244l-0.985819 2.66511zm5.95035 -9.90062c0.022228,0.382729 0.163269,0.519482 0.245637,0.054611 0.0684895,-2.50455 0.207048,-4.41289 0.518241,-4.85553 0.19159,-0.433955 0.291785,-0.876033 0.190913,-1.33662 -0.270347,-0.481908 -0.983563,-0.160787 -1.03659,0.163607 -0.152775,0.338272 0.200729,3.66131 0.0818037,5.97393zm3.48473 11.2496c-0.0321573,0.365578 0.186851,0.28558 0.350571,0.175229 0.433278,-0.486873 0.929967,-0.555024 1.49018,-0.204453 1.0375,0.934819 1.85283,1.63179 2.27888,1.40251 0.829546,-0.873099 0.799984,-2.77253 0.0584473,-5.52226 -0.890476,-3.55863 -2.80322,-7.76289 -5.28926,-12.3295 -0.0900405,-0.169926 -0.280502,-0.290319 -0.501429,-0.0459229 -0.947005,0.91733 -1.28866,2.3089 -0.775274,3.94181 2.27595,5.30415 3.17805,9.72042 2.38788,12.5825zm-1.01606 -16.8916c-0.219911,-0.378892 0.0938768,-0.582217 0.386565,-0.204679 1.96622,2.51572 3.00417,4.76605 3.27316,6.79682 0.024259,0.526929 -0.0514517,0.564841 -0.227245,0.113623 -0.992589,-2.35922 -2.15454,-4.57988 -3.43248,-6.70576zm2.83402 2.67143c-0.131337,-0.267301 0.0794342,-0.316947 0.632653,-0.148826 1.8016,1.07484 2.70731,3.08473 2.71701,6.02955 -0.0450202,0.476493 -0.254776,0.386791 -0.37043,0.103129 -0.796148,-2.07759 -1.79539,-4.06954 -2.97923,-5.98386zm-2.28644 -9.0326c-0.696629,-0.0176019 -0.651158,-0.115992 0.0755979,-0.185723 2.41868,-0.0435534 2.80355,0.0390401 3.40281,0.326764 0.483827,0.306228 1.03738,0.542725 1.61622,0.754287 0.234805,0.158981 0.235143,0.245524 -0.280164,0.172296 -0.738603,-0.165413 -0.932675,-0.129419 -0.581878,0.107755 0.437227,0.213931 0.977808,0.383406 1.70242,0.474123 0.566082,0.1231 0.425154,0.296073 -0.199375,0.357567 -0.278584,-0.00598013 -0.610763,0.00270798 -0.791973,-0.120505 -0.15616,-0.154017 -0.520949,-0.181096 -0.517112,0 0.0115089,0.406762 -0.221378,0.457085 -0.62498,0.258613 -1.04201,-0.482134 -2.19776,-0.708138 -3.49093,-0.62498 -0.328907,0.0221152 -0.416353,-0.0918458 0.0271927,-0.505491 0.238303,-0.239431 0.683992,-0.381036 1.05025,-0.356551 0.407439,-0.0284338 0.416804,-0.377877 0.0282082,-0.408454 -0.428877,-0.00270798 -1.18553,-0.276779 -1.41628,-0.249699zm-14.1737 -5.00278c0.208741,-0.502444 0.489355,-0.948923 1.06988,-0.870956 0.339965,0.117346 0.271927,0.318865 -0.037122,0.314803 -0.286821,-0.0992928 -0.973521,0.68591 -1.03276,0.556152zm0.246314 -1.29758c-0.337257,-0.0257259 -0.213367,-0.506732 0.327215,-0.436437 0.608958,-0.00541597 1.56476,-0.465999 2.64604,-1.09121 1.34655,-0.85877 2.51617,-1.5097 3.05517,-1.41853l-0.00259515 0.00598013c0.353843,-0.0524672 0.591243,-0.198247 0.658266,-0.480442 0.366706,-1.29746 1.26237,-1.83917 2.45524,-1.95686 0.308485,-0.0346396 0.285015,0.0523544 -0.037122,0.393786 -0.666503,0.927034 -0.748194,2.27223 -0.300925,2.61287 0.331728,0.213141 0.349556,0.468143 0.0533699,0.765006 -0.74368,0.790393 -1.61057,1.2521 -2.57981,1.4411 -0.740634,0.189785 -1.31845,0.379569 -1.76132,0.569354 -0.509101,0.264141 -0.948133,0.265608 -1.3391,0.0874453 -0.390965,-0.172408 -1.41571,-0.339175 -3.17444,-0.492063zm6.13144 -4.1941c-0.223747,0.277907 -0.194185,0.498946 -0.0495336,0.694147 0.0735669,0.0845117 0.411839,0.0381375 0.384308,-0.0867683 -0.0581088,-0.285918 0.0426508,-0.577478 0.226455,-0.805061 0.168798,-0.163382 0.146908,-0.213254 -0.0653301,-0.149391 -0.222055,0.0846245 -0.387355,0.200504 -0.4959,0.347073zm4.28877 -1.20686c0.950728,-0.181096 1.48928,-0.0479539 1.74575,0.299909 0.564502,1.02396 1.27727,1.3277 2.07319,1.22762 0.36366,-0.0839475 0.3051,0.0790957 0.0544982,0.35452l-1.88216 1.52753 -0.0294493 0.32981c0.16451,-0.148149 0.2418,-0.0714231 0.329584,0.0874453 0.0251617,0.0839475 0.0152324,0.249022 -0.187641,0.350571 -0.108094,0.0803369 0.104145,0.405408 0.209869,0.335226 0.0952308,-0.0490822 0.0657815,-0.153114 0.195088,-0.212013 0.187866,-0.1143 0.379005,0.037122 0.378215,0.287723 -0.0596885,0.169362 -0.00880095,0.235482 -0.458665,0.283436 -0.0892507,0.0147811 -0.0141041,0.290431 0.0676996,0.23582 0.180532,-0.0807882 0.413193,-0.0255002 0.441627,0.138446 0.0329471,0.204453 -0.0177147,0.379682 -0.198473,0.502557 -0.161576,0.0752594 -0.273394,0.0154581 -0.335452,-0.179517 -0.0412968,-0.168008 -0.440273,-0.0995184 -0.342899,0.0790957 0.136528,0.0878967 0.187302,0.286821 0.167557,0.37483 -0.0762749,0.237513 -0.20276,0.25252 -0.352151,0.27125 -0.2119,0.0062058 -0.340642,-0.163269 -0.218783,-0.542838 0.0992928,-0.237739 -0.279938,-0.303407 -0.301715,-0.120618 -0.000451331,0.190349 -0.0980516,0.332067 -0.292462,0.425154 -0.241236,0.103016 -0.483375,-0.225891 -0.439483,-0.368173 0.0540469,-0.204791 0.230179,-0.343124 0.425718,-0.312772 0.134722,-0.0308033 0.0368963,-0.348315 -0.0697306,-0.267414 -0.242816,0.128629 -0.501993,-0.00327215 -0.579847,-0.0840604 -0.226794,-0.245862 -0.129419,-0.613584 0.220249,-0.655671 0.194411,-0.0138784 0.285354,0.0320445 0.504024,0.212915 0.104596,0.157289 0.375169,-0.286595 0.255679,-0.281179 -0.155371,0.00496464 -0.234692,-0.0338498 -0.249924,-0.111817 -0.0482924,-0.209417 -0.0113961,-0.337821 0.192605,-0.385324 0.154017,-0.0136528 0.263803,0.0611553 0.329584,0.224086 0.0497592,0.0522415 0.157627,-0.037122 0.0792086,-0.632879 -0.290883,-0.286934 -1.22649,0.0733413 -1.46355,0.435083 -0.0948923,0.0739054 -0.267526,0.0341883 -0.553783,-0.171393 -0.690198,-0.489468 -0.993379,-1.22785 -0.909657,-2.21491 0.0421994,-0.666841 0.393222,-1.17244 1.19569,-1.44245zm2.91086 3.96641c-0.188995,-0.194524 -0.19159,-0.359372 -0.100195,-0.518918 0.106965,-0.167557 0.314352,-0.174101 0.543966,-0.0610425 0.0701819,0.0327215 0.0673611,-0.19757 -0.0203099,-0.316044 -0.209417,-0.207387 0.313111,-0.480554 0.436211,-0.338837 0.143072,-0.188882 0.382052,-0.177824 0.541935,-0.0655558 0.0675868,0.084963 0.153565,0.34256 -0.0362193,0.443207 -0.0119603,0.0621708 0.171054,0.232774 0.214946,0.167557 0.00225665,-0.151986 0.126373,-0.339965 0.29833,-0.367609 0.330825,-0.028321 0.659958,0.357341 0.347525,0.668872 -0.152663,0.0794342 -0.207612,0.114751 -0.322589,0.0700691 -0.111817,-0.0275312 -0.274748,0.197457 -0.088348,0.314352 0.213028,-0.00338498 0.284113,0.151534 0.299571,0.292237 0.0471641,0.236046 -0.0790957,0.366593 -0.234015,0.392771 -0.241236,0.0628478 -0.385211,-0.107191 -0.45449,-0.29675 0.00834962,-0.148149 -0.381036,-0.227584 -0.37562,-0.00812395 0.0498721,0.228373 -0.0793214,0.36727 -0.229953,0.513163 -0.2163,0.138333 -0.486309,-0.0574318 -0.515194,-0.280502 -0.0322702,-0.198586 0.0960206,-0.387355 0.383857,-0.435534 0.0968105,-0.0382503 -0.0524672,-0.276779 -0.133255,-0.196667 -0.185384,0.0797727 -0.441063,0.136415 -0.556152,0.0233564zm-1.12415 0.725289c0.188205,0 0.34098,0.140477 0.34098,0.313675 0,0.173198 -0.152775,0.313675 -0.34098,0.313675 -0.188318,0 -0.34098,-0.140477 -0.34098,-0.313675 0,-0.173198 0.152663,-0.313675 0.34098,-0.313675zm2.27888 -1.33459c0.158304,0 0.286934,0.118249 0.286934,0.264029 0,0.14578 -0.128629,0.263916 -0.286934,0.263916 -0.158417,0 -0.286934,-0.118136 -0.286934,-0.263916 0,-0.14578 0.128516,-0.264029 0.286934,-0.264029zm-16.3806 -4.22401c-0.31469,0.281856 -0.254212,0.411952 0.181322,0.390288l1.522 -0.0156837c0.147134,0.0205356 0.0644275,-0.139123 0.0171506,-0.20434 -0.457424,-0.565969 -1.03095,-0.622724 -1.72047,-0.170265zm-2.17022 0.818263c-0.0231307,0.180419 -0.602639,0.19994 -0.649804,-0.0721001 -0.0394914,-0.625657 0.0803369,-1.01493 0.433165,-1.05882 0.353956,-0.0671355 0.653527,-0.178953 0.914509,-0.337031 0.404505,-0.239882 0.853128,-0.385775 1.25131,-0.625657 0.273958,-0.119151 0.533022,-0.155822 0.770196,-0.0722129 0.230066,0.0752594 0.431359,0.0927485 0.529411,-0.0962463 0.0840604,-0.232548 0.222619,-0.40191 0.481344,-0.433165 0.438468,-0.00361065 0.986384,0.529637 1.107,0.481231 0.309613,-0.0212125 0.41387,0.1231 0.312772,0.433278 -0.1398,0.236949 -0.245975,0.213705 -0.336918,0.0721001 -0.194298,-0.217767 -0.424477,-0.389386 -0.69787,-0.505378 -0.58752,-0.299007 -0.704076,0.422558 -0.384985,0.529524 0.533135,0.168911 0.910898,0.355085 0.842183,0.601624 -0.0359936,0.149955 -0.351361,0.195088 -0.457198,0.0481796 -0.229615,-0.299007 -0.571046,-0.445125 -0.997103,-0.476154 -0.257823,-0.054611 -0.657363,0.144313 -0.928049,0.403828 -0.132578,0.119039 -0.26211,0.122311 -0.402926,0.0731156 -0.602301,-0.139687 -0.925341,-0.0555137 -0.824469,0.239769 0.0563035,0.415789 -0.306002,0.393448 -0.361403,0.200729 -0.0574318,-0.137092 -0.2418,-0.200391 -0.475816,-0.228938 -0.258387,0.000789829 -0.185723,0.339514 -0.125357,0.822325zm-0.231194 -2.01034c-0.521513,0.110012 -0.158756,0.610876 0.253309,0.467692 0.564164,-0.419286 1.18023,-0.747517 1.83195,-1.01346 0.311531,-0.181773 0.62656,-0.286821 0.954903,-0.116895 0.11035,0.0529185 0.166203,-0.206935 0.136528,-0.409244 -0.0655558,-0.270234 -0.237626,-0.362644 -0.565292,-0.194862 -0.374717,0.198021 -0.738603,0.308485 -1.09132,0.331277 -0.36885,0.0189559 -0.682976,0.154355 -0.877049,0.545659 -0.170603,0.228599 -0.385098,0.35847 -0.643034,0.389837zm1.51941 -1.24184c0.285918,0.0583345 0.94362,-0.230292 1.13092,-0.375846 0.0902662,-0.276102 0.199488,-0.433842 0.35091,-0.331277 0.406311,0.284564 0.799307,0.541597 0.779561,-0.0584473 -0.034414,-0.206145 0.116895,-0.324733 0.175342,-0.487212 0.0926357,-0.279261 0.263126,-0.391642 0.487212,-0.389724 0.327779,-0.0724386 -0.0582217,-0.412291 -0.214382,-0.194862 -0.0877838,0.125357 -0.363434,0.197683 -0.974423,0.175342 -0.137882,-0.0151196 -0.231984,-0.0555137 -0.0195201,-0.272829 0.0540469,-0.0819165 0.164172,-0.132466 0.662666,-0.136415 0.125921,-0.0560779 0.217429,-0.137092 0.0779674,-0.331277 -0.194862,-0.168911 -0.389724,-0.337821 -0.584699,-0.506732 -0.116331,-0.116782 0.0441176,-0.388483 0.272942,-0.272829 0.201294,0.227358 0.4027,0.454716 0.604106,0.682074 0.170152,0.108319 0.271363,0.0194072 0.155822,-0.136415 -0.136415,-0.175342 -0.272829,-0.350797 -0.409244,-0.526252 -0.053257,-0.178389 0.0117346,-0.191364 0.194862,-0.0389273 0.259854,0.240334 0.519707,0.48078 0.779561,0.721114 0.128968,0.135625 0.225214,0.14657 0.506168,0.104709 0.435309,-0.0845117 0.929516,-0.156725 1.36482,-0.241123 1.3057,-0.29235 2.6114,-0.584699 3.91721,-0.877049 0.153565,-0.0162479 0.22386,-0.0821422 0.272829,0.0584473 0.0129758,0.104032 0.0259515,0.207951 0.0390401,0.31187 0.00361065,0.215285 -0.0797727,0.256469 -0.175455,0.272829 -0.402813,0.0909432 -0.805626,0.181886 -1.20833,0.272829 -0.316157,0.024259 -0.504701,-0.0062058 -0.506732,-0.116895 -0.0195201,-0.0714231 -0.1697,-0.115766 -0.18922,-0.187189 -0.675642,0.136415 -1.66349,0.407326 -1.89604,0.382052 -0.362419,-0.0162479 -0.345494,0.121972 -0.214382,0.233789 0.123439,0.117008 0.287611,0.177937 0.370317,0.35091 0.187415,0.403828 -0.0632991,0.535166 -0.155935,0.409244 -0.105837,-0.1908 -0.162253,-0.20276 -0.437904,-0.201406 -0.309726,0.110463 -0.243719,0.199488 -0.0493079,0.279374 0.333533,-0.0160222 0.535617,0.0443433 0.448172,0.272829 -0.0823679,0.330825 -0.31864,0.565405 -0.893748,0.588197 -0.158079,0.0435534 -0.180984,0.176132 0.0187302,0.223183 0.699563,0.0388145 1.08477,-0.180645 1.20957,-0.614148 0.0610425,-0.454039 0.192831,-0.86836 0.818827,-1.00478 1.01109,-0.223409 2.02219,-0.446705 3.03339,-0.670001 0.111479,-0.0581088 0.174214,-0.282984 0.130209,-0.874679 0.111704,0 0.223296,0 0.335,0 0,-0.322476 0,-0.645177 0,-0.967766 -0.00801112,-0.0728899 -0.484504,-0.365465 -0.614148,-0.334887 -2.53716,0.397058 -5.0742,0.794004 -7.61136,1.19095 -0.207274,0.0380246 -0.405069,0.0900405 -0.502444,0.465209 -0.0478411,0.118249 -0.15097,0.107078 -0.279148,0.0372348 -0.148488,-0.0591243 -0.289642,-0.137317 -0.483827,-0.0743568 -0.219347,0.110238 -0.235256,0.257146 -0.148826,0.576914 0.0484052,0.25094 0.318301,0.354408 0.688392,0.39074 0.16609,0.0446818 0.17128,0.195878 0.055965,0.335 -0.089025,0.141267 -0.239769,0.239205 -0.446705,0.297766 -0.0900405,0.0415224 0.0179404,0.144652 0.303294,0.117685 0.272942,-0.0186174 0.484504,0.0311418 0.757559,0.0126373 0.417594,-0.0141041 0.279261,0.345945 0.0763877,0.396043 -0.316383,0.031029 -0.74526,0.0247104 -0.895328,0.0877838 -0.277681,0.141831 -0.828869,0.834736 -1.10666,0.976567zm2.73868 -0.208064c0.202083,-0.00744696 0.675642,0.227696 1.01064,0.326989 0.265834,0.0926357 0.229502,-0.330938 0.0557394,-0.351135 -0.411727,-0.128968 -0.93527,-0.340868 -1.06074,-0.539679 -0.0938768,-0.224988 -0.0719873,-0.413306 0.204791,-0.521061 0.175681,-0.0368963 0.328343,-0.143523 0.465209,-0.297766 0.185723,-0.249022 0.432826,-0.253648 0.688505,-0.223296 0.157402,0.0723258 0.38995,0.396156 0.80021,0.558296 0.398864,0.150744 -0.15853,0.368173 -0.427974,0.40947 -0.295396,0.0346396 -0.560553,-0.204679 -0.707235,-0.279148 -0.315255,-0.150067 -0.724273,0.227922 -0.409357,0.31627 0.281518,0.0660071 0.545885,0.285354 0.818827,0.428087 0.25094,0.0799984 0.156048,0.247893 0.0649916,0.487663 -0.0434406,0.105386 -0.0401684,0.2629 -0.083609,0.368286 0.0227922,0.421994 -0.106853,0.238303 -0.167444,0.260644 -0.488791,-0.601511 -0.881449,-0.662102 -1.29712,-0.752594 -0.176132,-0.0776289 -0.204679,-0.214608 0.0445689,-0.191026zm12.9873 2.68226c0.434857,-0.349669 0.869827,-0.699224 1.30468,-1.04889 0.48597,-0.136415 0.972054,-0.272829 1.45814,-0.409244 0.366593,-0.0596885 0.733187,-0.119377 1.09978,-0.179066 0.375169,0.0682638 0.750337,0.136415 1.12562,0.204679 0.195313,0.0635248 0.11712,0.241011 0,0.434857 -0.337821,0.764893 -0.0405069,1.37261 1.02317,1.79066 0.229502,-0.0451331 0.257936,0.217316 -0.025613,0.434857 -2.38427,0.57556 -4.85226,0.460922 -6.11373,-0.946554 0.0426508,-0.093764 0.0854144,-0.187528 0.127952,-0.281292zm5.34071 1.75398c-0.246991,0.102678 -0.0440048,0.4537 0.313675,0.272717 0.459003,-0.270798 1.03321,-0.639423 1.1729,-1.11828 -0.0257259,-0.251504 -0.140364,-0.482585 -0.45009,-0.668421 -0.32146,-0.159884 -0.275537,-0.0258387 -0.17726,0.150067 0.573416,0.581201 -0.0270798,0.835188 -0.327328,1.17301 -0.102339,0.101098 -0.279599,0.164849 -0.531893,0.190913zm0.770535 0.624868c-0.13822,0.0721001 -0.0137656,0.25613 0.191703,0.166203 0.235708,-0.15176 0.475816,-0.328795 0.681961,-0.318301 0.158868,-0.0178276 0.30273,-0.0830449 0.545546,-0.272717 0.339401,-0.298781 0.884044,0.0798856 1.18204,0.909206 0.255905,0.507409 0.301715,0.17726 0.174214,-0.0745824 -0.166654,-0.424251 -0.373928,-0.934932 -0.0376861,-0.910447 0.164172,-0.0550624 0.20276,-0.270121 -0.151647,-0.242477 -0.66481,-0.0260644 -1.05555,-0.0733413 -1.04562,-0.151421 -0.123439,-0.0778546 -0.318188,-0.0584473 -0.389724,0.0713103 -0.192154,0.295509 -0.508875,0.545095 -1.15078,0.823227zm-0.0838347 -2.45422c-0.740972,0.0962463 -0.75722,-0.281856 0.0629606,-0.373815 0.646644,-0.032383 1.23281,0.450315 1.82259,0.902887 0.361854,0.312659 1.51737,0.458552 2.46991,0.647208 0.717842,0.158417 1.0428,0.611779 1.31157,1.10711 1.03693,2.71543 1.08094,6.69515 1.48871,10.2117 0.190462,1.52505 0.839927,3.12998 1.55483,4.74631 -0.0656686,0.12468 -1.08951,-1.74417 -1.63664,-2.08684 -0.216639,-0.172408 -0.407552,-0.267865 -0.572852,-0.286369 -0.162141,-0.0359936 -0.315706,-0.0828192 -0.409244,-0.204566 -0.272717,-0.300135 -0.463742,-0.67158 -0.736572,-0.971715 -0.0144426,-0.0159094 -0.209869,-0.0660071 -0.158756,-0.302617 0.0610425,-0.315593 0.0737926,-0.529862 0.260418,-0.572739 0.281179,-0.0909432 0.527493,-0.0666841 0.731607,0.0969233 0.147247,0.151986 0.228486,0.403038 0.279825,0.699337 0.0534827,0.139348 0.0970361,0.266737 0.193621,0.17207 0.19001,-0.278697 0.174101,-0.633217 0.0645403,-1.02215 -0.189897,-0.75722 -0.736233,-1.36415 -1.3127,-1.95821 -0.167895,-0.159771 -0.214608,-0.116782 -0.139913,0.129193 0.0862042,0.179291 0.172183,0.358582 0.258387,0.537874 0.196103,0.471866 -0.363434,0.317511 -0.430457,0.247555 -0.420415,-0.294606 -0.625432,-0.652512 -0.570256,-1.0868 0.117797,-0.516548 0.00970361,-1.06999 -0.256469,-1.66778 -0.230066,-0.350571 -0.300699,-0.63852 -0.292237,-0.753158 0.00315932,-0.419512 0.00643146,-0.839024 0.00959078,-1.25854 0.00304648,-0.216977 -0.134158,-0.181661 -0.279148,-0.0744696 -0.167444,0.0999698 -0.335,0.327892 -0.502444,0.614261 -0.2374,0.279487 -0.324845,0.150293 -0.390852,-0.0372348 -0.0954565,-0.308033 -0.319881,-0.569918 -0.632653,-0.80021 -0.247329,-0.147698 -0.397848,-0.28558 0.130322,-0.353731 0.218331,-0.0178276 0.323266,0.035091 0.409357,0.111704 0.0479539,0.0955693 0.163382,0.238303 0.353618,0.390852 0.187641,0.0745824 0.208064,-0.00744696 0.204679,-0.111704 -0.0248232,-0.198473 -0.0120731,-0.434744 -0.0368963,-0.63333 -0.0867683,-0.155032 -0.267414,-0.272378 -0.298104,-0.42741 -0.100647,-0.461711 0.00507747,-0.510681 0.204679,-0.372122 0.232887,0.142733 0.331277,0.437565 0.40947,0.744357 0.0702948,0.20276 0.446818,0.272378 0.521061,0.130209 0.168346,-0.264254 0.340529,-0.379795 0.483827,-0.428087 0.149052,-0.0250489 0.223634,0.0245975 0.223296,0.149052 -0.260079,0.410034 -0.280164,1.58259 -0.241913,2.94019 -0.0132014,0.187302 0.337144,0.748758 0.297766,1.28415 0.0177147,0.235708 0.343914,0.267301 0.297766,-0.0186174 -0.245073,-1.62761 -0.236949,-3.55604 0.111704,-4.7269 0.311305,-1.02463 0.301489,-1.95483 -0.595531,-2.62392 -0.436888,-0.267301 -0.771889,-0.367496 -1.005,-0.409357 -0.159433,-0.0490822 -0.369076,-0.407326 0.106176,-0.57477 0.132353,-0.0530314 0.342334,-0.0164736 0.489355,-0.00214382 0.197683,0.0238077 0.086994,-0.12987 -0.279148,-0.241913 -0.790619,-0.242816 -1.43941,-0.262787 -1.99127,-0.130322 -0.17207,0.0309162 -0.367383,-0.00236949 -0.72574,-0.483714 -0.474462,-0.760041 -0.825258,-0.916089 -1.25684,-0.867683zm7.26417 29.6748c-0.177712,0.181322 0.320671,0.386903 0.431698,0.261095 0.186061,-0.260531 0.409808,-0.384195 0.59587,-0.644726 0.139123,-0.143636 0.1653,-0.615164 0.148488,-1.03016 0.0147811,-0.252632 -0.0520159,-0.386791 -0.297766,-0.260531 -0.314239,0.180758 -0.569015,0.553783 -0.580073,1.09245 0.0141041,0.279938 -0.122311,0.478524 -0.298217,0.581878zm1.11907 0.269106c-0.224424,0.171393 -0.121408,0.403603 0.220814,0.288739 0.470512,-0.319655 1.00432,-0.627237 1.43862,-1.22074 0.0959078,-0.0649916 0.139687,-0.749773 0.0226794,-1.7049 -0.096472,-0.412516 -0.31627,-0.609635 -0.659169,-0.591018 -0.327102,0.179968 -0.185948,0.781366 -0.0909432,1.34113 0.194411,1.0481 -0.161576,1.63946 -0.931998,1.88679zm0.298217 -1.39721c0.0980516,-0.149165 0.19599,-0.0834962 0.294268,0.0127501 0.116556,0.133932 0.00755979,0.286031 -0.121408,0.364675 -0.138333,0.0210997 -0.281743,-0.0139913 -0.282646,-0.0743568 0.0112833,-0.082932 -0.00282082,-0.147811 0.109786,-0.303069zm0.718744 1.6187c-0.165638,0.189897 -0.161464,0.406649 0.173085,0.168008 0.427749,-0.403941 0.770196,-0.72732 1.19783,-1.13126 -0.00394914,-0.79784 0.00112833,-1.79156 -0.00293365,-2.58951 -0.247893,-0.834624 -0.419738,-1.55404 -0.667744,-2.38878 -0.132466,-0.538099 -0.279035,-1.10441 -0.185835,-1.18993 0.138107,-0.207725 0.226342,-0.419286 0.136302,-0.644613 -0.313224,-0.49353 -0.505378,-0.895892 -0.52061,-1.16534 -0.112833,-0.813072 -0.215285,-1.58316 -0.295283,-2.25812 -0.169926,-0.48992 -0.348766,-0.985368 -0.800548,-1.65469 -0.220249,-0.195878 -0.399089,-0.0845117 -0.195765,0.249135 0.486422,0.885624 0.805964,2.16029 1.04968,3.61166 0.0533699,0.237174 0.196893,0.614036 0.16011,0.711636 -0.111253,0.700917 0.227809,1.15146 0.213592,1.3699 0.0660071,0.933239 0.0954565,1.8869 0.498044,2.63318 0.38916,1.1026 0.305212,2.08673 0.249135,3.07785 -0.336354,0.40033 -0.672821,0.800548 -1.00906,1.20088z"/>
  <path class="fil1" d="M17.184 76.5738c-0.674175,0.277568 -0.880434,-0.142508 -0.647321,-0.511019 0.484391,-0.587407 1.50823,-0.760492 2.07815,-1.24353 0.0790957,-0.0976003 0.337595,0.00880095 0.459906,-0.0850759 0.110012,-0.091733 0.0339626,-0.464194 -0.0255002,-0.692116 -0.0491951,-0.220362 -0.414096,-0.38397 -0.502557,-0.159658 -0.173085,0.395366 -0.430908,0.729915 -1.17527,0.715472 -0.279712,0.00891378 -0.505603,-0.0493079 -0.613246,-0.255453 -0.0373476,-0.135399 0.00801112,-0.260869 0.15334,-0.37483 0.209643,-0.142056 0.430682,-0.235031 0.732397,0.0170377 0.11791,0.0484052 0.0696178,-0.102339 -0.0170377,-0.374717 -0.0682638,-0.229727 -0.193395,-0.354972 -0.35768,-0.408793 -0.208289,-0.0762749 -0.358582,-0.0675868 -0.408793,0.068151 -0.102001,0.338724 -0.268993,0.577591 -0.57917,0.596208 -0.154694,-0.0132014 -0.301263,-0.0486309 -0.391755,-0.238528 -0.125244,-0.238867 -0.097826,-0.696065 0.289529,-0.73251 0.268316,0.0209869 0.528508,0.0197457 0.73251,-0.136189 0.11712,-0.149729 0.231871,-0.315367 0.35768,-0.511019 0.145216,-0.288175 -0.0513389,-0.577026 -0.425943,-0.340642 -0.195765,0.0851887 -0.42899,0.196329 -0.76636,0.255453 -0.251391,0.0497592 -0.453023,0.035768 -0.902774,0.340642 -0.427749,0.207274 -0.814652,0.321122 -1.05623,0.102226 -0.213141,-0.270798 -0.0938768,-0.475251 0.357793,-0.613133 0.369753,-0.116895 0.808108,-0.187979 1.27749,-0.238528 0.248345,-0.0332856 0.346396,-0.17726 0.136302,-0.340642 -0.2629,-0.233789 -0.337257,-0.496577 -0.255453,-0.783623 0.0574318,-0.285467 -0.646419,0.0531442 -0.73251,-0.187302 -0.0382503,-0.209192 0.0374605,-0.29833 0.238528,-0.255566 0.385437,0.0806754 0.470174,0.025613 0.544982,-0.0339626 0.405408,-0.514291 0.586053,-0.504137 0.664359,-0.255566 0.0459229,0.209756 0.148375,0.343801 0.289529,0.425831 0.289642,0.115992 0.37562,-0.0288852 0.35768,-0.306566 -0.0629606,-0.406085 -0.529524,-0.234354 -0.476831,-0.459906 0.0595757,-0.110576 0.137543,-0.194862 0.255453,-0.221491 0.112833,-0.0547239 0.093764,-0.231307 -0.0851887,-0.170265 -0.32541,0.0687151 -0.589664,0.0787572 -0.425831,-0.323717 0.108207,-0.28998 0.0743568,-0.500413 -0.153227,-0.35768 -0.274748,0.174214 -0.490032,0.236159 -0.664359,0.221491 -0.439483,-0.035091 -0.861026,-0.0907175 -1.07315,-0.391755 -0.0962463,-0.228825 -0.170377,-0.451444 0.442868,-0.476944 0.361742,-0.00530314 0.700917,0.0460357 0.987963,0.20434 0.530878,0.301263 0.716149,0.159545 0.715472,0.102226 0.0461486,-0.265383 0.188092,-0.441402 0.425718,-0.528057 0.301602,-0.0608168 0.595531,-0.0939896 0.868812,-0.0511132 0.0947795,0.00857529 0.0990671,0.16451 0.153227,0.204453 0.214156,0.210771 0.565743,-0.232435 0.323717,-0.323717 -0.241575,-0.0514517 -0.462163,-0.174778 -0.439709,-0.20671 -0.0727771,-0.279825 -0.234692,-0.260305 -0.326876,-0.35531 -0.258951,-0.274635 -0.545997,-0.478862 -0.476944,-0.766585 0.0197457,-0.0864299 0.0987286,-0.122649 0.204453,-0.136302 0.186061,-0.0419738 0.0331728,-0.218557 0.0850759,-0.306566 0.0846245,-0.185497 0.186738,-0.344478 0.306679,-0.476944 0.484165,-0.484052 1.11941,-0.209305 1.29464,-0.459906 0.169249,-0.345719 0.384985,-0.447946 0.647208,-0.306566 0.249699,0.124229 0.499623,0.175455 0.749435,-0.0340755 0.309387,-0.479765 0.620693,-0.969684 0.800548,-0.800548 0.179968,0.173762 0.321912,0.247668 0.425943,0.221378 0.194862,-0.0770647 -0.0718744,-0.230517 -0.0170377,-0.408793 0.199263,-0.585489 0.522754,-0.823904 0.970813,-0.715359 0.153678,0.0478411 0.281518,0.143749 0.391755,0.272491 0.234918,0.213931 0.486873,-0.188656 0.698434,-0.170377 0.681284,-0.0055288 1.36968,-0.00913945 1.6011,-0.136302 0.216526,-0.161576 0.432262,-0.269557 0.647321,-0.374717 1.03761,-0.5003 1.50846,-0.250714 1.92233,-0.0617195 0.189333,0.17128 0.382616,0.319091 0.577591,0.457311 0.360049,0.22905 0.384534,0.159884 0.360952,0.0480667 -0.0161351,-0.112269 -0.117233,-0.231984 -0.0481796,-0.336918 0.0306905,-0.0684895 0.190462,-0.089025 0.277794,-0.0393786 0.113961,0.0895892 0.0142169,0.220926 0.0639761,0.319768 0.102226,0.112156 0.204566,0.107981 0.306905,-0.0127501 0.0746953,-0.130999 -0.0252745,-0.291108 0.0639761,-0.422107 0.255002,-0.367947 0.847938,-0.185158 0.716262,0.294155 -0.0567549,0.163833 -0.115766,0.326425 -0.243042,0.447607 -0.139913,0.140477 -0.129645,0.270798 -0.0511132,0.396607 0.221603,0.262223 0.44332,0.20513 0.665036,0.102226 0.481006,-0.282195 1.17673,-0.349443 1.25346,-1.03592 -0.051903,-0.338724 0.487212,-0.473559 0.639536,-0.204679 0.220137,0.162366 -0.274522,0.899502 0.153565,0.652399 0.593049,-0.326651 1.19591,-0.579847 1.86727,-0.319881 0.501654,0.136979 0.672257,0.0986158 0.511696,-0.115089 -0.173085,-0.25929 -0.117572,-0.42978 0.166315,-0.511583 0.43497,-0.0558522 0.394125,0.44016 0.562697,0.46047 0.738039,0.0699563 0.759138,-0.215962 0.56281,-0.268655 -0.0955693,-0.0236949 -0.175004,-0.0637505 -0.140702,-0.217429 0.0814652,-0.261208 0.320332,-0.267978 0.47322,-0.140702 0.154581,0.131337 -0.115428,0.367835 -0.115089,0.46047 0.177824,0.391191 0.453587,0.108884 0.473333,-0.0127501 0.097826,-0.323379 0.532119,-0.272491 0.460357,-0.051226 -0.0426508,0.207951 -0.171167,0.340868 -0.358131,0.422107 -0.334436,0.201858 -0.162479,0.513502 0.0767262,0.358131 0.182563,-0.116782 0.328569,-0.241349 0.690762,-0.319768 0.457649,-0.100083 0.710282,-0.0799984 0.511583,0.204679 -0.312321,0.397735 -0.728222,0.665374 -1.2151,0.844214 -0.532345,0.17805 -0.460809,0.773468 -0.294155,0.844101 0.253986,0.155371 0.409808,0.316496 0.421994,0.486083 -0.00214382,0.354069 -0.25173,0.374379 -0.613923,0.242929 -0.220926,-0.0159094 -0.501203,0.206935 -0.652286,0.332518 -0.17726,0.204002 -0.218783,0.326199 0.0383631,0.268655 0.933352,-0.146908 1.71415,-0.198247 2.11042,-0.0127501 0.541258,0.318188 0.780464,0.27881 0.882577,0.0767262 0.185835,-0.575785 -0.15255,-0.967315 -0.396494,-0.754738 -0.0894763,0.0956821 -0.193959,0.186625 -0.370881,0.255905 -0.259628,0.10358 -0.400218,-0.119264 -0.294268,-0.255905 0.135286,-0.153904 0.31108,-0.252745 0.57556,-0.230179 0.170603,-0.00214382 0.189108,-0.633443 -0.0895892,-0.856852 -0.237062,-0.207161 -0.183692,-0.531555 0.140815,-0.537309 0.265157,0.0414096 0.509101,0.0568677 1.11264,0.511696 0.159771,0.102791 0.292011,0.08564 0.396607,-0.051226 0.144426,-0.264706 0.308597,-0.0976003 0.306905,0.051226 -0.0705204,0.633443 -0.226681,1.08511 -0.48597,1.31743 -0.286934,0.347525 -0.089702,0.594741 0.242929,0.613923 0.280615,0.00665713 0.506506,-0.0872197 0.678012,-0.281405 0.0907175,-0.0644275 0.460583,0.21111 0.626673,0.166315 2.10185,-0.335113 4.14164,-0.654091 4.25921,-0.473333 0.148037,0.223634 0.165074,0.432601 0.0511132,0.626673 -0.139236,0.0776289 -0.220701,0.140477 -0.207725,-0.0311418 0.0421994,-0.249247 -0.0455844,-0.409921 -0.265495,-0.352489 -1.27636,0.196667 -3.42944,0.231081 -3.3772,0.679591 0.00688279,0.354295 -0.125696,0.502106 -0.306454,0.407665 -0.147698,-0.0570933 -0.279825,-0.0442304 -0.396494,0.0383631 -0.208966,0.171506 -0.117233,0.381036 0.166315,0.332518 0.398976,-0.0959078 0.775838,-0.102114 1.12551,0 0.264141,0.100083 0.302392,0.225327 0.140702,0.358131 -0.808785,0.558748 -1.50146,0.511358 -2.16154,0.294155 -0.594177,-0.279938 -1.15654,-0.222055 -1.70118,0.0255002 -0.405295,0.273281 -0.754287,0.416578 -1.04878,0.434857 -0.556152,0.0854144 -0.923423,-0.304423 -1.39416,-0.255679 -0.428651,0.0596885 -0.86475,0.134722 -1.31743,0.242929 -1.42835,0.296073 -2.46156,0.92489 -3.06973,0.959304 -1.51376,0.212238 -2.07973,0.721227 -2.30224,0.997667 -0.22905,0.474123 -0.15255,0.751579 0.370994,0.741875 0.320671,-0.0485181 0.199714,0.468256 -0.0383631,0.549947 -0.12547,0.0477282 -0.242026,0.108207 -0.511696,-0.0511132 -0.428764,-0.163946 -0.501541,-0.0102678 -0.56281,0.153452 -0.0916202,0.436775 -0.275876,0.411275 -0.47322,0.319768 -0.211223,-0.095118 -0.4238,-0.180758 -0.677786,0.025613 -0.296637,0.268542 -0.0710846,0.537197 0.511583,0.805738 0.970813,0.441853 1.57695,0.786895 1.79257,1.02813 0.106627,0.128404 0.0997441,0.733074 0.0372348,0.805851 -0.121182,0.143862 -0.159433,0.0805626 -0.185948,-0.0124116 -0.0688279,-0.321799 -0.202648,-0.585489 -0.495787,-0.706671 -0.285241,-0.130209 -0.570256,-0.218218 -0.855385,-0.285128 -0.855385,-0.202873 -0.942266,0.0575447 -0.210771,0.483488 0.280728,0.151647 0.326199,0.259064 0.136415,0.32225 -0.0992928,0.0414096 -0.19836,0.0827064 -0.29754,0.124003 -0.245862,0.115202 -0.230969,0.282082 0,0.347186 0.636264,0.199263 0.363434,0.605573 0.124003,0.681735 -0.267188,0.024259 -0.557281,-0.0462614 -0.942153,-0.508311 -0.266737,-0.2418 -0.694485,-0.220588 -0.842973,-0.0122988 -0.111366,0.201406 -0.190462,0.175906 -0.260305,0.0867683 -0.27802,-0.455167 -0.522415,-0.69708 -0.743793,-0.793327 -0.470287,-0.0812395 -0.883142,-0.3095 -1.6363,0.334549 -0.174778,0.0970361 -0.34177,0.148601 -0.454039,-0.11791 -0.167331,-0.303069 -0.349781,-0.218444 -0.537761,0.00643146 -0.207387,0.226117 -0.631976,0.0599142 -0.731269,0.557845 -0.0639761,0.130209 -0.273958,0.134271 -0.371784,0.0124116 -0.0778546,-0.113284 -0.117008,-0.279938 -0.111704,-0.508199 0.00631863,-0.314465 -0.358357,-0.19238 -0.285128,0 0.0301263,0.216413 0.0102678,0.365578 -0.037122,0.483375 -0.061381,0.0795471 -0.148262,0.0936511 -0.272717,0.0124116 -0.372009,-0.238641 -0.735105,-0.392545 -1.07845,-0.359485 -0.761846,0.0285467 -1.44031,0.947343 -1.51027,0.942379 -1.00827,0.320219 -0.84444,0.782495 -1.23495,0.951405zm13.0841 -6.0845c-0.055288,-0.213818 -0.00180532,-0.351812 0.245411,-0.354633 0.269783,0.0135399 0.389611,0.188882 0.518241,0.354633 0.190574,0.25771 -0.0511132,0.370881 -0.35452,0.46363 -0.112043,0.0168121 -0.227809,0.00688279 -0.409131,-0.46363zm-1.21408 4.35986c0.0130886,-0.215059 0.130096,-0.254551 0.311418,-0.185158 0.273281,0.194298 0.330825,0.456747 0.357567,0.728899 -0.0359936,0.286482 -0.324281,0.155709 -0.55367,0.0115089 -0.162479,-0.182225 -0.129758,-0.40033 -0.115315,-0.55525zm-0.260192 -0.422897c0.091056,0 0.164849,0.0739054 0.164849,0.164849 0,0.091056 -0.0737926,0.164849 -0.164849,0.164849 -0.0909432,0 -0.164736,-0.0737926 -0.164736,-0.164849 0,-0.0909432 0.0737926,-0.164849 0.164736,-0.164849zm-15.3354 -2.68824c0.139123,0 0.251955,0.112833 0.251955,0.251955 0,0.139123 -0.112833,0.251955 -0.251955,0.251955 -0.139123,0 -0.251843,-0.112833 -0.251843,-0.251955 0,-0.139123 0.11272,-0.251955 0.251843,-0.251955zm0.690875 -4.47179c0.137994,0 0.249924,0.147472 0.249924,0.329359 0,0.181773 -0.11193,0.329246 -0.249924,0.329246 -0.137994,0 -0.249924,-0.147472 -0.249924,-0.329246 0,-0.181886 0.11193,-0.329359 0.249924,-0.329359zm15.3959 -5.3529c0.136189,-0.382841 0.306679,-0.587181 0.42978,-0.392658 0.120505,0.241575 0.314578,0.225665 0.519143,0.172973 0.265721,-0.0811267 0.273732,-0.444561 0.0786444,-0.377425 -0.423348,0.0750337 -0.648111,-0.18324 -0.519143,-0.361854 0.147021,-0.141492 0.252068,-0.298668 0.0629606,-0.566307 -0.0996313,-0.0761621 -0.187528,-0.124229 -0.298894,0.0786444 -0.0622837,0.0623965 -0.131789,0.0741311 -0.236046,-0.157289 -0.086317,-0.131337 -0.185948,-0.220701 -0.377425,-0.0157966 -0.619677,0.230292 -0.648901,0.71378 -0.534827,1.25854 0.19001,0.611215 0.763765,0.564615 0.875807,0.361177zm4.03174 -1.82913c0.185271,0.373363 -0.0810139,0.43576 -0.021551,0.603429 0.0658943,0.574206 0.242816,0.707235 0.495561,0.538663 0.294493,-0.294381 0.416578,-0.617646 0.366368,-0.969571 -0.0838347,-0.527944 -0.17726,-0.671693 -0.280164,-0.431021 -0.0909432,0.268655 -0.277794,0.354859 -0.560214,0.2585zm10.5347 6.6542c-0.119264,-0.233338 -0.119151,-0.407326 0.143185,-0.45009 0.305777,-0.0424251 0.738603,0.114525 1.20708,0.327441 0.140025,0.0898148 0.11035,0.302956 -0.245524,0.552316 -0.436324,0.142846 -0.80461,-0.000451331 -1.10475,-0.429667zm-24.2361 -3.36704c-0.0898148,-0.0820294 -0.300586,0.00214382 -0.470738,0.188318 -0.170152,0.186061 -0.235143,0.403715 -0.145329,0.485745 0.0898148,0.0821422 0.300586,-0.00225665 0.470738,-0.188318 0.170152,-0.186061 0.235256,-0.403603 0.145329,-0.485745zm-4.06175 2.93388c-0.114074,0.148714 0.0432149,0.461147 0.351474,0.697532 0.308146,0.236497 0.650481,0.307582 0.764667,0.158868 0.114187,-0.148826 -0.0432149,-0.46126 -0.351361,-0.697645 -0.308146,-0.236385 -0.650481,-0.307469 -0.76478,-0.158756zm10.6462 -4.89051c0,-0.192831 -0.156386,-0.349217 -0.349104,-0.349217 -0.192831,0 -0.349217,0.156386 -0.349217,0.349217 0,0.192718 0.156386,0.349104 0.349217,0.349104 0.192718,0 0.349104,-0.156386 0.349104,-0.349104zm2.83966 -2.63464c0.0106063,0.0190687 -0.0234692,0.0630735 -0.122762,0.143298 -0.081578,0.135399 -0.102001,0.299007 -0.0612682,0.490935 0.00812395,0.0515645 0.0410711,0.0805626 0.0986158,0.0868812 0.0950051,0.0339626 0.255679,0.00214382 0.28998,0.0563035 0,0.00676996 0,0.0136528 0,0.0204227 0.0356551,0 0.126147,0.0138784 0.143298,-0.0204227 0.0170377,-0.0343011 0.0204227,-0.0438919 0.0204227,-0.102226 0,-0.0635248 0.0204227,-0.0206484 0.0204227,-0.0614938 0,-0.0954565 0,-0.190913 0,-0.286369 0,-0.0408454 -0.0204227,0.00248232 -0.0204227,-0.061381 0,-0.0575447 -0.0204227,-0.0231307 -0.0204227,-0.0818037 0,-0.0291108 0.0124116,-0.0408454 -0.0205356,-0.0408454 -0.0433278,0 0.00248232,-0.0205356 -0.0409583,-0.0205356 -0.0392658,0 -0.00688279,-0.0409583 -0.061381,-0.0409583 -0.0549495,0 -0.0267414,-0.0204227 -0.0818037,-0.0204227 -0.0408454,0 0.00259515,-0.0204227 -0.0612682,-0.0204227 -0.0463742,0 -0.0410711,0.00665713 -0.0409583,-0.0409583 0.0381375,-0.0779674 -0.0549495,-0.0628478 -0.0409583,0zm2.44655 2.70505c-0.112833,-0.121859 -0.084286,-0.259967 0.195765,-0.427749 0.3095,-0.17049 0.486535,-0.120618 0.671355,-0.0837219 0.276779,0.0639761 0.0287723,0.309951 -0.294042,0.581991 -0.123213,0.0873325 -0.257033,0.157514 -0.573077,-0.0705204zm6.4872 0.239995c-0.372461,0.117346 -0.0216639,0.414096 0.157289,0.293591 0.362193,-0.169475 0.717729,-0.330148 0.870391,-0.220137 0.171167,0.140364 0.357341,0.227809 0.597788,0.125808 0.0862042,-0.0622837 0.200052,-0.176583 0.377538,-0.409019 0.113623,-0.18482 0.0717616,-0.335113 -0.125921,-0.450879 -0.294719,-0.0709718 -0.578719,-0.0663456 -0.838911,0.104822 -0.127275,0.0758236 -0.246427,0.134045 -0.503347,0.492853 -0.0278697,0.035091 -0.136753,0.0626222 -0.534827,0.0629606zm0.0736798 -1.75421c0.0239205,-0.0239205 0.0549495,-0.00203099 0.0767262,-0.0128629 0.0150067,-0.00733413 0.0062058,-0.0127501 0.025613,-0.0127501 0.00541597,0 0.0363321,-0.00203099 0.0383631,0 0.00304648,0.00304648 -0.00293365,0.00981645 0,0.0127501 0.00214382,0.00214382 0.0214382,0 0.025613,0 0.00417481,0 0.00857529,0 0.0128629,0 0.126598,0.0496464 0.145103,0.153452 0.0894763,0.294268 0,0.0297878 0,0.0596885 0,0.0894763 0,0.155596 -0.157402,0.174665 -0.204679,0.268655 -0.029675,0.0592372 -0.233225,0.0127501 -0.307018,0.0127501 -0.0900405,0 -0.187641,-0.0894763 -0.230179,-0.0894763 -0.0423123,0 -0.0321573,-0.0354295 -0.0638633,-0.051226 -0.156273,-0.0775161 -0.00846245,-0.264367 0.0382503,-0.358131 0.0814652,-0.163833 0.271475,-0.136753 0.470738,-0.136753 0.00936511,-0.00564164 0.0187302,-0.0111704 0.0280953,-0.0166992zm3.26775 0.839137c-0.13664,0.287836 0.159658,0.298668 0.238641,0.159094 0.132578,-0.200842 0.26527,-0.401572 0.397848,-0.602414 0.129645,-0.173198 0.308485,-0.171844 0.264367,0.0113961 -0.058673,0.369753 -0.0520159,0.614148 -0.0485181,0.87513 0.0358808,0.111592 0.148826,0.0731156 0.17049,0 0.032383,-0.30194 0.0465999,-0.667067 0.125131,-0.806867 0.0581088,-0.120957 0.149391,-0.0550624 0.238641,0 0.0871068,0.0608168 0.19317,0.194524 0.340868,0.488678 0.0341883,0.0839475 0.201745,0.0207612 0.15616,-0.1653 -0.162818,-0.253874 -0.254551,-0.581201 -0.451669,-0.800887 -0.0789829,-0.065443 -0.0950051,-0.223747 0.0682638,-0.431811 0.469948,-0.788136 1.23856,-1.34293 0.943394,-2.72784 -0.122988,-0.559763 -0.291673,-0.618323 -0.53415,-0.511471 -0.48913,0.249135 -0.608845,0.544305 -0.625206,0.852451 -0.00394914,0.242252 -0.136076,0.171844 -0.215962,0.0568677 -0.17805,-0.397171 -0.3561,-0.632089 -0.53415,-0.704753 -0.377651,-0.060027 -0.690649,0.0673611 -0.772904,0.863847 -0.0865427,0.379569 -0.359485,0.519482 -0.659169,0.625093 -0.574093,0.119264 -0.669211,0.449864 -0.647885,1.27298 0.202986,0.554009 0.475364,0.838573 0.977018,0.837783 0.333421,-0.0227922 1.14582,-0.178276 1.1061,0.00180532 -0.17049,0.261321 -0.366819,0.444787 -0.537309,0.70622zm-1.39642 1.57672c0.247104,-0.00203099 0.417481,-0.0361065 0.511358,-0.102226 -0.279035,-0.200052 -0.362419,-0.417255 -0.0146683,-0.672032 0.128516,-0.0548367 0.196893,-0.24259 0.248345,-0.467466 0.0570933,-0.17726 0.142846,-0.224537 0.292237,0.0145554 0.129193,0.25534 0.168234,0.60106 0.204566,0.9496 0.0343011,0.125808 0.122875,0.0619452 0.219121,-0.0291108 0.105499,-0.121746 0.177373,-0.306002 0.175229,-0.628252 -0.027644,-0.333308 0.332518,-0.19001 0.467466,0.0731156 0.188995,0.289867 0.287498,0.790732 -0.0583345,0.803482 -0.434067,0.00789829 -0.566872,0.223634 -0.336016,0.577139 0.0173762,0.0594628 0.472205,-0.235708 0.233789,0.197119 -0.0463742,0.0827064 -0.0561907,0.13145 -0.0292237,0.146006 0.369301,0.0936511 0.748645,0.104145 1.19783,-0.467353 0.15616,-0.226004 0.240559,-0.561907 0.379908,-0.715924 0.109673,-0.292011 0.453023,-0.667518 0.861816,-1.06638 0.219121,-0.212915 0.358582,-0.435986 -0.0583345,-0.730479 0.0887993,-0.912365 0.103806,-1.83037 -0.0438919,-2.76113 -0.0741311,-0.428877 -0.0147811,-0.888445 -0.160674,-1.12494 -0.162141,-0.254212 -0.201068,-0.488001 -0.116895,-0.701142 0.134722,-0.180532 0.275425,-0.0989543 0.496802,0.116782 0.899728,0.925115 1.17651,1.82789 1.48996,2.73191 0.161351,0.316157 0.551752,0.314803 0.672032,0.102226 0.226455,-0.373589 0.478411,-0.726755 0.908078,-0.93764 0.262562,-0.154919 0.439709,-0.303858 0.0194072,-0.409357 -1.15146,-0.150519 -2.07906,-0.65285 -2.51403,-1.92933 -0.0116218,-0.0220024 -0.0116218,-0.0220024 0.00259515,0.0062058 -0.216413,-0.617421 -0.331954,-1.27354 -0.225553,-2.01542 0.0420866,-0.202083 0.0542725,-0.447382 -0.169136,-0.70464 -0.650706,-0.803369 -0.984353,-1.67703 -0.620129,-2.70607 0.149955,-0.463404 0.851774,-0.399202 1.49391,-0.22544 1.05386,0.417707 2.1507,0.959304 3.38261,1.88859 0.165526,0.10358 0.357905,0.173311 0.577139,0.208853 0.124567,-0.246314 0.277117,-0.362983 0.495448,0.0248232 0.0452459,0.0486309 0.0871068,0.0459229 0.125357,-0.00823679 0.152098,-0.518918 0.429441,-0.86915 0.775161,-1.12754 0.269106,-0.175681 0.449864,-0.175342 0.450879,0.267865 0.0185046,1.19095 -0.254325,2.3626 -0.690536,3.52343 -0.158981,0.369414 0.21867,0.456972 0.4792,0.197232 0.248909,-0.262336 0.538325,-0.999472 0.746953,-1.25425 0.268655,-0.343801 0.583458,-0.292914 0.930193,0.0280953 0.144313,0.142395 0.200617,0.31627 0.169136,0.521513 -0.0315932,0.119603 0.151873,0.199827 0.225553,0 0.0326087,-0.557055 0.384534,-0.7078 0.74684,-0.845568 0.140477,-0.0942153 0.17049,-0.315819 -0.0421994,-0.817473 -0.152098,-0.407777 0.0217767,-0.544079 0.5214,-0.408793 1.86998,0.754512 2.78324,2.10298 3.30724,3.69279 0.109222,0.398751 0.31108,0.575334 0.538776,0.689521 0.205581,0.0670226 0.371671,-0.1231 0.21551,-0.409357 -0.516999,-0.690085 -0.928726,-1.38717 -0.603429,-2.13344 0.0781931,-0.129419 0.233902,-0.171506 0.560327,-0.021551 0.105837,0.123552 -0.0455844,-0.565405 -0.21551,-0.732623 -0.291447,-0.347299 -0.559312,-0.54848 -0.88348,-0.668082 -0.378215,-0.161012 -0.476041,-0.487212 0.0431021,-0.560214 0.978485,-0.0287723 2.05547,0.29077 3.40484,1.573 0.320896,0.228373 0.658379,0.314578 1.01279,0.258613 0.423235,-0.154919 0.70385,-0.0449074 0.775838,0.452572 -0.08564,0.398187 -0.404731,0.640438 -0.88348,0.775838 -0.279712,0.0812395 -0.436437,0.385775 -0.150857,0.560214 0.508875,0.398412 0.910786,0.932901 1.07744,1.76707 0.0151196,0.250376 0.0850759,0.429103 0.538663,0.107755 0.208515,-0.153678 0.307356,-0.0717616 0.258725,0.0646531 -0.0287723,0.122085 -0.0575447,0.24417 -0.0862042,0.366368 -0.0375733,0.197232 0.229953,0.253535 0.409357,0 0.389273,-0.63333 1.12223,-1.12077 2.09034,-1.50846 -0.021551,-0.467015 0.11193,-1.36708 0.0208741,-1.45994 -0.368624,-0.688279 -0.339852,1.36674 -0.882916,1.17978 -0.161802,-0.05935 -0.279938,-0.0352038 -0.301602,0.172408 -0.0253874,0.167782 -0.176245,0.432149 -0.366368,0.366255 -0.421994,-0.15853 -0.670678,-0.114638 -0.840378,0.021551 -0.141718,0.121069 -0.277794,0.258838 -0.40947,0.40947 -0.106401,0.0797727 -0.268542,-0.0529185 -0.196667,-0.194636 0.0839475,-0.141718 0.416917,-0.462388 0.71378,-0.667293 0.120957,-0.12987 0.22307,-0.390965 0.258613,-1.12054 0.0403941,-0.373251 -0.145667,-0.580186 -0.495561,-0.797389 -0.432601,-0.230517 -0.635022,-0.679704 -0.732736,-1.22841 -0.00507747,-0.481908 0.898035,-0.369753 1.87483,0.0432149 0.306792,0.0882352 0.599931,0.19001 0.797389,0.387806 0.103468,0.0398299 0.213141,0.0426508 0.366255,-0.215398 0.093087,-0.235708 0.299571,-0.364111 0.452572,-0.237174 0.134384,0.162592 0.285128,0.234466 0.452572,0.215623 0.476267,-0.144087 0.693244,-0.0388145 0.732623,0.236949 -0.00936511,0.569692 -0.307356,0.905031 -0.646419,1.20675 -0.126034,0.0920715 -0.0848502,0.470625 -0.0862042,0.775838 0.0112833,0.276214 -0.248006,0.377651 -0.150857,0.689633 0.0171506,0.164059 1.10621,-0.288175 1.6592,-0.150857 0.333533,0.118926 0.548705,0.454152 0.432262,0.81894 -0.504249,0.842296 -1.37464,1.5818 -2.52249,2.28419 -0.471866,0.194524 -0.86317,0.506732 -1.07744,1.07744 -0.0887993,0.249699 -0.152437,0.602301 -0.258613,0.646531 -0.478524,0.210433 -0.663118,0.514743 -0.646419,0.883593 -0.467127,-0.138784 -0.584473,0.788475 -1.20686,1.14209 -0.10674,0.0642018 -0.118136,0.278133 -0.0862042,0.560327 0.00157966,0.264029 -0.0766134,0.411501 -0.711185,-0.258613 -0.15176,-0.187415 -0.134722,-0.455167 0.129306,-0.840491 -0.318978,-0.252407 -0.273394,-0.551865 0.021551,-0.883593 0.185948,-0.195201 0.285241,-0.414999 0.193959,-0.689521 -0.0860914,-0.243042 -0.418045,-0.297314 -0.452572,-0.0431021 -0.066797,0.722806 -0.450879,1.25526 -1.01279,1.68087 -0.263916,0.143975 -0.530765,0.208853 -0.81894,-0.280164 -0.15255,-0.220024 -0.262449,-0.142169 -0.366368,-0.021551 -0.21269,0.326312 -0.17647,0.48676 -0.129306,0.62498 0.0568677,0.17726 -0.122311,0.236385 -0.280051,0.129306 -0.32902,-0.272942 -0.307356,-0.538663 0.0646531,-0.797389 0.474574,-0.293139 0.705994,-0.62498 0.581878,-1.01279 -0.338724,-0.0182789 -0.382954,-0.154242 -0.34493,-0.323266 0.0387016,-0.13901 0.486873,-0.12468 0.237174,-0.581878 -0.00913945,-0.0451331 -0.366029,-0.181773 -0.323266,-0.387806 0.00203099,-0.18403 0.447607,-0.477282 0.258613,-0.538776 -0.280389,-0.0643146 -0.610763,-0.304197 -0.344817,-0.474123 0.270121,-0.0966976 0.63254,-0.441627 0.366368,-0.646419 -0.301489,-0.18922 -0.478524,-0.419738 -0.474123,-0.711185 -0.0750337,-0.220926 -0.266285,-0.122536 -0.474123,0.021551 -0.452572,0.344817 -0.905031,0.689633 -1.3576,1.03434 -0.142846,0.125696 -0.102452,0.220701 0.021551,0.301715 0.653189,0.269219 0.613584,0.732961 0,1.3576 -0.159658,0.149278 -0.345607,0.272378 -0.538776,0.388032 -0.0385888,1.04957 -0.137543,1.65108 -0.258613,2.09023 -0.188092,0.472092 -0.573416,0.711523 -0.538663,0.0431021 0.0352038,-0.639423 0.0730028,-1.27839 -0.064766,-1.93948 -0.057319,-0.115541 -0.280389,-0.12987 -0.2585,0.107755 0.0168121,0.708702 -0.168121,1.04257 -0.40947,1.2714 -0.16011,0.0814652 -0.326651,0.147811 -0.538776,0.107868 -0.142733,-0.023582 -0.121182,0.134384 0.0646531,0.47401 0.0742439,0.138107 0.00868812,0.227922 -1.03434,-0.021551 -0.287836,-0.0450202 -0.453136,0.0051903 -0.495674,0.150857 -0.0324958,0.203325 -0.142621,0.34256 -0.366368,0.387919 -0.249924,0.0480667 -0.308597,-0.0680381 -0.280051,-0.258613 0.0535955,-0.263803 0.523882,-0.54171 0.969684,-0.81894 0.137769,-0.14059 0.168459,-0.63254 0.0431021,-1.63765 -0.712313,-0.30792 -1.19321,-0.846922 -1.33616,-1.72397 -0.0260644,-0.22307 0.037122,-0.404054 0.431021,-0.431134 0.0144426,-0.179517 0.0287723,-0.359146 0.0431021,-0.538663 -0.0411839,-0.136866 -0.107078,-0.228148 -0.344704,0 -0.186851,0.251391 -0.373589,0.502783 -0.560327,0.754174 -0.187077,0.0995184 -0.286708,0.0767262 -0.193959,-0.21551 0.17963,-0.236949 0.359146,-0.47401 0.538663,-0.711072 0.173085,-0.211674 0.108432,-0.283436 -0.193847,-0.21551 -0.638972,0.150067 -1.04562,0.084286 -1.29295,-0.129306 -0.30352,-0.29596 -0.544192,-0.636151 -0.732736,-1.01279 -0.0859785,-0.15255 -0.246427,-0.116443 -0.142959,0.0619452 0.313111,0.471077 0.161012,0.817022 -0.0510004,1.231 -0.375056,0.616067 -0.958627,1.31834 -1.65932,2.06879 -0.408116,0.50628 0.1653,0.774258 0.40947,0.538663 0.788475,-1.0384 1.33334,-1.44764 1.81018,-1.68087 0.585038,-0.18245 0.793327,0.148037 0.624868,0.991348 -0.0502106,0.140025 0.207048,0.126373 0.474123,0.107755 0.167105,0.00248232 0.150067,0.193959 -0.0431021,0.21551 -0.59192,0.0101549 -0.928162,0.0798856 -0.991348,0.280164 -0.024936,0.0702948 -0.0139913,0.166315 0.021551,0.280051 0.0347525,0.135512 0.670339,-0.405069 0.991348,0.21551 0.0968105,0.181886 -0.0356551,0.436098 -0.387919,0.366368 -0.482698,-0.0687151 -0.970361,-0.0778546 -1.46536,0 -0.174891,0.062058 -0.388934,0.303858 -0.624868,0.646531 -0.159207,0.22465 -0.679027,0.0913945 -0.560327,-0.366368 0.05935,-0.207274 0.0796599,-0.365578 0.0431021,-0.452572 -0.136415,-0.213028 -0.603993,-0.205243 -0.62498,0.0646531 0.028998,0.696178 -0.245298,1.06492 -0.689521,1.24985 -0.386452,0.100647 -0.549834,-0.160787 -0.668082,-0.861929 -0.0811267,-0.38318 -0.0981645,-0.726868 -0.021551,-1.0129 0.0614938,-0.184481 -0.342786,-0.281743 -0.358695,0.0144426 0.00417481,0.271475 -0.0239205,0.533924 -0.111366,0.780464 -0.0801112,0.133143 -0.0904918,0.0770647 -0.135399,-0.00902662 -0.0326087,-0.135286 -0.0670226,-0.249473 -0.108319,-0.288739 -0.292462,-0.154129 -0.38916,0.0755979 -0.445238,0.384985 -0.0735669,0.31785 -0.280389,0.395366 -0.469271,0.505491 -0.264931,0.210433 -0.240785,0.8265 0.0722129,0.69787 0.136415,-0.0560779 0.272717,-0.112381 0.409131,-0.168459 0.285128,-0.0740183 0.327441,0.081578 0.192493,0.228599 -0.445802,0.229953 -0.800999,0.422784 -0.956821,0.738264 -0.0489694,0.118136 -0.0872197,0.476041 -0.00575447,0.717616 0.0853015,0.173875 0.197119,0.115541 0.312885,0.0241462 0.0956821,-0.055288 0.0441176,-0.236159 -0.0120731,-0.421092 -0.146683,-0.313449 0.437565,-0.358582 0.671919,0.0708589 0.112156,0.259854 0.0154581,0.68072 0.0981645,1.12032 -0.0550624,0.254212 -0.692454,0.250489 -0.86633,-0.384985 -0.107191,-0.258613 -0.636151,-0.164059 -0.80619,0.13224 -0.248119,0.294381 -0.496577,0.367835 -0.692341,0.447156 -0.195201,0.0397171 -0.399766,-0.000225665 -0.624868,-0.21551 0.0769519,0.573416 -0.15097,0.744583 -0.62498,0.732736 -0.398638,-0.0749209 -0.667067,-0.392319 -0.581765,-0.840491 0.0236949,-0.142621 0.126034,-0.313111 0.323266,-0.517225 0.0533699,-0.106401 -0.110802,-0.174439 -0.40947,0.021551 -0.214382,0.145103 -0.368737,0.332292 -0.495674,0.538776 -0.123552,0.0995184 -0.292124,0.0596885 -0.150857,-0.172408 0.122875,-0.191364 0.267865,-0.375282 0.474123,-0.538776 0.145329,-0.09241 0.0943281,-0.318752 -0.387919,-0.172296 -0.422446,0.245637 -0.794794,0.279261 -1.07744,-0.0646531 -0.175681,-0.233564 -0.219234,-0.454941 -0.172408,-0.668082 0.0671355,-0.163946 0.191703,-0.251166 0.373702,-0.261885zm9.28196 4.06886c0.218444,0.207838 0.835413,0.0473897 0.767375,-0.319768 -0.121746,-0.342899 -0.609974,-0.414773 -0.434857,-0.716262 0.147924,-0.2629 -0.0996313,-0.293027 -0.191928,-0.396494 -0.125131,-0.0770647 0.211787,-0.0574318 0.25015,-0.0906047 0.114977,-0.0996313 0.122085,-0.222393 -0.00575447,-0.334436 -0.0392658,-0.034414 -0.346171,-0.022228 -0.257146,-0.0994056 0.0427636,-0.0630735 0.250827,-0.066797 0.230292,-0.383631 -0.0933126,-0.272604 0.579509,-0.439371 0.43497,-0.747178 -0.131112,-0.2418 -0.426508,-0.312321 -0.79863,-0.155822 -0.143975,0.0684895 -0.197006,0.191026 -0.19915,0.378554 -0.0129758,0.102791 -0.117008,0.134384 -0.127952,-0.0128629 -0.00823679,-0.192154 -0.157289,-0.272942 -0.370881,-0.268542 -0.269896,0.0333985 -0.566872,0.291221 -0.511583,0.713216 0.021551,0.202986 0.31029,0.39074 0.677899,0.48913 0.177937,0.0480667 0.171506,0.177035 0.0255002,0.166203 -0.234466,0.00857529 -0.468933,0.0171506 -0.703399,0.025613 -0.174101,0.0132014 -0.156612,0.181661 0.0127501,0.191816 0.234466,-0.00417481 0.469046,-0.00857529 0.703512,-0.0127501 0.170603,0.0106063 0.179855,0.188882 -0.0383631,0.230179 -0.408229,0.0825935 -0.588423,0.272717 -0.665149,0.511583 -0.067474,0.506732 0.0945538,0.758349 0.48597,0.754738 0.211336,-0.0161351 0.332744,-0.116895 0.345494,-0.319881 0.0200842,-0.101775 0.113171,-0.128968 0.15334,-0.0255002 0.0103806,0.146908 0.0745824,0.288513 0.217541,0.422107zm8.30144 -16.2674c0.330713,-0.0741311 0.419286,0.275537 0.0961335,0.409019 -0.374717,0.051903 -0.590566,0.15334 -0.69787,0.288852 -0.176696,0.313675 0.0637505,0.53855 0.649804,0.360952 0.286934,-0.136979 0.612005,0.360839 0.625657,-0.168459 0.173198,-0.203325 0.276891,0.279599 0.649804,0.144426 0.227019,-0.119039 0.424251,-0.350571 0.577591,-0.74605 0.0463742,-0.183917 0.179855,-0.136076 0.208741,0.00349781 0.155935,0.330261 0.337595,0.539227 0.537309,0.665149 0.214156,0.104822 0.432488,0.141718 0.665036,-0.0639761 0.0762749,-0.111592 0.394463,-0.126034 1.3813,0.127839 0.270121,0.0687151 0.416917,-0.0108319 0.383744,-0.306905 -0.423235,-0.943507 -1.79675,-1.43534 -3.23593,-2.13604 -0.15695,-0.0767262 -0.169362,-0.146344 0.081578,-0.203437 0.41466,0.0109448 0.829208,0.0218895 1.24387,0.0327215 0.145329,-0.00778546 0.126485,-0.16011 0.0128629,-0.154129 -0.441853,0 -0.880321,-0.0423123 -1.32229,-0.0423123 -0.107642,-0.00146683 0.200617,-0.0682638 0.300925,-0.102339 0.204453,-0.0841732 0.147472,-0.247555 -0.0805626,-0.183353 -0.138897,0.0391529 -0.466338,0.185835 -0.416691,0.117346 0.314465,-0.26888 0.590002,-0.583345 0.904467,-0.852225 0.231646,-0.17805 0.0233564,-0.300361 -0.129419,-0.152437 -0.282759,0.276214 -0.565405,0.552429 -0.848163,0.828643 -0.0705204,0.0736798 -0.160222,0.0491951 -0.0365578,-0.139236 0.426395,-0.653866 0.682299,-1.36437 0.563035,-2.20001 -0.0514517,-0.21269 0.306792,-0.277907 0.358244,-0.0953436 0.0551752,0.329584 0.128291,0.551978 0.219347,0.667293 0.120392,0.143072 0.222732,0.135738 0.307131,-0.0220024 0.00259515,-0.15176 -0.00767262,-0.322476 -0.0365578,-0.520723 -0.00710846,-0.188882 0.123326,-0.162028 0.343688,-0.0733413 0.1398,0.0745824 0.24259,0.175681 0.28242,0.321686 0.0353166,0.104709 0.202422,0.209756 0.244057,-0.285241 0.0792086,-0.267526 0.408454,-0.340642 0.382164,-0.160787 0.00327215,0.452121 -0.0172634,0.895328 -0.0139913,1.34734 0.022228,0.204453 0.304987,0.168008 0.305664,0.0248232 -0.0165864,-0.501993 -0.00372348,-1.00748 -0.0203099,-1.50936 -0.0102678,-0.312434 -0.366368,-0.68512 -0.129758,-0.932337 0.459568,-0.538438 0.816796,-1.30784 1.20663,-2.00436 0.654881,-1.21724 1.30976,-2.43448 1.96464,-3.6516 0.616631,-1.04415 0.901872,-2.19877 0.912478,-3.44501 -0.0124116,-0.343011 -0.175004,-0.378779 -0.440499,-0.204566 -0.840829,0.754287 -1.73774,2.141 -2.64277,3.61798 -0.272152,0.418271 -0.644839,0.442868 -1.10102,0.141718 -2.55882,-2.56187 -5.11775,-3.70938 -7.67646,-3.3034 -0.846471,0.263352 -0.926357,0.48834 -0.896682,0.7078 0.0697306,0.453475 1.80566,2.19685 3.28772,3.74379 0.393222,0.361854 0.786444,0.723596 1.17978,1.08545 0.15255,0.246652 0.117008,0.434406 -0.0472769,0.582104 -0.148488,0.10753 -0.331164,0.492515 -0.110125,0.613359 0.2163,0.122988 0.446479,0.228486 0.440499,0.629268 -0.0113961,0.149503 0.088348,0.264931 0.298894,0.346058 0.283436,0.141267 0.311193,0.538212 0.267414,1.00669 -0.0108319,0.130096 0.00812395,0.237739 0.235933,0.188769 0.364901,-0.239205 0.596095,0.48755 0.424702,0.644952 -0.634571,0.290206 -0.970474,0.579734 -1.24206,1.06627 -0.0343011,0.0655558 0.389047,0.650481 0.093764,0.679817 -0.106853,-0.0218895 -0.533699,-0.331954 -0.786444,-0.298894 -0.14499,0.0299007 -0.268542,0.102565 -0.377538,0.204566 -0.288175,0.0247104 -0.539002,0.0954565 -0.707912,0.267414 -0.147698,0.187302 -0.79863,-0.0614938 -1.40003,-0.267414 -0.177486,-0.0267414 -0.155935,0.0889122 -0.0732284,0.142056 0.370317,0.136076 0.858318,0.24857 0.757784,0.478749 -0.192944,0.252407 -0.106514,0.438468 0.25929,0.558296 0.506055,0.167105 1.31631,0.124229 2.09812,0.161351 0.564276,0.0320445 0.834398,0.248796 0.59429,0.3772 -0.103919,0.0224537 -0.139687,0.0872197 -0.179517,0.149503 -0.729576,-0.0574318 -0.844666,0.170716 -0.787798,0.478749 0.0225665,0.100985 0.166541,-0.417932 0.807656,-0.279261 0.19915,0.06612 0.289077,0.167105 0.21946,0.319091 -0.233338,0.384421 -0.777192,0.542274 -1.29633,0.717954 -0.423687,0.156499 -0.272265,0.49274 0.360162,0.256017zm16.3368 8.86278c-0.453813,0.157063 -0.35768,0.543741 -0.0629606,0.597675 0.508086,0.058673 1.03321,0.0885737 2.09214,-0.77076 0.116895,-0.0920715 0.247668,-0.118249 0.409019,0 0.271137,0.24857 0.44851,0.274748 0.503347,0.173085 0.161464,-0.722355 0.903451,-0.87513 0.912365,-0.975326 0.0143298,-0.084286 0.119264,-0.16293 0.314578,-0.235933 0.257146,-0.177035 0.0107191,-0.396494 -0.204453,-0.314578 -0.441627,0.179968 -0.593162,0.185948 -0.581991,0.0943281 0.0886865,-2.55092 -0.054611,-4.81525 -0.707912,-6.4494 -0.167557,-0.312547 -0.274409,-0.492289 -0.487663,-0.31469 -1.22051,1.33797 -1.62163,2.77828 -1.79325,4.24725 -0.0908303,0.280051 0.4792,0.461373 0.172973,0.644952 -0.938542,0.850194 -1.29092,1.44629 -1.4314,1.95065 -0.134045,0.741649 0.15932,0.9707 0.692116,0.912252 0.279148,-0.0524672 0.555927,-0.13303 0.818037,-0.409019 0.382616,-0.273394 0.564953,-0.0174891 0.471866,0.157289 -0.45528,0.46284 -0.813298,0.653753 -1.11682,0.692229zm-8.56005 -6.93357c-0.227132,0.164623 -0.213592,0.561568 0.0954565,0.545546 0.271475,-0.0728899 0.53573,-0.256356 0.79107,-0.572852 0.211787,-0.34098 0.623514,-0.268203 1.06379,-0.136302 0.339739,0.125808 0.677899,0.235256 0.968443,-0.16372 0.122988,-0.158191 -0.236272,-0.751917 0.0408454,-0.722806 0.0752594,-0.00248232 0.183127,0.0341883 0.300135,0.0818037 0.149842,0.0672483 0.24496,0.142846 0.395591,0.0136528 0.410034,-0.487324 0.650593,-1.13047 0.654543,-1.99138 -0.00575447,-0.266962 0.308033,-0.317173 0.381939,0 0.0609297,1.51625 0.0420866,2.53005 0.127275,2.73687 0.104483,0.404844 0.35012,0.285015 0.52738,0.0591243 0.322363,-0.651722 0.408906,-1.54457 0.597562,-3.13697 0.60783,-0.332631 1.08421,-0.963027 1.1483,-2.04588 -0.193282,-0.390063 -0.716149,-0.491725 -1.63675,-0.245411 -0.155032,0.0444561 -0.303971,0.0485181 -0.409131,-0.231871 -0.141718,-0.233789 -0.421994,-0.0547239 -0.477395,0.136302 -0.181999,0.350458 -0.4748,0.444787 -0.722919,0.34098 -1.09335,-0.557506 -2.22292,-0.874228 -3.39604,-0.900179 -0.817247,0.0892507 -0.85877,0.284451 -0.886527,0.504701 -0.0238077,0.778771 0.632653,1.6152 1.43207,2.14134 0.423687,0.26606 0.658266,0.50786 0.477282,0.695614 -0.103468,0.0505491 -0.138446,0.221265 -0.163607,0.409131 -0.0692793,0.438355 0.0592372,1.01527 -0.068151,1.26847 -0.211448,0.445012 -0.649127,0.845004 -1.24116,1.21385zm20.0736 -3.38995c-1.02689,0.489017 -1.8412,0.400669 -2.6589,0.32146 -0.199037,-0.0432149 -0.172634,-0.264141 0.100985,-0.268542 0.971151,0.0402813 1.93858,0.0515645 2.79058,-0.831464 0.536745,-0.631525 1.11704,-1.29114 1.28246,-1.88859 0.212351,-0.926357 0.821196,-1.81085 0.126824,-2.83278 -0.112607,-0.245073 -0.128516,-0.528508 0.211448,-0.408793 1.51941,0.761508 2.51278,2.25643 2.46641,5.20057 0,0 0.329923,-0.054611 0.662441,0 0.226907,0.0241462 0.211223,0.373025 -0.0705204,0.380472 -0.413758,0.0781931 -0.367496,0.369527 -0.169136,0.422784 0.824356,0.0938768 1.32172,0.310967 1.01482,0.831577 -0.430005,0.544982 -0.870166,0.796937 -1.32488,0.620129 -0.536407,-0.173198 -1.09448,-0.264931 -1.69125,-0.211336 -0.805174,0.0962463 -1.88002,0.746727 -3.00191,1.49391 -0.601737,0.279599 -0.734202,-0.0247104 -0.18324,-0.338272 0.455731,-0.277117 0.91135,-0.554347 1.36708,-0.831464 0.0302392,-0.0115089 0.0522415,-0.0717616 0.0564164,-0.239657 0.00857529,-0.13382 0.0294493,-0.257033 0.126824,-0.324056 0.507409,-0.327328 1.0147,-0.562358 1.52211,-0.662554 0.224876,-0.0789829 0.0117346,-0.489243 -0.211448,-0.394576 -0.520272,0.263013 -1.005,0.38397 -1.4798,0.465096 -0.459455,0.0524672 -0.754625,-0.141379 -0.937301,-0.503911zm-19.3202 -21.2616c-0.054611,0.205581 -0.153001,0.388257 -0.325861,0.529524 -0.156725,0.161802 0.162592,0.285805 0.249022,0.144087 0.11351,-0.248232 0.269783,-0.417594 0.383406,-0.418158 0.300925,-0.00282082 0.27723,0.139123 0.272491,0.272491 0.0164736,0.17884 0.12389,0.365239 0.272604,0.476944 0.199601,0.0875582 0.448961,0.00112833 0.732397,-0.20434 0.472431,-0.391529 0.811493,-0.891491 0.851774,-1.63517 0.0161351,-0.19001 0.259854,-0.221603 0.323491,-0.0341883 0.0686023,0.243154 0.161802,0.481683 0.37483,0.698434 0.175455,0.0743568 0.42222,-0.00541597 0.681397,-0.459906 0.241236,-0.461711 0.4493,-0.960658 0.425718,-1.72047 0.0882352,-0.498382 0.323604,-0.3772 0.33579,0 0.00925228,2.40909 0.140251,4.17616 0.958852,4.53102 1.02001,0.347976 1.73661,0.0893635 2.00989,-1.05611 0.243267,-2.34162 0.779448,-4.13396 1.66936,-5.26342 1.40838,-1.68459 3.02155,-3.40134 3.6111,-4.95674 0.253197,-1.06018 0.00902662,-1.54276 -0.732397,-1.44787 -2.11629,0.616969 -4.64972,2.61715 -7.56295,5.87655 -0.293139,0.328907 -0.45009,0.262787 -0.545095,0.0171506 -1.27366,-2.69535 -2.5674,-5.32548 -4.20731,-6.83055 -0.613133,-0.329246 -0.908303,-0.0453587 -0.885737,0.851774 0.0441176,1.51128 0.399992,2.97811 0.868699,4.42868 -0.0282082,0.556717 -0.056642,1.04438 -0.0851887,1.43083 -0.0321573,2.27087 0.0717616,3.37663 0.170377,3.64517 0.195765,0.336693 0.266172,0.706333 0.15334,1.12427zm11.3581 7.99826c-0.704189,0.339965 -0.635812,1.55089 -0.409244,2.38686 0.30352,0.911914 0.766021,1.2178 1.2617,1.39811 0.681848,0 1.36392,0 2.04588,0 0.338385,-0.0399428 0.608281,0.318188 0.272717,0.477282 -0.262562,0.137882 -0.421994,0.37122 -0.53415,0.647885 -0.13901,0.309387 -0.289077,0.437904 -0.439483,0.560666 -0.146795,0.0960206 -0.0392658,0.290319 0.136415,0.136415 0.163382,-0.176358 0.32823,-0.359372 0.499962,-0.575898 0.170603,-0.167444 0.329584,-0.446366 0.500187,-0.606137 0.158304,-0.178614 0.7843,-0.211787 0.69708,0.151534 -0.0252745,0.232323 -0.000676996,0.468933 -0.0259515,0.701255 -0.0058673,0.152663 -0.0929741,0.280389 -0.186174,0.374717 -0.0678125,0.0779674 -0.062735,0.148601 0.0151196,0.212125 0.0450202,0.0181661 0.113058,0.0160222 0.197006,0 0.0754851,-0.0161351 0.144426,-0.0588987 0.166767,-0.287949 0.0103806,-0.391642 -0.00778546,-0.886075 0.0757107,-1.01527 0.158756,-0.166992 0.253761,-0.156499 0.374943,-0.088348 0.313336,0.171054 0.579622,0.450992 0.731382,0.84602 0.0757107,0.179404 0.381375,0.243267 0.227245,-0.272829 -0.127727,-0.272717 -0.322589,-0.545546 -0.636489,-0.818263 -0.137882,-0.156499 -0.110576,-0.298555 0.030352,-0.303069 0.106965,0.00959078 0.218557,-0.031029 0.333421,-0.106176 0.0779674,-0.125357 0.0830449,-0.23142 0.0151196,-0.318188 -0.0707461,-0.0675868 -0.148714,-0.0796599 -0.242477,0.0302392 -0.106965,0.0786444 -0.242252,0.133368 -0.439483,0.136528 -0.118362,-0.00981645 -0.156725,-0.0798856 -0.030352,-0.227358 0.974536,-1.06006 1.70908,-2.13276 2.01564,-3.22792 0.217541,-1.11073 0.191477,-2.15048 -0.227358,-3.07638 -0.127614,-0.240559 -0.313449,-0.373815 -0.454603,-0.242477 -0.436098,0.479877 -0.854144,0.987737 -1.45486,1.21239 -0.159433,0.0468256 -0.17963,0.173085 -0.0605912,0.378779 0.230404,0.388822 0.354182,0.835413 0.424251,1.33368 0.0698434,0.358921 -0.246088,0.290431 -0.242477,0.0908303 -0.148714,-1.00162 -0.421317,-1.88826 -1.13656,-2.36407 -0.997215,-0.335339 -1.24895,0.0393786 -1.39416,0.515307 -0.184256,1.31258 -1.05002,1.74891 -2.10647,1.93971zm-24.3283 22.1122c-0.0295622,0.0997441 -0.0295622,0.276102 0,0.529411 0.184481,0.0361065 0.417594,0.0987286 0.571159,0.170265 -0.101775,-0.228938 -0.212802,-0.518241 -0.450879,-0.771889 -0.0537084,-0.0401684 -0.0881223,-0.0194072 -0.12028,0.0722129zm0.360952 -0.204566c0.184481,0.304874 0.425154,0.869827 0.553444,0.914396 0.368963,-0.124454 0.213931,0.17128 0.361065,0.216639 0.543289,-0.00868812 0.599029,-0.124454 0.433165,-0.288739 -0.243606,-0.138897 -0.3561,-0.287385 -0.180532,-0.457311 0.153001,-0.0911688 0.197232,-0.251617 0.132353,-0.481231 -0.231984,-0.556942 -0.31548,-0.965284 -0.0721001,-1.04686 0.13145,-0.0361065 0.245862,-0.115089 0.240559,-0.493305 -0.00315932,-0.178389 -0.0341883,-0.344365 -0.204566,-0.601624 -0.113623,-0.17805 -0.218444,-0.353618 -0.348879,-0.0602527 -0.161351,0.64687 -0.518918,1.17606 -1.01076,1.62445 -0.313449,0.282984 -0.194636,0.466902 -0.0361065,0.433165 0.103129,-0.102565 0.219685,-0.13664 0.336918,-0.168459 0.0855272,-0.00473897 0.113623,0.0354295 0.0841732,0.12028 -0.0745824,0.109786 -0.163043,0.21111 -0.288739,0.288852zm-22.722 8.66781c-0.300248,0.141718 -0.133255,0.380923 0.231307,0.355874 0.187866,-0.0473897 0.342786,-0.112607 0.266962,-0.302392 -0.067474,-0.176809 0.423687,-0.241913 0.426846,-0.0356551 0.118023,0.250489 0.685346,0.338724 1.0498,0.16011 0.242816,-0.19994 0.525349,-0.366593 1.08522,-0.302504 0.635925,0.0710846 1.17628,-0.0584473 1.63675,-0.355762 0.17049,-0.155935 0.394576,-0.304987 0.409244,-0.480442 -0.0293365,-0.125808 -0.0970361,-0.191364 -0.249022,-0.124454 -0.207612,0.12389 -0.415224,0.209869 -0.622724,0.16011 -0.0671355,-0.0382503 -0.145329,-0.180532 0.089025,-0.177824 0.348879,-0.339965 0.741988,-0.692003 0.765006,-0.943056 -0.110012,-0.0705204 -0.181886,-0.217541 -0.444787,0.0177147 -0.925567,0.782833 -1.50677,1.12099 -1.7436,1.01425 -0.654655,-0.173537 -1.35839,-0.170829 -1.70795,0.195652 -0.558522,0.468933 -0.903903,0.74684 -1.19208,0.818376zm71.9216 -25.9381c-0.459906,-0.350458 -0.72732,-1.2582 0.681961,-3.00056 0.327328,-0.346848 0.654655,-0.464984 0.981983,-0.463742 0.217203,0.0190687 0.526929,0.281066 0.900179,0.709266 0.141041,0.171393 0.312885,0.00801112 0.272829,-0.16372 -0.095118,-0.574544 -0.219572,-1.05724 0.0793214,-1.28302 0.262562,-0.286031 0.904918,-0.599254 2.15736,-1.06288 0.688279,-0.190913 1.16996,0.00327215 1.13216,0.654655 -0.268316,1.79167 -0.902323,3.5469 -1.50034,5.30562 -0.0834962,0.264818 0.278358,0.328005 0.368173,0.231871 0.00473897,-0.636376 0.111366,-1.16229 0.341093,-1.55483 0.218218,-0.365239 0.436437,-0.547013 0.654655,-0.722919 0.132353,-0.128968 0.350233,-0.00293365 0.218218,0.150067 -0.636151,0.298443 -0.968105,1.04855 -1.02294,2.20949 0.429667,0.252745 0.770647,0.5425 0.981983,0.886527 0.156725,0.228148 0.329584,0.29596 0.504588,0.34098 0.295847,-0.0113961 0.534827,0.232887 0.933239,0.714231 0.124567,0.20671 -0.239995,0.260192 -0.332969,0.104145 -0.129532,-0.28163 -0.32902,-0.537535 -0.77234,-0.61381 -0.255566,-0.0368963 -0.460922,-0.237174 -0.643711,-0.511471 -0.191703,-0.273619 -0.415337,-0.402813 -0.643485,-0.511358 -0.363885,-0.114525 -0.579847,0.240446 -0.354633,0.340868 0.581201,0.171393 1.9291,1.35647 4.11896,3.65533 0.549157,0.506055 0.448059,0.760718 -0.0271927,0.968443 -2.32311,0.77234 -2.67131,0.50628 -2.86426,0.35452 -0.393673,-0.359372 -0.574431,-0.7843 -0.695614,-1.22751 -0.0214382,-0.0902662 -0.187528,-0.176922 -0.218218,0 -0.158868,1.35659 -0.491612,1.66992 -0.872874,1.69125 -1.10001,-0.0576575 -1.96408,-0.492966 -2.63239,-1.24116 -0.159433,-0.403151 -0.142508,-0.919699 0.504588,-1.84132 0.467015,-0.63852 0.976793,-1.16263 1.50034,-1.65029 0.160899,-0.21709 0.0974875,-0.515871 -0.259177,-0.354633 -0.799871,0.409808 -1.54028,0.561568 -2.26399,0.641115 -1.0894,0.0261772 -0.763539,-0.369076 -0.545546,-0.381939 0.893409,-0.213028 1.78298,-0.456634 2.64593,-0.913832 0.17963,-0.137205 0.389498,-0.280953 0.0818037,-0.313675 -1.44945,-0.302504 -2.52632,-0.773355 -3.40969,-1.1457zm-13.3755 -13.2411c-0.322476,-0.0326087 -0.716375,-0.388032 -0.553896,-1.63382 0.0547239,-0.261885 0.176583,-0.414209 0.333308,-0.509552 0.109448,-0.054611 0.33421,-0.0203099 0.638069,0.0749209 0.117685,0.0405069 0.151986,-0.0878967 0.0824807,-0.158191 -0.214044,-0.246652 -0.414886,-0.440837 -0.338272,-0.636376 0.0415224,-0.213592 0.256694,-0.551752 0.719196,-1.14051 0.272942,-0.293027 0.559989,-0.341545 0.732961,-0.0190687 0.397171,0.934819 0.608845,1.95945 0.838798,2.97529 0.0376861,0.15097 0.229163,0.0751466 0.243944,0.00282082 -0.184369,-0.305551 -0.287723,-0.588084 -0.293027,-0.842973 -0.00282082,-0.238528 0.0482924,-0.389386 0.100985,-0.537422 0.0253874,-0.100534 0.166541,-0.104145 0.148262,0.00767262 -0.216526,0.329133 -0.155258,0.784977 0.158981,1.3558 0.279487,-0.0051903 0.52738,0.0332856 0.729238,0.135625 0.141718,0.0630735 0.244283,0.0449074 0.341206,0.0151196 0.137882,-0.0921843 0.323717,-0.0455844 0.655332,0.0675868 0.120167,0.0622837 -0.0383631,0.194749 -0.128629,0.147472 -0.144426,-0.0965848 -0.314803,-0.160448 -0.549044,-0.0669098 -0.132917,0.057319 -0.289867,0.0218895 -0.457537,-0.0556265 -0.171844,-0.0744696 -0.316721,-0.0707461 -0.457537,-0.0557394 -0.207387,0.051903 -0.206597,0.284903 -0.0695049,0.266962 0.328005,-0.0885737 1.31969,0.0824807 3.04016,0.538889 0.410824,0.080901 0.437114,0.23221 0.270911,0.470851 -0.883593,1.05025 -1.12799,1.0252 -1.26474,1.00929 -0.293478,-0.0564164 -0.504475,-0.206371 -0.692341,-0.382729 -0.0366706,-0.0367835 -0.141492,-0.0295622 -0.104257,0.064089 0.321912,0.694711 0.254776,0.942153 0.0787572,1.06413 -0.542612,0.294945 -1.08308,0.340303 -1.62186,0.178727 -0.194411,-0.145893 -0.337708,-0.397735 -0.298668,-1.02791 0.0358808,-0.441966 0.125808,-0.841958 0.232887,-1.22852 0.0133143,-0.150857 -0.104596,-0.275086 -0.227696,-0.0935383 -0.262223,0.430457 -0.571498,0.720098 -0.893974,0.970248 -0.512937,0.331954 -0.473108,0.0476154 -0.372686,-0.0224537 0.36445,-0.363885 0.718067,-0.741085 0.996426,-1.21261 0.0455844,-0.118249 0.103806,-0.248345 -0.0528057,-0.173875 -0.781366,0.280502 -1.4341,0.37122 -1.96543,0.452346zm16.6353 -19.1652c0.319768,0.244621 0.115541,0.261321 -0.16372,0.245524 -1.13261,-0.121182 -2.45411,0.091733 -4.11219,0.900179 -0.296976,0.165413 -0.318978,0.449525 -0.163607,0.552429 0.606024,0.324168 0.571723,0.564389 0.34775,0.593162 -0.438242,0.0154581 -1.04731,0.152437 -1.08421,0.347863 -0.0433278,0.496577 -0.3051,0.704866 -0.716036,0.716036 -0.243606,-0.0277568 -0.373025,0.244396 -0.204679,0.470625 0.282307,0.334323 0.159884,0.458326 -0.0204227,0.552316 -1.04517,0.393673 -2.42353,0.75643 -4.25537,1.18655 -0.545546,0.125808 -0.932111,0.44095 -0.141831,0.266737 1.87968,-0.323943 3.20501,-0.367722 3.41511,0.0811267 0.0658943,0.20671 0.02629,0.360839 -0.0612682,0.491048 -0.234354,0.355762 0.0728899,0.440837 0.531893,0.449977 0.225778,0.0116218 0.408229,0.0626222 0.286369,0.388709 -0.332631,0.551752 0.311531,0.787572 0.409131,0.654768 0.536181,-0.486196 1.19343,-0.990897 1.86174,-1.0639 0.553219,-0.0621708 1.13442,-0.179968 1.61633,-0.511471 1.16635,-0.982999 2.30427,-1.67071 3.39604,-1.88216 0.275086,-0.0488566 0.454603,-0.0122988 0.552429,-0.0818037 0.402249,-0.364111 0.86836,-0.610989 1.41165,-0.716036 0.399879,-0.0452459 0.610989,-0.0637505 0.531893,0.163607 -0.676883,1.1905 -1.5985,1.97299 -2.51639,2.76192 -0.266849,0.27723 -0.239205,0.897697 0.347863,1.02294 0.294155,-0.0206484 0.566984,-0.184256 0.818263,-0.490935 0.437565,-0.750225 1.24421,-1.50034 2.12769,-2.25056 0.215172,-0.179855 0.476267,-0.108319 0.429667,0.204679 -0.369076,2.02456 -1.11569,3.81927 -2.41406,5.2782 -0.567436,0.534714 -0.599706,0.941025 -0.388822,1.28889 0.307695,0.304535 0.511471,0.179742 0.654768,-0.0204227 0.137656,-0.270347 0.289077,-0.4792 0.4704,-0.552316 -0.120618,0.0711974 0.360613,-0.212013 1.04348,-0.184143 0.319429,-0.00631863 0.511809,0.151083 0.265947,0.327215 -0.823453,0.612005 -1.31732,1.45599 -1.32973,2.63916 0.0906047,0.760492 0.75203,0.801112 1.43196,0.818376 0.279825,-0.0434406 0.527493,-0.147472 0.552429,-0.675078 -0.0231307,-0.454716 0.139236,-0.775386 0.572852,-0.900179 0.586392,-0.136753 0.614261,0.0221152 0.675191,0.163607 0.053257,0.214495 0.314239,0.219121 0.388709,-0.0204227 0.121069,-0.799081 0.35091,-1.47472 1.10475,-1.55483 0.195765,0.0156837 0.293929,0.128855 0.34775,0.286482 0.0274183,0.122423 0.296524,0.227132 0.388822,-0.429667 0.0891378,-0.282533 0.129306,-0.579396 1.00241,-0.634233 0.184594,-0.0485181 0.242252,-0.164623 0.0204227,-0.429554 -0.227809,-0.392545 -0.181096,-0.9241 0.470625,-1.51399 0.125808,-0.162592 0.0157966,-0.50707 -0.102339,-0.695614 -0.225101,-0.361403 -0.45009,-0.722806 -0.675078,-1.08432 -0.143975,-0.239318 -0.036445,-0.378554 0.18403,-0.163607 1.10475,1.12889 2.20949,1.6776 3.31435,1.69802 0.891717,-0.0563035 2.24695,-1.08161 3.64168,-2.18907 0.850871,-0.591469 1.7295,-1.09222 2.66432,-1.41131 0.319881,-0.208515 0.351812,-0.744809 -0.438355,-1.35873 -1.89694,-1.41018 -4.3655,-1.21295 -6.76387,-1.2125 -1.87776,0.0657815 -3.77313,0.225891 -5.71746,0.647547 -0.27046,0.0656686 -0.370317,-0.268316 -0.0945538,-0.377877 0.271137,-0.0584473 0.453587,-0.240108 0.440837,-0.692793 1.69689,-0.260192 2.86934,-0.695162 3.27508,-1.38559 0.154468,-0.277004 -0.0700691,-0.482698 -0.283323,-0.188995 -0.482134,0.744583 -1.72036,1.06074 -3.06657,1.31563 -0.0824807,-0.148375 -0.167669,-0.248006 -0.368173,-0.245411 -0.456295,-1.39382 -0.616067,-2.55668 -0.122875,-3.21201 0.139687,-0.279938 -0.0867683,-0.437452 -0.245411,-0.245524 -0.558635,0.947118 -0.470061,2.12374 0.061381,3.45753 -0.388709,-0.0171506 -0.594854,0.34177 -0.490032,0.665036 -0.0304648,0.238416 -0.40112,0.237626 -0.430457,-0.0346396 -0.886527,-5.71486 -2.13006,-9.28444 -3.66232,-9.85718 -0.538663,-0.111366 -0.913719,-0.0772904 -1.12517,0.102226 -0.242929,0.191703 -1.50282,3.28072 -2.20949,4.25537 -0.256356,0.441966 -0.190123,1.05171 0.143185,1.80036 0.089025,0.205807 1.03953,0.799194 2.16864,1.47303z"/>
 </g>
</svg>
