<?xml version="1.0" encoding="UTF-8"?>
<!DOCTYPE svg PUBLIC "-//W3C//DTD SVG 1.1//EN" "http://www.w3.org/Graphics/SVG/1.1/DTD/svg11.dtd">
<!-- Creator: CorelDRAW -->
<svg xmlns="http://www.w3.org/2000/svg" xml:space="preserve" width="210.452mm" height="239.112mm" style="shape-rendering:geometricPrecision; text-rendering:geometricPrecision; image-rendering:optimizeQuality; fill-rule:evenodd; clip-rule:evenodd"
viewBox="0 0 224.956 255.591"
 xmlns:xlink="http://www.w3.org/1999/xlink">
 <defs>
  <style type="text/css">
   <![CDATA[
    .fil1 {fill:#1F1A17}
    .fil0 {fill:#DA251D}
   ]]>
  </style>
 </defs>
 <g id="__x0023_Layer_x0020_1">
  <metadata id="CorelCorpID_0Corel-Layer"/>
  <g id="_123771696">
   <path id="_123771336" class="fil0" d="M145.242 109.392l-0.299083 -0.311482 2.07092 -2.05895 0.000213783 0c1.06379,-1.41225 1.8969,-2.50201 1.8969,-2.50201l1.48355 -1.55025c-0.541727,-1.17485 0.164399,-1.29895 -1.61171,-1.3385 -0.0395499,-1.77665 -0.163544,-1.0702 -1.37666,-1.65255 -0.917772,0.440501 -1.54149,0.902807 -2.20272,0 1.07298,-1.46495 2.0319,0.124849 2.20272,-1.9279l-1.09072 0.309131 1.81149 -1.32161 0.422329 -1.45715c-0.822959,0.172844 -0.512439,0.266267 -1.1431,0.266267 -0.385879,0 -0.550706,-0.375511 -0.550706,-0.826273 0,-1.03728 0.181181,-0.520776 0.275353,-1.65255 -1.54042,0.168568 -7.34121,3.62374 -9.88171,4.43718 -3.37992,1.08228 -6.74487,2.99917 -11.3194,2.99917l-0.825952 0 -0.475134 -12.1214 -0.626278 0.00288608 0.461238 -20.9338c3.93137,0.897142 11.1299,6.91589 15.1383,8.90996 3.56366,1.77291 4.44381,2.77961 7.36719,4.7492 1.76564,1.18949 5.44282,3.74324 7.59583,4.24499l0.302397 3.30199 0.248309 0.00309986c0,-1.7651 -0.509873,-3.77456 0.826059,-4.13136l0.627561 1.23075 0.198391 -0.955291c0,-1.02873 0.752304,-3.12819 1.10141,-3.8559l2.64685 2.05521c-0.288928,-0.717885 -2.38614,-3.27345 -1.98252,-4.18214 0.461451,-1.03856 3.12936,1.09393 4.01635,1.30066l0.335533 -1.08602 0.732743 0.575077 1.67617 -0.376579 0.318003 -1.02969 1.3571 -0.212501c-0.639319,-2.75802 -5.14545,-3.37617 -6.62226,-5.5821l-4.40843 -1.36896 0.00309986 -1.10986 -0.792923 0.59079 -1.39814 -0.890622 -0.535207 -6.8912 -0.380214 0.0363432 0.530931 6.61168c-0.894042,-0.238903 -15.2581,-8.21003 -16.8148,-9.25554 -0.942892,-0.633333 -2.86438,-2.05585 -3.81486,-2.79404 -1.2113,-0.940754 -2.68448,-1.73453 -3.99828,-2.61062 -1.28366,-0.856096 -2.7577,-1.96018 -3.9194,-2.6895 -1.98958,-1.24892 -1.27768,-2.27038 -1.36704,-4.41644l-0.78373 -19.832 -0.0423291 -1.09992 0.0625316 -11.8436 1.31413 0.000427567c1.84516,0 6.43948,1.50365 8.26016,1.92801l0 1.10163c0,0.736591 0.39753,0.814622 0.826059,1.10173 0,-0.75038 -0.179257,-1.92801 0.550706,-1.92801 0.319392,0 5.42604,2.6259 7.15875,3.02963 0.107426,1.29125 0.550706,1.36212 0.550706,2.75428l0 1.65255c1.7619,-0.638037 -0.674273,-1.47147 1.65201,-3.02963 2.51228,1.32973 3.95232,3.31728 6.38421,4.63076 3.07399,1.66024 1.59921,5.42251 1.87595,8.58939l0.4622 4.94128 -0.186847 0.291814 0.326447 5.22914 0.499505 0.0038481 0 -0.826273 -0.687741 -16.2444c1.39536,0.83739 1.78915,0.965553 1.78915,3.02418l1.08559 -0.335533 0.275994 0.892118 -0.300793 0.0185992 0.890942 11.5627 0.526121 10.7221 -0.345153 13.2181c1.03941,-1.11349 0.892118,-11.5527 0.889339,-13.7756 -0.00181716,-1.41428 0.427353,-2.06002 0.176158,-3.46212 -0.186633,-1.04091 -0.440714,-2.38069 -0.455359,-3.40632 -0.0182785,-1.27875 0.013789,-2.59105 0.0175302,-3.87343 0.00598593,-2.03062 -0.557654,-1.79728 -0.557654,-3.02258l0 -6.88554c1.97076,0.713609 3.20547,4.54386 4.45193,6.28812 1.18575,1.65928 0.985114,1.80519 1.73485,3.77306 0.228855,0.600731 0.767375,1.05139 0.920337,1.83351 0.208439,1.06571 -0.0275781,1.09671 0.35456,2.12415 1.12471,3.02439 1.2703,5.3386 1.6161,9.12492 0.185243,2.02795 0.511691,2.91932 0.298655,4.67544 -0.364821,3.00676 0.210149,2.14756 0.260388,4.40511l0.792923 -0.59079 0.184495 0.632051 0.983297 -2.22997 1.44101 0.648084 1.18928 -0.781806 0.398813 1.21001c0.747494,-0.171347 0.436973,-0.264664 1.06763,-0.264664 0.56364,0 0.506239,0.567381 0.550706,1.10163l1.65201 0.09182 0.931775 2.99382c0.16953,-1.11467 0.408861,-3.11728 1.12172,-3.51032 2.88469,-1.59023 0.505384,-1.17805 2.07658,-2.32949l-0.309024 -1.09104c1.98038,0.442959 2.23639,2.01363 2.23639,4.39603 1.79161,-0.948236 1.94126,0.405013 1.93827,-1.91486 -0.00213783,-1.65383 0.445097,-2.61617 0.207049,-4.08476 -0.42917,-2.64675 -0.0316399,-5.46003 -0.551882,-7.71288 -0.509766,-2.20742 -0.924186,-5.1028 -1.55624,-7.25677 -0.767269,-2.61457 -1.54555,-3.74057 -2.35429,-6.18294 -0.410678,-1.24016 -5.61032,-9.40091 -6.6074,-10.7422 -0.91991,-1.23727 -3.55885,-4.0497 -3.97284,-4.83941 -0.0555837,-0.106037 -4.05077,-4.37925 -4.118,-4.4189 -1.64549,-0.970149 -1.04113,0.311162 -2.63798,-1.76799 -0.266695,-0.347077 -2.00518,-1.76329 -2.37374,-2.03222 -1.28708,-0.939257 -3.26469,-2.8446 -4.47823,-4.05846 -1.98733,-1.98797 -8.39014,-4.67769 -11.4513,-5.89679 -4.17765,-1.66388 -9.40732,-1.94896 -13.9808,-3.36655 -2.83894,-0.879932 -12.2491,-1.27554 -16.0712,-1.27554l-0.275353 0c-2.5824,0 -5.2875,1.65255 -8.53552,1.65255 -2.08931,1.39943 -4.67929,1.68707 -7.38419,2.52874 -1.33636,0.415916 -2.31816,0.706554 -3.93308,1.02338 -1.57719,0.309451 -1.68964,0.90548 -3.50166,1.4549 -0.480371,0.145586 -2.43382,1.51359 -3.00408,1.95248 -1.25566,0.966622 -2.26065,0.834824 -3.43015,1.52641 -1.24026,0.733491 -1.02531,1.44603 -2.58817,2.36861 -0.988962,0.583842 -2.04078,1.13754 -2.80323,1.87819 -3.49044,3.39082 -6.86918,5.51754 -10.1799,9.37184 -1.44571,1.68312 -2.56059,4.32516 -3.98813,5.92586 -0.957643,1.07383 -2.85775,5.47029 -4.06755,5.57098l0.536917 0.31672 -0.974211 1.4347 -0.449907 1.54469c-1.01761,0.731567 -3.22033,5.77194 -3.52112,7.71779 -0.447769,2.89666 -1.09842,7.04876 -1.09842,10.1935 0,5.21738 1.85981,23.9565 5.23139,24.2372 1.33219,5.71977 5.50685,7.72848 5.50685,12.3939l0 1.65255 0.0795274 6.33248 -0.0795274 0.828518 0.550599 0 0 -1.65255 0.40993 -6.06749c0.539589,0.300579 2.17118,2.33088 2.91579,3.01616 0.963201,0.886453 2.01651,1.655 2.9361,2.57149 1.5277,1.52246 4.82808,3.90614 5.85307,5.43747l0.12036 3.85227 -0.0983404 1.65778 0.528686 -0.00171027 0 -4.68218c2.90788,0.0648833 3.5797,3.4526 4.13008,3.8559 0.163865,-0.613772 0.0643488,-0.826273 0.826059,-0.826273l0.550599 0c0.176264,0 3.88177,1.76852 4.07332,1.98476 0.891584,1.00617 0.607465,3.64437 0.607465,4.62542l0 0.550813 0.282835 3.87707c0.267871,-2.72798 0.20427,-7.47665 2.19523,-8.00833l0.56674 4.3847 -0.291387 0.0220197c1.25747,-0.507736 0.909328,-2.75428 2.75332,-2.75428l1.37677 0c1.38959,0 2.61222,0.362256 2.75332,1.65255l1.65201 0c0.617406,0 0.604473,0.217952 1.10141,0.550813l0 1.37719c0.580849,0.388979 1.92736,2.34627 1.92736,3.30498l0 3.8559 0.550706 0 0.492129 -6.61467 1.45522 0.51308 0.304 2.83188 0.839314 -4.43301 5.45009 1.06603 0.787578 -0.564174 2.75716 0.714143c1.27019,1.73015 0.855347,4.05355 0.855347,7.03764l0.275353 0c0,-6.20196 -1.11467,-6.88554 4.95614,-6.88554l0.792816 -0.59079 3.88092 -0.306031 0.282301 0.0705485c1.17078,0 1.10141,5.13379 1.10141,6.33462l0.275246 0 0.323561 -6.60719 1.87467 -0.302397 0.264771 0.856096 -0.0643488 2.20218 0.354774 -0.00459634 0 -2.75417 2.43563 -0.944388c0.27375,0.555516 0.868388,1.36169 0.868388,1.77066l0 7.43635 -0.24382 5.23438 0.191443 17.0784 0.374121 -0.00342053 0.123353 -27.2661 -0.279522 -0.016782 0.640174 -4.39368 1.12161 0.00288608c1.75655,0 1.10141,4.81312 1.10141,6.61018 0,2.89548 0.275353,4.95967 0.275353,6.88554l0 2.47882 0.550706 0 0.12966 -11.2903 -0.12966 -2.48074c0,-0.768124 0.878543,-2.75428 1.65201,-2.75428l0.550599 0c1.92907,0 1.58798,13.8583 1.10141,14.8728l0.647122 0.765345 0.481013 -7.09889 -0.0268298 -0.276636 -0.0550492 -7.98748 1.67702 -2.49891 0.703347 0.0101547c0.233451,-0.464658 1.39953,-2.08204 2.66941,-3.79626zm-18.9135 45.4362l-1.72545 -0.946526 -0.514149 -1.60509c0.694689,0.213783 0.384169,0.307207 1.01483,0.307207 0.0369845,0 0.545361,-0.271077 0.550706,-0.27546l-0.646053 -1.04219 1.19665 -0.0595387 0 -0.550813c-0.589935,-0.157558 -2.21736,-1.00692 -1.10131,-1.37709l-0.309024 -1.09104 1.92565 0.638037 -1.48462 -1.90064 0.21047 -0.209294 1.8488 1.47564 0.0114374 -1.39152 1.37666 0 -1.62775 -2.49603 -1.11488 0.32634 -0.0107961 -5.54212c-0.410464,0.591004 -0.550599,0.909862 -0.550599,1.92801l0 3.30498 -1.91603 0.345688c-0.585446,2.08043 -2.21405,2.7562 -2.21405,6.26449 -0.332754,0.497046 -0.550706,0.484112 -0.550706,1.10163l0 0.826273c0,0.949519 0.203629,1.06646 0.275353,1.92801l1.10131 0 -0.326661 0.806498 3.89834 -0.169744 0.00780309 1.84196 0.203736 5.51967 0.346864 -0.0112236c0.359904,-0.726008 0.275353,0.226824 0.275353,-0.826273l0 -1.10163 -0.292242 -4.68132 -0.0342053 -0.547927c0.0304641,0.00662728 0.0603938,0.013789 0.0895752,0.0208439l0.0849789 -0.809811zm-21.5998 -138.303l-1.87231 0.0550492 -0.451511 0.523342 -0.980197 4.37914c0.150183,0.645091 0.275246,0.81366 0.275246,1.65255l0 0.826273c0,1.85072 0.334678,6.77736 -1.10131,7.16089 0,-2.99917 0.958391,-11.9124 -0.920551,-13.2798l-1.28633 1.98733 -0.507629 10.1955 0.511797 21.7535c-1.24133,-0.909755 -1.21953,-10.9894 -1.27265,-12.8964 -0.084872,-3.04909 0.575719,-10.5872 0.19636,-13.5475l-0.851072 -6.05584c-2.36851,0.197108 -7.21562,3.68263 -9.14501,4.89874 -7.00183,4.41324 -2.48662,5.28109 -5.11445,9.14512l-0.333502 -4.40415c-4.26092,2.85412 -3.93051,5.28986 -7.1393,8.55754 -2.44141,2.4863 -3.4371,7.1393 -4.59068,11.107 -0.835359,2.87346 -1.5215,11.0896 -0.56984,13.8465 0.472996,1.37024 0.681862,4.85342 1.12044,6.59094 0.563854,2.2334 1.96285,4.32666 2.09326,5.89337l1.10131 0c1.06838,0 21.3262,-14.9029 25.1424,-16.714 2.20197,-1.04497 4.40907,-2.72948 6.41168,-4.05248 3.48071,-2.29945 2.97544,-2.11549 2.87079,-7.61528 -0.102616,-5.38969 -0.833541,-13.5992 -0.833541,-18.9907l0.00502391 -6.60975 0.270222 -3.85622 0 -0.550813c0,-0.634616 -0.19155,-0.826273 -0.825952,-0.826273l-0.275353 0c-1.01077,0 -1.33091,0.426712 -1.92736,0.826273zm-3.85473 57.2876l-0.275353 3.02963 0 0.550813c0,1.72919 0.800405,1.96585 -0.242323,2.74925l-0.308383 -2.47379 -0.0106892 -2.7205 -1.09062 -0.309131c-0.748242,3.21252 -0.663477,2.75545 -0.822318,6.90264 -0.0747173,1.95109 -0.279094,4.75176 -0.279094,7.14379l-0.295342 0.0129339 -0.255257 -5.79674 0 -6.88554c-1.80765,0.48283 -14.0718,9.55141 -14.8683,10.7414 1.26624,2.39384 9.18082,7.92634 12.03,9.17377 2.31645,1.01419 5.31637,1.91422 7.3007,3.16314 1.03557,0.651719 7.10178,3.3177 7.10178,1.43417l-0.0898959 -0.550065 -0.130087 -27.2731 -0.330723 -3.85035c-1.40723,0.117153 -2.77341,1.37142 -3.96461,2.09347 -2.32896,1.41161 -2.0381,1.90534 -3.46949,2.86416z"/>
   <path id="_123770760" class="fil1" d="M130.886 230.528c2.7406,-1.83586 1.81812,-0.482723 3.30402,-3.58055 0.431629,0.316293 0.550706,0.0506667 0.550706,0.826273 0,0.372838 -0.29748,0.153069 -0.550706,1.10173l0.826059 0c0.175623,2.11175 1.92736,1.28152 1.92736,2.75417l0 2.20336c0,2.62996 -0.276849,4.60521 -0.277491,6.88554 -0.000962025,3.03936 0.620613,2.74209 0.552844,5.78391l1.92736 0 0 0.826273 -0.826059 0 0.0390155 1.93057 -1.72277 -0.466903 0.258892 -1.20093c-2.36968,0.0664866 -2.77983,0.394217 -2.21405,-3.07442 0.363325,-2.22805 -0.484006,-3.57938 -0.215814,-5.7264l0.337885 -3.02183 0.743752 -0.334571 0.019775 -1.60124c0,-1.19697 -2.23136,-3.11472 -4.13008,-2.20336l-0.550706 -1.10163zm-98.2958 -35.5294c-0.895004,0 -0.207904,-0.238689 -1.42497,-0.563426l-0.227145 1.11424 -1.37666 0 0 -0.550813 -0.825952 0 0 -1.10173c0,-0.443814 -0.787899,-1.33518 -1.14128,-1.96104l0.590577 -0.793136c5.27585,0 2.74188,-2.20336 5.50674,-2.20336 0.450655,0 0.826059,0.164934 0.826059,0.550813 0,0.210684 -1.32385,5.50845 -1.92736,5.50845zm4.37775 2.97351c-4.11971,0.0561181 -2.069,1.71636 -4.03623,2.24622l-0.328371 -1.64186 -0.366745 -0.0973783 -1.84025 6.51505 -0.269153 -0.0861547 0.445418 1.04038 1.46687 -1.31006c-0.148366,1.78317 -0.188343,1.92801 -1.99471,1.89294l-1.24914 2.40196 0.257395 0.235482 -3.34635 0.978059 0 -1.9279c0,-0.997406 0.944281,-2.9346 1.19697,-3.5999l0.179685 -3.28564c-2.72563,1.82571 -7.89716,20.932 -11.5642,20.932l-1.00339 -0.0658453 -0.923972 -1.58659c-0.534138,0.0443601 -1.10131,-0.0130408 -1.10131,0.550813 0,0.761924 0.212394,0.662408 0.825952,0.826273 -0.0334571,1.50514 -0.698003,2.16979 -2.20272,2.20336l0.019775 0.602228 0.806284 -0.326875 0.011865 1.3152 1.44069 0.377328 -1.03375 1.9636 -0.0151786 -0.330937 -1.50504 -0.570909c0.140883,0.527511 0.537772,1.37709 1.10141,1.37709 0.845406,0 1.65201,-0.255044 1.65201,-1.10163l0 -0.826273c4.31543,0.0960956 2.5142,-0.898425 4.94107,-1.1075l-0.249592 0.798267 1.09062 0.309238 0 -0.826273 1.10141 0c2.26514,0 -0.55744,1.97108 -0.857164,2.32874l-3.27292 0.700889 0 0.550813c1.42732,-0.302397 0.97699,-0.0632799 1.37666,1.65255l0.765879 -0.0157131 0.371556 -0.88966 2.71099 -0.470751 0.28166 2.2024 -1.18372 0.106464 1.25395 0.731139 -0.40063 1.97162 0.55744 0.48315 -0.239651 1.06603 1.09821 -0.287218 -0.0287539 0.375511 3.26201 0.203736 -0.424253 1.75367 2.9748 -1.64827 1.39077 0.201705c0.125277,1.50568 1.37666,1.91977 1.37666,4.68218l0 0.27546c0,0.743859 -0.131477,0.759359 -0.275353,1.37709 -0.777637,-0.186205 -0.454717,-0.257075 -1.1044,-0.166323l-1.78669 0.00758931 -1.25405 1.26624 -0.260174 -0.832045 -0.490633 0.0157131 -0.208332 0.958818 1.53208 1.79974 2.70543 -0.96117 0.222549 0.23762 -1.27618 2.02913 -2.21276 -0.220197 1.49509 1.23364 0.0233024 0.328478 2.17653 -1.64057 0.731246 1.2253 2.73579 -0.875229 0 -0.826273 0.825952 0 0 -0.550813c-0.617513,0.143876 -0.633013,0.27546 -1.37666,0.27546l-1.37666 0 0 1.37709 -0.550706 0 0 -0.826273 -1.10772 -0.00106892 0.292456 -2.16862 1.09062 -0.309131c0.123994,-1.49071 0.642098,-0.782875 0.812056,-2.2179 0.198177,-1.67307 -0.565671,-1.99417 1.04647,-1.63801l0.0688383 -1.37709 0.826059 0c0.743646,0 0.759145,-0.131477 1.21429,-0.0742897l2.08973 1.45138 0 1.37709c1.55228,-0.414526 0.172737,-1.39184 3.30402,-1.65244 0.822638,1.55495 0.832793,1.65244 -1.38521,1.65757l-0.542155 -0.555944c-0.0683038,0.82157 -0.197963,1.37709 -1.10131,1.37709l-0.816118 -0.00245851 -0.285294 -1.37463 -0.550599 0c0,1.17848 -0.017744,2.75428 1.10131,2.75428l1.37666 0c-0.522273,1.95655 -0.778065,-0.250554 -1.21461,1.49702 -0.317041,1.26913 -0.0996231,0.469041 -1.81406,0.43088l0 0.826273 1.65201 0c0.6173,0 0.604473,-0.217952 1.1044,-0.553592l1.30654 1.47008 -0.208225 0.185243c-1.0531,-0.252264 -2.35258,1.00468 -3.01777,1.99652l2.19075 -0.350391 0.192619 0.292669 -2.11902 1.09083 0 0.550813c1.79685,-0.149541 2.37663,-0.712968 5.51839,-0.814728 1.70524,-0.055263 4.28123,-2.08054 3.88754,0.0840169l2.4336 -0.921834 0 -1.37709 0.550706 0 0 0.550813 0.826059 0 0 -0.826273 1.10131 0c1.04936,0 1.37089,0.550813 1.65201,0.550813 0.506987,0 3.16987,-0.905052 3.71716,-1.2393l-0.963736 -0.688596 0 -0.550813 1.31862 0.00352743 0.0580422 -1.38072 -0.825952 0 -0.0636006 -0.889766 -1.65201 1.65255 0.378183 0.0634937 -0.0687314 0.910503 -3.07164 -1.14716 0.623072 1.33839 -1.10141 0c-0.6173,0 -0.604366,-0.217952 -1.10131,-0.550813 0.176692,-0.738622 0.275353,-0.519173 0.275353,-1.10173 0,-0.568878 -1.3943,-2.23083 -1.92149,-2.4847 -1.27297,-0.612917 -2.48395,-0.160444 -2.48395,-2.19748 0,-1.06795 1.37367,-1.19526 2.15184,-1.97889 0.761176,-0.76652 0.881001,-1.94554 1.46121,-2.98933l-0.309024 -1.09104c0.168461,-0.251516 0.448197,-0.826273 0.826059,-0.826273 0.956467,0 0.420191,0.55092 1.37666,0.55092l0.275353 0c0.70602,0 0.665508,-0.0662728 1.13444,-0.315437l0.79506 0.594211 1.13295 -0.543544 -0.309024 1.09094 1.37666 0 0 1.10173c1.48547,0.0331364 2.36434,1.3881 2.54637,2.51388l3.17639 0.849682 2.55247 2.70372 -0.472354 1.07993 0.18193 1.66623 0.550706 0c0.0824135,-0.7538 0.628844,-1.65244 1.37666,-1.65244l0.826059 0c1.01729,0 0.53542,0.398172 0.85011,1.13027l1.62785 -1.40573c3.5239,1.86515 1.19751,1.10173 5.50685,1.10173l-0.180326 2.06942 -0.921086 1.51102c0.335854,0.188771 0.294487,0.27546 0.826059,0.27546l2.57385 -0.124529 1.55624 -2.62975 1.10131 0 0 -0.550813 -1.37666 0c-0.821463,0 -1.30835,-1.10601 -1.35699,-1.87659l0.806284 -0.326768 0.0595387 0.921513 1.08174 -0.679297 -0.590577 -0.793136c0.52099,-0.275674 4.12613,-2.75417 4.40543,-2.75417 0.949198,0 1.06603,0.203736 1.92736,0.27546 0.176692,-0.738622 0.275353,-0.519173 0.275353,-1.10173 0,-0.164506 -0.380107,-0.571336 -0.550706,-0.826273 0.83942,-1.25395 1.3943,-2.31763 3.02867,-2.75417l0 1.10163 -0.825952 0c0.123353,1.4828 0.550706,0.806925 0.550706,1.37719 0,0.743859 -0.131477,0.759359 -0.289356,1.26378l-1.08741 0.388658c0.00929958,0.00780309 0.51137,0.281339 0.559899,0.336602l2.52895 -0.352315 -0.304107 -1.07073 1.06999 -1.66772 0 -0.550813c-2.19876,-0.58737 0.198391,-3.61957 -3.42021,-3.34069l-0.985221 -5.19739c-2.03265,-1.36159 -1.83811,-2.91836 -3.13845,-4.84775 -1.29339,-1.91903 -2.00892,-3.04171 -3.5426,-4.71895 -0.66818,-0.730605 -2.70821,-3.87322 -3.22065,-4.76566 -0.653963,-1.13904 -2.67219,-3.30103 -3.56954,-4.66882l0.530397 -4.4096 0 -0.826273c0,-0.996551 -0.341305,-1.65276 -1.10141,-1.92801l-0.0307848 2.7717 -2.11122 -3.32636 0.214639 4.68602c-0.793991,-0.582025 -1.41514,-2.75428 -2.20272,-2.75428 -3.04684,0 -5.95216,3.21648 -7.65719,4.73445 -3.13738,2.79319 -5.9823,0.922796 -9.68909,2.70201 0.763634,-2.86064 9.33592,-1.28666 10.4629,-5.50845 -3.63806,0 -5.82966,-0.0138959 -7.63645,2.00101 -1.28858,1.43705 -4.79741,1.82347 -5.0253,4.55797l5.22765 0.326554 1.75003 0.11384 -3.41893 2.77277 -5.2146 0.693834 0 0.826273 1.93752 0.198712 9.6598 -0.434194 0.792923 -0.59079c-0.153603,1.84613 -1.41428,1.63726 -3.3146,1.64207 -1.43096,0.00352743 -2.73183,0.70153 -3.87247,1.08388 -1.53347,0.514256 -9.33325,-0.114053 -9.33325,0.854492 0,0.855989 1.62058,2.20347 2.75342,2.20347l0.550599 0c1.55538,0 1.5061,-0.55092 3.30413,-0.55092 -1.56682,2.34061 -4.00363,2.75428 -7.98481,2.75428 -0.31052,0.208011 -1.10141,0.646695 -1.10141,1.10163 0,1.01729 4.65385,3.02963 1.65201,3.02963l-0.275246 0c-1.18864,0 -3.85484,-1.08987 -3.85484,0 0,0.912 2.66673,4.95764 3.57948,4.95764 1.77943,0 2.28556,-0.839741 3.30402,0.550813 -0.287004,0.428743 -0.365035,0.826273 -1.10131,0.826273l-1.10141 0c-1.28719,0 -2.26215,-1.10173 -2.47807,-1.10173 -0.6173,0 -0.604366,0.218059 -1.21557,0.591966l-0.436439 -1.96905 -0.85973 0.00545148 -0.241575 -1.93335c-0.496939,-0.332861 -0.484112,-0.55092 -1.10141,-0.55092 -0.634402,0 -0.825952,0.191657 -0.825952,0.826273l0 1.37719c0,1.49253 1.32225,2.95203 1.92736,3.8559l0 1.65244c0.154031,0.2218 0.550599,0.680045 0.550599,0.826273 0,1.18906 -1.17399,1.68825 -2.18765,1.91988l-0.565671 -1.09361c0.205446,-0.306993 0.825952,-0.92643 0.825952,-1.10163 0,-1.13391 -0.414312,-1.7433 -1.10131,-2.20336 0,-1.99353 -0.363432,-2.0722 -1.65201,-2.75428 0.214639,-0.921834 0.825952,-2.14435 0.825952,-3.02963 0,-1.1168 -0.25483,-1.42636 -1.10131,-1.65255 -0.310093,1.33155 -1.65201,4.62136 -1.65201,5.50845 0,0.644022 0.567381,0.817615 0.838565,1.97621l-1.11392 0.227145 0 1.28527 -1.73859 0.123567 -0.464124 -1.68419 0.550706 0 0 0.826166 0.583629 -0.00491702 -0.340343 -2.27808 -2.45733 -0.402127 0.284332 -0.116405 -0.823707 -4.35936 0.826059 0 0 -0.413136 -1.38008 -0.139814 0.649367 -1.04006 -0.184281 -0.213035 -1.88664 0.992382 -0.0894683 -0.976563 0.668608 -1.01536 -0.806284 0.326768 0 -1.65255 -1.37666 0c-0.980945,0 -0.731139,0.605328 -1.10141,1.37709l-1.10131 0 -0.237406 -0.196039 2.00262 -2.2909 0.162155 -1.64431 0.826059 0 -0.310093 -0.124636 2.78806 -7.03636c1.06988,0.0890408 3.4898,3.19403 4.1815,4.07995 1.57943,2.02303 3.30755,2.34403 4.35402,3.90732 -0.227572,0.977311 -0.825952,1.92683 -0.825952,2.75417 0,0.775606 0.119077,0.50998 0.778065,0.892225l0.555837 -1.93485 1.78734 1.2951 0.215814 -0.257395 -0.308383 -2.4739 0 -0.275353c0,-0.882818 2.06707,-3.04 2.68533,-3.64864 1.8581,-1.82924 0.871916,-2.66631 2.54819,-3.79113l1.09927 0.554233c0.76342,-1.59162 0.434622,-2.75909 1.71347,-4.0699 0.762565,-0.781592 2.27359,-2.44493 3.03327,-3.02503 1.24593,-0.95155 6.81745,-3.30456 6.81745,-5.02359 0,-0.86144 -0.49416,-0.780309 -1.10131,-1.10173l-0.208866 -0.213463 -2.50469 2.45156 0.111595 0.28198 -0.151466 -0.592073c-1.29489,0.345795 -0.952298,0.861226 -1.96905,1.61075 -1.07693,0.793991 -1.56372,0.422329 -2.59961,0.98009 -1.76264,0.949198 -1.37901,3.82405 -3.1408,4.29469l0 -1.37719c0,-1.44154 1.19473,-1.94457 1.37666,-4.13126 -1.31605,0.143983 -2.13965,2.38828 -2.75332,3.30498 0,2.64076 -0.896287,3.41722 -1.92993,4.96747l-1.28751 -0.247882 -1.46335 2.71687c0,-5.07073 3.90026,-8.71392 4.95603,-12.6694 -3.01638,0.330082 -5.13754,9.37536 -7.15875,9.91517 0.0553699,-2.48684 5.57323,-11.0932 6.8835,-11.5677l0 -1.10163c-2.7313,-0.578605 -5.73314,5.21621 -6.95373,6.04783l0.483044 -2.06483 -1.57419 -1.461 -0.21528 0.232169c0.991634,-3.71502 6.25872,-2.73728 6.2568,-6.21372l-1.87905 0.924613zm5.1432 -1.77216c-0.47321,-0.0274712 -1.1865,0.116726 -1.47457,0.384596 -0.288073,0.267871 -0.843589,0.769086 -0.624141,1.08506 0.219449,0.315972 0.34975,0.288501 0.836748,-0.0136821 0.486999,-0.302183 1.09062,-0.776141 1.39921,-0.95465 0.308596,-0.178509 0.425215,-0.549423 -0.137249,-0.501322zm2.05649 -53.7731c0.0284332,0.392399 0.117153,1.11125 0.393041,1.62572 0.388979,0.725367 2.09967,2.10897 2.17482,2.16958 0.112129,0.113733 0.178723,0.0580422 0.102723,-0.123353l-0.00994093 -0.0141097 -0.0317468 -0.122925c-0.0735415,-0.282408 -0.178295,-0.741721 0.178295,-0.796664 0.0667004,-0.0102616 0.122391,0.00855134 0.169103,0.0457496l0.0150717 -0.0568664 0.0306779 0.102082c0.158307,0.190267 0.186633,0.606183 0.187916,0.62521l0.000106892 0.000427567 0.000106892 0.000213783 0.00758931 0.0254402 0.000534458 0.00181716c0.114267,0.368028 0.304962,0.754442 0.298335,0.992489l0.00438256 0.0146442 -0.00523769 0.00138959c-0.00652039,0.0966301 -0.048315,0.166537 -0.146228,0.197857 -0.155634,0.0498115 -0.274819,0.00406188 -0.358194,-0.0614627l-1.09724 0.296624c0.852782,1.27394 0.387696,1.7526 1.43887,2.96753 1.1183,1.29232 1.1788,1.23353 2.34873,2.3327 1.22754,1.15325 2.76689,2.99511 4.08743,4.11052 0.33254,0.37209 0.648619,0.849468 0.660484,1.33069 -0.922155,-0.0767482 -2.75342,-0.747494 -2.75342,-1.65255l0 -0.826166c-2.68501,0.717136 -3.80053,2.43756 -5.50674,3.58044 -0.604152,-2.59405 -2.5111,-7.82009 -4.33467,-9.08098l-0.359904 2.42954 -0.539375 0.326661 -1.3742 -0.285294c0.440287,1.64945 3.57938,1.63779 3.42973,7.8249l-4.53103 -5.62154c0.204163,0.76481 2.36722,3.14272 1.57259,3.4697 -1.2873,0.529648 -1.57109,-1.98273 -3.22471,-2.36808l0 1.10173c0,2.60955 0.961811,1.52353 1.37677,3.30498 -1.62176,-0.134897 -0.574222,-0.550813 -1.65201,-0.550813 -3.0198,0 3.06694,2.69228 3.30402,3.58044l-1.10131 0c1.78167,2.43264 2.66962,0.144838 3.85473,5.2331l1.75377 0.150717 1.66398 1.91753 0.250661 -0.143662 -0.0559044 -1.88471 0.797412 -0.614841 1.93271 0.297052 -0.285187 -1.37463c0.567702,-0.132332 6.47015,-1.37709 6.60804,-1.37709l0.826059 0c0.838565,0 1.00713,0.125063 1.6348,0.231634l3.04599 -1.05791c-0.687527,2.57556 -3.30413,0.314475 -3.30413,2.20336 0,0.956788 0.550706,0.420298 0.550706,1.37709 0,1.55656 -0.916703,-0.0707623 -1.40424,1.71219l-3.07143 -1.15336 0.331471 3.3533 -1.36255 -0.331685c0.138104,1.66024 1.85521,1.78488 1.06785,4.35979 -0.396034,1.29489 -2.01726,2.25039 -3.82127,2.25039 -0.294273,-1.10269 -0.826059,-0.901845 -0.826059,-2.20336l-0.0106892 -0.860051 -1.1462 0.328799 -1.32107 -3.87557 -0.656956 0.113947 -0.995055 0.987786c0.0940647,-1.13177 0.275246,-0.615269 0.275246,-1.65255 0,-0.767482 -0.633013,-1.58478 -1.10131,-1.9279 -0.245103,0.137677 -0.550706,0.179257 -0.550706,0.550813 0,3.73009 0.539162,10.6147 -3.19799,11.4908l1.96424 -4.35177 0.55915 -2.96635 -0.151359 -0.59218 -0.550706 0c0,2.68309 -2.9624,5.78156 -3.57938,5.50845 -0.150397,-0.340022 4.13008,-6.49442 4.13008,-7.98727l0 -0.275353c0,-1.0531 0.0844444,-0.100264 -0.275353,-0.826273 -2.418,0.64584 -1.49648,3.08308 -2.81638,4.61911 -1.15251,1.34128 -3.1904,2.19534 -3.24106,4.46978l-0.826059 0 -0.131156 -2.33879 -1.81983 1.7635 0.237834 -0.189733 -1.10141 -1.10173 -0.214104 0.214211c-0.0870098,1.04497 -0.826059,3.14668 -0.826059,3.58044 0,0.682824 0.521738,1.17955 0.550706,2.47882 -3.45827,-2.31645 -3.87375,-6.37769 -6.03051,-9.64281l-0.30229 -3.30199 0 -1.37709c0,-1.10398 1.2997,-5.50845 2.47807,-5.50845l0.825952 0c-0.0247989,-1.11713 -0.719809,-3.30509 1.10141,-3.30509l0.275353 0c0.550813,0 1.27458,0.826273 3.58141,0.822959l1.09927 0.554233c-0.441249,-0.659201 -2.37118,-2.47882 -3.30402,-2.47882 -0.743646,0 -0.759145,0.131477 -1.37666,0.27546l0 -1.37719c0.41506,-0.096737 1.93175,-0.550813 2.20272,-0.550813 1.03696,0 0.520563,0.181288 1.64891,0.278132l-1.30654 -1.47008 0.208225 -0.185136 1.92736 0c-1.66655,-2.48961 -3.72357,-0.604579 -4.95603,-0.27546 0.125918,-1.15154 2.44034,-1.90021 3.30402,-2.47882l2.80163 0.0127201 0.261992 -1.18607 2.16787 0.897997 0 -1.10173 -0.732422 -0.122819 1.28302 -2.08054c-1.72053,0.0383741 -3.96504,3.52935 -4.69832,1.99994l0.513721 -8.67009c0.257502,-2.10865 0.421153,-5.42999 0.512439,-8.64743l0.796022 -13.4332c0.0732208,-0.157024 0.117367,-0.357446 0.117367,-0.575398 0,-0.504315 -0.235055,-0.91339 -0.524731,-0.91339 -0.28957,0 -0.524624,0.409075 -0.524624,0.91339 0,0.148686 0.0202025,0.28957 0.0564388,0.413671l-2.30565 30.8405 -0.550706 0c-0.135111,-1.62358 -1.27736,-1.65255 -3.02878,-1.65255l0 0.826273c0,1.14641 -2.0536,1.19419 -2.93044,2.57705 -1.11798,1.76296 -0.536489,2.33911 -0.971325,4.5368 -0.474706,2.39929 -3.30787,5.05844 -1.88525,8.00127l-2.47315 0.308489c-0.0658453,0.246706 -1.38371,2.6988 -1.80807,3.69974 -0.504529,1.19013 -1.49595,2.90617 -1.49595,4.28743l0 0.550813c0,2.5948 3.41273,1.00927 2.41618,5.72138 -0.213463,1.00938 -0.943212,2.69912 -1.03086,3.37617 -0.211111,1.63085 0.0691589,2.48523 -0.339595,4.06712 -0.285615,1.10558 -2.36145,5.20787 -1.23845,6.85261 0.561823,0.822532 4.41324,3.01103 5.69198,3.11525l-0.815797 2.10031 0.332326 0.183747 3.51973 -2.55664 0 0.826273c0,1.28644 0.56674,0.491809 1.23823,0.366211l1.23973 1.56179c1.08516,-2.26215 0.871274,-2.84364 3.30413,-4.13136 0.0683038,0.82157 0.197963,1.37709 1.10131,1.37709l0.275353 0c0.946098,0 1.57655,-1.26474 1.92736,-1.9279 2.25317,-0.0502391 3.07453,-1.37709 4.40543,-1.37709l0.275353 0c0.589187,0 1.71775,1.05299 3.41423,0.682076 1.71337,-0.374655 1.91977,-0.682076 4.05301,-0.642205l0.792923 -0.59079c4.12698,0 7.76654,-1.60273 12.832,-0.71735 2.92947,0.512011 3.34646,0.271932 5.56457,1.59472 2.23275,1.33166 2.35237,2.48897 3.90582,3.52946 3.76141,-0.876619 2.93845,0.780737 5.98893,-2.27188 1.5945,-1.59557 2.80227,-2.82739 3.97167,-4.84059 0.635471,-1.09414 1.37367,-1.27201 2.05884,-2.34723 0.809598,-1.27019 -0.0142166,-2.46439 0.642847,-3.76376 0.542796,-1.07351 0.719274,-2.32062 1.25277,-3.15363 1.02584,-1.60167 1.18799,-0.363966 1.77921,-2.90243 -0.332326,-0.628309 -1.10141,-1.20253 -1.10141,-1.37709 0,-3.11899 4.40543,-2.01181 4.40543,-8.26262 1.82902,-0.968118 0.144518,-2.13912 3.02878,-2.20347 0.470644,1.30077 1.06528,0.610458 2.43692,0.867426 1.58991,0.2978 0.757007,1.33604 1.96841,1.33604 1.17175,0 0.612383,-1.10173 1.37677,-1.10173 1.08068,0 1.68558,0.196039 1.92736,1.10173l0.550706 0 0.0149648 -0.936692 5.49177 0.661232 0.0127201 0.864754 1.91464 -0.589294c0.626492,0.419657 2.31485,2.20336 3.02867,2.20336l0.769941 -0.0141097 0.331471 -1.36308 0.825952 0c1.79108,0 4.95614,1.19548 4.95614,-0.275353l0 -0.27546c0,-1.20798 -3.87792,-1.83822 -4.95614,-1.9279l0 -1.92801c0,-1.5898 0.906655,-4.40672 -0.550599,-4.40672 -0.716602,0 -3.49301,2.16156 -4.729,2.49143l-0.227145 -1.11435c-0.833221,0 -6.09443,-1.21814 -7.26521,-1.54608 -2.75225,-0.770796 -4.30464,-1.7123 -7.05239,-1.48355l0 -0.550813c-2.56732,0.598273 -3.57938,-0.426284 -3.53245,-3.34753l-0.872984 -1.05919c-3.58675,0 -10.6985,-4.05002 -14.3971,-4.88698 0,0 -4.17882,1.28377 -5.70738,3.37821l-0.000427567 0.000534458c-0.84081,0.716923 -1.46602,1.4409 -1.52481,1.97514l-4.23206 0.08391 -2.7733 0c0.782875,-1.63224 -1.27255,-3.42855 -1.87862,-4.39646l0.501856 -3.03989c1.54405,-1.03428 2.10919,-1.72203 4.13019,-2.47871 1.48141,-0.554768 3.02867,-1.62988 3.02867,-3.58055 0,-1.32685 -1.20873,-3.59733 -1.17111,-4.41602l0.385024 -2.77812 -0.590683 -0.793136c0,-3.23925 0.0721519,-3.56965 -1.92245,-4.96245 -1.35774,-0.948129 -2.93183,-1.92309 -5.2363,-1.92309l-1.37666 0 0 0.550813 5.23139 1.10173c0.850751,0.56984 1.65201,1.01675 1.65201,2.47882l0 0.826273c0,1.11606 -1.52043,3.02963 -2.47807,3.02963l-0.275246 0c-2.52745,0 -2.81617,-2.02667 -5.23149,-3.30509 -1.78584,1.19622 -3.75297,3.24138 -6.60815,3.30509 -0.312017,-1.16918 -0.550599,-0.481868 -0.550599,-1.37719l0 -0.550813c0,-1.40434 0.765879,-1.31402 1.10131,-2.75417 -0.567274,0.38 -0.714678,0.826273 -1.37666,0.826273l-1.37666 0c0.207477,1.89765 0.825952,0.129873 0.825952,1.65244 0,0.684962 -0.688383,1.03578 -1.10131,1.65255 0,2.31132 -1.24849,3.15352 -2.20272,4.95764 1.62892,-0.435156 2.49432,-2.47882 5.78209,-2.47882 0.426925,-0.285935 1.00254,-0.826273 1.65201,-0.826273 0.64755,0 1.13305,0.550813 1.37666,0.550813 0.466368,0 1.02905,-0.366745 1.37677,-0.550813 2.47444,0.576681 4.97036,-0.0357018 7.30487,0.955612 1.58061,0.671066 3.82148,2.32425 3.98396,4.27738 -1.68408,-1.12803 -1.08057,-1.48195 -3.69471,-2.36348 -1.19013,-0.401271 -3.97199,-0.941502 -5.3914,-0.941502l-1.38125 -0.0706554 -6.08609 0.306138 -0.792816 0.59079c-1.41375,0 -4.40543,0.994734 -4.40543,2.20336l0 1.12728 0 0.000962025 0 0.00245851 0 0.00427567 0 0.24211c0,0.0051308 0.00470323,0.0168889 0.0132546,0.0336709zm26.5168 14.3658l-0.437828 -0.287752 0.466262 0.230031 -0.0284332 0.0577215zm0.876512 -2.36872c0,0 1.20285,-1.2501 2.62323,-1.95794l-0.00587904 0.0149648 1.91529 -0.17263c0.79025,-0.0550492 8.05119,3.8559 11.5642,3.8559 0.337885,1.26549 0.826059,0.69533 0.826059,1.65255l0 0.826273c-2.35974,0 -8.39827,-1.46474 -9.97609,-2.235l-6.94678 -1.98412zm-16.6684 4.21912c0,0 0.459955,-1.61342 -0.781378,-2.66342l4.36075 -4.77303c0,3.96729 -2.75342,3.28147 -2.75342,7.43646l-0.825952 0zm-31.1133 42.3416c-0.0274712,-0.164827 -0.329226,-0.439539 -0.877901,-0.109885 -0.548675,0.329654 -0.685924,1.12621 -0.905373,1.64816 -0.219449,0.521952 -0.411426,1.01643 -1.04241,1.15379 -0.630982,0.137356 -1.45405,-0.466903 -2.57887,1.34609 -1.12482,1.81299 0.329226,1.84046 0.329226,2.11517 0,0.274712 -2.22217,6.45562 -2.85315,8.13125 -0.630982,1.67563 -1.2346,2.91184 -1.04251,3.37885 0.192084,0.46701 0.685817,0.302183 1.09735,-0.769193 0.411533,-1.07138 4.3072,-11.0156 4.3072,-11.0156 0,0 0.987679,-0.219769 1.97525,-0.549423 0.987572,-0.329654 1.31691,-0.961384 1.20713,-1.31851 -0.109778,-0.357125 -0.109778,-0.329654 -0.740759,-0.0824135 -0.630982,0.24724 -1.50888,0.576894 -1.59119,0.274712 -0.0823066,-0.302183 0.109671,-1.37356 1.48141,-1.67574 1.37174,-0.302183 0.85043,-0.933271 0.877901,-1.15304 0.0274712,-0.219769 0.356698,-1.3742 0.356698,-1.3742zm42.7286 -34.0216c-0.315437,-0.0687314 -1.17976,-0.398385 -1.28943,-0.0687314 -0.109671,0.329654 0.178295,0.508163 0.548675,0.563105 0.37038,0.0549423 1.33059,-0.109778 0.740759,-0.494374zm-25.1844 0.466903c-0.37038,0 -0.809384,0.0274712 -0.987679,0.192298 -0.178295,0.164827 0,0.412174 0.37038,0.398385 0.37038,-0.013789 1.50888,-0.398385 0.6173,-0.590683zm15.0605 0.0145373c-0.192084,-0.22661 -0.795702,-0.75551 -1.24144,-0.796664 -0.445738,-0.0411533 -0.699606,0.130408 -0.658453,0.418909 0.0411533,0.288501 0.562464,0.288501 0.651612,0.645626 0.0891477,0.357125 0,0.54953 0.205767,0.624996 0.205767,0.0754655 0.466368,-0.419015 0.466368,-0.419015 0,0 0.294914,0.0687314 0.459527,0.26103 0.164613,0.192298 0.603511,-0.0482082 0.541834,-0.233558 -0.0616765,-0.18535 -0.425215,-0.501322 -0.425215,-0.501322zm-4.75903 1.16672c-0.24692,-0.164827 0.109671,-0.535741 -0.150931,-0.769193 -0.260602,-0.233451 -0.822959,-0.288501 -1.0562,-0.192298 -0.233238,0.0962025 -0.356591,0.370807 0.0686245,0.769193 0.425215,0.398385 0.85043,0.604366 1.23449,1.12632 0.384062,0.521952 0.631089,0.700568 0.946526,0.631837 0.315437,-0.0687314 0.438897,-0.604366 -0.0274712,-0.93402 -0.466368,-0.329654 -0.836748,-0.604366 -1.01504,-0.631837zm-1.00222 1.0035c-0.192084,-0.109885 -0.555623,-0.267764 -0.706447,-0.22661 -0.150824,0.0411533 -0.0685176,0.343336 0.157772,0.535634 0.22629,0.192298 0.301755,0.315865 0.466368,0.659308 0.164613,0.343443 0.521204,0.233558 0.630982,0.0206301 0.109778,-0.212928 -0.157772,-0.556264 -0.548675,-0.988962zm-1.63918 1.56586c0,0 -0.411533,-0.192298 -0.445845,-0.0343122 -0.0343122,0.157986 -0.0274712,0.377648 0.0479944,0.803505 0.0754655,0.425857 0.24692,0.940968 0.294914,1.14695 0.0479944,0.20598 0.150931,1.05085 -0.185136,1.20189 -0.336067,0.151038 -0.658453,-0.631944 -0.781913,-1.10579 -0.12346,-0.473851 -0.205767,-1.11253 -0.219449,-1.3804 -0.0136821,-0.267871 0.150824,-0.789823 0.00684107,-1.20189 -0.143983,-0.412067 -0.486892,-0.789716 -0.397744,-1.14684 0.0891477,-0.357125 0.315544,-0.412174 0.802436,0.0479944 0.486892,0.460169 1.21386,1.02338 1.57056,1.3324 0.356698,0.309024 0.802436,0.576788 0.99452,0.700461 0.192084,0.123674 0.343015,0.50827 0.226397,0.872236 -0.116619,0.363966 -0.507629,0.556371 -0.733918,0.570053 -0.22629,0.0136821 0.0616765,-0.254082 -0.205767,-0.528793 -0.267443,-0.274712 -0.247027,-0.274712 -0.363539,-0.576894 -0.116512,-0.302183 -0.384062,-0.398385 -0.610352,-0.700568zm-3.91534 -23.8453c-0.0686245,-0.013789 -0.315437,-0.315865 -0.589828,-0.109885 -0.274391,0.20598 -0.315544,0.879077 -0.905373,1.2362 -0.589828,0.357125 -0.864112,0.563212 -1.23449,0.494481 -0.37038,-0.0687314 -0.576253,0.137356 -0.178402,0.42575 0.397851,0.288394 0.534993,0.0824135 0.534993,0.0824135 0,0 -0.150931,0.686672 0.260602,0.618048 0.411533,-0.0686245 0.946633,-0.24724 1.44037,-1.16747 0.493733,-0.920231 0.0136821,-0.357125 0.672135,-1.57954zm15.6649 -18.419c0,0 -0.370487,-0.302076 -1.19345,-0.288394 -0.822959,0.0136821 -1.48152,0.535527 -1.6735,1.31851 -0.191977,0.782982 0.0136821,1.0439 0.0823066,1.07138 0.0686245,0.0274712 0.233238,0.0962025 0.439004,-0.453221 0.205767,-0.549423 0.795488,-1.08516 1.61855,-0.837924 0.823066,0.24724 1.46773,0.7693 1.37174,1.6208 -0.0959887,0.851499 -0.247027,1.70321 -1.06999,1.60701 -0.822959,-0.0962025 -1.38532,-0.329654 -1.45394,-0.604366 -0.0686245,-0.274712 -0.411533,0.0412602 -0.164613,0.576894 0.24692,0.535634 2.08492,1.67563 3.20974,0.288394 1.12482,-1.38724 -0.0548354,-4.01058 -1.16587,-4.29908zm-9.91495 4.67694c0.145907,0 0.264129,0.11074 0.264129,0.24724 0,0.136501 -0.118222,0.24724 -0.264129,0.24724 -0.1458,0 -0.264022,-0.11074 -0.264022,-0.24724 0,-0.136501 0.118222,-0.24724 0.264022,-0.24724zm5.3883 -3.20729c-0.384062,0.0549423 -0.49384,-0.24724 -1.04251,0.384596 -0.548675,0.631837 -1.0562,1.19494 -1.17966,1.41471 -0.12346,0.219769 -0.10903,0.357018 -0.0472461,0.370807 0.0617834,0.013789 0.644664,-0.212821 0.884743,-0.597418 0.240079,-0.384596 0.363539,-0.762245 0.747601,-0.830976 0.384062,-0.0687314 0.459527,-0.0274712 0.706447,0.109885 0.24692,0.137356 0.603511,0.20598 0.692658,0.0411533 0.0891477,-0.164827 0.0343122,-0.624889 -0.762031,-0.892759zm0.205767 -1.78552c-0.164613,0 -1.02883,0.164827 -1.4952,0.192298 -0.466368,0.0274712 -0.795595,-0.000106892 -1.04251,-0.0687314 -0.24692,-0.0686245 -0.987465,0.0274712 -1.33048,0.686779 -0.343015,0.659308 -0.685817,2.21148 -0.754442,2.48609 -0.0686245,0.274605 -0.548675,1.24999 -0.205767,1.44218 0.342909,0.192191 0.507522,-0.302076 0.85043,-0.0549423 0.342909,0.247134 0.493733,-0.0824135 0.342909,-0.521952 -0.150824,-0.439539 -0.32912,-1.16758 0.150931,-1.56586 0.480051,-0.398278 0.0686245,-0.617941 0.37038,-0.796557 0.301755,-0.178616 0.644664,-0.425963 1.01504,-0.728039 0.37038,-0.302076 1.34427,-0.494374 1.34427,-0.494374 0,0 0.205767,0.192191 0.589828,0.233451 0.384062,0.0412602 1.16597,-0.71425 0.164613,-0.810346zm-5.23994 2.99425c0,0 -0.329226,0.439432 -0.384062,0.796557 -0.0548354,0.357125 -0.150824,0.398385 -0.0136821,0.480799 0.137142,0.0824135 0.534886,-0.206194 0.576039,-0.618155 0.0411533,-0.411961 0.0274712,-0.782875 -0.178295,-0.659201zm-0.658453 -0.71425c0,0 -0.260709,0.24724 -0.37038,0.549423 -0.109671,0.302183 -0.493733,0.604366 -0.576039,0.810346 -0.0823066,0.20598 -0.493733,0.398278 -0.507522,0.837817 -0.013789,0.439539 0.0686245,0.549316 0.24692,0.782875 0.178295,0.233558 0.493733,0.137249 0.576039,-0.384596 0.0823066,-0.521845 0.370273,-0.617941 0.384062,-0.851499 0.013789,-0.233558 -0.0548354,-0.329547 0.192084,-0.782875 0.24692,-0.453328 0.576146,-1.20873 0.0548354,-0.961491zm21.7251 46.7667c0,1.7837 -1.12675,3.49493 -2.47807,3.8559l0 -1.65255c0,-0.221266 -1.37666,-2.19609 -1.37666,-4.95764 0,-0.743859 0.131477,-0.759359 0.275353,-1.37709 2.03768,0 2.88853,-1.62037 3.02867,-3.30509l1.10141 0 0 -0.826166c0,-1.06304 1.11274,-1.10173 2.20272,-1.10173 0.0514149,2.31143 0.893187,1.48483 1.92736,3.02963 -1.20681,1.80273 -1.43705,1.01643 -2.23596,3.27185 -0.475027,1.34096 -1.32706,2.3141 -2.44483,3.06287zm9.8971 -9.63169c0.512011,-0.340985 0.499077,-0.558937 1.11648,-0.558937l3.02867 0c0.890087,0 1.37666,0.999865 1.37666,1.92801l0 0.550813c0,0.634616 -0.19155,0.826273 -0.825952,0.826273l-3.30413 0c-0.743646,0 -0.759145,-0.131584 -1.37666,-0.27546 0.540444,-2.02442 2.68245,0.223404 3.85473,-1.37709l-3.28895 -0.00812377 -0.580849 -1.08549zm-14.5779 -5.51647c0,0.709333 1.35357,0.826166 2.20272,0.826166l0.0727932 1.78552 1.73496 -0.95016 -0.0698003 -0.555516 6.79756 2.19898 0 0.55092 -1.65201 0c-1.19088,0 -1.10975,-0.55092 -1.92736,-0.55092 -0.949305,0 -1.06614,0.203736 -1.92736,0.27546 -0.275674,-0.184602 -0.959567,-0.847544 -1.1106,-0.887415l-2.43435 0.304962 1.45116 1.58424 -0.0441463 0.298762 -2.6321 0.856844 2.01662 0.596776 0 1.10173 -0.825952 0c-0.956894,0 -0.386948,-0.488388 -1.65212,-0.826273 -0.0196681,0.882605 0.0896821,1.37709 -0.825952,1.37709 -1.39996,0 -0.851072,-1.10622 -0.275353,-1.65255 -1.88022,-0.0419015 -3.40952,-3.31984 -4.13008,-4.68218 0.71874,-1.07362 2.46246,-3.30498 4.13008,-3.30498l0.275353 0c0.6173,0 0.604366,0.217952 1.10131,0.550813 -0.176692,0.738515 -0.275353,0.519173 -0.275353,1.10173zm-13.4915 -18.1779c0,-0.634616 0.19155,-0.826273 0.826059,-0.826273l0.825952 0 0.0130408 -0.395606c-0.104861,-0.144838 -0.223404,-0.320782 -0.211859,-0.447342 0.0206301,-0.226717 0.301328,-0.723657 1.09735,-0.192298 0.796022,0.531359 1.06325,0.398278 1.38553,-0.0962025 0.322278,-0.494481 0.563533,-0.561395 0.85043,-0.157986 0.075038,0.105502 0.147617,0.211752 0.214211,0.316827 0.080917,0.08391 0.144945,0.186526 0.184816,0.325165 0.0876512,0.17883 0.142807,0.348253 0.142807,0.498115 0,0.322813 -0.109885,0.28166 -0.0206301,0.624996 0.0892546,0.343336 0.0617834,0.789716 0.0206301,0.920231 -0.0224473,0.0711899 -0.124636,0.205553 -0.193153,0.360866 -0.0164613,0.110526 -0.0304641,0.237193 -0.0366639,0.407044l0.000320675 0.00064135c0.0172096,0.042436 0.0408326,0.0722588 0.0696934,0.0903235l0.72665 -0.779347c0.17124,-0.477271 0.411105,-1.08153 0.61281,-1.02039 0.226397,0.0686245 0.898532,0.137249 0.452686,1.03012 -0.222228,0.445097 -0.858554,1.23321 -1.52577,1.96777 -1.43566,1.71486 -3.56398,3.42909 -4.60885,3.70807 -0.0196681,0.882605 0.0896821,1.37709 -0.826059,1.37709l-4.13008 0 0 -0.550813 1.6503 -0.0220197 1.49274 -0.0692658 1.28644 -2.5065 -2.77747 -0.431842 0 0.550813 1.92736 0 0 0.550813c-1.21429,0.10112 -1.20467,0.55092 -1.92736,0.55092 -1.16245,0 -0.208439,-0.683252 -1.92736,-0.826273l-0.0141097 0.607038 -1.36255 -0.331685 0 -1.65244c0,-1.0779 -0.601693,-2.17097 -0.629913,-2.49197l0.0174233 -0.0985541c-0.05227,-0.182464 -0.0963094,-0.362042 -0.107319,-0.516821 -0.0274712,-0.384489 0.247347,-0.79816 0.404799,-1.16811l0.0674487 -0.381924c0.0135752,-0.361187 -0.0549423,-0.757221 0.0215921,-0.743752 0.0574008,0.0100478 0.0807032,-0.225969 0.188878,-0.447983l0.0370914 -0.210149 0.106037 0c0.0926751,-0.094706 0.219021,-0.162155 0.394965,-0.166003 0.453541,-0.00994093 0.410785,0.328264 0.422329,0.702599l0.646053 0.745142c0.118329,0.00673418 0.224793,0.0234093 0.28957,0.118115 0.173699,0.253975 0.183961,0.419977 0.320141,0.585125l0.0104754 0.0120788 0.00117581 0.0012827 0.00064135 0.000748242 0.496619 0.572833 0.0541941 0.272894c0.0236231,-0.00299297 0.0474599,-0.00812377 0.0716174,-0.0154993l0.610672 -0.982442c0.193046,-0.650864 0.215814,-0.989283 0.396034,-0.982762 0.0586835,0.00213783 0.131904,0.00181716 0.207691,0.0115443l0.00245851 -0.00395499 0.00192405 0.00459634c0.194329,0.0259747 0.403195,0.121643 0.418909,0.509766 0.00684107,0.170278 0.011865,0.356911 0.0205232,0.539482l0.472461 1.12813c0.238475,0.0982335 0.526121,0.186098 0.604366,0.35146 0.114802,0.242644 0.168461,0.712006 -0.0847651,0.889339l0.00277918 0.00652039 -1.16245 0.502819c-0.117153,0.10625 -0.235055,0.175302 -0.418695,0.181181l-0.0477806 0.0206301 -0.0674487 -0.024692c-0.402768,-0.037519 -0.729643,-0.259533 -1.08848,-0.284653 -0.234841,-0.0164613 -0.267657,-0.153069 -0.327623,-0.233986l-0.151679 -0.0555837c0.0721519,0.199567 0.197322,0.421153 0.360866,0.627027 0.194757,0.0436118 0.429384,0.0922475 0.543651,0.404264 0.0212714,0.0580422 0.0488495,0.108388 0.081879,0.151038 0.20737,0.12036 0.433339,0.194757 0.665615,0.194757 0.0361294,0 0.109564,-0.0181716 0.209294,-0.0508804l0.00106892 -0.000427567c0.326875,-0.121001 0.757221,-0.484968 0.893935,-0.459314 0.0429705,0.00812377 0.108923,0.0107961 0.18845,0.000320675 0.215494,-0.106037 0.428315,-0.219449 0.612917,-0.331578l0.00064135 -0.00064135c0.222335,-0.246492 0.507949,-0.54333 0.560433,-0.808956 -0.00780309,-0.09182 -0.0195612,-0.17434 -0.0343122,-0.249271 -0.176371,-0.313941 -0.55712,-0.965553 -0.505063,-1.40434zm-20.3751 29.4701l4.13008 -3.30509c-0.417305,1.5634 -2.20272,0.879184 -2.20272,4.40672 2.22976,-0.595494 2.29625,-3.97862 4.13008,-4.13126 -0.168141,2.021 -2.12501,1.46965 -2.20272,4.95753 1.50429,-1.00756 3.62534,-5.27008 4.13008,-7.16089 -2.80698,0.233665 -7.3798,2.96635 -7.98481,5.23299zm53.7486 -2.33676c0,0 -1.05609,-0.384489 -2.42783,-0.233451 -1.37174,0.151038 -1.45405,0.357125 -1.20713,1.03012 0.24692,0.67299 1.35752,0.419871 1.43299,0.37861 0.0754655,-0.0412602 0.342909,-0.370914 0.6173,-0.240399 0.274391,0.130515 0.486892,0.0344191 0.589828,-0.0892546 0.102937,-0.123674 0.315544,-0.274605 0.521311,0.130515 0.205767,0.40512 0.768124,0.920124 1.1865,0.542475 0.418374,-0.377648 0.589828,-0.995803 -0.712968,-1.51861zm0.192084 -4.53264c0,0 -0.822959,0.0412602 -1.1385,-0.67299 -0.315544,-0.71425 0.424788,-0.727291 0.740332,-0.562464 0.315544,0.164827 0.301755,0.357125 0.624141,0.212928 0.322385,-0.144197 0.473316,0.013789 0.486999,0.0481013 0.0136821,0.0343122 0.439004,0.0549423 0.576146,-0.0274712 0.137142,-0.0824135 0.507415,0.0344191 0.699499,0.219769 0.192084,0.18535 0.315651,0.288287 0.51447,0.295235 0.198819,0.00694796 0.555409,0.206087 0.788647,0.405226 0.233238,0.199139 0.267657,0.391437 -0.0753586,0.521952 -0.343015,0.130515 -0.775072,-0.0960956 -0.775072,-0.0960956 0,0 -0.720129,-0.44638 -0.967049,0.0343122 -0.24692,0.480692 -0.555516,0.844658 -0.97389,0.776034 -0.418374,-0.0686245 -0.596669,-0.350284 -0.500681,-0.521952 0.0959887,-0.171668 0.267443,-0.570053 0.000320675,-0.632585zm23.1955 -1.78595l2.08503 -1.62069 -0.192084 2.14264 -1.89294 -0.521952zm-4.81483 -2.0799c0.121215,0 0.219556,0.236872 0.219556,0.528793 0,0.292028 -0.0983404,0.5289 -0.219556,0.5289 -0.121108,0 -0.219449,-0.236872 -0.219449,-0.5289 0,-0.291921 0.0983404,-0.528793 0.219449,-0.528793zm-0.97389 -0.199139c0.121215,0 0.219556,0.236872 0.219556,0.528793 0,0.292028 -0.0983404,0.5289 -0.219556,0.5289 -0.121108,0 -0.219449,-0.236872 -0.219449,-0.5289 0,-0.291921 0.0983404,-0.528793 0.219449,-0.528793zm-1.6255 -0.494481c0.121215,0 0.219556,0.236872 0.219556,0.528793 0,0.292028 -0.0983404,0.5289 -0.219556,0.5289 -0.121108,0 -0.219449,-0.236872 -0.219449,-0.5289 0,-0.291921 0.0983404,-0.528793 0.219449,-0.528793zm-3.53192 -0.199781c0.121215,0 0.219556,0.236872 0.219556,0.528793 0,0.292028 -0.0983404,0.5289 -0.219556,0.5289 -0.121108,0 -0.219449,-0.236872 -0.219449,-0.5289 0,-0.291921 0.0983404,-0.528793 0.219449,-0.528793zm-1.11114 -0.67299c0.121215,0 0.219556,0.236872 0.219556,0.528793 0,0.292028 -0.0983404,0.5289 -0.219556,0.5289 -0.121108,0 -0.219449,-0.236872 -0.219449,-0.5289 0,-0.291921 0.0983404,-0.528793 0.219449,-0.528793zm-1.87926 -0.137356c0.121215,0 0.219556,0.236872 0.219556,0.528793 0,0.292028 -0.0983404,0.5289 -0.219556,0.5289 -0.121108,0 -0.219449,-0.236872 -0.219449,-0.5289 0,-0.291921 0.0983404,-0.528793 0.219449,-0.528793zm-39.2444 -11.2287c0,0 -0.918948,0.631837 -1.39911,1.11253 -0.480157,0.480692 -0.850537,1.01643 -0.685924,1.29114 0.164613,0.274712 1.20723,0.0548354 1.60498,-0.563212 0.397744,-0.618048 1.39911,-2.19759 0.480051,-1.84046zm-2.38678 -16.5649c-0.274284,0 -0.644664,-0.480799 -0.97389,0 -0.329226,0.480799 -0.123567,0.508163 -0.576146,0.824135 -0.452579,0.315972 -0.219449,0.439539 -0.768124,0.549423 -0.548675,0.109885 -0.589935,0.26103 -0.576146,0.604366 0.013789,0.343336 0.809384,0.013789 1.27575,-0.219769 0.466368,-0.233558 0.548782,-0.274712 1.00136,-0.192298 0.452579,0.0824135 1.1384,-0.590683 1.16587,-0.769193 0.0274712,-0.178509 0.274284,-0.7693 0.713288,-0.851606 0.439004,-0.0823066 0.0823066,-0.590577 -0.301755,-0.563105 -0.384062,0.0274712 -0.603511,0.618048 -0.960208,0.618048zm-7.31203 1.9232c-0.0479944,0 -0.637823,-0.0825204 -0.706447,0.508163 -0.0686245,0.590683 -0.150824,1.02327 -0.0205232,1.09885 0.130301,0.0755724 0.58288,-0.123674 0.692658,-0.267871 0.109778,-0.144197 0.205767,-0.336495 0.363539,-0.254082 0.157772,0.0824135 0.322278,0.22661 0.562357,0.0549423 0.240079,-0.171668 0.466368,-0.357018 0.788754,-0.398278 0.322385,-0.0412602 0.521311,-0.418909 0.534993,-0.549423 0.0136821,-0.130515 -0.102937,-0.419015 -0.322385,-0.398385 -0.219449,0.0206301 -0.233131,0.473851 -0.514363,0.357125 -0.281232,-0.116726 -0.0617834,-0.604259 -0.329226,-0.563105 -0.267443,0.0411533 -0.534886,0.151038 -0.569198,0.535634 -0.0343122,0.384596 -0.0754655,0.549423 -0.240079,0.542582 -0.164613,-0.00684107 -0.164506,-0.151145 -0.130301,-0.370914 0.0342053,-0.219769 0.178295,-0.398278 -0.109778,-0.295235zm-27.1972 106.338l-2.4475 -0.649688 0.652146 -0.923972 -3.16859 -0.599662 -0.26755 0.796236c0.575932,-0.649581 1.81534,-0.245103 1.92736,1.10163l-1.10131 0 0.260281 0.832045 1.33347 -0.680045 0.058256 0.674273 1.08559 -0.335533 0.0157131 0.610993 -1.43075 0.396996 -0.738835 -0.436973 -1.66837 0.638785 -0.809598 -0.638785 0.275887 -1.05107 -1.13508 -0.0106892c-0.895004,0 -0.207904,0.238689 -1.37666,0.550813l0 0.826273 0.825952 0 -0.508804 1.66837 1.07212 -0.242965 0.577963 0.744821c0.457069,-0.299724 0.444135,-0.517676 1.06143,-0.517676l0.826059 0c0.840062,0 1.11103,0.264557 1.65201,0.550813l0.986717 -1.28099 0.940647 -0.0960956 -0.606931 1.75559c0.113733,0.394003 0.331578,0.381176 0.331578,0.998689 0,0.0369845 -0.270864,0.545468 -0.275353,0.550813l-1.09927 -0.554233 -0.337457 1.08933 2.25178 0.359797 0.0110098 -0.894897 0.18054 0.22971 0.777958 -0.612062 -0.683145 -0.168461 0 -0.826273 0.831724 -0.260388 0.328799 1.90182 1.57965 -0.330509 0.0131477 -0.484647 -1.11392 -0.227145 0.344084 -1.41129c1.13594,0.557975 2.28951,1.42422 2.42195,3.01552l-1.37677 0 0 -0.550813 -3.65762 2.47262 -0.197108 -0.26926 0 0.826273 1.73752 -0.980518 1.27939 0.216135 0.338526 0.744608 2.37246 -0.942036 -0.499826 -0.964056 1.10729 -0.0361294 -0.178082 -2.15633 -1.48537 -0.538307 0.340343 -1.38863 -1.23268 -0.390155c0.846689,-0.545041 1.45191,-0.295235 1.45191,-1.27639 0,-0.58256 -0.098661,-0.363111 -0.275353,-1.10173l-0.550706 0 0.309024 1.09104c-1.58082,0.0451083 -1.56596,0.561502 -3.06245,0.561502 -0.706875,0 -0.331792,-0.697575 -0.275246,-1.37709zm79.6754 3.89129c1.3928,-0.904731 0.811308,0.0608214 1.6689,-0.592287l0.218914 -0.167179c0.42297,-0.322172 0.337564,-0.366211 0.490419,-0.719702l-1.13412 -0.447983 1.78124 -1.42946 -1.63694 -0.702065 -0.0735415 0.274391 -0.834076 -1.09511c-0.737125,1.34983 -2.522,1.84271 -1.84741,3.48392l-0.437935 0.333823 -0.667539 -0.875977 -0.438363 0.333609 -0.0103685 -0.988641 -1.34491 1.02926 0.312124 0.408326 -0.876405 0.667325 1.23652 0.634723 0.588653 0.398172 -0.875871 0.667111c0.512546,0.151679 0.374014,0.407578 0.990565,-0.062211l0.657277 -0.500788 0.907297 0.680045 2.25702 -0.506453 -0.931454 -0.822852zm-31.6563 3.23871c1.66078,0.00106892 0.646588,0.493198 1.72181,0.413564l0.274605 -0.0206301c0.53029,-0.0395499 0.482723,-0.122819 0.803612,-0.335961l-0.706554 -0.993879 2.27262 -0.227038 -0.98939 -1.48109 -0.211218 0.189947 -0.102082 -1.37281c-1.35389,0.729536 -3.11867,0.16953 -3.44801,1.91315l-0.549316 0.0409395 -0.081879 -1.09831 -0.549316 0.0407257 0.530397 -0.834503 -1.68857 0.129553 0.0389086 0.512225 -1.09853 0.0817721 0.690413 1.20638 0.276315 0.654391 -1.0981 0.0816653c0.347184,0.406723 0.0913924,0.545575 0.864433,0.488067l0.824135 -0.0613558 0.389513 1.06475 2.16808 0.806177 -0.331899 -1.19772zm-61.1021 0c1.66078,0.00106892 0.646588,0.493198 1.72181,0.413564l0.274605 -0.0206301c0.53029,-0.0395499 0.482723,-0.122819 0.803612,-0.335961l-0.706554 -0.993879 2.27262 -0.227038 -0.98939 -1.48109 -0.211218 0.189947 -0.102082 -1.37281c-1.35389,0.729536 -3.11867,0.16953 -3.44801,1.91315l-0.549316 0.0409395 -0.081879 -1.09831 -0.549316 0.0407257 0.530397 -0.834503 -1.68857 0.129553 0.0389086 0.512225 -1.09853 0.0817721 0.690413 1.20638 0.276315 0.654391 -1.0981 0.0816653c0.347184,0.406723 0.0913924,0.545575 0.864433,0.488067l0.824135 -0.0613558 0.389513 1.06475 2.16808 0.806177 -0.331899 -1.19772zm84.6114 -10.1974c1.50493,0.405547 1.25523,1.64709 1.89359,1.64709 1.16255,0 0.208439,-0.683145 1.83554,-0.826273l0.09182 1.65255c0,0.399668 -1.55517,1.18008 -1.92736,1.37709l-0.00245851 -0.560754 -1.3742 0.285294c0,-1.59686 -0.0491702,-1.89391 -1.37677,-2.20336l-0.0287539 0.626172 -2.72456 -0.901525 0.00748242 0.511904 0.81847 0.314368c-0.536489,0.216563 -1.10131,0.982869 -1.10131,1.65244l0 1.65255 0.261671 0.249271 -1.08773 1.40327 -0.825952 0c-0.0646695,-0.77753 0.0064135,-1.10163 -0.826059,-1.10163l-0.275353 0c-1.00692,0 -0.594425,0.74557 -1.92736,1.10163l0 0.550813c0.525586,0.140456 2.00058,1.1369 2.84813,1.55784 1.38991,0.6902 2.09679,0.775072 1.84335,1.98893l1.09062 0.309131 0.00245851 -1.11157 1.37431 0.285294c-0.165682,-1.99075 -1.99791,-0.567167 -2.20272,-3.02963 1.12204,-0.299617 1.20895,-1.10163 1.65201,-1.10163 0.461238,0 1.65757,0.733384 1.92736,1.10163l-0.550706 0c0.104861,1.25983 0.336602,1.3478 1.65201,1.37719l0.0668073 -2.34659 1.67318 0.780951 -0.0188129 0.283049 -0.895111 0.731674c0.701744,0.163544 1.37666,0.566847 1.37666,-0.550813l0 -0.550813c0,-0.617513 -0.217845,-0.604686 -0.539803,-1.09008l0.706127 -0.549744 -0.166323 -1.94073c0.706875,0.339274 1.92736,0.1613 1.92736,-0.550813 0,-0.630875 -0.0933164,-0.320248 -0.275246,-1.10163 0.563426,0.298228 1.65201,1.06999 1.65201,-0.27546l0 -1.10173c-0.738408,0.176906 -0.519066,0.27546 -1.10141,0.27546 -0.0120788,0 -1.79086,-1.01023 -1.97301,-1.15058l-1.27554 1.19035 0.0469255 0.385345 -0.968332 -1.28452 0.670318 -0.914458 -1.66152 -0.968973 -0.311803 1.92202zm-83.7098 -6.16712c1.50493,0.405547 1.25523,1.64709 1.89359,1.64709 1.16255,0 0.208439,-0.683145 1.83554,-0.826273l0.09182 1.65255c0,0.399668 -1.55517,1.18008 -1.92736,1.37709l-0.00245851 -0.560754 -1.3742 0.285294c0,-1.59686 -0.0491702,-1.89391 -1.37677,-2.20336l-0.0287539 0.626172 -2.72456 -0.901525 0.00748242 0.511904 0.81847 0.314368c-0.536489,0.216563 -1.10131,0.982869 -1.10131,1.65244l0 1.65255 0.261671 0.249271 -1.08773 1.40327 -0.825952 0c-0.0646695,-0.77753 0.0064135,-1.10163 -0.826059,-1.10163l-0.275353 0c-1.00692,0 -0.594425,0.74557 -1.92736,1.10163l0 0.550813c0.525586,0.140456 2.00058,1.1369 2.84813,1.55784 1.38991,0.6902 2.09679,0.775072 1.84335,1.98893l1.09062 0.309131 0.00245851 -1.11157 1.37431 0.285294c-0.165682,-1.99075 -1.99791,-0.567167 -2.20272,-3.02963 1.12204,-0.299617 1.20895,-1.10163 1.65201,-1.10163 0.461238,0 1.65757,0.733384 1.92736,1.10163l-0.550706 0c0.104861,1.25983 0.336602,1.3478 1.65201,1.37719l0.0668073 -2.34659 1.67318 0.780951 -0.0188129 0.283049 -0.895111 0.731674c0.701744,0.163544 1.37666,0.566847 1.37666,-0.550813l0 -0.550813c0,-0.617513 -0.217845,-0.604686 -0.539803,-1.09008l0.706127 -0.549744 -0.166323 -1.94073c0.706875,0.339274 1.92736,0.1613 1.92736,-0.550813 0,-0.630875 -0.0933164,-0.320248 -0.275246,-1.10163 0.563426,0.298228 1.65201,1.06999 1.65201,-0.27546l0 -1.10173c-0.738408,0.176906 -0.519066,0.27546 -1.10141,0.27546 -0.0120788,0 -1.79086,-1.01023 -1.97301,-1.15058l-1.27554 1.19035 0.0469255 0.385345 -0.968332 -1.28452 0.670318 -0.914458 -1.66152 -0.968973 -0.311803 1.92202zm151.71 -122.674l0.000213783 -0.000213783 2.43927 0.847865 0 0.000320675c3.23358,0.764596 6.49014,1.86868 7.20995,5.13796l-0.517997 0.817508 -5.48429 -0.762458 -3.57948 0c-2.05692,0 -2.63723,1.62433 -3.0168,3.2432l1.36351 0.335747 3.03006 -2.20176c-1.84367,2.75396 -1.23406,2.28898 -2.36979,5.61673 -0.295342,0.865609 -1.99898,5.50941 -1.9775,6.07433l1.27864 -0.641136 0.521525 0.789502 0.069052 2.48245c-1.45896,0.389727 -1.79183,3.93618 -3.02878,5.7838 0,0.885277 -0.213463,4.16386 -0.385131,5.12321 -0.139814,0.781806 -0.0891477,1.84452 -0.265733,2.48833 -0.246172,0.897142 -0.75038,1.08869 -1.00115,2.02827l1.65201 0c1.79909,0 2.62173,-1.92801 5.23149,-1.92801 1.52021,0 1.506,1.10173 3.30402,1.10173 0.847865,0 2.52735,-3.53876 2.43734,-4.40447l-0.234627 -3.85815 0 -0.55092c0,-2.66331 0.352101,-2.87613 1.44603,-4.4188l-1.17068 -5.49637c0.332754,-0.497046 0.550706,-0.484112 0.550706,-1.10163l0 -0.55092c0,-0.00288608 -0.760962,-2.06761 -0.826059,-2.20336 1.66152,0.601693 1.15924,3.4402 2.47807,4.40682 0.428529,-0.287111 0.825952,-0.365142 0.825952,-1.10173 0,-2.3684 -2.36979,-4.41228 -2.67539,-6.14285l3.00344 2.8012 0.41955 -0.341091 -1.72502 -3.43689 0.151466 -0.59218c0.995055,0.729322 2.20272,3.21947 2.20272,4.95764 0,2.0799 -1.10141,3.60107 -1.10141,5.50834 0,1.0687 0.508911,0.0502391 0.493091,1.84794l-1.04369 0.630875 0 1.65255c0,0.706233 -0.0662728,0.665721 -0.241361,1.08356l1.34267 2.49688c-0.188664,0.336067 -0.275353,0.294594 -0.275353,0.826273 0,0.245103 0.30571,0.55092 0.550706,0.55092 1.02979,0 4.104,-3.11247 4.40543,-4.40682l1.92736 0c0.788647,0 1.29767,-1.10163 2.75332,-1.10163l1.10141 0 0.212608 0.224579 -7.44041 7.32892 4.6391 -2.02346 0.110633 0.253761 0 -1.9279 0.815904 0.187488 4.41559 0.087865c-1.30846,1.13765 -2.96892,1.44443 -2.96924,4.22671l1.04177 -0.64616c2.16381,0.504208 5.19023,-1.03172 6.95405,-2.00283l1.85682 2.00283c2.22645,0.0495977 1.69295,1.21504 2.38678,2.84556 0.389086,0.914565 1.68044,2.93824 2.56936,2.93824 0.827021,0 1.77633,-0.598593 2.80163,-0.838886l0.275567 0.9911 1.71198 0.673952 -0.108816 0.266053 4.29555 -0.0709761 1.74255 1.23353 -0.821356 -0.332647 -0.260281 0.832045c-1.76735,-0.147083 -4.0653,-1.37709 -4.95614,-1.37709l-0.825952 0 0 4.40682c0,1.48676 1.98915,1.9279 3.57938,1.9279l0.826059 0c1.11723,0 0.714143,-0.675128 0.558723,-1.36201l1.08452 -0.566633 0.221373 -1.38906 1.40637 -1.35956 0.308383 2.4739c2.29144,1.21279 1.84655,0.551882 2.81595,3.24245 0.492771,1.36779 1.58948,2.54402 1.58948,4.46936l0 0.550813c0,0.994841 -0.694689,0.826273 -1.62401,0.801581l1.4006 1.67585 -0.0519494 4.13265 -1.10141 0 -0.0909648 0.826487 0.0909648 7.43624 -0.550599 0 0 4.40672c0,0.644664 -0.456855,1.10163 -1.10141,1.10163l-5.23139 0c-0.986397,0 -1.18158,-1.36533 -1.37677,-2.20336 -1.59846,0.0357018 -1.73603,0.83429 -2.80035,1.60551 -1.19131,0.863044 -1.95473,0.722374 -3.32861,1.07725 -2.06344,0.532962 -3.13738,3.20803 -4.55027,4.26177 -6.33034,4.72098 -6.5344,1.25694 -3.9706,10.7394 0.669035,2.47444 1.38991,3.7984 2.00625,6.80665 0.879184,4.29085 0.811842,3.40087 2.26942,6.81883 1.70161,3.99005 1.00916,2.88298 0.991314,7.24993 -0.0121857,2.99992 2.2241,4.17006 2.2241,6.88521 0,1.04968 -0.550706,1.37121 -0.550706,1.65255 0,1.20595 2.3684,2.20336 3.30413,2.20336l0.85973 -0.0106892 -0.301114 -1.13808 2.1947 0.322492 0 1.65255c-1.41022,0.467651 0,-0.00224473 0,0.826273 0,0.903662 -0.555409,1.03332 -1.37666,1.10163l0 -0.826273c-0.882391,0.0196681 -1.37666,-0.0896821 -1.37666,0.826273 0,0.86144 0.49416,0.780309 1.10131,1.10173 -0.578391,1.20574 -0.374228,1.88717 -2.20272,1.9279 -0.262954,3.16111 1.10141,3.42192 1.10141,3.8559 0,4.05996 1.65201,4.17615 1.65201,6.61018l0 3.30498 0.550599 0 0.0595387 -0.64616 1.04187 0.64616c0.335854,-0.188771 0.294487,-0.275353 0.826059,-0.275353 0.244889,0 0.550599,0.30571 0.550599,0.550813 0,1.93495 -1.38222,0.745142 -2.47807,3.02963l-1.10131 0 0 -0.826273 0.616872 -0.0132546 -0.380321 -1.475 -1.32385 -0.365997 -1.33935 0.182037 -0.359584 -0.70153 -3.64672 -0.963629 -0.694475 2.15707 0.247989 0.174875 -1.91635 -0.0881856 -0.569091 1.09575 0.491595 1.1741 -1.86494 -1.72705 1.31049 -0.0132546 0.341626 -1.63929c-0.614307,-0.917558 -1.22861,-1.89401 -2.7872,-1.91721l0.309131 1.09094c-1.43908,0.0320675 -2.16734,0.212928 -2.53707,1.23855l-1.59301 0.689345c0.341305,1.27875 1.46901,1.37719 3.02867,1.37719 -0.0264022,1.18746 0.138211,1.50001 -0.825952,1.10163l0 0.826273 -1.92736 0 0 -0.550813 -0.826059 0c-1.05267,0 -0.100158,0.0845513 -0.732422,-0.257181l0.259105 -1.32642 -0.352743 -0.0689451 0 0.550813 -0.825952 0c-0.582132,-1.21343 0.124101,-1.33754 -1.65201,-1.37709l0 -0.826273 -1.10141 0c0.461879,-1.73004 1.37677,-0.612489 1.37677,-1.9279 0,-0.761924 -0.212501,-0.662408 -0.711792,-0.785226l0.436439 -1.96905c0.545789,-0.1458 1.65201,-1.12375 1.65201,-1.65255 0,-1.61513 -1.22412,-0.324737 -1.65201,-1.9279l1.37666 0 0 -0.550813 0.540765 0.00245851 0.285294 1.37463c0.972287,-0.259747 4.37914,-2.45071 4.66689,-3.53918l-0.53681 -0.31672 1.17453 -0.0333502 -0.623927 -1.34374c0.319499,-0.666042 0.550706,-1.20488 0.550706,-2.20336l0 -1.92801c0,-0.201598 -1.01697,-3.31781 -1.19858,-3.75863 -0.520135,-1.26196 -1.37035,-1.76382 -2.52916,-2.42762 -2.09893,-1.2021 -2.7453,-4.08529 -3.98172,-5.93228 0,-1.99022 -0.296304,-2.82376 -1.48986,-3.74271 -1.0966,-0.844337 -0.712861,-2.70137 -0.712861,-4.51992 -0.619651,-0.925575 -2.00668,-2.05777 -2.40143,-2.83092 -0.853316,-1.67168 -0.348253,-3.52743 -0.994307,-4.51382 -0.773468,-1.18115 -1.85115,-1.67403 -2.47786,-3.02985 -0.408219,-0.883032 -1.18361,-3.39648 -2.11122,-3.39648 -1.10227,0 -1.36843,0.567702 -2.54776,0.835465l0.345046 2.74498c0.254082,1.91593 -1.01825,4.41003 -0.601373,5.81341 0.790143,2.66053 0.601373,3.46554 0.601373,6.02976l0 3.30498c0,1.65116 2.04078,5.85873 1.00628,7.61454 -0.70634,1.19879 -1.49028,1.35731 -1.55987,3.12402 -0.10112,2.56893 -1.09842,2.37278 -1.09842,3.85879l0 1.37709 1.27041 0.113947 -0.864754 0.956253 0.971004 3.88744 -0.550706 0 0 0.550813c0.757541,-0.0168889 1.92736,-0.192191 1.92736,-0.826273 0,-1.07811 -0.415702,-0.0303572 -0.550599,-1.65255 1.99941,0.534138 0.050346,0.826273 3.30402,0.826273l0.826059 0 -0.0120788 1.47992 -1.91529 0.17263c-0.148259,0.0103685 -0.585766,-0.389834 -1.01729,-0.437294l1.01729 1.81438c-0.335961,0.188771 -0.294594,0.27546 -0.826059,0.27546 -1.10868,0 -0.576467,-0.496619 -0.584056,-1.72577l-1.36747 0.62863 0.288821 1.95708 -1.06282 -0.314903 0.579032 2.90382 2.14649 0.957856 0.0595387 -0.921513 1.00468 0.585125 2.09518 -1.278 0.144624 0.2373 0 -1.10163 -0.550599 0 0.103257 -1.2749 2.1901 -2.21309 0.297373 0.301541 -0.919482 0.971966 0.749097 1.74362 -1.09168 -0.614093 0.573153 1.64464 0.298442 0.109136 1.10376 -3.14764 1.14128 0.0331364 -0.590577 0.793136 0.0320675 1.39825 -1.17549 1.78509 -0.396141 0.0174233 2.96411 2.82215 0.227466 -0.239117 0 1.10173 -0.202346 0.218807 -1.73913 -1.92758 -1.36255 0.331578 0.0106892 0.584591 1.09062 -0.309131c0.712006,1.34609 0.453435,1.18831 1.00008,2.58004 0.41506,1.05662 1.16213,1.01953 1.74073,1.77846l1.11392 -0.227145 0 0.826273c-1.58039,0.422115 -0.320248,1.10163 -1.65201,1.10163 -1.05278,0 -0.100264,0.0845513 -0.898318,-0.314155l0.69533 -1.29959 -0.303786 0.115977 -1.73528 -2.35814 -0.0430774 1.01194 -3.27302 -1.58242 0.268512 -0.683252 -1.43801 -0.608641 0.637074 1.35988 -1.89423 -1.15005 0 1.10173 -1.92736 0c-1.18436,0 -1.49253,-0.32121 -2.418,-0.5351l-0.334037 1.07554 -2.47946 -0.264985 0 0.826273c-2.01662,-0.968011 -0.931134,-1.70759 -3.62641,-1.94885l-0.77892 2.2242c-0.534138,-0.0444669 -1.10141,0.0130408 -1.10141,-0.550813 0,-0.957215 0.488174,-0.387055 0.754014,-1.76243l-1.85532 1.21162c-0.122925,-1.47767 -2.16819,-1.81053 -3.57948,-1.92801l-0.0398706 0.656529 -1.61855 -0.67299 -1.92095 0.842734 -1.15635 -0.0550492 -0.481547 0.532214 -1.3028 -0.138425 -0.940219 1.50974 -2.21512 0.647443 0.575184 1.57922 -1.41877 0.317468 0.167285 -1.48996 -1.44785 1.87296 0.235376 0.182037 0.826059 0 0.237727 0.237834 -1.37666 1.37709 -0.237834 -0.237834c-0.280377,-1.05748 -0.537879,-0.643595 -1.65201,-0.55092l0 -1.10163 -0.639747 0.00331364 0.0891477 1.92458c-0.489457,0.731139 -1.18842,2.75428 -1.92736,2.75428l-1.92587 -0.0545148 -1.92897 0.0545148c-0.407257,-0.0115443 -0.39924,-0.332968 -0.498543,-0.411747l2.99233 -1.30098 1.0857 0.33564c-0.339167,-1.45619 -0.0474599,-1.61684 -1.65212,-1.65255l0.0610352 -0.400951 2.69239 -0.976135 0 -1.10173c0,-1.07811 -0.415702,-0.0303572 -0.562464,-1.71444l-1.16833 0.124956 -1.34929 -0.909007 0.326661 -0.806605 -1.10344 -0.00331364 -1.13295 0.543437 0.309024 -1.09094c-3.01777,-2.02143 -1.02584,-2.92253 -5.55805,-0.531145l0.317468 0.725367 -4.12089 0.356591c0.306672,0.441463 0.0520563,0.572833 0.824456,0.496405l1.92897 0.0545148 -0.00940647 0.507201 -2.74402 0.594425 -0.00406188 0.77721 -4.58865 0.376473 -0.922048 1.64763 -2.1947 -0.322492c-0.806177,-0.136287 -1.21792,0.782127 -1.37922,1.39579l-2.79329 -0.27407 -0.50827 -1.39718 0.826059 0c0.775392,0 0.509766,-0.119077 0.812804,-0.484647l-1.64089 -0.344939 -1.09927 0.554233 0.0025654 -0.813018 -1.65458 0.262098c-0.253226,-0.948557 -0.550706,-0.728788 -0.550706,-1.10163 0,-0.630875 0.0933164,-0.320248 0.275353,-1.10173l-0.288287 0.201384 -1.35624 -1.94222 0.40544 -0.049384 0.688383 -0.963949c-3.6542,1.9341 -2.47807,0.522059 -2.51794,-2.23649l0.590577 -0.793136c-0.188664,-0.335961 -0.275353,-0.294594 -0.275353,-0.826273 0,-0.526655 0.550706,-0.187702 0.550706,-1.10173l0 -0.275353c0,-0.832686 -0.324096,-0.761603 -1.10141,-0.826273l0 -0.826273 0.550706 0 0.247668 -0.188236 -1.61749 -2.03351 2.74648 0.844658 0 0.826273c0.888804,0.207049 3.85473,1.56522 3.85473,2.47871l0 0.27546c0,1.52064 -1.17656,0.0987679 -1.37666,1.9279l-2.30491 0.103364 2.02955 2.37545c0.31052,-0.208011 1.10141,-0.646695 1.10141,-1.10163 0,-0.630875 -0.0933164,-0.320248 -0.281125,-1.08666l0.831724 0.260388c1.50247,-1.00639 2.20272,-1.31509 2.20272,0.275353 0,1.04658 0.343443,1.8643 0.42126,2.90008l-2.2055 -1.95943 -0.339274 0.368883 2.39886 2.54637c0.580315,-0.278453 2.31004,-1.37709 2.47807,-1.37709l0.275353 0c0.891584,0 1.01216,0.963308 1.34117,1.5976l1.96285 -1.04679 0 -1.37709 -0.825952 0 0 1.10173 -0.249806 0.230458 -1.12696 -1.60754c-0.777316,-0.0647764 -1.10131,0.0064135 -1.10131,-0.826273 0,-1.23139 1.42166,-0.610672 0,-1.65255 -0.280911,0.205873 -0.826059,0.678869 -0.826059,1.10163 0,0.630875 0.0933164,0.320248 0.295342,1.14406l-1.44357 0.466048 0.906655 -1.06999 -0.349001 -1.12407 0.637502 -0.835572 -0.872878 -1.05919c0.154031,-0.2218 0.550599,-0.680045 0.550599,-0.826273 0,-0.617513 -0.217845,-0.604686 -0.548675,-1.09671l1.47404 -0.577856 -0.0702278 -0.297693 1.35752 0.868067 -0.274498 -1.4084 1.10569 0.31501 0.260281 -0.832045c0.464017,0.322599 0.550706,0.039443 0.550706,0.826273l0 0.826166c1.33925,-0.35766 0.829373,-2.62708 0.825845,-4.40672 -0.00427567,-2.16295 0.27546,-3.1284 0.27546,-5.23299 -1.17506,-1.75527 -2.47807,-3.34357 -2.47807,-6.33472l0 -1.9279c0,-0.780951 1.48644,-4.29886 1.96916,-4.96672l-0.317148 -1.64335c2.25819,-3.37329 17.1355,-0.53371 20.5893,-0.765131l1.24689 1.03728 0.135859 6.9439 0.639533 0.506453 -0.309131 1.09094c0.627347,-0.459741 0.681007,-1.10173 1.10141,-1.10173 1.06828,0 0.0501322,0.509018 1.83929,0.602869l0.914031 1.6006 -1.08132 -0.042436 -1.5309 -0.45942 0.684855 1.87894 -1.10131 0 0 -1.37709c-0.534138,0.0444669 -1.10141,-0.0130408 -1.10141,0.550813 0,0.71425 1.18575,1.50675 1.68525,2.24334l0.794419 -0.590256 -0.552202 1.97333 2.47796 -0.0459634 0 -0.826273c0.53991,0.144197 1.36052,0.531465 1.26763,1.10483l0.109136 1.9248c-1.54854,-0.034526 -3.23112,-0.347719 -3.57948,-1.65255l-1.10131 0c-0.76171,0 -0.662194,0.212501 -0.826059,0.826273 0.534138,0.0444669 1.10141,-0.0129339 1.10141,0.55092 0,0.994841 -0.558723,0.801795 -1.10141,0.550813l0 2.47882 0.31052 0.00887201 -0.0346329 -1.66366 2.51121 0.288394 -0.337564 0.984366 -2.65583 0.663584 0.481654 12.1123 1.10141 0c1.29938,0 0.469041,1.37719 1.37666,1.37719 0.987359,0 1.03033,-2.14606 1.43406,-3.24769 0.591859,-1.61524 1.37912,-1.39162 2.14532,-2.53622 3.76772,0 8.26016,-3.77392 8.26016,-7.16089l0 -1.37719 -0.700354 -0.172951 1.15219 -0.959353 0.748349 -2.41757 -0.276208 0.161727 -1.42968 -1.31958 0.232489 -0.253226 1.03974 0.649581 0.197215 -0.233024 -0.963736 -0.688596c0.646802,-1.399 -0.314796,-0.635578 -1.45287,-1.85168 -0.835252,-0.892546 -0.992062,-1.70417 -1.62507,-2.31143l-1.65704 -11.7648 0.329547 -0.0464979 0 -1.9279c0,-1.43759 -0.550599,-1.59365 -0.550599,-2.75428 0,-3.2463 0.963736,-2.28395 -0.826059,-4.95753 0,-3.59252 0.115336,-3.555 -1.37666,-5.78391 0,-3.90037 -2.47807,-3.74527 -2.47807,-8.53808l0 -1.10163c0,-0.853637 1.89711,-2.36509 2.47807,-2.75417 -0.442745,1.90064 -1.92736,1.91945 -1.92736,3.58044l0 0.275353c0,1.42658 0.817721,4.11041 1.96638,4.40191l-0.314368 -3.02471 0 -1.10173c0,-0.895218 0.238582,-0.207904 0.550706,-1.37709l0.17124 -0.244782 2.03137 1.34641c-0.112557,-1.35314 -0.550599,-1.00895 -0.550599,-2.20336 0,-1.24967 1.58007,-1.32642 2.40431,-1.91379l-0.201598 -1.3912c0.219128,-0.327516 1.10131,-1.30429 1.10131,-1.65255 0,-0.616231 -0.903555,-1.92801 -1.37666,-1.92801 -1.88471,0 0.255257,3.30188 -3.30413,4.13136 0.644771,-1.21878 1.28527,-2.20389 1.81887,-3.68905 0.609176,-1.69605 2.58657,-2.27391 2.58657,-2.92103 0,-0.860157 -1.45084,-2.31784 -1.92736,-3.02963l0 -2.20347c-2.21341,-3.30637 -0.825952,-9.25564 -0.825952,-12.9448l0 -1.9279 -1.92736 0c-0.133615,-0.50036 -1.18906,-2.20336 -1.65212,-2.20336 -1.0408,0 -1.83651,0.672028 -2.34221,1.05267l0.885918 2.45712 -0.156917 0.239972 -3.89353 0.656956c-0.496939,0.332861 -0.484006,0.550813 -1.10131,0.550813l-0.275353 0c-0.840062,0 -1.11114,-0.26445 -1.65201,-0.550813 -0.617513,0.143876 -0.633119,0.27546 -1.37677,0.27546 -0.543117,0 -0.681648,-1.10173 -1.65201,-1.10173l-1.37666 0 0 -1.37709 -0.321851 0.133294 -0.228855 -0.684107c-2.46877,0.205446 -1.41984,1.65244 -2.75342,1.65244l-1.37666 0c-0.846475,0 -1.19975,-0.334464 -1.84388,-0.605221l0.0688383 -1.13198c0.312765,-0.838565 0.41645,-1.77836 0.792923,-2.46257 -0.0390155,-0.189412 0.214852,-0.579139 0.272788,-0.811415 0.0685176,-0.274712 0.315544,-1.05759 0.37038,-1.45597 0.0548354,-0.398385 0.137249,-0.824135 0.274391,-1.45586 0.137142,-0.63173 1.01504,-0.769193 1.01504,-0.769193 0.356591,0.178509 0,0.837817 -0.466368,1.26367 -0.466368,0.425857 -0.192084,1.26357 -0.384062,1.96413 -0.0610352,0.222762 -0.167606,0.452579 -0.291173,0.658239l-0.81879 3.1052 0.491702 0.18225 1.90235 -4.38149 0.266374 0.115977 -1.09981 4.13179c1.56019,-0.565029 1.93442,-4.78661 2.75332,-6.33472 1.36597,0.318323 1.65212,1.07351 1.65212,2.75417 0.221693,0.154138 0.679724,0.55092 0.825952,0.55092 2.29539,0 2.48684,-1.94404 4.3041,-2.58015 0.951977,-0.333181 4.72867,-0.44948 6.15878,-0.44948 0.93263,-0.624782 1.85062,-1.51059 2.98527,-2.24686 1.13808,-0.738408 2.59095,-0.917131 3.89823,-1.60904 0,-2.71366 1.10131,-3.03209 1.10131,-3.58055 0,-1.29457 -0.681755,-2.30758 -0.443494,-3.29098l1.54491 -11.0309c0.126774,-0.965018 -1.30579,-1.06817 -1.90096,-1.40359 -0.17124,-0.0964163 -1.51979,-1.66441 -1.67852,-1.9015l0.537879 0 0.012827 0c0.111595,0 0.0950267,-0.149969 0.0453221,-0.338098l0.116084 -0.866999c0.321637,-0.169103 0.852996,-0.434835 1.16095,-0.822852 0.265412,-0.334357 0.167285,-0.582987 -0.000534458,-0.715961l0.0377328 -0.0498115 -0.0718312 0.0252264c-0.0942785,-0.063173 -0.202774,-0.092782 -0.280911,-0.0835893 -0.157986,0.0185992 -0.178937,0.122925 -0.422436,0.331044l-1.46057 0.513935c-0.0879719,-0.0273643 -0.161406,-0.0638143 -0.218807,-0.0989817l0.0288608 -0.811842 1.41012 -0.444669 -0.0827342 -0.273963 -1.36255 0.331578 0 -0.55092 -0.550706 0c0.286256,-1.22936 0.556264,-1.26293 1.92736,-1.37709l0.0485288 0.676945 2.72894 0.98009 -0.299404 1.92352c0.469682,-0.125491 1.10131,-0.320034 1.10131,-0.826273 0,-1.03728 -0.181181,-0.520883 -0.264664,-1.61887l1.09072 -0.309131 0 -0.550813 -0.550706 0c0.115977,-1.39419 1.68632,-1.20937 3.06865,-2.78741l-0.49726 -0.779347 0.143876 -1.54405 -2.16456 -0.673097c-1.34341,-2.00668 -2.90553,-1.17859 -5.49038,-0.809705 -1.75997,0.251089 -2.84364,2.58347 -4.69714,2.73771l0.152962 -0.397851 0.948343 -1.25469c-1.82282,-0.19946 -0.310948,-0.826273 -1.37666,-0.826273 -0.683893,0 -1.05192,0.195719 -1.40295,0.445845l0 -0.000213783c0,0 1.20242,-2.21661 2.73108,-4.52515l0.0485288 -0.0517356 1.4114 0.0695865 -1.21023 0.874374 1.01034 0.480585 -0.660804 1.05417 -0.13479 -0.907297 -1.24187 2.28449c0.335854,0.188664 0.294487,0.275353 0.825952,0.275353 2.78912,0 1.36811,-3.02963 3.02878,-3.02963l2.20272 0c0.956467,0 0.420084,0.550813 1.37666,0.550813l0.826059 0c1.78477,0 2.75332,-1.10622 2.75332,-3.02963 -1.6658,-0.0370914 -2.41458,-0.826273 -4.13008,-0.826273 -0.596563,0 -1.3742,0.722481 -1.75046,1.32909l2.57652 1.14973c-1.98209,0 -2.79372,-0.478768 -3.57938,-1.65255 2.7096,-1.43417 1.02669,-1.37709 4.40533,-1.37709 0.706127,0 0.665508,-0.066166 1.10248,-0.276849l1.9263 1.37858c0,1.59322 -0.368028,1.80561 1.10131,1.9279l-0.00395499 -1.36992 1.93132 1.09457c-0.0856202,0.32292 -0.275246,0.7507 -0.275246,0.826166 0,0.547392 0.070121,0.386307 0.207584,0.844551zm2.30373 1.07202l-2.51292 -0.821249c-1.53272,-0.0684107 -2.97683,-0.639212 -3.85323,0.557226 0.506346,0.691269 2.10341,0.863578 3.20162,1.20424 2.05168,0.636112 0.0716174,1.672 2.26311,2.14296 0.998155,0.214532 7.1393,1.33497 7.75157,1.33497 -0.135752,-1.63149 -1.08228,-1.45277 -2.20272,-2.20336 -2.29806,0 -4.32281,-0.320141 -4.64744,-2.2148zm-9.84505 7.13246c-0.0616765,-0.0481013 -0.137035,-0.0584698 -0.267443,-0.0412602 -0.130408,0.0172096 -0.171561,0.109992 -0.133828,0.182037 0.0377328,0.072045 0.171454,0.00684107 0.161193,0.144197 -0.0102616,0.137356 -0.0994093,0.209615 0.0377328,0.206087 0.137142,-0.00352743 0.281232,-0.130622 0.284653,-0.168354 0.00342053,-0.0377328 -0.0823066,-0.322706 -0.0823066,-0.322706zm-2.31581 3.8636c-0.12346,-0.0412602 -0.185136,-0.137356 -0.34975,-0.0549423 -0.164613,0.0824135 -0.28818,0.0893615 -0.233238,0.322813 0.0549423,0.233451 0.0753586,0.28166 0.253761,0.219769 0.178402,-0.0618903 0.39101,-0.212928 0.329226,-0.48764zm-6.76988 33.6789c0.265198,0 0.480157,0.20908 0.480157,0.46701 0,0.25793 -0.214959,0.46701 -0.480157,0.46701 -0.265091,0 -0.480051,-0.20908 -0.480051,-0.46701 0,-0.25793 0.214959,-0.46701 0.480051,-0.46701zm-13.0172 -7.32721c-0.130301,0.0962025 -0.226397,0.151038 -0.240079,0.384596 -0.0136821,0.233558 -0.178188,0.645733 -0.0616765,0.776141 0.116512,0.130408 0.377221,-0.00694796 0.548675,-0.391544 0.171454,-0.384596 0.335961,-0.549423 0.157665,-0.69362 -0.178295,-0.144197 -0.404585,-0.0755724 -0.404585,-0.0755724zm62.0888 -17.4645l-0.0479944 -0.123139c0.966408,0.702278 2.00668,1.32118 3.19489,2.27989 1.50076,1.21087 2.99136,4.56738 5.22626,6.06439 -0.724726,3.11172 3.28767,1.72609 3.57938,5.23299l0.63515 -0.0258678 -0.63515 -1.90203c1.64303,-3.10606 0.710188,-4.34793 -2.09059,-5.34512 -6.14339,-2.18711 -1.72566,-4.09983 -4.51746,-4.84551 0.284546,1.06614 0.825952,0.95946 0.825952,1.37709 0,0.450869 -0.164827,0.826273 -0.550599,0.826273 -0.644557,0 -1.10141,-0.456962 -1.10141,-1.10163l0 -0.826273 -0.214104 0.214211 -1.10141 -1.10173 0.214211 -0.214211c2.76988,-0.0616765 7.60192,-3.70262 8.87297,-5.57579l-3.81422 -3.39862 -3.41487 2.93022 -1.07415 -0.494481 -2.22185 0.479409 -0.0196681 -1.32567 -0.806284 -0.326875c0.0856202,-0.32292 0.275353,-0.7507 0.275353,-0.826273 0,-3.22086 -3.57938,-8.62306 -3.57938,-12.3939l0 -0.826273c-1.17324,-0.313406 -1.92747,-2.32457 -1.97718,-3.74345l-0.732849 -0.303359 -3.8744 -13.3688 -1.26196 0.494481 3.62395 14.1967c-0.811736,0.924934 -2.88843,0.611527 -4.86379,1.07191 0,0 -0.214104,0.155421 0.128911,0.581277 0.271612,0.337243 2.71868,2.11261 3.72582,2.83712l0 0.437508c0,0.617513 0.217952,0.604579 0.550706,1.10163 -0.143876,0.617727 -0.275353,0.633226 -0.275353,1.37719 0,1.64047 1.55731,7.2247 1.87146,8.97302 0,0 -3.39028,-1.84249 -4.8717,-2.28203 -1.48141,-0.439539 -0.109778,0.466903 1.15219,1.2361l4.59773 2.80142c1.52118,1.10473 2.90649,2.32222 3.21765,3.58333 -1.00927,-0.656743 -2.96218,-1.89209 -3.99583,-2.30779 -1.43352,-0.576894 -0.153069,0.45429 1.03097,1.33871 1.18415,0.884208 4.31864,3.22396 4.31864,3.22396zm-7.59647 -20.0587c-0.400844,-0.282515 -1.10216,-0.800191 -1.53058,-1.25224 -0.383207,-0.592928 -0.679617,-1.31509 0.429277,-1.31509l1.10131 0 0 2.56732zm-1.51776 2.60121c0,0 -6.80366,2.03276 -7.35233,2.19759 -0.548675,0.164827 -2.74348,0.769086 -3.40183,1.09874 -0.658346,0.329654 -0.493733,0.659308 0.219556,0.879077 0.713288,0.219769 1.70086,0.274712 1.86547,0.604366 0.164613,0.329654 0.644984,0.0819859 0.3707,-0.275032 -0.274284,-0.357018 -0.548675,-0.59047 -0.260602,-0.604259 0.288073,-0.013789 6.55674,-2.00518 7.68156,-2.27989 1.12482,-0.274712 1.9341,-0.247454 2.13986,-0.906762 0.205767,-0.659308 -0.150931,-1.09885 -1.26239,-0.713823zm-10.2874 9.51817c0,-0.260923 -0.329333,-1.30483 -0.699606,-1.96413 -0.370273,-0.659308 -0.37038,-0.93402 -0.795595,-1.34609 -0.425215,-0.412067 -0.644664,-0.741721 -0.397744,-0.796664 0.24692,-0.0549423 0.740759,0.412174 1.00136,0.782982 0.260602,0.370807 1.53635,1.49702 1.7558,2.41736 0.219449,0.920337 -0.411533,1.67574 -0.864219,0.906548zm2.59255 0.0412602c0,0 -0.0136821,0.494481 -0.342909,0.892759 -0.329226,0.398278 -0.49384,0.521845 -0.288073,0.67299 0.205767,0.151145 1.08377,0.013789 1.16597,-0.645519 0.0821997,-0.659308 -0.466475,-1.30483 -0.534993,-0.920231zm-2.48203 1.8472c-0.240079,0.0962025 -0.486999,0.233558 -0.459527,0.570053 0.0274712,0.336495 0.198819,0.569947 0.0959887,1.02327 -0.10283,0.453328 -0.342909,0.920337 -0.644664,1.25683 -0.301755,0.336495 -0.404585,0.549423 -0.637823,0.748563 -0.233238,0.199139 -0.130301,0.71425 0,0.961491 0.130301,0.24724 0.466368,-0.20598 0.644664,-0.528793 0.178295,-0.322813 1.08356,-0.934127 1.1385,-1.00275 0.0549423,-0.0686245 0.740866,-0.295235 0.809384,-0.707302 0.0685176,-0.412067 0.287966,-0.989069 0.322278,-1.00275 0.0343122,-0.0136821 0.459527,-0.631944 0.157772,-0.982121 -0.301755,-0.350177 -0.685817,-0.480692 -1.42658,-0.336495zm-7.10124 -17.9202l0.000106892 0.000213783c0,0 1.07854,1.69177 1.202,2.03522 0.12346,0.343443 0.123567,1.05769 -0.480051,0.892866 -0.603617,-0.164827 -0.864219,-0.357232 -1.59119,-0.673097 -0.712219,-0.309451 -1.48195,-0.906228 -1.51305,-0.930385l-0.000534458 -0.000427567 -0.000427567 -0.000534458 -2.12447 -2.29924c0.792602,-0.302397 0.808101,-0.433873 1.55175,-0.433873l1.37666 0 1.57922 1.40926zm-2.48523 1.74672c0.574436,0.522593 2.27455,1.34641 2.89174,1.62101 0.6173,0.274712 1.31691,0.521952 1.37174,0.824135 0.0548354,0.302183 -0.0274712,1.16758 -0.0274712,1.16758 0,0 0.713288,0.892866 0.589828,-0.329654 -0.12346,-1.22252 -0.864006,-4.40907 -2.46898,-5.64527 -0.652894,-0.502819 -0.858233,-0.650543 -0.87106,-0.650115 -1.67157,-1.17955 -4.46305,-2.13217 -5.83939,-2.59426 -0.569305,-0.191015 -4.59239,-0.566098 -5.14555,-0.525693 -2.67774,0.195719 -1.6891,1.32375 -4.1878,1.32375l-0.804039 0.758076c-0.640709,0.6747 -1.31006,1.52962 -1.95366,2.43211 2.14296,-0.0768551 3.15095,-1.70268 4.96042,-2.91472l1.6658 0.182037c0.854385,-2.05799 3.36848,0.469896 4.11629,0.644236 0.181716,2.18369 3.44277,3.15897 5.70214,3.70679zm-8.42478 -1.27714c-0.0686245,0.0824135 -0.205873,0.384596 -0.192084,0.686779 0.013789,0.302183 0.41164,0.741828 0.685924,0.233558 0.274284,-0.50827 -0.150931,-1.19494 -0.49384,-0.920337zm31.755 41.6592l-1.12482 -0.480692c0,0 -0.658453,0.0274712 -1.28943,-0.604366 -0.630982,-0.631837 -0.781913,-1.19505 -1.17966,-1.24999 -0.397744,-0.0549423 -0.576146,-0.274605 -0.178295,0.453328 0.397851,0.727932 1.48141,1.77173 1.68718,2.06023 0.205767,0.288501 0.287966,0.343443 0.384062,1.30493 0.0960956,0.961491 0.0138959,1.35966 0.343015,1.51081 0.32912,0.151145 0.740759,-0.137249 0.809277,-0.659201 0.0685176,-0.521952 0.356591,-1.00264 1.27565,-1.01643 0.919055,-0.013789 3.49782,-0.576788 3.66243,-1.90919 0.164613,-1.3324 -0.548568,-1.92298 -0.32912,-2.52735 0.219449,-0.604366 0.397851,-0.63173 0.0411533,-0.782875 -0.356698,-0.151145 -0.452686,-0.357232 -0.6173,0.260923 -0.164613,0.618155 -1.3168,2.40378 -1.63234,2.6647 -0.315544,0.260923 -0.905266,1.29104 -1.85179,0.975173zm-0.164613 -3.57114c-0.164613,-0.0549423 -0.932737,-0.315865 -0.85043,0.109885 0.0823066,0.42575 0.72697,0.865288 1.02873,0.920231 0.301755,0.0549423 0.946633,-0.233451 1.27575,-1.11253 0.32912,-0.879077 -0.603511,-2.11528 -1.50888,-2.08781 -0.905373,0.0274712 -0.932844,0.439432 -0.521311,0.837817 0.411533,0.398385 1.37163,0.137356 1.38542,0.824135 0.013789,0.686779 -0.480051,0.75551 -0.809277,0.50827zm16.1176 5.26057c-0.0960956,-0.0274712 -0.630982,-0.576894 -0.740759,-0.24724 -0.109778,0.329654 0.205767,0.782982 0.452686,0.97528 0.24692,0.192298 1.28933,0.892653 1.53625,0.439432 0.24692,-0.453221 0.397851,-1.24978 -0.178295,-1.34598 -0.576146,-0.0962025 -0.507522,1.01643 -1.06988,0.178509zm-1.37174 1.57954c-0.219449,-0.20598 -0.164613,-0.673097 -0.630982,-0.521952 -0.466368,0.151145 -0.274284,0.851713 -0.219449,1.03022 0.0548354,0.178509 0.905373,0.480799 1.22081,0.439539 0.315437,-0.0412602 0.370273,-0.123567 0.191977,-0.576894 -0.178295,-0.453328 -0.72697,0.384596 -0.562357,-0.370914zm-78.5814 72.7259c0.160124,-0.687634 0.727505,-3.10927 1.20093,-3.48093 0.325806,-0.255685 2.75513,-1.75206 2.92915,-1.75206l1.37666 0c0.743646,0 0.759145,0.131477 1.37666,0.275353l0 2.20336c0,1.09425 -1.10131,0.833862 -1.10131,1.92801l0 1.65255 -1.09062 -0.309131c0.100371,-1.30162 0.53991,-1.69274 0.53991,-3.27142 0,-0.385879 -0.375404,-0.550813 -0.825952,-0.550813 -0.70121,0 -1.35592,1.27073 -1.37677,2.20336 -0.43056,-0.49555 -0.32912,-0.826273 -1.10131,-0.826273 -0.847117,0 -0.0512011,1.4269 -1.92736,1.92801zm15.1436 -5.23299c0.332754,0.497046 0.550706,0.484112 0.550706,1.10163l0 2.20336 -0.150824 1.64068 -0.65546 0.338633 0.577963 0.423398 -1.42369 0.0761069 0 0.550813 -0.550706 0 -0.55402 -1.09959 -0.238262 -1.93549 -0.283477 -0.225007 -1.31915 1.43021 -0.358515 0.177333c-0.077924,-0.334571 -0.752518,-2.39897 -0.918413,-2.66171 -0.638999,-1.01173 -1.55955,-0.761069 -1.55955,-1.74501l0 -0.275353c0,-1.84271 0.293738,-3.88851 1.37666,-4.68218 1.55549,1.04187 0.791426,2.99917 3.30402,4.68218l2.20272 0zm-14.5929 -4.13136c0,-0.634616 0.19155,-0.826273 0.825952,-0.826273l2.47807 0c0.700782,0 1.26923,0.936264 1.92736,1.37709l0.147938 2.19256 -0.698644 0.0107961 0 -0.550813 -1.96574 0.750273c-0.579139,-0.0678762 -0.594638,-0.19946 -1.33828,-0.19946 -0.385879,0 -0.550706,0.375511 -0.550706,0.826273l0 1.10173 -0.825952 0 0 -4.68218zm37.446 -53.9825c0,-1.46057 0.915634,-4.68218 2.20272,-4.68218l0.825952 0c0.327944,1.22851 2.56112,4.95753 4.13008,4.95753l0.275353 0c0.689665,0 2.06376,-1.37709 2.75342,-1.37709l0.550706 0c0.634402,0 0.825952,0.191657 0.825952,0.826273l0 0.27546c0,2.46685 -4.51532,5.17067 -6.22665,6.44076 -1.34053,0.994841 -6.22323,5.82207 -6.71419,5.95312l0 -3.02963c0,-1.79215 1.00243,-2.68865 1.36212,-4.42125 0.475347,-2.28994 0.0145373,-2.51741 0.0145373,-4.94299zm33.5393 -9.17697l-1.58638 0.937333 0.322813 2.44654 -0.061142 0.835465c0,0.977631 -0.98148,1.29841 -1.92736,1.37709l0 0.55092 3.02867 0c-0.243713,0.673631 -0.316506,0.826273 -1.37666,0.826273l-3.30402 0c-1.82485,0 -1.43278,-1.77622 -3.30413,-3.02974 -1.96916,1.31904 -2.20838,0.736804 -4.95603,1.37719l1.41557 -2.17706 -0.0389086 -2.50511c-1.3804,0.924613 -1.92063,3.30498 -4.13008,3.30498 -0.146228,0 -0.604259,-0.396675 -0.825952,-0.550813 0,-2.84653 -1.10141,-3.83581 -1.10141,-4.40672l0 -0.550813c0,-1.21322 1.56789,-2.30437 2.91216,-2.59544 2.32372,-0.503032 2.0985,-0.798374 3.14529,-2.3622l-0.766948 -0.885277 1.0423 -2.41971c2.18305,-0.508804 5.04956,-2.20347 6.05745,-2.20347 1.59568,0 5.50674,7.04961 5.50674,7.98727l0 0.550813c0,0.777851 -0.63173,1.06261 -1.10131,1.37709l1.3386 2.05873 -0.289249 0.0566526zm-39.046 -39.5727c-0.961598,-0.224045 -0.927179,-0.550813 -1.92736,-0.550813l-1.10141 0c-1.3912,0 -2.25178,0.704202 -2.8027,1.51797l-1.60273 0.68539c0.176799,0.738622 0.275353,0.519173 0.275353,1.10173 0,0.913924 -0.550599,0.57497 -0.550599,1.10163 0,0.736591 0.397423,0.814622 0.785333,1.07565l1.70375 -2.78731 1.91229 0.327409 1.93132 -1.09446c1.50707,0 2.01662,-0.0430774 1.37677,-1.37719zm57.4014 130.37c-1.10686,0.0131477 -2.0597,0.501429 -2.1544,1.63993l1.14257 0.123887 -0.631837 0.184709 0.426925 0.825738 0.478875 1.65297 -0.586942 0.780416 -2.4817 -0.813553 0.019775 -1.15304 0.806284 0.326768 0 -1.10163 -0.188236 0.228428 -2.36936 -1.83854 1.15924 2.17247 -0.0258678 0.294487 -4.07674 -0.841772 -0.831831 0.260281 0 0.55092 0.235269 -0.188236 2.19374 3.07666 -1.78188 -0.624247 -0.647122 0.765451c0.845193,1.2625 -0.257716,2.8477 1.92736,3.02963 -0.406082,-0.846582 0.012827,-2.75428 1.10141,-2.75428l0.825952 0 0 -0.550813c1.70439,0.141845 1.37602,1.12867 2.20272,0l-0.826059 0 0.019775 -0.499505 0.797626 -0.27065 2.48673 0.219342 1.65201 0 0.0126132 -1.14994 -1.11392 -0.227145 0.0398706 -0.931989 1.61214 0.656529c0.738301,-0.176799 0.518959,-0.27546 1.10131,-0.27546 2.15355,0 2.68298,1.77472 3.57938,0.55092l-1.10131 0 0 -0.55092 2.75342 0c1.05267,0 0.100158,-0.0845513 0.825952,0.27546l0 -0.550813 1.10141 -0.0688383 1.37666 0.0688383 0.826059 0 -0.0277918 -0.453221 -2.72296 -0.910717 -1.65468 0.262205c-0.413457,-1.54886 -0.851927,-0.604152 -1.86355,-1.05128l-1.16523 1.60209c-1.4937,-1.09478 0.657918,-2.25499 -1.82176,-1.80219l-1.75762 -0.951977 0 -1.10173 -1.16149 0.01582 0.287218 1.09853zm-26.6044 -111.96c0,0 -1.399,0.439646 -2.57876,1.4285 -1.17976,0.988855 -2.67496,2.06034 -2.78464,2.93931 -0.109671,0.87897 0.836855,1.01643 2.57887,0.700461 1.74201,-0.315972 2.18091,-0.686672 2.67475,-0.755404 0.49384,-0.0687314 0.685924,-0.494481 0.603617,-0.879077 -0.0823066,-0.384596 -0.356698,0.0687314 -1.02883,0.0274712 -0.672135,-0.0412602 -1.63234,-0.247347 -0.672135,-1.31862 0.960208,-1.07127 2.12618,-2.00529 3.10007,-2.11517 0.97389,-0.109885 2.04388,-0.508163 1.89294,-1.00264 -0.150931,-0.494481 -1.50888,-0.728039 -2.26332,-0.164827 -0.754442,0.563212 -0.932737,1.16747 -1.52257,1.14zm3.00398 2.60965c-0.301755,0.013789 -1.26196,0.0549423 -1.64603,0.521952 -0.384062,0.46701 0.0549423,1.01643 0.6173,0.824135 0.562357,-0.192298 0.452579,-0.67299 1.48141,-0.604366 1.02883,0.0686245 0.740759,-0.329654 0.754442,-0.439539 0.0136821,-0.109885 -0.521204,-0.370807 -1.20713,-0.302183zm0.315544 2.21148c0,0 -1.59119,-0.260923 -3.36067,0.796664 -1.76949,1.05759 -3.18238,2.51356 -3.18238,2.51356 0,0 -0.672242,0.714143 0.137142,0.563105 0.809384,-0.151038 4.41698,-2.11528 4.84219,-2.12896 0.425215,-0.0136821 0.850323,-0.137356 1.20702,0.384596 0.356698,0.521952 2.46898,0.42575 2.64739,0.302183 0.178402,-0.123567 0.493947,-0.673097 -0.20566,-0.961491 -0.699606,-0.288394 -1.00147,-0.0412602 -1.56383,-0.0824135 -0.562357,-0.0411533 -0.822959,-0.425857 -0.658346,-0.686779 0.164613,-0.260923 0.521204,-0.782875 0.137142,-0.700461zm19.9446 25.7396l0.521204 3.84586c0,0 0.137142,0.686779 0.713288,0.769193 0.576146,0.0824135 0.93263,-0.274712 0.768124,-1.40103 -0.164506,-1.12632 -0.630875,-2.85689 -1.12471,-3.15908 -0.49384,-0.302183 -0.603617,-0.384596 -0.877901,-0.0549423zm-51.3018 -13.845c-0.191977,0 -0.32912,-0.0684107 -0.740653,-0.192084 -0.411533,-0.123674 -0.343015,0.013789 -0.864219,0.0824135 -0.521204,0.0686245 -0.562464,0.013789 -0.960208,-0.137356 -0.397744,-0.151145 -0.630982,-0.0687314 -0.97389,-0.0412602 -0.342909,0.0274712 -0.72697,0.357232 -0.603511,0.810453 0.12346,0.453221 0.699499,0.178616 0.809277,0.0549423 0.109778,-0.123674 0.315437,0.0412602 0.685817,0.24724 0.37038,0.20598 1.08367,0.0549423 1.61866,0.0824135 0.534993,0.0274712 0.521204,0.3707 1.01504,0.411961 0.49384,0.0412602 0.713288,-0.0549423 0.97389,0.24724 0.260602,0.302183 0.631089,0.590683 0.987679,0.618155 0.356591,0.0274712 0.905266,-0.576894 1.01504,-0.71425 0.109778,-0.137356 0.685817,-0.247347 1.27565,-0.0962025 0.589828,0.151145 0.905373,-0.12346 0.905373,-0.384489 0,-0.26103 -0.192084,-0.810453 -1.00136,-1.00275 -0.809277,-0.192298 -0.905373,-0.398278 -1.28943,-0.67299 -0.384062,-0.274712 -0.603404,-0.728039 -1.37163,-0.315972 -0.768231,0.412067 -0.507522,0.97528 -1.48152,1.00254zm0.534993 3.66745c-0.630982,-0.384489 -0.891477,-0.604259 -1.45394,-0.549316 -0.562464,0.0549423 -0.822959,0.343229 -0.754442,0.769086 0.0685176,0.425857 0.507522,0.782875 1.26196,0.93402 0.754442,0.151145 0.891691,0.384703 1.46773,0.645626 0.576039,0.260923 1.27565,-0.178509 1.70086,-0.0549423 0.425215,0.123567 0.809277,0.137356 1.0562,-0.0274712 0.24692,-0.164827 0.877901,0.260923 1.12482,0.178509 0.24692,-0.0824135 0.438897,-0.0823066 0.466368,-0.590577 0.0274712,-0.50827 0.013789,-0.782982 -0.562357,-0.837924 -0.576146,-0.0549423 -1.11103,-0.233558 -1.59119,0.0274712 -0.480157,0.26103 -0.85043,0.686886 -1.34427,0.535741 -0.49384,-0.151145 -0.6173,-1.12632 -1.37174,-1.03022zm-1.45394 2.9531c-0.260709,-0.219769 -0.356698,-0.329654 -0.480157,-0.618048 -0.12346,-0.288394 -0.452686,-0.75551 -0.49384,-0.906548 -0.0411533,-0.151038 0.32912,-0.590683 0.630982,-0.164827 0.301862,0.425857 0.452793,0.782982 0.562464,1.03022 0.109671,0.24724 0.24692,0.604259 -0.219449,0.659201zm3.47035 -0.315865c-0.24692,0.0549423 -1.06977,-0.164827 -0.740653,0.494481 0.32912,0.659308 0.809277,0.480692 0.822959,1.03012 0.0136821,0.549423 0.12346,1.67574 -0.630982,1.64827 -0.754442,-0.0274712 -1.26196,-0.50827 -1.68718,-0.769193 -0.425215,-0.260923 -0.343015,-0.851499 -0.740759,-0.865288 -0.397744,-0.013789 -0.644771,-0.178616 -0.589828,0.260923 0.0549423,0.439539 0.411533,1.75783 0.905373,2.38967 0.49384,0.631837 0.850323,1.15379 1.45394,1.34609 0.603617,0.192298 1.26196,-0.219769 1.45405,-1.18126 0.192084,-0.961491 0.356591,-1.53828 0.521204,-2.06023 0.164613,-0.521952 0.0549423,-0.93402 0.603617,-0.988962 0.548675,-0.0549423 1.04251,-0.357125 0.877901,-0.71425 -0.164613,-0.357125 -1.2346,-0.219769 -2.24964,-0.590363zm-8.62798 -31.2479c0,0 -0.315437,0.384703 -0.507522,0.563212 -0.192084,0.178509 -0.439004,0.315972 -0.356698,0.521952 0.0823066,0.20598 0.891477,0.590683 1.39911,0.549423 0.507629,-0.0412602 0.727077,-0.384596 0.727077,-0.93402 0,-0.549423 -0.836748,-0.865288 -1.26196,-0.700568zm-21.7964 107.711l0.301755 1.0439c0,0 -1.2346,0.412067 -2.16734,0.109885 -0.932737,-0.302183 -2.03009,0.329654 -2.1947,0.329654 -0.164613,0 -1.17955,-0.329654 -1.61855,-0.46701 -0.439004,-0.137356 -0.439004,-0.631837 0.274284,-0.576894 0.713288,0.0549423 2.90799,-0.0549423 3.56644,-0.164827 0.658453,-0.109885 1.83811,-0.274712 1.83811,-0.274712zm-0.397851 -1.88065c-0.630982,0.109885 -2.05756,0.123674 -2.52393,0.109885 -0.466368,-0.013789 -1.15219,0.453221 -1.19334,0.837817 -0.0411533,0.384596 0.0821997,0.714143 1.06988,0.260923 0.987679,-0.453221 2.04377,-0.590577 2.56508,-0.645519 0.521311,-0.0549423 0.466368,-0.508163 0.0823066,-0.563105zm-5.39076 -2.12896c-0.233238,0 -1.15219,-0.151038 -1.3168,0.137356 -0.164613,0.288394 -0.16472,1.00254 0.370273,1.18115 0.534993,0.178616 0.630982,-0.137356 1.00136,0.329654 0.37038,0.46701 1.33059,0.370807 1.82443,0.192298 0.49384,-0.178509 1.17966,-0.494481 1.52257,-0.357125 0.342909,0.137356 0.343015,-0.137249 0.864219,-0.151038 0.521204,-0.013789 1.23449,0.0823066 1.70086,-0.0962025 0.466368,-0.178509 0.919055,-0.59047 0.836748,-1.09874 -0.0823066,-0.50827 -0.754335,-0.934127 -1.27565,-0.398385 -0.521311,0.535741 -0.960101,1.49723 -1.30312,1.2362 -0.343015,-0.26103 -0.205873,-1.09874 -0.809384,-1.19494 -0.603511,-0.0962025 -0.548568,0.494374 -1.11103,0.535634 -0.562464,0.0412602 -0.740759,-0.123674 -0.754442,-0.71425 -0.0136821,-0.590577 0.0823066,-0.892866 -0.342909,-0.906548 -0.425215,-0.0136821 -1.06999,-0.178616 -0.987679,0.439539 0.0823066,0.618155 0.137142,0.988962 -0.219449,0.865395zm-5.73378 -10.5501l-0.219449 10.8233c0,0 -0.960208,0.110312 -1.42658,-2.69164 -0.466368,-2.80195 0.109885,-5.87862 0.603617,-7.08735 0.493733,-1.20873 0.658346,-1.34598 1.04241,-1.04433zm17.5236 10.791c-0.154245,-0.0221266 -0.441035,-0.0883994 -0.507201,0.0440394 -0.0662728,0.132759 0.165468,0.596669 0.198605,0.685069 0.0331364,0.0883994 0.408219,0.342481 0.518425,-0.066166 0.110312,-0.408861 -0.110205,-0.552523 -0.209828,-0.662942zm1.959 -8.39431c-0.0274712,0.0205232 -0.113198,0.113412 -0.154352,0.216349 -0.0411533,0.102937 0.106464,0.188771 0.174982,0.151038 0.0685176,-0.0377328 0.260602,-0.4498 -0.0206301,-0.367387zm-2.83006 -2.68384c-0.0959887,-0.151038 -0.260709,-0.384596 -0.233238,-1.03012 0.0274712,-0.645519 0.205873,-1.12621 0.439004,-0.975173 0.233131,0.151038 0.219449,0.837817 0.630982,0.892759 0.411533,0.0549423 0.68571,-0.137463 0.946419,0.178509 0.260709,0.315972 0.37038,0.728039 0.397851,1.03022 0.0274712,0.302183 0.233238,0.796557 0.452686,1.01633 0.219449,0.219769 0.308917,0.640602 0.638143,0.736698 0.329226,0.0960956 -0.137249,0.611207 -0.349857,0.576894 -0.212608,-0.0343122 -0.301648,-0.295235 -0.370273,-0.556264 -0.0686245,-0.26103 -0.377221,-0.563212 -0.706447,-0.947809 -0.329226,-0.384596 -0.322385,-0.645626 -0.816225,-0.707409 -0.49384,-0.0617834 -0.49384,0.109885 -1.02905,-0.214639zm0.85043 1.09885c0,0 -0.24692,-0.178616 -0.425215,0.0686245 -0.178295,0.24724 -0.521204,0.329654 -0.562357,0.521952 -0.0411533,0.192298 -0.0412602,0.42575 0.233131,0.384596 0.274391,-0.0411533 0.795702,-0.26103 0.905373,-0.302183 0.109671,-0.0411533 0.219449,-0.315865 -0.150931,-0.67299zm-6.61157 0.645519c-0.12346,-0.109885 -0.342909,-1.01643 -0.12346,-1.44218 0.219449,-0.42575 0.0274712,-0.741615 0.0274712,-1.00264 0,-0.26103 0.479944,-0.30229 0.411426,0.151038 -0.0685176,0.453328 0.137142,0.93402 0.205767,1.12632 0.0686245,0.192298 -0.12346,0.178509 -0.137142,0.535634 -0.0136821,0.357125 0.178295,0.673097 0.0548354,0.728039 -0.12346,0.0549423 -0.329226,0.0686245 -0.438897,-0.0962025zm4.96555 12.8974c-0.192084,-0.0274712 -0.548675,-0.109885 -0.630982,0.0549423 -0.0823066,0.164827 0.205767,0.741721 0.24692,0.851606 0.0411533,0.109885 0.507522,0.42575 0.644664,-0.0824135 0.137142,-0.508163 -0.137142,-0.686779 -0.260602,-0.824135z"/>
  </g>
 </g>
</svg>
